solid
 facet normal -1.000000e+00  0.000000e+00  1.480297e-15
   outer loop
     vertex -3.250000e+00  2.300000e+00  2.000000e+00
     vertex -3.250000e+00 -2.300000e+00  2.000000e+00
     vertex -3.250000e+00 -2.300000e+00  2.300000e+00
   endloop
 endfacet
 facet normal -1.000000e+00  0.000000e+00  1.480297e-15
   outer loop
     vertex -3.250000e+00  2.300000e+00  2.300000e+00
     vertex -3.250000e+00  2.300000e+00  2.000000e+00
     vertex -3.250000e+00 -2.300000e+00  2.300000e+00
   endloop
 endfacet
 facet normal  0.000000e+00 -1.000000e+00 -0.000000e+00
   outer loop
     vertex -3.250000e+00 -2.300000e+00  2.300000e+00
     vertex -3.250000e+00 -2.300000e+00  2.000000e+00
     vertex  3.250000e+00 -2.300000e+00  2.000000e+00
   endloop
 endfacet
 facet normal  0.000000e+00 -1.000000e+00  0.000000e+00
   outer loop
     vertex -3.250000e+00 -2.300000e+00  2.300000e+00
     vertex  3.250000e+00 -2.300000e+00  2.000000e+00
     vertex  3.250000e+00 -2.300000e+00  2.300000e+00
   endloop
 endfacet
 facet normal -9.920376e-01  0.000000e+00 -1.259423e-01
   outer loop
     vertex -3.250000e+00  2.300000e+00  2.000000e+00
     vertex -3.087500e+00 -2.137500e+00  7.200000e-01
     vertex -3.250000e+00 -2.300000e+00  2.000000e+00
   endloop
 endfacet
 facet normal -9.920376e-01 -0.000000e+00 -1.259423e-01
   outer loop
     vertex -3.087500e+00  2.137500e+00  7.200000e-01
     vertex -3.087500e+00 -2.137500e+00  7.200000e-01
     vertex -3.250000e+00  2.300000e+00  2.000000e+00
   endloop
 endfacet
 facet normal -9.954625e-01  0.000000e+00  9.515451e-02
   outer loop
     vertex -3.250000e+00 -2.300000e+00  2.300000e+00
     vertex -3.087500e+00 -2.137500e+00  4.000000e+00
     vertex -3.250000e+00  2.300000e+00  2.300000e+00
   endloop
 endfacet
 facet normal -9.954625e-01  0.000000e+00  9.515451e-02
   outer loop
     vertex -3.250000e+00  2.300000e+00  2.300000e+00
     vertex -3.087500e+00 -2.137500e+00  4.000000e+00
     vertex -3.087500e+00  2.137500e+00  4.000000e+00
   endloop
 endfacet
 facet normal  0.000000e+00  1.000000e+00 -0.000000e+00
   outer loop
     vertex  3.250000e+00  2.300000e+00  2.000000e+00
     vertex -3.250000e+00  2.300000e+00  2.000000e+00
     vertex -3.250000e+00  2.300000e+00  2.300000e+00
   endloop
 endfacet
 facet normal  0.000000e+00  1.000000e+00  0.000000e+00
   outer loop
     vertex  3.250000e+00  2.300000e+00  2.300000e+00
     vertex  3.250000e+00  2.300000e+00  2.000000e+00
     vertex -3.250000e+00  2.300000e+00  2.300000e+00
   endloop
 endfacet
 facet normal  1.000000e+00 -0.000000e+00  0.000000e+00
   outer loop
     vertex  3.250000e+00 -2.300000e+00  2.300000e+00
     vertex  3.250000e+00 -2.300000e+00  2.000000e+00
     vertex  3.250000e+00  2.300000e+00  2.000000e+00
   endloop
 endfacet
 facet normal  1.000000e+00 -0.000000e+00  0.000000e+00
   outer loop
     vertex  3.250000e+00 -2.300000e+00  2.300000e+00
     vertex  3.250000e+00  2.300000e+00  2.000000e+00
     vertex  3.250000e+00  2.300000e+00  2.300000e+00
   endloop
 endfacet
 facet normal  0.000000e+00 -9.920376e-01 -1.259423e-01
   outer loop
     vertex -3.250000e+00 -2.300000e+00  2.000000e+00
     vertex -3.087500e+00 -2.137500e+00  7.200000e-01
     vertex  3.250000e+00 -2.300000e+00  2.000000e+00
   endloop
 endfacet
 facet normal  0.000000e+00 -9.920376e-01 -1.259423e-01
   outer loop
     vertex  3.250000e+00 -2.300000e+00  2.000000e+00
     vertex -3.087500e+00 -2.137500e+00  7.200000e-01
     vertex  3.087500e+00 -2.137500e+00  7.200000e-01
   endloop
 endfacet
 facet normal  0.000000e+00 -9.954625e-01  9.515451e-02
   outer loop
     vertex  3.250000e+00 -2.300000e+00  2.300000e+00
     vertex -3.087500e+00 -2.137500e+00  4.000000e+00
     vertex -3.250000e+00 -2.300000e+00  2.300000e+00
   endloop
 endfacet
 facet normal  7.159096e-17 -9.954625e-01  9.515451e-02
   outer loop
     vertex  3.087500e+00 -2.137500e+00  4.000000e+00
     vertex -3.087500e+00 -2.137500e+00  4.000000e+00
     vertex  3.250000e+00 -2.300000e+00  2.300000e+00
   endloop
 endfacet
 facet normal  0.000000e+00  0.000000e+00 -1.000000e+00
   outer loop
     vertex -3.087500e+00 -2.137500e+00  7.200000e-01
     vertex -3.087500e+00  2.137500e+00  7.200000e-01
     vertex  3.087500e+00  2.137500e+00  7.200000e-01
   endloop
 endfacet
 facet normal  0.000000e+00  0.000000e+00 -1.000000e+00
   outer loop
     vertex  3.087500e+00 -2.137500e+00  7.200000e-01
     vertex -3.087500e+00 -2.137500e+00  7.200000e-01
     vertex  3.087500e+00  2.137500e+00  7.200000e-01
   endloop
 endfacet
 facet normal  0.000000e+00  9.920376e-01 -1.259423e-01
   outer loop
     vertex  3.250000e+00  2.300000e+00  2.000000e+00
     vertex -3.087500e+00  2.137500e+00  7.200000e-01
     vertex -3.250000e+00  2.300000e+00  2.000000e+00
   endloop
 endfacet
 facet normal  0.000000e+00  9.920376e-01 -1.259423e-01
   outer loop
     vertex  3.087500e+00  2.137500e+00  7.200000e-01
     vertex -3.087500e+00  2.137500e+00  7.200000e-01
     vertex  3.250000e+00  2.300000e+00  2.000000e+00
   endloop
 endfacet
 facet normal  3.495102e-16  0.000000e+00  1.000000e+00
   outer loop
     vertex -5.462910e-01  1.698566e+00  4.000000e+00
     vertex -3.087500e+00  2.137500e+00  4.000000e+00
     vertex -3.087500e+00 -2.137500e+00  4.000000e+00
   endloop
 endfacet
 facet normal  4.216672e-16  4.177534e-16  1.000000e+00
   outer loop
     vertex -6.065015e-01  1.759341e+00  4.000000e+00
     vertex -3.087500e+00  2.137500e+00  4.000000e+00
     vertex -5.462910e-01  1.698566e+00  4.000000e+00
   endloop
 endfacet
 facet normal  1.226865e-16  1.502597e-16  1.000000e+00
   outer loop
     vertex -4.800240e-01  1.644460e+00  4.000000e+00
     vertex -5.462910e-01  1.698566e+00  4.000000e+00
     vertex -3.087500e+00 -2.137500e+00  4.000000e+00
   endloop
 endfacet
 facet normal  4.077831e-16  3.266636e-16  1.000000e+00
   outer loop
     vertex -6.599880e-01  1.826110e+00  4.000000e+00
     vertex -3.087500e+00  2.137500e+00  4.000000e+00
     vertex -6.065015e-01  1.759341e+00  4.000000e+00
   endloop
 endfacet
 facet normal  1.058891e-16  1.618407e-16  1.000000e+00
   outer loop
     vertex -4.084352e-01  1.597621e+00  4.000000e+00
     vertex -4.800240e-01  1.644460e+00  4.000000e+00
     vertex -3.087500e+00 -2.137500e+00  4.000000e+00
   endloop
 endfacet
 facet normal  3.986622e-16  2.555597e-16  1.000000e+00
   outer loop
     vertex -7.061575e-01  1.898132e+00  4.000000e+00
     vertex -3.087500e+00  2.137500e+00  4.000000e+00
     vertex -6.599880e-01  1.826110e+00  4.000000e+00
   endloop
 endfacet
 facet normal  8.918142e-17  1.738245e-16  1.000000e+00
   outer loop
     vertex -3.323182e-01  1.558568e+00  4.000000e+00
     vertex -4.084352e-01  1.597621e+00  4.000000e+00
     vertex -3.087500e+00 -2.137500e+00  4.000000e+00
   endloop
 endfacet
 facet normal  3.927664e-16  1.969058e-16  1.000000e+00
   outer loop
     vertex -7.444982e-01  1.974610e+00  4.000000e+00
     vertex -3.087500e+00  2.137500e+00  4.000000e+00
     vertex -7.061575e-01  1.898132e+00  4.000000e+00
   endloop
 endfacet
 facet normal  7.208361e-17  1.865699e-16  1.000000e+00
   outer loop
     vertex -2.525170e-01  1.527736e+00  4.000000e+00
     vertex -3.323182e-01  1.558568e+00  4.000000e+00
     vertex -3.087500e+00 -2.137500e+00  4.000000e+00
   endloop
 endfacet
 facet normal  3.892435e-16  1.462325e-16  1.000000e+00
   outer loop
     vertex -7.745849e-01  2.054695e+00  4.000000e+00
     vertex -3.087500e+00  2.137500e+00  4.000000e+00
     vertex -7.444982e-01  1.974610e+00  4.000000e+00
   endloop
 endfacet
 facet normal  5.406069e-17  2.005102e-16  1.000000e+00
   outer loop
     vertex -1.699162e-01  1.505466e+00  4.000000e+00
     vertex -2.525170e-01  1.527736e+00  4.000000e+00
     vertex -3.087500e+00 -2.137500e+00  4.000000e+00
   endloop
 endfacet
 facet normal  3.876112e-16  1.006385e-16  1.000000e+00
   outer loop
     vertex -7.960842e-01  2.137500e+00  4.000000e+00
     vertex -3.087500e+00  2.137500e+00  4.000000e+00
     vertex -7.745849e-01  2.054695e+00  4.000000e+00
   endloop
 endfacet
 facet normal  3.445174e-17  2.162147e-16  1.000000e+00
   outer loop
     vertex -8.543169e-02  1.492004e+00  4.000000e+00
     vertex -1.699162e-01  1.505466e+00  4.000000e+00
     vertex -3.087500e+00 -2.137500e+00  4.000000e+00
   endloop
 endfacet
 facet normal -1.762079e-32  2.450147e-16  1.000000e+00
   outer loop
     vertex -1.492538e-16  1.487500e+00  4.000000e+00
     vertex -3.087500e+00 -2.137500e+00  4.000000e+00
     vertex  3.087500e+00 -2.137500e+00  4.000000e+00
   endloop
 endfacet
 facet normal  1.236196e-17  2.344858e-16  1.000000e+00
   outer loop
     vertex -1.492538e-16  1.487500e+00  4.000000e+00
     vertex -8.543169e-02  1.492004e+00  4.000000e+00
     vertex -3.087500e+00 -2.137500e+00  4.000000e+00
   endloop
 endfacet
 facet normal -1.236196e-17  2.344858e-16  1.000000e+00
   outer loop
     vertex  8.543169e-02  1.492004e+00  4.000000e+00
     vertex -1.492538e-16  1.487500e+00  4.000000e+00
     vertex  3.087500e+00 -2.137500e+00  4.000000e+00
   endloop
 endfacet
 facet normal -3.445174e-17  2.162147e-16  1.000000e+00
   outer loop
     vertex  1.699162e-01  1.505466e+00  4.000000e+00
     vertex  8.543169e-02  1.492004e+00  4.000000e+00
     vertex  3.087500e+00 -2.137500e+00  4.000000e+00
   endloop
 endfacet
 facet normal -5.406069e-17  2.005102e-16  1.000000e+00
   outer loop
     vertex  2.525170e-01  1.527736e+00  4.000000e+00
     vertex  1.699162e-01  1.505466e+00  4.000000e+00
     vertex  3.087500e+00 -2.137500e+00  4.000000e+00
   endloop
 endfacet
 facet normal -7.208361e-17  1.865699e-16  1.000000e+00
   outer loop
     vertex  3.323182e-01  1.558568e+00  4.000000e+00
     vertex  2.525170e-01  1.527736e+00  4.000000e+00
     vertex  3.087500e+00 -2.137500e+00  4.000000e+00
   endloop
 endfacet
 facet normal -8.918142e-17  1.738245e-16  1.000000e+00
   outer loop
     vertex  4.084352e-01  1.597621e+00  4.000000e+00
     vertex  3.323182e-01  1.558568e+00  4.000000e+00
     vertex  3.087500e+00 -2.137500e+00  4.000000e+00
   endloop
 endfacet
 facet normal -1.058891e-16  1.618407e-16  1.000000e+00
   outer loop
     vertex  4.800240e-01  1.644460e+00  4.000000e+00
     vertex  4.084352e-01  1.597621e+00  4.000000e+00
     vertex  3.087500e+00 -2.137500e+00  4.000000e+00
   endloop
 endfacet
 facet normal -1.226865e-16  1.502597e-16  1.000000e+00
   outer loop
     vertex  5.462910e-01  1.698566e+00  4.000000e+00
     vertex  4.800240e-01  1.644460e+00  4.000000e+00
     vertex  3.087500e+00 -2.137500e+00  4.000000e+00
   endloop
 endfacet
 facet normal -4.216672e-16  4.177534e-16  1.000000e+00
   outer loop
     vertex  3.087500e+00  2.137500e+00  4.000000e+00
     vertex  6.065015e-01  1.759341e+00  4.000000e+00
     vertex  5.462910e-01  1.698566e+00  4.000000e+00
   endloop
 endfacet
 facet normal -4.077831e-16  3.266636e-16  1.000000e+00
   outer loop
     vertex  3.087500e+00  2.137500e+00  4.000000e+00
     vertex  6.599880e-01  1.826110e+00  4.000000e+00
     vertex  6.065015e-01  1.759341e+00  4.000000e+00
   endloop
 endfacet
 facet normal -3.986622e-16  2.555597e-16  1.000000e+00
   outer loop
     vertex  3.087500e+00  2.137500e+00  4.000000e+00
     vertex  7.061575e-01  1.898132e+00  4.000000e+00
     vertex  6.599880e-01  1.826110e+00  4.000000e+00
   endloop
 endfacet
 facet normal -3.927664e-16  1.969058e-16  1.000000e+00
   outer loop
     vertex  3.087500e+00  2.137500e+00  4.000000e+00
     vertex  7.444982e-01  1.974610e+00  4.000000e+00
     vertex  7.061575e-01  1.898132e+00  4.000000e+00
   endloop
 endfacet
 facet normal -3.892435e-16  1.462325e-16  1.000000e+00
   outer loop
     vertex  3.087500e+00  2.137500e+00  4.000000e+00
     vertex  7.745849e-01  2.054695e+00  4.000000e+00
     vertex  7.444982e-01  1.974610e+00  4.000000e+00
   endloop
 endfacet
 facet normal -3.876112e-16  1.006385e-16  1.000000e+00
   outer loop
     vertex  3.087500e+00  2.137500e+00  4.000000e+00
     vertex  7.960842e-01  2.137500e+00  4.000000e+00
     vertex  7.745849e-01  2.054695e+00  4.000000e+00
   endloop
 endfacet
 facet normal -3.495102e-16  0.000000e+00  1.000000e+00
   outer loop
     vertex  3.087500e+00  2.137500e+00  4.000000e+00
     vertex  5.462910e-01  1.698566e+00  4.000000e+00
     vertex  3.087500e+00 -2.137500e+00  4.000000e+00
   endloop
 endfacet
 facet normal  4.897941e-17  9.954625e-01  9.515451e-02
   outer loop
     vertex -3.250000e+00  2.300000e+00  2.300000e+00
     vertex -3.087500e+00  2.137500e+00  4.000000e+00
     vertex -8.029412e-01  2.175735e+00  3.600000e+00
   endloop
 endfacet
 facet normal  6.210522e-15  9.954625e-01  9.515451e-02
   outer loop
     vertex -8.029412e-01  2.175735e+00  3.600000e+00
     vertex -3.087500e+00  2.137500e+00  4.000000e+00
     vertex -7.960842e-01  2.137500e+00  4.000000e+00
   endloop
 endfacet
 facet normal -0.000000e+00  9.954625e-01  9.515451e-02
   outer loop
     vertex -8.029412e-01  2.175735e+00  3.600000e+00
     vertex  8.029412e-01  2.175735e+00  3.600000e+00
     vertex  3.250000e+00  2.300000e+00  2.300000e+00
   endloop
 endfacet
 facet normal  0.000000e+00  9.954625e-01  9.515451e-02
   outer loop
     vertex -3.250000e+00  2.300000e+00  2.300000e+00
     vertex -8.029412e-01  2.175735e+00  3.600000e+00
     vertex  3.250000e+00  2.300000e+00  2.300000e+00
   endloop
 endfacet
 facet normal -6.210522e-15  9.954625e-01  9.515451e-02
   outer loop
     vertex  8.029412e-01  2.175735e+00  3.600000e+00
     vertex  7.960842e-01  2.137500e+00  4.000000e+00
     vertex  3.087500e+00  2.137500e+00  4.000000e+00
   endloop
 endfacet
 facet normal -4.897941e-17  9.954625e-01  9.515451e-02
   outer loop
     vertex  3.250000e+00  2.300000e+00  2.300000e+00
     vertex  8.029412e-01  2.175735e+00  3.600000e+00
     vertex  3.087500e+00  2.137500e+00  4.000000e+00
   endloop
 endfacet
 facet normal  9.920376e-01  0.000000e+00 -1.259423e-01
   outer loop
     vertex  3.250000e+00 -2.300000e+00  2.000000e+00
     vertex  3.087500e+00 -2.137500e+00  7.200000e-01
     vertex  3.250000e+00  2.300000e+00  2.000000e+00
   endloop
 endfacet
 facet normal  9.920376e-01  0.000000e+00 -1.259423e-01
   outer loop
     vertex  3.250000e+00  2.300000e+00  2.000000e+00
     vertex  3.087500e+00 -2.137500e+00  7.200000e-01
     vertex  3.087500e+00  2.137500e+00  7.200000e-01
   endloop
 endfacet
 facet normal  9.954625e-01  0.000000e+00  9.515451e-02
   outer loop
     vertex  3.250000e+00  2.300000e+00  2.300000e+00
     vertex  3.087500e+00 -2.137500e+00  4.000000e+00
     vertex  3.250000e+00 -2.300000e+00  2.300000e+00
   endloop
 endfacet
 facet normal  9.954625e-01  0.000000e+00  9.515451e-02
   outer loop
     vertex  3.087500e+00  2.137500e+00  4.000000e+00
     vertex  3.087500e+00 -2.137500e+00  4.000000e+00
     vertex  3.250000e+00  2.300000e+00  2.300000e+00
   endloop
 endfacet
 facet normal -3.603980e-01  9.327974e-01 -1.483601e-03
   outer loop
     vertex  3.200874e-01  1.553207e+00  3.600000e+00
     vertex  2.525170e-01  1.527736e+00  4.000000e+00
     vertex  3.323182e-01  1.558568e+00  4.000000e+00
   endloop
 endfacet
 facet normal -4.399518e-01  8.980203e-01  1.415073e-03
   outer loop
     vertex  3.939193e-01  1.589378e+00  3.600000e+00
     vertex  3.200874e-01  1.553207e+00  3.600000e+00
     vertex  3.323182e-01  1.558568e+00  4.000000e+00
   endloop
 endfacet
 facet normal -4.564806e-01  8.897316e-01 -1.768829e-03
   outer loop
     vertex  3.939193e-01  1.589378e+00  3.600000e+00
     vertex  3.323182e-01  1.558568e+00  4.000000e+00
     vertex  4.084352e-01  1.597621e+00  4.000000e+00
   endloop
 endfacet
 facet normal -5.284527e-01  8.489611e-01  1.683162e-03
   outer loop
     vertex  4.637177e-01  1.632825e+00  3.600000e+00
     vertex  3.939193e-01  1.589378e+00  3.600000e+00
     vertex  4.084352e-01  1.597621e+00  4.000000e+00
   endloop
 endfacet
 facet normal  9.792284e-01  2.027439e-01  2.593489e-03
   outer loop
     vertex -7.862723e-01  2.095227e+00  3.600000e+00
     vertex -8.029412e-01  2.175735e+00  3.600000e+00
     vertex -7.960842e-01  2.137500e+00  4.000000e+00
   endloop
 endfacet
 facet normal -5.475023e-01  8.368018e-01 -2.019778e-03
   outer loop
     vertex  4.637177e-01  1.632825e+00  3.600000e+00
     vertex  4.084352e-01  1.597621e+00  4.000000e+00
     vertex  4.800240e-01  1.644460e+00  4.000000e+00
   endloop
 endfacet
 facet normal -6.115425e-01  7.912092e-01  1.916970e-03
   outer loop
     vertex  5.287680e-01  1.683104e+00  3.600000e+00
     vertex  4.637177e-01  1.632825e+00  3.600000e+00
     vertex  4.800240e-01  1.644460e+00  4.000000e+00
   endloop
 endfacet
 facet normal  9.537259e-01  3.006663e-01  2.599728e-03
   outer loop
     vertex -7.615526e-01  2.016815e+00  3.600000e+00
     vertex -7.862723e-01  2.095227e+00  3.600000e+00
     vertex -7.745849e-01  2.054695e+00  4.000000e+00
   endloop
 endfacet
 facet normal  9.679040e-01  2.513043e-01 -2.816320e-03
   outer loop
     vertex -7.862723e-01  2.095227e+00  3.600000e+00
     vertex -7.960842e-01  2.137500e+00  4.000000e+00
     vertex -7.745849e-01  2.054695e+00  4.000000e+00
   endloop
 endfacet
 facet normal -6.324540e-01  7.745947e-01 -2.236443e-03
   outer loop
     vertex  5.287680e-01  1.683104e+00  3.600000e+00
     vertex  4.800240e-01  1.644460e+00  4.000000e+00
     vertex  5.462910e-01  1.698566e+00  4.000000e+00
   endloop
 endfacet
 facet normal -6.883706e-01  7.253561e-01  2.116492e-03
   outer loop
     vertex  5.884041e-01  1.739699e+00  3.600000e+00
     vertex  5.287680e-01  1.683104e+00  3.600000e+00
     vertex  5.462910e-01  1.698566e+00  4.000000e+00
   endloop
 endfacet
 facet normal  9.184580e-01  3.955101e-01  2.571670e-03
   outer loop
     vertex -7.290352e-01  1.941302e+00  3.600000e+00
     vertex -7.615526e-01  2.016815e+00  3.600000e+00
     vertex -7.444982e-01  1.974610e+00  4.000000e+00
   endloop
 endfacet
 facet normal  9.361149e-01  3.516832e-01 -2.805411e-03
   outer loop
     vertex -7.615526e-01  2.016815e+00  3.600000e+00
     vertex -7.745849e-01  2.054695e+00  4.000000e+00
     vertex -7.444982e-01  1.974610e+00  4.000000e+00
   endloop
 endfacet
 facet normal -7.103939e-01  7.038002e-01 -2.418821e-03
   outer loop
     vertex  5.884041e-01  1.739699e+00  3.600000e+00
     vertex  5.462910e-01  1.698566e+00  4.000000e+00
     vertex  6.065015e-01  1.759341e+00  4.000000e+00
   endloop
 endfacet
 facet normal -7.581503e-01  6.520759e-01  2.281725e-03
   outer loop
     vertex  6.420154e-01  1.802032e+00  3.600000e+00
     vertex  5.884041e-01  1.739699e+00  3.600000e+00
     vertex  6.065015e-01  1.759341e+00  4.000000e+00
   endloop
 endfacet
 facet normal  8.737860e-01  4.863042e-01  2.509316e-03
   outer loop
     vertex -6.890530e-01  1.869463e+00  3.600000e+00
     vertex -7.290352e-01  1.941302e+00  3.600000e+00
     vertex -7.061575e-01  1.898132e+00  4.000000e+00
   endloop
 endfacet
 facet normal  8.939475e-01  4.481632e-01 -2.760205e-03
   outer loop
     vertex -7.290352e-01  1.941302e+00  3.600000e+00
     vertex -7.444982e-01  1.974610e+00  4.000000e+00
     vertex -7.061575e-01  1.898132e+00  4.000000e+00
   endloop
 endfacet
 facet normal -7.804579e-01  6.252030e-01 -2.566909e-03
   outer loop
     vertex  6.420154e-01  1.802032e+00  3.600000e+00
     vertex  6.065015e-01  1.759341e+00  4.000000e+00
     vertex  6.599880e-01  1.826110e+00  4.000000e+00
   endloop
 endfacet
 facet normal -8.201670e-01  5.721191e-01  2.412668e-03
   outer loop
     vertex  6.890530e-01  1.869463e+00  3.600000e+00
     vertex  6.420154e-01  1.802032e+00  3.600000e+00
     vertex  6.599880e-01  1.826110e+00  4.000000e+00
   endloop
 endfacet
 facet normal  8.201670e-01  5.721191e-01  2.412668e-03
   outer loop
     vertex -6.420154e-01  1.802032e+00  3.600000e+00
     vertex -6.890530e-01  1.869463e+00  3.600000e+00
     vertex -6.599880e-01  1.826110e+00  4.000000e+00
   endloop
 endfacet
 facet normal  8.418694e-01  5.396746e-01 -2.680704e-03
   outer loop
     vertex -6.890530e-01  1.869463e+00  3.600000e+00
     vertex -7.061575e-01  1.898132e+00  4.000000e+00
     vertex -6.599880e-01  1.826110e+00  4.000000e+00
   endloop
 endfacet
 facet normal -8.737860e-01  4.863042e-01  2.509316e-03
   outer loop
     vertex  7.290352e-01  1.941302e+00  3.600000e+00
     vertex  6.890530e-01  1.869463e+00  3.600000e+00
     vertex  7.061575e-01  1.898132e+00  4.000000e+00
   endloop
 endfacet
 facet normal -8.418694e-01  5.396746e-01 -2.680704e-03
   outer loop
     vertex  6.890530e-01  1.869463e+00  3.600000e+00
     vertex  6.599880e-01  1.826110e+00  4.000000e+00
     vertex  7.061575e-01  1.898132e+00  4.000000e+00
   endloop
 endfacet
 facet normal  7.581503e-01  6.520759e-01  2.281725e-03
   outer loop
     vertex -5.884041e-01  1.739699e+00  3.600000e+00
     vertex -6.420154e-01  1.802032e+00  3.600000e+00
     vertex -6.065015e-01  1.759341e+00  4.000000e+00
   endloop
 endfacet
 facet normal  7.804579e-01  6.252030e-01 -2.566909e-03
   outer loop
     vertex -6.420154e-01  1.802032e+00  3.600000e+00
     vertex -6.599880e-01  1.826110e+00  4.000000e+00
     vertex -6.065015e-01  1.759341e+00  4.000000e+00
   endloop
 endfacet
 facet normal -9.184580e-01  3.955101e-01  2.571670e-03
   outer loop
     vertex  7.615526e-01  2.016815e+00  3.600000e+00
     vertex  7.290352e-01  1.941302e+00  3.600000e+00
     vertex  7.444982e-01  1.974610e+00  4.000000e+00
   endloop
 endfacet
 facet normal -8.939475e-01  4.481632e-01 -2.760205e-03
   outer loop
     vertex  7.290352e-01  1.941302e+00  3.600000e+00
     vertex  7.061575e-01  1.898132e+00  4.000000e+00
     vertex  7.444982e-01  1.974610e+00  4.000000e+00
   endloop
 endfacet
 facet normal -9.537259e-01  3.006663e-01  2.599728e-03
   outer loop
     vertex  7.862723e-01  2.095227e+00  3.600000e+00
     vertex  7.615526e-01  2.016815e+00  3.600000e+00
     vertex  7.745849e-01  2.054695e+00  4.000000e+00
   endloop
 endfacet
 facet normal  6.883706e-01  7.253561e-01  2.116492e-03
   outer loop
     vertex -5.287680e-01  1.683104e+00  3.600000e+00
     vertex -5.884041e-01  1.739699e+00  3.600000e+00
     vertex -5.462910e-01  1.698566e+00  4.000000e+00
   endloop
 endfacet
 facet normal -9.361149e-01  3.516832e-01 -2.805411e-03
   outer loop
     vertex  7.615526e-01  2.016815e+00  3.600000e+00
     vertex  7.444982e-01  1.974610e+00  4.000000e+00
     vertex  7.745849e-01  2.054695e+00  4.000000e+00
   endloop
 endfacet
 facet normal  7.103939e-01  7.038002e-01 -2.418821e-03
   outer loop
     vertex -5.884041e-01  1.739699e+00  3.600000e+00
     vertex -6.065015e-01  1.759341e+00  4.000000e+00
     vertex -5.462910e-01  1.698566e+00  4.000000e+00
   endloop
 endfacet
 facet normal -9.792284e-01  2.027439e-01  2.593489e-03
   outer loop
     vertex  8.029412e-01  2.175735e+00  3.600000e+00
     vertex  7.862723e-01  2.095227e+00  3.600000e+00
     vertex  7.960842e-01  2.137500e+00  4.000000e+00
   endloop
 endfacet
 facet normal -9.679040e-01  2.513043e-01 -2.816320e-03
   outer loop
     vertex  7.862723e-01  2.095227e+00  3.600000e+00
     vertex  7.745849e-01  2.054695e+00  4.000000e+00
     vertex  7.960842e-01  2.137500e+00  4.000000e+00
   endloop
 endfacet
 facet normal  6.115425e-01  7.912092e-01  1.916970e-03
   outer loop
     vertex -4.637177e-01  1.632825e+00  3.600000e+00
     vertex -5.287680e-01  1.683104e+00  3.600000e+00
     vertex -4.800240e-01  1.644460e+00  4.000000e+00
   endloop
 endfacet
 facet normal  6.324540e-01  7.745947e-01 -2.236443e-03
   outer loop
     vertex -5.287680e-01  1.683104e+00  3.600000e+00
     vertex -5.462910e-01  1.698566e+00  4.000000e+00
     vertex -4.800240e-01  1.644460e+00  4.000000e+00
   endloop
 endfacet
 facet normal  5.284527e-01  8.489611e-01  1.683162e-03
   outer loop
     vertex -3.939193e-01  1.589378e+00  3.600000e+00
     vertex -4.637177e-01  1.632825e+00  3.600000e+00
     vertex -4.084352e-01  1.597621e+00  4.000000e+00
   endloop
 endfacet
 facet normal  5.475023e-01  8.368018e-01 -2.019778e-03
   outer loop
     vertex -4.637177e-01  1.632825e+00  3.600000e+00
     vertex -4.800240e-01  1.644460e+00  4.000000e+00
     vertex -4.084352e-01  1.597621e+00  4.000000e+00
   endloop
 endfacet
 facet normal  4.399518e-01  8.980203e-01  1.415073e-03
   outer loop
     vertex -3.200874e-01  1.553207e+00  3.600000e+00
     vertex -3.939193e-01  1.589378e+00  3.600000e+00
     vertex -3.323182e-01  1.558568e+00  4.000000e+00
   endloop
 endfacet
 facet normal  4.564806e-01  8.897316e-01 -1.768829e-03
   outer loop
     vertex -3.939193e-01  1.589378e+00  3.600000e+00
     vertex -4.084352e-01  1.597621e+00  4.000000e+00
     vertex -3.323182e-01  1.558568e+00  4.000000e+00
   endloop
 endfacet
 facet normal  3.469460e-01  9.378844e-01  1.112707e-03
   outer loop
     vertex -2.429782e-01  1.524682e+00  3.600000e+00
     vertex -3.200874e-01  1.553207e+00  3.600000e+00
     vertex -2.525170e-01  1.527736e+00  4.000000e+00
   endloop
 endfacet
 facet normal  3.603980e-01  9.327974e-01 -1.483601e-03
   outer loop
     vertex -3.200874e-01  1.553207e+00  3.600000e+00
     vertex -3.323182e-01  1.558568e+00  4.000000e+00
     vertex -2.525170e-01  1.527736e+00  4.000000e+00
   endloop
 endfacet
 facet normal  2.603198e-01  9.655218e-01 -1.164099e-03
   outer loop
     vertex -2.429782e-01  1.524682e+00  3.600000e+00
     vertex -2.525170e-01  1.527736e+00  4.000000e+00
     vertex -1.699162e-01  1.505466e+00  4.000000e+00
   endloop
 endfacet
 facet normal  2.503877e-01  9.681453e-01  7.760688e-04
   outer loop
     vertex -1.633809e-01  1.504096e+00  3.600000e+00
     vertex -2.429782e-01  1.524682e+00  3.600000e+00
     vertex -1.699162e-01  1.505466e+00  4.000000e+00
   endloop
 endfacet
 facet normal  1.573554e-01  9.875417e-01 -8.103268e-04
   outer loop
     vertex -1.633809e-01  1.504096e+00  3.600000e+00
     vertex -1.699162e-01  1.505466e+00  4.000000e+00
     vertex -8.543169e-02  1.492004e+00  4.000000e+00
   endloop
 endfacet
 facet normal  1.512656e-01  9.884931e-01  4.051644e-04
   outer loop
     vertex -8.211085e-02  1.491660e+00  3.600000e+00
     vertex -1.633809e-01  1.504096e+00  3.600000e+00
     vertex -8.543169e-02  1.492004e+00  4.000000e+00
   endloop
 endfacet
 facet normal  5.264635e-02  9.986131e-01 -4.222917e-04
   outer loop
     vertex -8.211085e-02  1.491660e+00  3.600000e+00
     vertex -8.543169e-02  1.492004e+00  4.000000e+00
     vertex -1.492538e-16  1.487500e+00  4.000000e+00
   endloop
 endfacet
 facet normal  5.059455e-02  9.987193e-01 -9.066212e-17
   outer loop
     vertex -8.708988e-16  1.487500e+00  3.600000e+00
     vertex -8.211085e-02  1.491660e+00  3.600000e+00
     vertex -1.492538e-16  1.487500e+00  4.000000e+00
   endloop
 endfacet
 facet normal -5.059455e-02  9.987193e-01  9.127826e-17
   outer loop
     vertex  8.211085e-02  1.491660e+00  3.600000e+00
     vertex -8.708988e-16  1.487500e+00  3.600000e+00
     vertex -1.492538e-16  1.487500e+00  4.000000e+00
   endloop
 endfacet
 facet normal -5.264635e-02  9.986131e-01 -4.222917e-04
   outer loop
     vertex  8.211085e-02  1.491660e+00  3.600000e+00
     vertex -1.492538e-16  1.487500e+00  4.000000e+00
     vertex  8.543169e-02  1.492004e+00  4.000000e+00
   endloop
 endfacet
 facet normal -1.512656e-01  9.884931e-01  4.051644e-04
   outer loop
     vertex  1.633809e-01  1.504096e+00  3.600000e+00
     vertex  8.211085e-02  1.491660e+00  3.600000e+00
     vertex  8.543169e-02  1.492004e+00  4.000000e+00
   endloop
 endfacet
 facet normal -1.573554e-01  9.875417e-01 -8.103268e-04
   outer loop
     vertex  1.633809e-01  1.504096e+00  3.600000e+00
     vertex  8.543169e-02  1.492004e+00  4.000000e+00
     vertex  1.699162e-01  1.505466e+00  4.000000e+00
   endloop
 endfacet
 facet normal -2.503877e-01  9.681453e-01  7.760688e-04
   outer loop
     vertex  2.429782e-01  1.524682e+00  3.600000e+00
     vertex  1.633809e-01  1.504096e+00  3.600000e+00
     vertex  1.699162e-01  1.505466e+00  4.000000e+00
   endloop
 endfacet
 facet normal -2.603198e-01  9.655218e-01 -1.164099e-03
   outer loop
     vertex  2.429782e-01  1.524682e+00  3.600000e+00
     vertex  1.699162e-01  1.505466e+00  4.000000e+00
     vertex  2.525170e-01  1.527736e+00  4.000000e+00
   endloop
 endfacet
 facet normal -3.469460e-01  9.378844e-01  1.112707e-03
   outer loop
     vertex  3.200874e-01  1.553207e+00  3.600000e+00
     vertex  2.429782e-01  1.524682e+00  3.600000e+00
     vertex  2.525170e-01  1.527736e+00  4.000000e+00
   endloop
 endfacet
 facet normal  0.000000e+00  0.000000e+00  1.000000e+00
   outer loop
     vertex -4.637177e-01  1.632825e+00  3.600000e+00
     vertex -5.884041e-01  1.739699e+00  3.600000e+00
     vertex -5.287680e-01  1.683104e+00  3.600000e+00
   endloop
 endfacet
 facet normal  0.000000e+00  0.000000e+00  1.000000e+00
   outer loop
     vertex -7.290352e-01  1.941302e+00  3.600000e+00
     vertex -6.890530e-01  1.869463e+00  3.600000e+00
     vertex -6.420154e-01  1.802032e+00  3.600000e+00
   endloop
 endfacet
 facet normal  0.000000e+00  0.000000e+00  1.000000e+00
   outer loop
     vertex -3.200874e-01  1.553207e+00  3.600000e+00
     vertex -4.637177e-01  1.632825e+00  3.600000e+00
     vertex -3.939193e-01  1.589378e+00  3.600000e+00
   endloop
 endfacet
 facet normal  0.000000e+00  0.000000e+00  1.000000e+00
   outer loop
     vertex -3.200874e-01  1.553207e+00  3.600000e+00
     vertex -5.884041e-01  1.739699e+00  3.600000e+00
     vertex -4.637177e-01  1.632825e+00  3.600000e+00
   endloop
 endfacet
 facet normal  0.000000e+00  0.000000e+00  1.000000e+00
   outer loop
     vertex -7.615526e-01  2.016815e+00  3.600000e+00
     vertex -6.420154e-01  1.802032e+00  3.600000e+00
     vertex -5.884041e-01  1.739699e+00  3.600000e+00
   endloop
 endfacet
 facet normal  0.000000e+00  0.000000e+00  1.000000e+00
   outer loop
     vertex -7.615526e-01  2.016815e+00  3.600000e+00
     vertex -7.290352e-01  1.941302e+00  3.600000e+00
     vertex -6.420154e-01  1.802032e+00  3.600000e+00
   endloop
 endfacet
 facet normal  0.000000e+00  0.000000e+00  1.000000e+00
   outer loop
     vertex -7.615526e-01  2.016815e+00  3.600000e+00
     vertex -5.884041e-01  1.739699e+00  3.600000e+00
     vertex -3.200874e-01  1.553207e+00  3.600000e+00
   endloop
 endfacet
 facet normal  0.000000e+00  0.000000e+00  1.000000e+00
   outer loop
     vertex -1.633809e-01  1.504096e+00  3.600000e+00
     vertex -3.200874e-01  1.553207e+00  3.600000e+00
     vertex -2.429782e-01  1.524682e+00  3.600000e+00
   endloop
 endfacet
 facet normal  0.000000e+00  0.000000e+00  1.000000e+00
   outer loop
     vertex -8.029412e-01  2.175735e+00  3.600000e+00
     vertex -7.862723e-01  2.095227e+00  3.600000e+00
     vertex -7.615526e-01  2.016815e+00  3.600000e+00
   endloop
 endfacet
 facet normal  0.000000e+00  0.000000e+00  1.000000e+00
   outer loop
     vertex -8.029412e-01  2.175735e+00  3.600000e+00
     vertex -7.615526e-01  2.016815e+00  3.600000e+00
     vertex -3.200874e-01  1.553207e+00  3.600000e+00
   endloop
 endfacet
 facet normal  0.000000e+00  0.000000e+00  1.000000e+00
   outer loop
     vertex -8.029412e-01  2.175735e+00  3.600000e+00
     vertex -3.200874e-01  1.553207e+00  3.600000e+00
     vertex -1.633809e-01  1.504096e+00  3.600000e+00
   endloop
 endfacet
 facet normal  0.000000e+00  0.000000e+00  1.000000e+00
   outer loop
     vertex -8.708988e-16  1.487500e+00  3.600000e+00
     vertex -1.633809e-01  1.504096e+00  3.600000e+00
     vertex -8.211085e-02  1.491660e+00  3.600000e+00
   endloop
 endfacet
 facet normal  0.000000e+00  0.000000e+00  1.000000e+00
   outer loop
     vertex -8.708988e-16  1.487500e+00  3.600000e+00
     vertex -8.029412e-01  2.175735e+00  3.600000e+00
     vertex -1.633809e-01  1.504096e+00  3.600000e+00
   endloop
 endfacet
 facet normal  0.000000e+00  0.000000e+00  1.000000e+00
   outer loop
     vertex  8.211085e-02  1.491660e+00  3.600000e+00
     vertex -8.029412e-01  2.175735e+00  3.600000e+00
     vertex -8.708988e-16  1.487500e+00  3.600000e+00
   endloop
 endfacet
 facet normal  0.000000e+00  0.000000e+00  1.000000e+00
   outer loop
     vertex  1.633809e-01  1.504096e+00  3.600000e+00
     vertex -8.029412e-01  2.175735e+00  3.600000e+00
     vertex  8.211085e-02  1.491660e+00  3.600000e+00
   endloop
 endfacet
 facet normal -0.000000e+00  0.000000e+00  1.000000e+00
   outer loop
     vertex  3.200874e-01  1.553207e+00  3.600000e+00
     vertex  1.633809e-01  1.504096e+00  3.600000e+00
     vertex  2.429782e-01  1.524682e+00  3.600000e+00
   endloop
 endfacet
 facet normal  0.000000e+00  0.000000e+00  1.000000e+00
   outer loop
     vertex  3.939193e-01  1.589378e+00  3.600000e+00
     vertex -8.029412e-01  2.175735e+00  3.600000e+00
     vertex  1.633809e-01  1.504096e+00  3.600000e+00
   endloop
 endfacet
 facet normal -0.000000e+00  0.000000e+00  1.000000e+00
   outer loop
     vertex  3.939193e-01  1.589378e+00  3.600000e+00
     vertex  1.633809e-01  1.504096e+00  3.600000e+00
     vertex  3.200874e-01  1.553207e+00  3.600000e+00
   endloop
 endfacet
 facet normal -0.000000e+00  0.000000e+00  1.000000e+00
   outer loop
     vertex  5.884041e-01  1.739699e+00  3.600000e+00
     vertex  3.939193e-01  1.589378e+00  3.600000e+00
     vertex  4.637177e-01  1.632825e+00  3.600000e+00
   endloop
 endfacet
 facet normal -0.000000e+00  0.000000e+00  1.000000e+00
   outer loop
     vertex  5.884041e-01  1.739699e+00  3.600000e+00
     vertex  4.637177e-01  1.632825e+00  3.600000e+00
     vertex  5.287680e-01  1.683104e+00  3.600000e+00
   endloop
 endfacet
 facet normal -0.000000e+00  0.000000e+00  1.000000e+00
   outer loop
     vertex  7.615526e-01  2.016815e+00  3.600000e+00
     vertex  5.884041e-01  1.739699e+00  3.600000e+00
     vertex  6.420154e-01  1.802032e+00  3.600000e+00
   endloop
 endfacet
 facet normal -0.000000e+00  0.000000e+00  1.000000e+00
   outer loop
     vertex  7.615526e-01  2.016815e+00  3.600000e+00
     vertex  6.420154e-01  1.802032e+00  3.600000e+00
     vertex  6.890530e-01  1.869463e+00  3.600000e+00
   endloop
 endfacet
 facet normal -0.000000e+00  0.000000e+00  1.000000e+00
   outer loop
     vertex  7.615526e-01  2.016815e+00  3.600000e+00
     vertex  6.890530e-01  1.869463e+00  3.600000e+00
     vertex  7.290352e-01  1.941302e+00  3.600000e+00
   endloop
 endfacet
 facet normal -0.000000e+00  0.000000e+00  1.000000e+00
   outer loop
     vertex  8.029412e-01  2.175735e+00  3.600000e+00
     vertex  7.615526e-01  2.016815e+00  3.600000e+00
     vertex  7.862723e-01  2.095227e+00  3.600000e+00
   endloop
 endfacet
 facet normal  0.000000e+00  0.000000e+00  1.000000e+00
   outer loop
     vertex  8.029412e-01  2.175735e+00  3.600000e+00
     vertex -8.029412e-01  2.175735e+00  3.600000e+00
     vertex  3.939193e-01  1.589378e+00  3.600000e+00
   endloop
 endfacet
 facet normal -0.000000e+00  0.000000e+00  1.000000e+00
   outer loop
     vertex  8.029412e-01  2.175735e+00  3.600000e+00
     vertex  3.939193e-01  1.589378e+00  3.600000e+00
     vertex  5.884041e-01  1.739699e+00  3.600000e+00
   endloop
 endfacet
 facet normal -0.000000e+00  0.000000e+00  1.000000e+00
   outer loop
     vertex  8.029412e-01  2.175735e+00  3.600000e+00
     vertex  5.884041e-01  1.739699e+00  3.600000e+00
     vertex  7.615526e-01  2.016815e+00  3.600000e+00
   endloop
 endfacet
 facet normal  1.000000e+00 -0.000000e+00  0.000000e+00
   outer loop
     vertex  3.960000e+00  1.570000e+00  0.000000e+00
     vertex  3.960000e+00  9.700000e-01 -3.500000e+00
     vertex  3.960000e+00  1.570000e+00 -3.500000e+00
   endloop
 endfacet
 facet normal  1.000000e+00  0.000000e+00  0.000000e+00
   outer loop
     vertex  3.960000e+00  9.700000e-01  0.000000e+00
     vertex  3.960000e+00  1.570000e+00  0.000000e+00
     vertex  3.960000e+00  1.870000e+00  3.000000e-01
   endloop
 endfacet
 facet normal  1.000000e+00 -0.000000e+00  0.000000e+00
   outer loop
     vertex  3.960000e+00  9.700000e-01  0.000000e+00
     vertex  3.960000e+00  9.700000e-01 -3.500000e+00
     vertex  3.960000e+00  1.570000e+00  0.000000e+00
   endloop
 endfacet
 facet normal  1.000000e+00 -0.000000e+00  0.000000e+00
   outer loop
     vertex  3.960000e+00  6.700000e-01  3.000000e-01
     vertex  3.960000e+00  9.700000e-01  0.000000e+00
     vertex  3.960000e+00  1.870000e+00  3.000000e-01
   endloop
 endfacet
 facet normal  1.000000e+00 -0.000000e+00  0.000000e+00
   outer loop
     vertex  3.960000e+00  6.700000e-01  2.150000e+00
     vertex  3.960000e+00  1.870000e+00  3.000000e-01
     vertex  3.960000e+00  1.870000e+00  2.150000e+00
   endloop
 endfacet
 facet normal  1.000000e+00 -0.000000e+00  0.000000e+00
   outer loop
     vertex  3.960000e+00  6.700000e-01  2.150000e+00
     vertex  3.960000e+00  6.700000e-01  3.000000e-01
     vertex  3.960000e+00  1.870000e+00  3.000000e-01
   endloop
 endfacet
 facet normal  0.000000e+00  1.000000e+00  0.000000e+00
   outer loop
     vertex  3.810000e+00  1.870000e+00  2.300000e+00
     vertex  3.848823e+00  1.870000e+00  2.294889e+00
     vertex  3.885000e+00  1.870000e+00  2.279904e+00
   endloop
 endfacet
 facet normal -0.000000e+00  1.000000e+00  0.000000e+00
   outer loop
     vertex  3.250000e+00  1.870000e+00  2.300000e+00
     vertex  3.810000e+00  1.870000e+00  2.300000e+00
     vertex  3.660000e+00  1.870000e+00  2.000000e+00
   endloop
 endfacet
 facet normal -0.000000e+00  1.000000e+00  0.000000e+00
   outer loop
     vertex  3.250000e+00  1.870000e+00  2.000000e+00
     vertex  3.250000e+00  1.870000e+00  2.300000e+00
     vertex  3.660000e+00  1.870000e+00  2.000000e+00
   endloop
 endfacet
 facet normal  0.000000e+00  1.000000e+00  0.000000e+00
   outer loop
     vertex  3.810000e+00  1.870000e+00  2.300000e+00
     vertex  3.885000e+00  1.870000e+00  2.279904e+00
     vertex  3.916066e+00  1.870000e+00  2.256066e+00
   endloop
 endfacet
 facet normal  0.000000e+00  1.000000e+00  0.000000e+00
   outer loop
     vertex  3.810000e+00  1.870000e+00  2.300000e+00
     vertex  3.916066e+00  1.870000e+00  2.256066e+00
     vertex  3.939904e+00  1.870000e+00  2.225000e+00
   endloop
 endfacet
 facet normal  0.000000e+00  1.000000e+00  0.000000e+00
   outer loop
     vertex  3.810000e+00  1.870000e+00  2.300000e+00
     vertex  3.939904e+00  1.870000e+00  2.225000e+00
     vertex  3.954889e+00  1.870000e+00  2.188823e+00
   endloop
 endfacet
 facet normal -0.000000e+00  1.000000e+00  0.000000e+00
   outer loop
     vertex  3.660000e+00  1.870000e+00  2.000000e+00
     vertex  3.810000e+00  1.870000e+00  2.300000e+00
     vertex  3.960000e+00  1.870000e+00  2.150000e+00
   endloop
 endfacet
 facet normal  0.000000e+00  1.000000e+00  0.000000e+00
   outer loop
     vertex  3.810000e+00  1.870000e+00  2.300000e+00
     vertex  3.954889e+00  1.870000e+00  2.188823e+00
     vertex  3.960000e+00  1.870000e+00  2.150000e+00
   endloop
 endfacet
 facet normal -0.000000e+00  1.000000e+00  0.000000e+00
   outer loop
     vertex  3.660000e+00  1.870000e+00  3.000000e-01
     vertex  3.660000e+00  1.870000e+00  2.000000e+00
     vertex  3.960000e+00  1.870000e+00  3.000000e-01
   endloop
 endfacet
 facet normal -0.000000e+00  1.000000e+00  0.000000e+00
   outer loop
     vertex  3.660000e+00  1.870000e+00  2.000000e+00
     vertex  3.960000e+00  1.870000e+00  2.150000e+00
     vertex  3.960000e+00  1.870000e+00  3.000000e-01
   endloop
 endfacet
 facet normal  9.914449e-01  0.000000e+00  1.305262e-01
   outer loop
     vertex  3.954889e+00  6.700000e-01  2.188823e+00
     vertex  3.960000e+00  6.700000e-01  2.150000e+00
     vertex  3.954889e+00  1.870000e+00  2.188823e+00
   endloop
 endfacet
 facet normal  9.914449e-01 -0.000000e+00  1.305262e-01
   outer loop
     vertex  3.960000e+00  6.700000e-01  2.150000e+00
     vertex  3.960000e+00  1.870000e+00  2.150000e+00
     vertex  3.954889e+00  1.870000e+00  2.188823e+00
   endloop
 endfacet
 facet normal  9.238795e-01  0.000000e+00  3.826834e-01
   outer loop
     vertex  3.939904e+00  6.700000e-01  2.225000e+00
     vertex  3.954889e+00  6.700000e-01  2.188823e+00
     vertex  3.939904e+00  1.870000e+00  2.225000e+00
   endloop
 endfacet
 facet normal  7.933533e-01 -0.000000e+00  6.087614e-01
   outer loop
     vertex  3.916066e+00  6.700000e-01  2.256066e+00
     vertex  3.939904e+00  6.700000e-01  2.225000e+00
     vertex  3.939904e+00  1.870000e+00  2.225000e+00
   endloop
 endfacet
 facet normal  9.238795e-01 -0.000000e+00  3.826834e-01
   outer loop
     vertex  3.954889e+00  6.700000e-01  2.188823e+00
     vertex  3.954889e+00  1.870000e+00  2.188823e+00
     vertex  3.939904e+00  1.870000e+00  2.225000e+00
   endloop
 endfacet
 facet normal  6.087614e-01 -0.000000e+00  7.933533e-01
   outer loop
     vertex  3.885000e+00  6.700000e-01  2.279904e+00
     vertex  3.916066e+00  6.700000e-01  2.256066e+00
     vertex  3.916066e+00  1.870000e+00  2.256066e+00
   endloop
 endfacet
 facet normal  7.933533e-01  0.000000e+00  6.087614e-01
   outer loop
     vertex  3.916066e+00  6.700000e-01  2.256066e+00
     vertex  3.939904e+00  1.870000e+00  2.225000e+00
     vertex  3.916066e+00  1.870000e+00  2.256066e+00
   endloop
 endfacet
 facet normal  6.087614e-01  0.000000e+00  7.933533e-01
   outer loop
     vertex  3.885000e+00  6.700000e-01  2.279904e+00
     vertex  3.916066e+00  1.870000e+00  2.256066e+00
     vertex  3.885000e+00  1.870000e+00  2.279904e+00
   endloop
 endfacet
 facet normal  3.826834e-01  0.000000e+00  9.238795e-01
   outer loop
     vertex  3.848823e+00  6.700000e-01  2.294889e+00
     vertex  3.885000e+00  6.700000e-01  2.279904e+00
     vertex  3.848823e+00  1.870000e+00  2.294889e+00
   endloop
 endfacet
 facet normal  1.305262e-01 -0.000000e+00  9.914449e-01
   outer loop
     vertex  3.810000e+00  6.700000e-01  2.300000e+00
     vertex  3.848823e+00  6.700000e-01  2.294889e+00
     vertex  3.848823e+00  1.870000e+00  2.294889e+00
   endloop
 endfacet
 facet normal  3.826834e-01 -0.000000e+00  9.238795e-01
   outer loop
     vertex  3.885000e+00  6.700000e-01  2.279904e+00
     vertex  3.885000e+00  1.870000e+00  2.279904e+00
     vertex  3.848823e+00  1.870000e+00  2.294889e+00
   endloop
 endfacet
 facet normal  1.305262e-01  0.000000e+00  9.914449e-01
   outer loop
     vertex  3.810000e+00  6.700000e-01  2.300000e+00
     vertex  3.848823e+00  1.870000e+00  2.294889e+00
     vertex  3.810000e+00  1.870000e+00  2.300000e+00
   endloop
 endfacet
 facet normal  0.000000e+00  7.071068e-01 -7.071068e-01
   outer loop
     vertex  3.660000e+00  1.570000e+00  0.000000e+00
     vertex  3.660000e+00  1.870000e+00  3.000000e-01
     vertex  3.960000e+00  1.870000e+00  3.000000e-01
   endloop
 endfacet
 facet normal  0.000000e+00  7.071068e-01 -7.071068e-01
   outer loop
     vertex  3.660000e+00  1.570000e+00  0.000000e+00
     vertex  3.960000e+00  1.870000e+00  3.000000e-01
     vertex  3.960000e+00  1.570000e+00  0.000000e+00
   endloop
 endfacet
 facet normal  0.000000e+00 -1.000000e+00  0.000000e+00
   outer loop
     vertex  3.660000e+00  6.700000e-01  3.000000e-01
     vertex  3.960000e+00  6.700000e-01  3.000000e-01
     vertex  3.660000e+00  6.700000e-01  2.000000e+00
   endloop
 endfacet
 facet normal  0.000000e+00 -1.000000e+00  0.000000e+00
   outer loop
     vertex  3.250000e+00  6.700000e-01  2.300000e+00
     vertex  3.250000e+00  6.700000e-01  2.000000e+00
     vertex  3.660000e+00  6.700000e-01  2.000000e+00
   endloop
 endfacet
 facet normal  0.000000e+00 -1.000000e+00  0.000000e+00
   outer loop
     vertex  3.660000e+00  6.700000e-01  2.000000e+00
     vertex  3.960000e+00  6.700000e-01  3.000000e-01
     vertex  3.960000e+00  6.700000e-01  2.150000e+00
   endloop
 endfacet
 facet normal  0.000000e+00 -1.000000e+00  0.000000e+00
   outer loop
     vertex  3.250000e+00  6.700000e-01  2.300000e+00
     vertex  3.660000e+00  6.700000e-01  2.000000e+00
     vertex  3.810000e+00  6.700000e-01  2.300000e+00
   endloop
 endfacet
 facet normal  0.000000e+00 -1.000000e+00  0.000000e+00
   outer loop
     vertex  3.660000e+00  6.700000e-01  2.000000e+00
     vertex  3.960000e+00  6.700000e-01  2.150000e+00
     vertex  3.810000e+00  6.700000e-01  2.300000e+00
   endloop
 endfacet
 facet normal  0.000000e+00 -1.000000e+00  0.000000e+00
   outer loop
     vertex  3.960000e+00  6.700000e-01  2.150000e+00
     vertex  3.954889e+00  6.700000e-01  2.188823e+00
     vertex  3.939904e+00  6.700000e-01  2.225000e+00
   endloop
 endfacet
 facet normal -0.000000e+00 -1.000000e+00 -0.000000e+00
   outer loop
     vertex  3.848823e+00  6.700000e-01  2.294889e+00
     vertex  3.810000e+00  6.700000e-01  2.300000e+00
     vertex  3.885000e+00  6.700000e-01  2.279904e+00
   endloop
 endfacet
 facet normal  0.000000e+00 -1.000000e+00  0.000000e+00
   outer loop
     vertex  3.810000e+00  6.700000e-01  2.300000e+00
     vertex  3.960000e+00  6.700000e-01  2.150000e+00
     vertex  3.916066e+00  6.700000e-01  2.256066e+00
   endloop
 endfacet
 facet normal  0.000000e+00 -1.000000e+00  0.000000e+00
   outer loop
     vertex  3.960000e+00  6.700000e-01  2.150000e+00
     vertex  3.939904e+00  6.700000e-01  2.225000e+00
     vertex  3.916066e+00  6.700000e-01  2.256066e+00
   endloop
 endfacet
 facet normal -0.000000e+00 -1.000000e+00 -0.000000e+00
   outer loop
     vertex  3.885000e+00  6.700000e-01  2.279904e+00
     vertex  3.810000e+00  6.700000e-01  2.300000e+00
     vertex  3.916066e+00  6.700000e-01  2.256066e+00
   endloop
 endfacet
 facet normal  0.000000e+00  1.000000e+00  0.000000e+00
   outer loop
     vertex  3.660000e+00  1.570000e+00 -3.500000e+00
     vertex  3.660000e+00  1.570000e+00  0.000000e+00
     vertex  3.960000e+00  1.570000e+00  0.000000e+00
   endloop
 endfacet
 facet normal -0.000000e+00  1.000000e+00  0.000000e+00
   outer loop
     vertex  3.660000e+00  1.570000e+00 -3.500000e+00
     vertex  3.960000e+00  1.570000e+00  0.000000e+00
     vertex  3.960000e+00  1.570000e+00 -3.500000e+00
   endloop
 endfacet
 facet normal  0.000000e+00 -7.071068e-01 -7.071068e-01
   outer loop
     vertex  3.660000e+00  6.700000e-01  3.000000e-01
     vertex  3.660000e+00  9.700000e-01  0.000000e+00
     vertex  3.960000e+00  9.700000e-01  0.000000e+00
   endloop
 endfacet
 facet normal  0.000000e+00 -7.071068e-01 -7.071068e-01
   outer loop
     vertex  3.660000e+00  6.700000e-01  3.000000e-01
     vertex  3.960000e+00  9.700000e-01  0.000000e+00
     vertex  3.960000e+00  6.700000e-01  3.000000e-01
   endloop
 endfacet
 facet normal  0.000000e+00  0.000000e+00 -1.000000e+00
   outer loop
     vertex  3.660000e+00  9.700000e-01 -3.500000e+00
     vertex  3.660000e+00  1.570000e+00 -3.500000e+00
     vertex  3.960000e+00  1.570000e+00 -3.500000e+00
   endloop
 endfacet
 facet normal  0.000000e+00  0.000000e+00 -1.000000e+00
   outer loop
     vertex  3.660000e+00  9.700000e-01 -3.500000e+00
     vertex  3.960000e+00  1.570000e+00 -3.500000e+00
     vertex  3.960000e+00  9.700000e-01 -3.500000e+00
   endloop
 endfacet
 facet normal  0.000000e+00 -1.000000e+00 -3.172066e-17
   outer loop
     vertex  3.960000e+00  9.700000e-01  0.000000e+00
     vertex  3.660000e+00  9.700000e-01 -3.500000e+00
     vertex  3.960000e+00  9.700000e-01 -3.500000e+00
   endloop
 endfacet
 facet normal  0.000000e+00 -1.000000e+00 -3.172066e-17
   outer loop
     vertex  3.660000e+00  9.700000e-01  0.000000e+00
     vertex  3.660000e+00  9.700000e-01 -3.500000e+00
     vertex  3.960000e+00  9.700000e-01  0.000000e+00
   endloop
 endfacet
 facet normal  0.000000e+00 -0.000000e+00  1.000000e+00
   outer loop
     vertex  3.250000e+00  6.700000e-01  2.300000e+00
     vertex  3.810000e+00  6.700000e-01  2.300000e+00
     vertex  3.250000e+00  1.870000e+00  2.300000e+00
   endloop
 endfacet
 facet normal  0.000000e+00 -0.000000e+00  1.000000e+00
   outer loop
     vertex  3.810000e+00  6.700000e-01  2.300000e+00
     vertex  3.810000e+00  1.870000e+00  2.300000e+00
     vertex  3.250000e+00  1.870000e+00  2.300000e+00
   endloop
 endfacet
 facet normal -1.000000e+00  0.000000e+00  0.000000e+00
   outer loop
     vertex  3.250000e+00  1.870000e+00  2.000000e+00
     vertex  3.250000e+00  6.700000e-01  2.000000e+00
     vertex  3.250000e+00  6.700000e-01  2.300000e+00
   endloop
 endfacet
 facet normal -1.000000e+00 -0.000000e+00 -0.000000e+00
   outer loop
     vertex  3.250000e+00  1.870000e+00  2.300000e+00
     vertex  3.250000e+00  1.870000e+00  2.000000e+00
     vertex  3.250000e+00  6.700000e-01  2.300000e+00
   endloop
 endfacet
 facet normal  0.000000e+00  0.000000e+00 -1.000000e+00
   outer loop
     vertex  3.660000e+00  6.700000e-01  2.000000e+00
     vertex  3.250000e+00  6.700000e-01  2.000000e+00
     vertex  3.250000e+00  1.870000e+00  2.000000e+00
   endloop
 endfacet
 facet normal  0.000000e+00  0.000000e+00 -1.000000e+00
   outer loop
     vertex  3.660000e+00  6.700000e-01  2.000000e+00
     vertex  3.250000e+00  1.870000e+00  2.000000e+00
     vertex  3.660000e+00  1.870000e+00  2.000000e+00
   endloop
 endfacet
 facet normal -1.000000e+00 -0.000000e+00  0.000000e+00
   outer loop
     vertex  3.660000e+00  1.870000e+00  3.000000e-01
     vertex  3.660000e+00  1.570000e+00  0.000000e+00
     vertex  3.660000e+00  9.700000e-01  0.000000e+00
   endloop
 endfacet
 facet normal -1.000000e+00 -0.000000e+00 -0.000000e+00
   outer loop
     vertex  3.660000e+00  1.570000e+00  0.000000e+00
     vertex  3.660000e+00  1.570000e+00 -3.500000e+00
     vertex  3.660000e+00  9.700000e-01  0.000000e+00
   endloop
 endfacet
 facet normal -1.000000e+00  0.000000e+00  0.000000e+00
   outer loop
     vertex  3.660000e+00  1.570000e+00 -3.500000e+00
     vertex  3.660000e+00  9.700000e-01 -3.500000e+00
     vertex  3.660000e+00  9.700000e-01  0.000000e+00
   endloop
 endfacet
 facet normal -1.000000e+00 -0.000000e+00  0.000000e+00
   outer loop
     vertex  3.660000e+00  1.870000e+00  3.000000e-01
     vertex  3.660000e+00  9.700000e-01  0.000000e+00
     vertex  3.660000e+00  6.700000e-01  3.000000e-01
   endloop
 endfacet
 facet normal -1.000000e+00 -0.000000e+00 -0.000000e+00
   outer loop
     vertex  3.660000e+00  1.870000e+00  2.000000e+00
     vertex  3.660000e+00  1.870000e+00  3.000000e-01
     vertex  3.660000e+00  6.700000e-01  2.000000e+00
   endloop
 endfacet
 facet normal -1.000000e+00  0.000000e+00  0.000000e+00
   outer loop
     vertex  3.660000e+00  1.870000e+00  3.000000e-01
     vertex  3.660000e+00  6.700000e-01  3.000000e-01
     vertex  3.660000e+00  6.700000e-01  2.000000e+00
   endloop
 endfacet
 facet normal -1.000000e+00  0.000000e+00  0.000000e+00
   outer loop
     vertex -3.960000e+00  1.870000e+00  3.000000e-01
     vertex -3.960000e+00  6.700000e-01  2.150000e+00
     vertex -3.960000e+00  1.870000e+00  2.150000e+00
   endloop
 endfacet
 facet normal -1.000000e+00  0.000000e+00  0.000000e+00
   outer loop
     vertex -3.960000e+00  6.700000e-01  3.000000e-01
     vertex -3.960000e+00  6.700000e-01  2.150000e+00
     vertex -3.960000e+00  1.870000e+00  3.000000e-01
   endloop
 endfacet
 facet normal -1.000000e+00  0.000000e+00 -0.000000e+00
   outer loop
     vertex -3.960000e+00  9.700000e-01  0.000000e+00
     vertex -3.960000e+00  1.870000e+00  3.000000e-01
     vertex -3.960000e+00  1.570000e+00  0.000000e+00
   endloop
 endfacet
 facet normal -1.000000e+00  0.000000e+00  0.000000e+00
   outer loop
     vertex -3.960000e+00  9.700000e-01  0.000000e+00
     vertex -3.960000e+00  6.700000e-01  3.000000e-01
     vertex -3.960000e+00  1.870000e+00  3.000000e-01
   endloop
 endfacet
 facet normal -1.000000e+00  0.000000e+00  0.000000e+00
   outer loop
     vertex -3.960000e+00  1.570000e+00 -3.500000e+00
     vertex -3.960000e+00  9.700000e-01  0.000000e+00
     vertex -3.960000e+00  1.570000e+00  0.000000e+00
   endloop
 endfacet
 facet normal -1.000000e+00  0.000000e+00  0.000000e+00
   outer loop
     vertex -3.960000e+00  9.700000e-01 -3.500000e+00
     vertex -3.960000e+00  9.700000e-01  0.000000e+00
     vertex -3.960000e+00  1.570000e+00 -3.500000e+00
   endloop
 endfacet
 facet normal  0.000000e+00 -1.000000e+00 -0.000000e+00
   outer loop
     vertex -3.954889e+00  6.700000e-01  2.188823e+00
     vertex -3.960000e+00  6.700000e-01  2.150000e+00
     vertex -3.939904e+00  6.700000e-01  2.225000e+00
   endloop
 endfacet
 facet normal  3.400683e-16 -1.000000e+00 -6.001206e-17
   outer loop
     vertex -3.960000e+00  6.700000e-01  2.150000e+00
     vertex -3.960000e+00  6.700000e-01  3.000000e-01
     vertex -3.660000e+00  6.700000e-01  2.000000e+00
   endloop
 endfacet
 facet normal  0.000000e+00 -1.000000e+00  0.000000e+00
   outer loop
     vertex -3.960000e+00  6.700000e-01  3.000000e-01
     vertex -3.660000e+00  6.700000e-01  3.000000e-01
     vertex -3.660000e+00  6.700000e-01  2.000000e+00
   endloop
 endfacet
 facet normal  0.000000e+00 -1.000000e+00 -0.000000e+00
   outer loop
     vertex -3.916066e+00  6.700000e-01  2.256066e+00
     vertex -3.939904e+00  6.700000e-01  2.225000e+00
     vertex -3.885000e+00  6.700000e-01  2.279904e+00
   endloop
 endfacet
 facet normal  0.000000e+00 -1.000000e+00 -0.000000e+00
   outer loop
     vertex -3.848823e+00  6.700000e-01  2.294889e+00
     vertex -3.885000e+00  6.700000e-01  2.279904e+00
     vertex -3.810000e+00  6.700000e-01  2.300000e+00
   endloop
 endfacet
 facet normal  0.000000e+00 -1.000000e+00 -0.000000e+00
   outer loop
     vertex -3.885000e+00  6.700000e-01  2.279904e+00
     vertex -3.939904e+00  6.700000e-01  2.225000e+00
     vertex -3.810000e+00  6.700000e-01  2.300000e+00
   endloop
 endfacet
 facet normal  0.000000e+00 -1.000000e+00 -0.000000e+00
   outer loop
     vertex -3.939904e+00  6.700000e-01  2.225000e+00
     vertex -3.960000e+00  6.700000e-01  2.150000e+00
     vertex -3.810000e+00  6.700000e-01  2.300000e+00
   endloop
 endfacet
 facet normal  2.467162e-16 -1.000000e+00 -2.467162e-16
   outer loop
     vertex -3.960000e+00  6.700000e-01  2.150000e+00
     vertex -3.660000e+00  6.700000e-01  2.000000e+00
     vertex -3.810000e+00  6.700000e-01  2.300000e+00
   endloop
 endfacet
 facet normal  0.000000e+00 -1.000000e+00  0.000000e+00
   outer loop
     vertex -3.660000e+00  6.700000e-01  2.000000e+00
     vertex -3.250000e+00  6.700000e-01  2.000000e+00
     vertex -3.250000e+00  6.700000e-01  2.300000e+00
   endloop
 endfacet
 facet normal  1.982541e-16 -1.000000e+00 -2.709473e-16
   outer loop
     vertex -3.810000e+00  6.700000e-01  2.300000e+00
     vertex -3.660000e+00  6.700000e-01  2.000000e+00
     vertex -3.250000e+00  6.700000e-01  2.300000e+00
   endloop
 endfacet
 facet normal -9.914449e-01  0.000000e+00  1.305262e-01
   outer loop
     vertex -3.954889e+00  1.870000e+00  2.188823e+00
     vertex -3.960000e+00  1.870000e+00  2.150000e+00
     vertex -3.960000e+00  6.700000e-01  2.150000e+00
   endloop
 endfacet
 facet normal -9.914449e-01  0.000000e+00  1.305262e-01
   outer loop
     vertex -3.954889e+00  1.870000e+00  2.188823e+00
     vertex -3.960000e+00  6.700000e-01  2.150000e+00
     vertex -3.954889e+00  6.700000e-01  2.188823e+00
   endloop
 endfacet
 facet normal -9.238795e-01  0.000000e+00  3.826834e-01
   outer loop
     vertex -3.939904e+00  1.870000e+00  2.225000e+00
     vertex -3.954889e+00  1.870000e+00  2.188823e+00
     vertex -3.939904e+00  6.700000e-01  2.225000e+00
   endloop
 endfacet
 facet normal -7.933533e-01  0.000000e+00  6.087614e-01
   outer loop
     vertex -3.916066e+00  1.870000e+00  2.256066e+00
     vertex -3.939904e+00  1.870000e+00  2.225000e+00
     vertex -3.939904e+00  6.700000e-01  2.225000e+00
   endloop
 endfacet
 facet normal -9.238795e-01  0.000000e+00  3.826834e-01
   outer loop
     vertex -3.954889e+00  1.870000e+00  2.188823e+00
     vertex -3.954889e+00  6.700000e-01  2.188823e+00
     vertex -3.939904e+00  6.700000e-01  2.225000e+00
   endloop
 endfacet
 facet normal -7.933533e-01  0.000000e+00  6.087614e-01
   outer loop
     vertex -3.916066e+00  1.870000e+00  2.256066e+00
     vertex -3.939904e+00  6.700000e-01  2.225000e+00
     vertex -3.916066e+00  6.700000e-01  2.256066e+00
   endloop
 endfacet
 facet normal -6.087614e-01  0.000000e+00  7.933533e-01
   outer loop
     vertex -3.885000e+00  1.870000e+00  2.279904e+00
     vertex -3.916066e+00  1.870000e+00  2.256066e+00
     vertex -3.885000e+00  6.700000e-01  2.279904e+00
   endloop
 endfacet
 facet normal -3.826834e-01  0.000000e+00  9.238795e-01
   outer loop
     vertex -3.848823e+00  1.870000e+00  2.294889e+00
     vertex -3.885000e+00  1.870000e+00  2.279904e+00
     vertex -3.885000e+00  6.700000e-01  2.279904e+00
   endloop
 endfacet
 facet normal -6.087614e-01  0.000000e+00  7.933533e-01
   outer loop
     vertex -3.916066e+00  1.870000e+00  2.256066e+00
     vertex -3.916066e+00  6.700000e-01  2.256066e+00
     vertex -3.885000e+00  6.700000e-01  2.279904e+00
   endloop
 endfacet
 facet normal -1.305262e-01  0.000000e+00  9.914449e-01
   outer loop
     vertex -3.810000e+00  1.870000e+00  2.300000e+00
     vertex -3.848823e+00  1.870000e+00  2.294889e+00
     vertex -3.848823e+00  6.700000e-01  2.294889e+00
   endloop
 endfacet
 facet normal -3.826834e-01  0.000000e+00  9.238795e-01
   outer loop
     vertex -3.848823e+00  1.870000e+00  2.294889e+00
     vertex -3.885000e+00  6.700000e-01  2.279904e+00
     vertex -3.848823e+00  6.700000e-01  2.294889e+00
   endloop
 endfacet
 facet normal -1.305262e-01  0.000000e+00  9.914449e-01
   outer loop
     vertex -3.810000e+00  1.870000e+00  2.300000e+00
     vertex -3.848823e+00  6.700000e-01  2.294889e+00
     vertex -3.810000e+00  6.700000e-01  2.300000e+00
   endloop
 endfacet
 facet normal -0.000000e+00 -7.071068e-01 -7.071068e-01
   outer loop
     vertex -3.660000e+00  9.700000e-01  0.000000e+00
     vertex -3.660000e+00  6.700000e-01  3.000000e-01
     vertex -3.960000e+00  6.700000e-01  3.000000e-01
   endloop
 endfacet
 facet normal  0.000000e+00 -7.071068e-01 -7.071068e-01
   outer loop
     vertex -3.660000e+00  9.700000e-01  0.000000e+00
     vertex -3.960000e+00  6.700000e-01  3.000000e-01
     vertex -3.960000e+00  9.700000e-01  0.000000e+00
   endloop
 endfacet
 facet normal  0.000000e+00  1.000000e+00  0.000000e+00
   outer loop
     vertex -3.939904e+00  1.870000e+00  2.225000e+00
     vertex -3.916066e+00  1.870000e+00  2.256066e+00
     vertex -3.885000e+00  1.870000e+00  2.279904e+00
   endloop
 endfacet
 facet normal  0.000000e+00  1.000000e+00  0.000000e+00
   outer loop
     vertex -3.885000e+00  1.870000e+00  2.279904e+00
     vertex -3.848823e+00  1.870000e+00  2.294889e+00
     vertex -3.810000e+00  1.870000e+00  2.300000e+00
   endloop
 endfacet
 facet normal  2.024139e-14  1.000000e+00 -8.384260e-15
   outer loop
     vertex -3.954889e+00  1.870000e+00  2.188823e+00
     vertex -3.939904e+00  1.870000e+00  2.225000e+00
     vertex -3.960000e+00  1.870000e+00  2.150000e+00
   endloop
 endfacet
 facet normal  4.044248e-15  1.000000e+00 -4.044248e-15
   outer loop
     vertex -3.939904e+00  1.870000e+00  2.225000e+00
     vertex -3.885000e+00  1.870000e+00  2.279904e+00
     vertex -3.960000e+00  1.870000e+00  2.150000e+00
   endloop
 endfacet
 facet normal  5.418264e-16  1.000000e+00 -2.022124e-15
   outer loop
     vertex -3.885000e+00  1.870000e+00  2.279904e+00
     vertex -3.810000e+00  1.870000e+00  2.300000e+00
     vertex -3.960000e+00  1.870000e+00  2.150000e+00
   endloop
 endfacet
 facet normal -9.868649e-16  1.000000e+00 -4.934325e-16
   outer loop
     vertex -3.960000e+00  1.870000e+00  2.150000e+00
     vertex -3.810000e+00  1.870000e+00  2.300000e+00
     vertex -3.660000e+00  1.870000e+00  2.000000e+00
   endloop
 endfacet
 facet normal  0.000000e+00  1.000000e+00 -0.000000e+00
   outer loop
     vertex -3.660000e+00  1.870000e+00  2.000000e+00
     vertex -3.810000e+00  1.870000e+00  2.300000e+00
     vertex -3.250000e+00  1.870000e+00  2.300000e+00
   endloop
 endfacet
 facet normal -0.000000e+00  1.000000e+00  0.000000e+00
   outer loop
     vertex -3.660000e+00  1.870000e+00  2.000000e+00
     vertex -3.250000e+00  1.870000e+00  2.300000e+00
     vertex -3.250000e+00  1.870000e+00  2.000000e+00
   endloop
 endfacet
 facet normal -6.801366e-16  1.000000e+00  1.200241e-16
   outer loop
     vertex -3.960000e+00  1.870000e+00  2.150000e+00
     vertex -3.660000e+00  1.870000e+00  2.000000e+00
     vertex -3.960000e+00  1.870000e+00  3.000000e-01
   endloop
 endfacet
 facet normal -0.000000e+00  1.000000e+00  0.000000e+00
   outer loop
     vertex -3.960000e+00  1.870000e+00  3.000000e-01
     vertex -3.660000e+00  1.870000e+00  2.000000e+00
     vertex -3.660000e+00  1.870000e+00  3.000000e-01
   endloop
 endfacet
 facet normal  0.000000e+00 -1.000000e+00  0.000000e+00
   outer loop
     vertex -3.660000e+00  9.700000e-01 -3.500000e+00
     vertex -3.660000e+00  9.700000e-01  0.000000e+00
     vertex -3.960000e+00  9.700000e-01  0.000000e+00
   endloop
 endfacet
 facet normal -0.000000e+00 -1.000000e+00 -0.000000e+00
   outer loop
     vertex -3.660000e+00  9.700000e-01 -3.500000e+00
     vertex -3.960000e+00  9.700000e-01  0.000000e+00
     vertex -3.960000e+00  9.700000e-01 -3.500000e+00
   endloop
 endfacet
 facet normal  0.000000e+00  7.071068e-01 -7.071068e-01
   outer loop
     vertex -3.660000e+00  1.870000e+00  3.000000e-01
     vertex -3.660000e+00  1.570000e+00  0.000000e+00
     vertex -3.960000e+00  1.570000e+00  0.000000e+00
   endloop
 endfacet
 facet normal  0.000000e+00  7.071068e-01 -7.071068e-01
   outer loop
     vertex -3.660000e+00  1.870000e+00  3.000000e-01
     vertex -3.960000e+00  1.570000e+00  0.000000e+00
     vertex -3.960000e+00  1.870000e+00  3.000000e-01
   endloop
 endfacet
 facet normal -0.000000e+00 -0.000000e+00 -1.000000e+00
   outer loop
     vertex -3.660000e+00  1.570000e+00 -3.500000e+00
     vertex -3.660000e+00  9.700000e-01 -3.500000e+00
     vertex -3.960000e+00  9.700000e-01 -3.500000e+00
   endloop
 endfacet
 facet normal -0.000000e+00  0.000000e+00 -1.000000e+00
   outer loop
     vertex -3.660000e+00  1.570000e+00 -3.500000e+00
     vertex -3.960000e+00  9.700000e-01 -3.500000e+00
     vertex -3.960000e+00  1.570000e+00 -3.500000e+00
   endloop
 endfacet
 facet normal  0.000000e+00  1.000000e+00  0.000000e+00
   outer loop
     vertex -3.960000e+00  1.570000e+00  0.000000e+00
     vertex -3.660000e+00  1.570000e+00 -3.500000e+00
     vertex -3.960000e+00  1.570000e+00 -3.500000e+00
   endloop
 endfacet
 facet normal  0.000000e+00  1.000000e+00  0.000000e+00
   outer loop
     vertex -3.660000e+00  1.570000e+00  0.000000e+00
     vertex -3.660000e+00  1.570000e+00 -3.500000e+00
     vertex -3.960000e+00  1.570000e+00  0.000000e+00
   endloop
 endfacet
 facet normal  0.000000e+00  0.000000e+00  1.000000e+00
   outer loop
     vertex -3.810000e+00  6.700000e-01  2.300000e+00
     vertex -3.250000e+00  6.700000e-01  2.300000e+00
     vertex -3.250000e+00  1.870000e+00  2.300000e+00
   endloop
 endfacet
 facet normal  0.000000e+00 -0.000000e+00  1.000000e+00
   outer loop
     vertex -3.810000e+00  6.700000e-01  2.300000e+00
     vertex -3.250000e+00  1.870000e+00  2.300000e+00
     vertex -3.810000e+00  1.870000e+00  2.300000e+00
   endloop
 endfacet
 facet normal  1.000000e+00 -0.000000e+00  0.000000e+00
   outer loop
     vertex -3.250000e+00  6.700000e-01  2.300000e+00
     vertex -3.250000e+00  6.700000e-01  2.000000e+00
     vertex -3.250000e+00  1.870000e+00  2.000000e+00
   endloop
 endfacet
 facet normal  1.000000e+00 -0.000000e+00  0.000000e+00
   outer loop
     vertex -3.250000e+00  6.700000e-01  2.300000e+00
     vertex -3.250000e+00  1.870000e+00  2.000000e+00
     vertex -3.250000e+00  1.870000e+00  2.300000e+00
   endloop
 endfacet
 facet normal  0.000000e+00  0.000000e+00 -1.000000e+00
   outer loop
     vertex -3.250000e+00  6.700000e-01  2.000000e+00
     vertex -3.660000e+00  6.700000e-01  2.000000e+00
     vertex -3.660000e+00  1.870000e+00  2.000000e+00
   endloop
 endfacet
 facet normal  0.000000e+00  0.000000e+00 -1.000000e+00
   outer loop
     vertex -3.250000e+00  6.700000e-01  2.000000e+00
     vertex -3.660000e+00  1.870000e+00  2.000000e+00
     vertex -3.250000e+00  1.870000e+00  2.000000e+00
   endloop
 endfacet
 facet normal  1.000000e+00  0.000000e+00  0.000000e+00
   outer loop
     vertex -3.660000e+00  1.870000e+00  2.000000e+00
     vertex -3.660000e+00  6.700000e-01  2.000000e+00
     vertex -3.660000e+00  6.700000e-01  3.000000e-01
   endloop
 endfacet
 facet normal  1.000000e+00  0.000000e+00 -0.000000e+00
   outer loop
     vertex -3.660000e+00  1.870000e+00  3.000000e-01
     vertex -3.660000e+00  1.870000e+00  2.000000e+00
     vertex -3.660000e+00  6.700000e-01  3.000000e-01
   endloop
 endfacet
 facet normal  1.000000e+00  0.000000e+00 -0.000000e+00
   outer loop
     vertex -3.660000e+00  1.570000e+00  0.000000e+00
     vertex -3.660000e+00  1.870000e+00  3.000000e-01
     vertex -3.660000e+00  6.700000e-01  3.000000e-01
   endloop
 endfacet
 facet normal  1.000000e+00  0.000000e+00 -0.000000e+00
   outer loop
     vertex -3.660000e+00  9.700000e-01  0.000000e+00
     vertex -3.660000e+00  1.570000e+00  0.000000e+00
     vertex -3.660000e+00  6.700000e-01  3.000000e-01
   endloop
 endfacet
 facet normal  1.000000e+00  0.000000e+00 -0.000000e+00
   outer loop
     vertex -3.660000e+00  1.570000e+00 -3.500000e+00
     vertex -3.660000e+00  1.570000e+00  0.000000e+00
     vertex -3.660000e+00  9.700000e-01 -3.500000e+00
   endloop
 endfacet
 facet normal  1.000000e+00  0.000000e+00  0.000000e+00
   outer loop
     vertex -3.660000e+00  1.570000e+00  0.000000e+00
     vertex -3.660000e+00  9.700000e-01  0.000000e+00
     vertex -3.660000e+00  9.700000e-01 -3.500000e+00
   endloop
 endfacet
 facet normal  1.000000e+00  0.000000e+00  0.000000e+00
   outer loop
     vertex  3.960000e+00 -1.570000e+00  0.000000e+00
     vertex  3.960000e+00 -9.700000e-01  0.000000e+00
     vertex  3.960000e+00 -6.700000e-01  3.000000e-01
   endloop
 endfacet
 facet normal  1.000000e+00 -0.000000e+00  0.000000e+00
   outer loop
     vertex  3.960000e+00 -1.570000e+00  0.000000e+00
     vertex  3.960000e+00 -9.700000e-01 -3.500000e+00
     vertex  3.960000e+00 -9.700000e-01  0.000000e+00
   endloop
 endfacet
 facet normal  1.000000e+00 -0.000000e+00  0.000000e+00
   outer loop
     vertex  3.960000e+00 -1.570000e+00  0.000000e+00
     vertex  3.960000e+00 -1.570000e+00 -3.500000e+00
     vertex  3.960000e+00 -9.700000e-01 -3.500000e+00
   endloop
 endfacet
 facet normal  1.000000e+00 -0.000000e+00  0.000000e+00
   outer loop
     vertex  3.960000e+00 -1.870000e+00  3.000000e-01
     vertex  3.960000e+00 -1.570000e+00  0.000000e+00
     vertex  3.960000e+00 -6.700000e-01  3.000000e-01
   endloop
 endfacet
 facet normal  1.000000e+00 -0.000000e+00  0.000000e+00
   outer loop
     vertex  3.960000e+00 -1.870000e+00  2.150000e+00
     vertex  3.960000e+00 -6.700000e-01  3.000000e-01
     vertex  3.960000e+00 -6.700000e-01  2.150000e+00
   endloop
 endfacet
 facet normal  1.000000e+00 -0.000000e+00  0.000000e+00
   outer loop
     vertex  3.960000e+00 -1.870000e+00  2.150000e+00
     vertex  3.960000e+00 -1.870000e+00  3.000000e-01
     vertex  3.960000e+00 -6.700000e-01  3.000000e-01
   endloop
 endfacet
 facet normal  0.000000e+00  1.000000e+00  0.000000e+00
   outer loop
     vertex  3.810000e+00 -6.700000e-01  2.300000e+00
     vertex  3.848823e+00 -6.700000e-01  2.294889e+00
     vertex  3.885000e+00 -6.700000e-01  2.279904e+00
   endloop
 endfacet
 facet normal -0.000000e+00  1.000000e+00  0.000000e+00
   outer loop
     vertex  3.250000e+00 -6.700000e-01  2.300000e+00
     vertex  3.810000e+00 -6.700000e-01  2.300000e+00
     vertex  3.660000e+00 -6.700000e-01  2.000000e+00
   endloop
 endfacet
 facet normal -0.000000e+00  1.000000e+00  0.000000e+00
   outer loop
     vertex  3.250000e+00 -6.700000e-01  2.000000e+00
     vertex  3.250000e+00 -6.700000e-01  2.300000e+00
     vertex  3.660000e+00 -6.700000e-01  2.000000e+00
   endloop
 endfacet
 facet normal  0.000000e+00  1.000000e+00  0.000000e+00
   outer loop
     vertex  3.810000e+00 -6.700000e-01  2.300000e+00
     vertex  3.885000e+00 -6.700000e-01  2.279904e+00
     vertex  3.916066e+00 -6.700000e-01  2.256066e+00
   endloop
 endfacet
 facet normal  0.000000e+00  1.000000e+00  0.000000e+00
   outer loop
     vertex  3.810000e+00 -6.700000e-01  2.300000e+00
     vertex  3.916066e+00 -6.700000e-01  2.256066e+00
     vertex  3.939904e+00 -6.700000e-01  2.225000e+00
   endloop
 endfacet
 facet normal  0.000000e+00  1.000000e+00  0.000000e+00
   outer loop
     vertex  3.810000e+00 -6.700000e-01  2.300000e+00
     vertex  3.939904e+00 -6.700000e-01  2.225000e+00
     vertex  3.954889e+00 -6.700000e-01  2.188823e+00
   endloop
 endfacet
 facet normal -0.000000e+00  1.000000e+00  0.000000e+00
   outer loop
     vertex  3.660000e+00 -6.700000e-01  2.000000e+00
     vertex  3.810000e+00 -6.700000e-01  2.300000e+00
     vertex  3.960000e+00 -6.700000e-01  2.150000e+00
   endloop
 endfacet
 facet normal  0.000000e+00  1.000000e+00  0.000000e+00
   outer loop
     vertex  3.810000e+00 -6.700000e-01  2.300000e+00
     vertex  3.954889e+00 -6.700000e-01  2.188823e+00
     vertex  3.960000e+00 -6.700000e-01  2.150000e+00
   endloop
 endfacet
 facet normal -0.000000e+00  1.000000e+00  0.000000e+00
   outer loop
     vertex  3.660000e+00 -6.700000e-01  3.000000e-01
     vertex  3.660000e+00 -6.700000e-01  2.000000e+00
     vertex  3.960000e+00 -6.700000e-01  3.000000e-01
   endloop
 endfacet
 facet normal -0.000000e+00  1.000000e+00  0.000000e+00
   outer loop
     vertex  3.660000e+00 -6.700000e-01  2.000000e+00
     vertex  3.960000e+00 -6.700000e-01  2.150000e+00
     vertex  3.960000e+00 -6.700000e-01  3.000000e-01
   endloop
 endfacet
 facet normal  9.914449e-01  0.000000e+00  1.305262e-01
   outer loop
     vertex  3.954889e+00 -1.870000e+00  2.188823e+00
     vertex  3.960000e+00 -1.870000e+00  2.150000e+00
     vertex  3.954889e+00 -6.700000e-01  2.188823e+00
   endloop
 endfacet
 facet normal  9.914449e-01 -0.000000e+00  1.305262e-01
   outer loop
     vertex  3.960000e+00 -1.870000e+00  2.150000e+00
     vertex  3.960000e+00 -6.700000e-01  2.150000e+00
     vertex  3.954889e+00 -6.700000e-01  2.188823e+00
   endloop
 endfacet
 facet normal  9.238795e-01  0.000000e+00  3.826834e-01
   outer loop
     vertex  3.939904e+00 -1.870000e+00  2.225000e+00
     vertex  3.954889e+00 -1.870000e+00  2.188823e+00
     vertex  3.939904e+00 -6.700000e-01  2.225000e+00
   endloop
 endfacet
 facet normal  9.238795e-01 -0.000000e+00  3.826834e-01
   outer loop
     vertex  3.954889e+00 -1.870000e+00  2.188823e+00
     vertex  3.954889e+00 -6.700000e-01  2.188823e+00
     vertex  3.939904e+00 -6.700000e-01  2.225000e+00
   endloop
 endfacet
 facet normal  7.933533e-01  0.000000e+00  6.087614e-01
   outer loop
     vertex  3.916066e+00 -1.870000e+00  2.256066e+00
     vertex  3.939904e+00 -1.870000e+00  2.225000e+00
     vertex  3.916066e+00 -6.700000e-01  2.256066e+00
   endloop
 endfacet
 facet normal  7.933533e-01 -0.000000e+00  6.087614e-01
   outer loop
     vertex  3.939904e+00 -1.870000e+00  2.225000e+00
     vertex  3.939904e+00 -6.700000e-01  2.225000e+00
     vertex  3.916066e+00 -6.700000e-01  2.256066e+00
   endloop
 endfacet
 facet normal  6.087614e-01  0.000000e+00  7.933533e-01
   outer loop
     vertex  3.885000e+00 -1.870000e+00  2.279904e+00
     vertex  3.916066e+00 -1.870000e+00  2.256066e+00
     vertex  3.885000e+00 -6.700000e-01  2.279904e+00
   endloop
 endfacet
 facet normal  6.087614e-01 -0.000000e+00  7.933533e-01
   outer loop
     vertex  3.916066e+00 -1.870000e+00  2.256066e+00
     vertex  3.916066e+00 -6.700000e-01  2.256066e+00
     vertex  3.885000e+00 -6.700000e-01  2.279904e+00
   endloop
 endfacet
 facet normal  3.826834e-01  0.000000e+00  9.238795e-01
   outer loop
     vertex  3.848823e+00 -1.870000e+00  2.294889e+00
     vertex  3.885000e+00 -1.870000e+00  2.279904e+00
     vertex  3.848823e+00 -6.700000e-01  2.294889e+00
   endloop
 endfacet
 facet normal  3.826834e-01 -0.000000e+00  9.238795e-01
   outer loop
     vertex  3.885000e+00 -1.870000e+00  2.279904e+00
     vertex  3.885000e+00 -6.700000e-01  2.279904e+00
     vertex  3.848823e+00 -6.700000e-01  2.294889e+00
   endloop
 endfacet
 facet normal  1.305262e-01  0.000000e+00  9.914449e-01
   outer loop
     vertex  3.810000e+00 -1.870000e+00  2.300000e+00
     vertex  3.848823e+00 -1.870000e+00  2.294889e+00
     vertex  3.810000e+00 -6.700000e-01  2.300000e+00
   endloop
 endfacet
 facet normal  1.305262e-01 -0.000000e+00  9.914449e-01
   outer loop
     vertex  3.848823e+00 -1.870000e+00  2.294889e+00
     vertex  3.848823e+00 -6.700000e-01  2.294889e+00
     vertex  3.810000e+00 -6.700000e-01  2.300000e+00
   endloop
 endfacet
 facet normal  0.000000e+00  7.071068e-01 -7.071068e-01
   outer loop
     vertex  3.660000e+00 -9.700000e-01  0.000000e+00
     vertex  3.660000e+00 -6.700000e-01  3.000000e-01
     vertex  3.960000e+00 -6.700000e-01  3.000000e-01
   endloop
 endfacet
 facet normal  0.000000e+00  7.071068e-01 -7.071068e-01
   outer loop
     vertex  3.660000e+00 -9.700000e-01  0.000000e+00
     vertex  3.960000e+00 -6.700000e-01  3.000000e-01
     vertex  3.960000e+00 -9.700000e-01  0.000000e+00
   endloop
 endfacet
 facet normal  0.000000e+00 -1.000000e+00  0.000000e+00
   outer loop
     vertex  3.660000e+00 -1.870000e+00  3.000000e-01
     vertex  3.960000e+00 -1.870000e+00  3.000000e-01
     vertex  3.660000e+00 -1.870000e+00  2.000000e+00
   endloop
 endfacet
 facet normal  0.000000e+00 -1.000000e+00  0.000000e+00
   outer loop
     vertex  3.250000e+00 -1.870000e+00  2.300000e+00
     vertex  3.250000e+00 -1.870000e+00  2.000000e+00
     vertex  3.660000e+00 -1.870000e+00  2.000000e+00
   endloop
 endfacet
 facet normal  0.000000e+00 -1.000000e+00  0.000000e+00
   outer loop
     vertex  3.660000e+00 -1.870000e+00  2.000000e+00
     vertex  3.960000e+00 -1.870000e+00  3.000000e-01
     vertex  3.960000e+00 -1.870000e+00  2.150000e+00
   endloop
 endfacet
 facet normal  0.000000e+00 -1.000000e+00  0.000000e+00
   outer loop
     vertex  3.250000e+00 -1.870000e+00  2.300000e+00
     vertex  3.660000e+00 -1.870000e+00  2.000000e+00
     vertex  3.810000e+00 -1.870000e+00  2.300000e+00
   endloop
 endfacet
 facet normal  0.000000e+00 -1.000000e+00  0.000000e+00
   outer loop
     vertex  3.660000e+00 -1.870000e+00  2.000000e+00
     vertex  3.960000e+00 -1.870000e+00  2.150000e+00
     vertex  3.810000e+00 -1.870000e+00  2.300000e+00
   endloop
 endfacet
 facet normal  0.000000e+00 -1.000000e+00  0.000000e+00
   outer loop
     vertex  3.960000e+00 -1.870000e+00  2.150000e+00
     vertex  3.954889e+00 -1.870000e+00  2.188823e+00
     vertex  3.939904e+00 -1.870000e+00  2.225000e+00
   endloop
 endfacet
 facet normal -0.000000e+00 -1.000000e+00 -0.000000e+00
   outer loop
     vertex  3.848823e+00 -1.870000e+00  2.294889e+00
     vertex  3.810000e+00 -1.870000e+00  2.300000e+00
     vertex  3.885000e+00 -1.870000e+00  2.279904e+00
   endloop
 endfacet
 facet normal  0.000000e+00 -1.000000e+00  0.000000e+00
   outer loop
     vertex  3.810000e+00 -1.870000e+00  2.300000e+00
     vertex  3.960000e+00 -1.870000e+00  2.150000e+00
     vertex  3.916066e+00 -1.870000e+00  2.256066e+00
   endloop
 endfacet
 facet normal  0.000000e+00 -1.000000e+00  0.000000e+00
   outer loop
     vertex  3.960000e+00 -1.870000e+00  2.150000e+00
     vertex  3.939904e+00 -1.870000e+00  2.225000e+00
     vertex  3.916066e+00 -1.870000e+00  2.256066e+00
   endloop
 endfacet
 facet normal -0.000000e+00 -1.000000e+00 -0.000000e+00
   outer loop
     vertex  3.885000e+00 -1.870000e+00  2.279904e+00
     vertex  3.810000e+00 -1.870000e+00  2.300000e+00
     vertex  3.916066e+00 -1.870000e+00  2.256066e+00
   endloop
 endfacet
 facet normal  0.000000e+00  1.000000e+00  0.000000e+00
   outer loop
     vertex  3.660000e+00 -9.700000e-01 -3.500000e+00
     vertex  3.660000e+00 -9.700000e-01  0.000000e+00
     vertex  3.960000e+00 -9.700000e-01  0.000000e+00
   endloop
 endfacet
 facet normal -0.000000e+00  1.000000e+00  0.000000e+00
   outer loop
     vertex  3.660000e+00 -9.700000e-01 -3.500000e+00
     vertex  3.960000e+00 -9.700000e-01  0.000000e+00
     vertex  3.960000e+00 -9.700000e-01 -3.500000e+00
   endloop
 endfacet
 facet normal  0.000000e+00 -7.071068e-01 -7.071068e-01
   outer loop
     vertex  3.660000e+00 -1.870000e+00  3.000000e-01
     vertex  3.660000e+00 -1.570000e+00  0.000000e+00
     vertex  3.960000e+00 -1.570000e+00  0.000000e+00
   endloop
 endfacet
 facet normal  0.000000e+00 -7.071068e-01 -7.071068e-01
   outer loop
     vertex  3.660000e+00 -1.870000e+00  3.000000e-01
     vertex  3.960000e+00 -1.570000e+00  0.000000e+00
     vertex  3.960000e+00 -1.870000e+00  3.000000e-01
   endloop
 endfacet
 facet normal  0.000000e+00  0.000000e+00 -1.000000e+00
   outer loop
     vertex  3.660000e+00 -1.570000e+00 -3.500000e+00
     vertex  3.660000e+00 -9.700000e-01 -3.500000e+00
     vertex  3.960000e+00 -9.700000e-01 -3.500000e+00
   endloop
 endfacet
 facet normal  0.000000e+00  0.000000e+00 -1.000000e+00
   outer loop
     vertex  3.660000e+00 -1.570000e+00 -3.500000e+00
     vertex  3.960000e+00 -9.700000e-01 -3.500000e+00
     vertex  3.960000e+00 -1.570000e+00 -3.500000e+00
   endloop
 endfacet
 facet normal  0.000000e+00 -1.000000e+00 -6.344132e-17
   outer loop
     vertex  3.960000e+00 -1.570000e+00  0.000000e+00
     vertex  3.660000e+00 -1.570000e+00 -3.500000e+00
     vertex  3.960000e+00 -1.570000e+00 -3.500000e+00
   endloop
 endfacet
 facet normal  0.000000e+00 -1.000000e+00 -6.344132e-17
   outer loop
     vertex  3.660000e+00 -1.570000e+00  0.000000e+00
     vertex  3.660000e+00 -1.570000e+00 -3.500000e+00
     vertex  3.960000e+00 -1.570000e+00  0.000000e+00
   endloop
 endfacet
 facet normal  0.000000e+00 -0.000000e+00  1.000000e+00
   outer loop
     vertex  3.250000e+00 -1.870000e+00  2.300000e+00
     vertex  3.810000e+00 -1.870000e+00  2.300000e+00
     vertex  3.250000e+00 -6.700000e-01  2.300000e+00
   endloop
 endfacet
 facet normal  0.000000e+00 -0.000000e+00  1.000000e+00
   outer loop
     vertex  3.810000e+00 -1.870000e+00  2.300000e+00
     vertex  3.810000e+00 -6.700000e-01  2.300000e+00
     vertex  3.250000e+00 -6.700000e-01  2.300000e+00
   endloop
 endfacet
 facet normal -1.000000e+00 -0.000000e+00 -0.000000e+00
   outer loop
     vertex  3.250000e+00 -6.700000e-01  2.300000e+00
     vertex  3.250000e+00 -6.700000e-01  2.000000e+00
     vertex  3.250000e+00 -1.870000e+00  2.000000e+00
   endloop
 endfacet
 facet normal -1.000000e+00 -0.000000e+00  0.000000e+00
   outer loop
     vertex  3.250000e+00 -6.700000e-01  2.300000e+00
     vertex  3.250000e+00 -1.870000e+00  2.000000e+00
     vertex  3.250000e+00 -1.870000e+00  2.300000e+00
   endloop
 endfacet
 facet normal  0.000000e+00  0.000000e+00 -1.000000e+00
   outer loop
     vertex  3.660000e+00 -1.870000e+00  2.000000e+00
     vertex  3.250000e+00 -1.870000e+00  2.000000e+00
     vertex  3.250000e+00 -6.700000e-01  2.000000e+00
   endloop
 endfacet
 facet normal  0.000000e+00  0.000000e+00 -1.000000e+00
   outer loop
     vertex  3.660000e+00 -1.870000e+00  2.000000e+00
     vertex  3.250000e+00 -6.700000e-01  2.000000e+00
     vertex  3.660000e+00 -6.700000e-01  2.000000e+00
   endloop
 endfacet
 facet normal -1.000000e+00 -0.000000e+00  0.000000e+00
   outer loop
     vertex  3.660000e+00 -6.700000e-01  3.000000e-01
     vertex  3.660000e+00 -9.700000e-01  0.000000e+00
     vertex  3.660000e+00 -1.570000e+00  0.000000e+00
   endloop
 endfacet
 facet normal -1.000000e+00 -0.000000e+00 -0.000000e+00
   outer loop
     vertex  3.660000e+00 -9.700000e-01  0.000000e+00
     vertex  3.660000e+00 -9.700000e-01 -3.500000e+00
     vertex  3.660000e+00 -1.570000e+00  0.000000e+00
   endloop
 endfacet
 facet normal -1.000000e+00  0.000000e+00  0.000000e+00
   outer loop
     vertex  3.660000e+00 -9.700000e-01 -3.500000e+00
     vertex  3.660000e+00 -1.570000e+00 -3.500000e+00
     vertex  3.660000e+00 -1.570000e+00  0.000000e+00
   endloop
 endfacet
 facet normal -1.000000e+00 -0.000000e+00  0.000000e+00
   outer loop
     vertex  3.660000e+00 -6.700000e-01  3.000000e-01
     vertex  3.660000e+00 -1.570000e+00  0.000000e+00
     vertex  3.660000e+00 -1.870000e+00  3.000000e-01
   endloop
 endfacet
 facet normal -1.000000e+00 -0.000000e+00 -0.000000e+00
   outer loop
     vertex  3.660000e+00 -6.700000e-01  2.000000e+00
     vertex  3.660000e+00 -6.700000e-01  3.000000e-01
     vertex  3.660000e+00 -1.870000e+00  2.000000e+00
   endloop
 endfacet
 facet normal -1.000000e+00  0.000000e+00  0.000000e+00
   outer loop
     vertex  3.660000e+00 -6.700000e-01  3.000000e-01
     vertex  3.660000e+00 -1.870000e+00  3.000000e-01
     vertex  3.660000e+00 -1.870000e+00  2.000000e+00
   endloop
 endfacet
 facet normal -1.000000e+00  0.000000e+00  0.000000e+00
   outer loop
     vertex -3.960000e+00 -6.700000e-01  3.000000e-01
     vertex -3.960000e+00 -1.870000e+00  2.150000e+00
     vertex -3.960000e+00 -6.700000e-01  2.150000e+00
   endloop
 endfacet
 facet normal -1.000000e+00  0.000000e+00  0.000000e+00
   outer loop
     vertex -3.960000e+00 -1.870000e+00  3.000000e-01
     vertex -3.960000e+00 -1.870000e+00  2.150000e+00
     vertex -3.960000e+00 -6.700000e-01  3.000000e-01
   endloop
 endfacet
 facet normal -1.000000e+00  0.000000e+00 -0.000000e+00
   outer loop
     vertex -3.960000e+00 -1.570000e+00  0.000000e+00
     vertex -3.960000e+00 -6.700000e-01  3.000000e-01
     vertex -3.960000e+00 -9.700000e-01  0.000000e+00
   endloop
 endfacet
 facet normal -1.000000e+00  0.000000e+00  0.000000e+00
   outer loop
     vertex -3.960000e+00 -1.570000e+00  0.000000e+00
     vertex -3.960000e+00 -1.870000e+00  3.000000e-01
     vertex -3.960000e+00 -6.700000e-01  3.000000e-01
   endloop
 endfacet
 facet normal -1.000000e+00  0.000000e+00  0.000000e+00
   outer loop
     vertex -3.960000e+00 -9.700000e-01 -3.500000e+00
     vertex -3.960000e+00 -1.570000e+00  0.000000e+00
     vertex -3.960000e+00 -9.700000e-01  0.000000e+00
   endloop
 endfacet
 facet normal -1.000000e+00  0.000000e+00  0.000000e+00
   outer loop
     vertex -3.960000e+00 -1.570000e+00 -3.500000e+00
     vertex -3.960000e+00 -1.570000e+00  0.000000e+00
     vertex -3.960000e+00 -9.700000e-01 -3.500000e+00
   endloop
 endfacet
 facet normal  0.000000e+00 -1.000000e+00 -0.000000e+00
   outer loop
     vertex -3.954889e+00 -1.870000e+00  2.188823e+00
     vertex -3.960000e+00 -1.870000e+00  2.150000e+00
     vertex -3.939904e+00 -1.870000e+00  2.225000e+00
   endloop
 endfacet
 facet normal  0.000000e+00 -1.000000e+00  0.000000e+00
   outer loop
     vertex -3.960000e+00 -1.870000e+00  2.150000e+00
     vertex -3.960000e+00 -1.870000e+00  3.000000e-01
     vertex -3.660000e+00 -1.870000e+00  2.000000e+00
   endloop
 endfacet
 facet normal  0.000000e+00 -1.000000e+00  0.000000e+00
   outer loop
     vertex -3.960000e+00 -1.870000e+00  3.000000e-01
     vertex -3.660000e+00 -1.870000e+00  3.000000e-01
     vertex -3.660000e+00 -1.870000e+00  2.000000e+00
   endloop
 endfacet
 facet normal  0.000000e+00 -1.000000e+00 -0.000000e+00
   outer loop
     vertex -3.916066e+00 -1.870000e+00  2.256066e+00
     vertex -3.939904e+00 -1.870000e+00  2.225000e+00
     vertex -3.885000e+00 -1.870000e+00  2.279904e+00
   endloop
 endfacet
 facet normal  0.000000e+00 -1.000000e+00 -0.000000e+00
   outer loop
     vertex -3.848823e+00 -1.870000e+00  2.294889e+00
     vertex -3.885000e+00 -1.870000e+00  2.279904e+00
     vertex -3.810000e+00 -1.870000e+00  2.300000e+00
   endloop
 endfacet
 facet normal  0.000000e+00 -1.000000e+00 -0.000000e+00
   outer loop
     vertex -3.885000e+00 -1.870000e+00  2.279904e+00
     vertex -3.939904e+00 -1.870000e+00  2.225000e+00
     vertex -3.810000e+00 -1.870000e+00  2.300000e+00
   endloop
 endfacet
 facet normal  0.000000e+00 -1.000000e+00 -0.000000e+00
   outer loop
     vertex -3.939904e+00 -1.870000e+00  2.225000e+00
     vertex -3.960000e+00 -1.870000e+00  2.150000e+00
     vertex -3.810000e+00 -1.870000e+00  2.300000e+00
   endloop
 endfacet
 facet normal  0.000000e+00 -1.000000e+00  0.000000e+00
   outer loop
     vertex -3.960000e+00 -1.870000e+00  2.150000e+00
     vertex -3.660000e+00 -1.870000e+00  2.000000e+00
     vertex -3.810000e+00 -1.870000e+00  2.300000e+00
   endloop
 endfacet
 facet normal  0.000000e+00 -1.000000e+00  0.000000e+00
   outer loop
     vertex -3.660000e+00 -1.870000e+00  2.000000e+00
     vertex -3.250000e+00 -1.870000e+00  2.000000e+00
     vertex -3.250000e+00 -1.870000e+00  2.300000e+00
   endloop
 endfacet
 facet normal  0.000000e+00 -1.000000e+00  0.000000e+00
   outer loop
     vertex -3.810000e+00 -1.870000e+00  2.300000e+00
     vertex -3.660000e+00 -1.870000e+00  2.000000e+00
     vertex -3.250000e+00 -1.870000e+00  2.300000e+00
   endloop
 endfacet
 facet normal -9.914449e-01  0.000000e+00  1.305262e-01
   outer loop
     vertex -3.954889e+00 -6.700000e-01  2.188823e+00
     vertex -3.960000e+00 -6.700000e-01  2.150000e+00
     vertex -3.960000e+00 -1.870000e+00  2.150000e+00
   endloop
 endfacet
 facet normal -9.914449e-01  0.000000e+00  1.305262e-01
   outer loop
     vertex -3.954889e+00 -6.700000e-01  2.188823e+00
     vertex -3.960000e+00 -1.870000e+00  2.150000e+00
     vertex -3.954889e+00 -1.870000e+00  2.188823e+00
   endloop
 endfacet
 facet normal -9.238795e-01  0.000000e+00  3.826834e-01
   outer loop
     vertex -3.939904e+00 -6.700000e-01  2.225000e+00
     vertex -3.954889e+00 -6.700000e-01  2.188823e+00
     vertex -3.939904e+00 -1.870000e+00  2.225000e+00
   endloop
 endfacet
 facet normal -7.933533e-01  0.000000e+00  6.087614e-01
   outer loop
     vertex -3.916066e+00 -6.700000e-01  2.256066e+00
     vertex -3.939904e+00 -6.700000e-01  2.225000e+00
     vertex -3.939904e+00 -1.870000e+00  2.225000e+00
   endloop
 endfacet
 facet normal -9.238795e-01  0.000000e+00  3.826834e-01
   outer loop
     vertex -3.954889e+00 -6.700000e-01  2.188823e+00
     vertex -3.954889e+00 -1.870000e+00  2.188823e+00
     vertex -3.939904e+00 -1.870000e+00  2.225000e+00
   endloop
 endfacet
 facet normal -7.933533e-01  0.000000e+00  6.087614e-01
   outer loop
     vertex -3.916066e+00 -6.700000e-01  2.256066e+00
     vertex -3.939904e+00 -1.870000e+00  2.225000e+00
     vertex -3.916066e+00 -1.870000e+00  2.256066e+00
   endloop
 endfacet
 facet normal -6.087614e-01  0.000000e+00  7.933533e-01
   outer loop
     vertex -3.885000e+00 -6.700000e-01  2.279904e+00
     vertex -3.916066e+00 -6.700000e-01  2.256066e+00
     vertex -3.885000e+00 -1.870000e+00  2.279904e+00
   endloop
 endfacet
 facet normal -3.826834e-01  0.000000e+00  9.238795e-01
   outer loop
     vertex -3.848823e+00 -6.700000e-01  2.294889e+00
     vertex -3.885000e+00 -6.700000e-01  2.279904e+00
     vertex -3.885000e+00 -1.870000e+00  2.279904e+00
   endloop
 endfacet
 facet normal -6.087614e-01  0.000000e+00  7.933533e-01
   outer loop
     vertex -3.916066e+00 -6.700000e-01  2.256066e+00
     vertex -3.916066e+00 -1.870000e+00  2.256066e+00
     vertex -3.885000e+00 -1.870000e+00  2.279904e+00
   endloop
 endfacet
 facet normal -1.305262e-01  0.000000e+00  9.914449e-01
   outer loop
     vertex -3.810000e+00 -6.700000e-01  2.300000e+00
     vertex -3.848823e+00 -6.700000e-01  2.294889e+00
     vertex -3.848823e+00 -1.870000e+00  2.294889e+00
   endloop
 endfacet
 facet normal -3.826834e-01  0.000000e+00  9.238795e-01
   outer loop
     vertex -3.848823e+00 -6.700000e-01  2.294889e+00
     vertex -3.885000e+00 -1.870000e+00  2.279904e+00
     vertex -3.848823e+00 -1.870000e+00  2.294889e+00
   endloop
 endfacet
 facet normal -1.305262e-01  0.000000e+00  9.914449e-01
   outer loop
     vertex -3.810000e+00 -6.700000e-01  2.300000e+00
     vertex -3.848823e+00 -1.870000e+00  2.294889e+00
     vertex -3.810000e+00 -1.870000e+00  2.300000e+00
   endloop
 endfacet
 facet normal -0.000000e+00 -7.071068e-01 -7.071068e-01
   outer loop
     vertex -3.660000e+00 -1.570000e+00  0.000000e+00
     vertex -3.660000e+00 -1.870000e+00  3.000000e-01
     vertex -3.960000e+00 -1.870000e+00  3.000000e-01
   endloop
 endfacet
 facet normal  0.000000e+00 -7.071068e-01 -7.071068e-01
   outer loop
     vertex -3.660000e+00 -1.570000e+00  0.000000e+00
     vertex -3.960000e+00 -1.870000e+00  3.000000e-01
     vertex -3.960000e+00 -1.570000e+00  0.000000e+00
   endloop
 endfacet
 facet normal  0.000000e+00  1.000000e+00  0.000000e+00
   outer loop
     vertex -3.939904e+00 -6.700000e-01  2.225000e+00
     vertex -3.916066e+00 -6.700000e-01  2.256066e+00
     vertex -3.885000e+00 -6.700000e-01  2.279904e+00
   endloop
 endfacet
 facet normal  0.000000e+00  1.000000e+00  0.000000e+00
   outer loop
     vertex -3.885000e+00 -6.700000e-01  2.279904e+00
     vertex -3.848823e+00 -6.700000e-01  2.294889e+00
     vertex -3.810000e+00 -6.700000e-01  2.300000e+00
   endloop
 endfacet
 facet normal  2.024139e-14  1.000000e+00 -8.384260e-15
   outer loop
     vertex -3.954889e+00 -6.700000e-01  2.188823e+00
     vertex -3.939904e+00 -6.700000e-01  2.225000e+00
     vertex -3.960000e+00 -6.700000e-01  2.150000e+00
   endloop
 endfacet
 facet normal  4.044248e-15  1.000000e+00 -4.044248e-15
   outer loop
     vertex -3.939904e+00 -6.700000e-01  2.225000e+00
     vertex -3.885000e+00 -6.700000e-01  2.279904e+00
     vertex -3.960000e+00 -6.700000e-01  2.150000e+00
   endloop
 endfacet
 facet normal  5.418264e-16  1.000000e+00 -2.022124e-15
   outer loop
     vertex -3.885000e+00 -6.700000e-01  2.279904e+00
     vertex -3.810000e+00 -6.700000e-01  2.300000e+00
     vertex -3.960000e+00 -6.700000e-01  2.150000e+00
   endloop
 endfacet
 facet normal -9.868649e-16  1.000000e+00 -4.934325e-16
   outer loop
     vertex -3.960000e+00 -6.700000e-01  2.150000e+00
     vertex -3.810000e+00 -6.700000e-01  2.300000e+00
     vertex -3.660000e+00 -6.700000e-01  2.000000e+00
   endloop
 endfacet
 facet normal  0.000000e+00  1.000000e+00 -0.000000e+00
   outer loop
     vertex -3.660000e+00 -6.700000e-01  2.000000e+00
     vertex -3.810000e+00 -6.700000e-01  2.300000e+00
     vertex -3.250000e+00 -6.700000e-01  2.300000e+00
   endloop
 endfacet
 facet normal -0.000000e+00  1.000000e+00  0.000000e+00
   outer loop
     vertex -3.660000e+00 -6.700000e-01  2.000000e+00
     vertex -3.250000e+00 -6.700000e-01  2.300000e+00
     vertex -3.250000e+00 -6.700000e-01  2.000000e+00
   endloop
 endfacet
 facet normal -6.801366e-16  1.000000e+00  1.200241e-16
   outer loop
     vertex -3.960000e+00 -6.700000e-01  2.150000e+00
     vertex -3.660000e+00 -6.700000e-01  2.000000e+00
     vertex -3.960000e+00 -6.700000e-01  3.000000e-01
   endloop
 endfacet
 facet normal -0.000000e+00  1.000000e+00  0.000000e+00
   outer loop
     vertex -3.960000e+00 -6.700000e-01  3.000000e-01
     vertex -3.660000e+00 -6.700000e-01  2.000000e+00
     vertex -3.660000e+00 -6.700000e-01  3.000000e-01
   endloop
 endfacet
 facet normal  0.000000e+00 -1.000000e+00  0.000000e+00
   outer loop
     vertex -3.660000e+00 -1.570000e+00 -3.500000e+00
     vertex -3.660000e+00 -1.570000e+00  0.000000e+00
     vertex -3.960000e+00 -1.570000e+00  0.000000e+00
   endloop
 endfacet
 facet normal -0.000000e+00 -1.000000e+00 -0.000000e+00
   outer loop
     vertex -3.660000e+00 -1.570000e+00 -3.500000e+00
     vertex -3.960000e+00 -1.570000e+00  0.000000e+00
     vertex -3.960000e+00 -1.570000e+00 -3.500000e+00
   endloop
 endfacet
 facet normal  0.000000e+00  7.071068e-01 -7.071068e-01
   outer loop
     vertex -3.660000e+00 -6.700000e-01  3.000000e-01
     vertex -3.660000e+00 -9.700000e-01  0.000000e+00
     vertex -3.960000e+00 -9.700000e-01  0.000000e+00
   endloop
 endfacet
 facet normal  0.000000e+00  7.071068e-01 -7.071068e-01
   outer loop
     vertex -3.660000e+00 -6.700000e-01  3.000000e-01
     vertex -3.960000e+00 -9.700000e-01  0.000000e+00
     vertex -3.960000e+00 -6.700000e-01  3.000000e-01
   endloop
 endfacet
 facet normal -0.000000e+00 -0.000000e+00 -1.000000e+00
   outer loop
     vertex -3.660000e+00 -9.700000e-01 -3.500000e+00
     vertex -3.660000e+00 -1.570000e+00 -3.500000e+00
     vertex -3.960000e+00 -1.570000e+00 -3.500000e+00
   endloop
 endfacet
 facet normal -0.000000e+00  0.000000e+00 -1.000000e+00
   outer loop
     vertex -3.660000e+00 -9.700000e-01 -3.500000e+00
     vertex -3.960000e+00 -1.570000e+00 -3.500000e+00
     vertex -3.960000e+00 -9.700000e-01 -3.500000e+00
   endloop
 endfacet
 facet normal  0.000000e+00  1.000000e+00  0.000000e+00
   outer loop
     vertex -3.960000e+00 -9.700000e-01  0.000000e+00
     vertex -3.660000e+00 -9.700000e-01 -3.500000e+00
     vertex -3.960000e+00 -9.700000e-01 -3.500000e+00
   endloop
 endfacet
 facet normal  0.000000e+00  1.000000e+00  0.000000e+00
   outer loop
     vertex -3.660000e+00 -9.700000e-01  0.000000e+00
     vertex -3.660000e+00 -9.700000e-01 -3.500000e+00
     vertex -3.960000e+00 -9.700000e-01  0.000000e+00
   endloop
 endfacet
 facet normal  0.000000e+00  0.000000e+00  1.000000e+00
   outer loop
     vertex -3.810000e+00 -1.870000e+00  2.300000e+00
     vertex -3.250000e+00 -1.870000e+00  2.300000e+00
     vertex -3.250000e+00 -6.700000e-01  2.300000e+00
   endloop
 endfacet
 facet normal  0.000000e+00 -0.000000e+00  1.000000e+00
   outer loop
     vertex -3.810000e+00 -1.870000e+00  2.300000e+00
     vertex -3.250000e+00 -6.700000e-01  2.300000e+00
     vertex -3.810000e+00 -6.700000e-01  2.300000e+00
   endloop
 endfacet
 facet normal  1.000000e+00  0.000000e+00  0.000000e+00
   outer loop
     vertex -3.250000e+00 -1.870000e+00  2.000000e+00
     vertex -3.250000e+00 -6.700000e-01  2.000000e+00
     vertex -3.250000e+00 -6.700000e-01  2.300000e+00
   endloop
 endfacet
 facet normal  1.000000e+00 -0.000000e+00  0.000000e+00
   outer loop
     vertex -3.250000e+00 -1.870000e+00  2.300000e+00
     vertex -3.250000e+00 -1.870000e+00  2.000000e+00
     vertex -3.250000e+00 -6.700000e-01  2.300000e+00
   endloop
 endfacet
 facet normal  0.000000e+00  0.000000e+00 -1.000000e+00
   outer loop
     vertex -3.250000e+00 -1.870000e+00  2.000000e+00
     vertex -3.660000e+00 -1.870000e+00  2.000000e+00
     vertex -3.660000e+00 -6.700000e-01  2.000000e+00
   endloop
 endfacet
 facet normal  0.000000e+00  0.000000e+00 -1.000000e+00
   outer loop
     vertex -3.250000e+00 -1.870000e+00  2.000000e+00
     vertex -3.660000e+00 -6.700000e-01  2.000000e+00
     vertex -3.250000e+00 -6.700000e-01  2.000000e+00
   endloop
 endfacet
 facet normal  1.000000e+00  0.000000e+00  0.000000e+00
   outer loop
     vertex -3.660000e+00 -6.700000e-01  2.000000e+00
     vertex -3.660000e+00 -1.870000e+00  2.000000e+00
     vertex -3.660000e+00 -1.870000e+00  3.000000e-01
   endloop
 endfacet
 facet normal  1.000000e+00  0.000000e+00 -0.000000e+00
   outer loop
     vertex -3.660000e+00 -6.700000e-01  3.000000e-01
     vertex -3.660000e+00 -6.700000e-01  2.000000e+00
     vertex -3.660000e+00 -1.870000e+00  3.000000e-01
   endloop
 endfacet
 facet normal  1.000000e+00  0.000000e+00 -0.000000e+00
   outer loop
     vertex -3.660000e+00 -9.700000e-01  0.000000e+00
     vertex -3.660000e+00 -6.700000e-01  3.000000e-01
     vertex -3.660000e+00 -1.870000e+00  3.000000e-01
   endloop
 endfacet
 facet normal  1.000000e+00  0.000000e+00 -0.000000e+00
   outer loop
     vertex -3.660000e+00 -1.570000e+00  0.000000e+00
     vertex -3.660000e+00 -9.700000e-01  0.000000e+00
     vertex -3.660000e+00 -1.870000e+00  3.000000e-01
   endloop
 endfacet
 facet normal  1.000000e+00  0.000000e+00 -0.000000e+00
   outer loop
     vertex -3.660000e+00 -9.700000e-01 -3.500000e+00
     vertex -3.660000e+00 -9.700000e-01  0.000000e+00
     vertex -3.660000e+00 -1.570000e+00 -3.500000e+00
   endloop
 endfacet
 facet normal  1.000000e+00  0.000000e+00  0.000000e+00
   outer loop
     vertex -3.660000e+00 -9.700000e-01  0.000000e+00
     vertex -3.660000e+00 -1.570000e+00  0.000000e+00
     vertex -3.660000e+00 -1.570000e+00 -3.500000e+00
   endloop
 endfacet
endsolid
