solid
 facet normal  0.000000e+00  1.000000e+00 -0.000000e+00
   outer loop
     vertex  7.500000e+00  3.750000e+00  1.000000e-01
     vertex -7.500000e+00  3.750000e+00  1.000000e-01
     vertex -7.500000e+00  3.750000e+00  1.010000e+01
   endloop
 endfacet
 facet normal  0.000000e+00  1.000000e+00 -0.000000e+00
   outer loop
     vertex  7.500000e+00  3.750000e+00  1.000000e-01
     vertex -7.500000e+00  3.750000e+00  1.010000e+01
     vertex  7.500000e+00  3.750000e+00  1.010000e+01
   endloop
 endfacet
 facet normal  1.000000e+00  0.000000e+00  0.000000e+00
   outer loop
     vertex  7.500000e+00 -3.750000e+00  1.000000e-01
     vertex  7.500000e+00  3.750000e+00  1.000000e-01
     vertex  7.500000e+00  3.750000e+00  1.010000e+01
   endloop
 endfacet
 facet normal  1.000000e+00  0.000000e+00 -0.000000e+00
   outer loop
     vertex  7.500000e+00 -3.750000e+00  1.000000e-01
     vertex  7.500000e+00  3.750000e+00  1.010000e+01
     vertex  7.500000e+00 -3.750000e+00  1.010000e+01
   endloop
 endfacet
 facet normal  0.000000e+00 -1.000000e+00  0.000000e+00
   outer loop
     vertex -7.500000e+00 -3.750000e+00  1.000000e-01
     vertex  7.500000e+00 -3.750000e+00  1.000000e-01
     vertex  7.500000e+00 -3.750000e+00  1.010000e+01
   endloop
 endfacet
 facet normal  0.000000e+00 -1.000000e+00  0.000000e+00
   outer loop
     vertex -7.500000e+00 -3.750000e+00  1.000000e-01
     vertex  7.500000e+00 -3.750000e+00  1.010000e+01
     vertex -7.500000e+00 -3.750000e+00  1.010000e+01
   endloop
 endfacet
 facet normal -1.000000e+00  0.000000e+00  0.000000e+00
   outer loop
     vertex -7.500000e+00  3.750000e+00  1.000000e-01
     vertex -7.500000e+00 -3.750000e+00  1.000000e-01
     vertex -7.500000e+00 -3.750000e+00  1.010000e+01
   endloop
 endfacet
 facet normal -1.000000e+00  0.000000e+00  0.000000e+00
   outer loop
     vertex -7.500000e+00  3.750000e+00  1.000000e-01
     vertex -7.500000e+00 -3.750000e+00  1.010000e+01
     vertex -7.500000e+00  3.750000e+00  1.010000e+01
   endloop
 endfacet
 facet normal  0.000000e+00  0.000000e+00 -1.000000e+00
   outer loop
     vertex -7.500000e+00 -3.750000e+00  1.000000e-01
     vertex -7.500000e+00  3.750000e+00  1.000000e-01
     vertex  7.500000e+00 -3.750000e+00  1.000000e-01
   endloop
 endfacet
 facet normal  0.000000e+00  0.000000e+00 -1.000000e+00
   outer loop
     vertex  7.500000e+00 -3.750000e+00  1.000000e-01
     vertex -7.500000e+00  3.750000e+00  1.000000e-01
     vertex  7.500000e+00  3.750000e+00  1.000000e-01
   endloop
 endfacet
 facet normal  0.000000e+00  0.000000e+00  1.000000e+00
   outer loop
     vertex  7.500000e+00 -3.750000e+00  1.010000e+01
     vertex -7.500000e+00  3.750000e+00  1.010000e+01
     vertex -7.500000e+00 -3.750000e+00  1.010000e+01
   endloop
 endfacet
 facet normal  0.000000e+00  0.000000e+00  1.000000e+00
   outer loop
     vertex  7.500000e+00  3.750000e+00  1.010000e+01
     vertex -7.500000e+00  3.750000e+00  1.010000e+01
     vertex  7.500000e+00 -3.750000e+00  1.010000e+01
   endloop
 endfacet
 facet normal -1.000000e+00 -0.000000e+00 -0.000000e+00
   outer loop
     vertex -6.750000e+00 -2.245000e+00  1.000000e-01
     vertex -6.750000e+00 -2.245000e+00  0.000000e+00
     vertex -6.750000e+00 -4.045000e+00  1.000000e-01
   endloop
 endfacet
 facet normal -1.000000e+00  0.000000e+00  0.000000e+00
   outer loop
     vertex -6.750000e+00 -2.245000e+00  0.000000e+00
     vertex -6.750000e+00 -4.045000e+00  0.000000e+00
     vertex -6.750000e+00 -4.045000e+00  1.000000e-01
   endloop
 endfacet
 facet normal  1.000000e+00 -0.000000e+00  0.000000e+00
   outer loop
     vertex -5.950000e+00 -4.045000e+00  1.000000e-01
     vertex -5.950000e+00 -2.245000e+00  0.000000e+00
     vertex -5.950000e+00 -2.245000e+00  1.000000e-01
   endloop
 endfacet
 facet normal  1.000000e+00 -0.000000e+00  0.000000e+00
   outer loop
     vertex -5.950000e+00 -4.045000e+00  1.000000e-01
     vertex -5.950000e+00 -4.045000e+00  0.000000e+00
     vertex -5.950000e+00 -2.245000e+00  0.000000e+00
   endloop
 endfacet
 facet normal  0.000000e+00 -1.000000e+00  0.000000e+00
   outer loop
     vertex -6.750000e+00 -4.045000e+00  0.000000e+00
     vertex -5.950000e+00 -4.045000e+00  0.000000e+00
     vertex -5.950000e+00 -4.045000e+00  1.000000e-01
   endloop
 endfacet
 facet normal  0.000000e+00 -1.000000e+00  0.000000e+00
   outer loop
     vertex -6.750000e+00 -4.045000e+00  1.000000e-01
     vertex -6.750000e+00 -4.045000e+00  0.000000e+00
     vertex -5.950000e+00 -4.045000e+00  1.000000e-01
   endloop
 endfacet
 facet normal  0.000000e+00  1.000000e+00  0.000000e+00
   outer loop
     vertex -5.950000e+00 -2.245000e+00  1.000000e-01
     vertex -5.950000e+00 -2.245000e+00  0.000000e+00
     vertex -6.750000e+00 -2.245000e+00  0.000000e+00
   endloop
 endfacet
 facet normal  0.000000e+00  1.000000e+00 -0.000000e+00
   outer loop
     vertex -5.950000e+00 -2.245000e+00  1.000000e-01
     vertex -6.750000e+00 -2.245000e+00  0.000000e+00
     vertex -6.750000e+00 -2.245000e+00  1.000000e-01
   endloop
 endfacet
 facet normal  0.000000e+00  0.000000e+00 -1.000000e+00
   outer loop
     vertex -6.750000e+00 -4.045000e+00  0.000000e+00
     vertex -6.750000e+00 -2.245000e+00  0.000000e+00
     vertex -5.950000e+00 -2.245000e+00  0.000000e+00
   endloop
 endfacet
 facet normal  0.000000e+00  0.000000e+00 -1.000000e+00
   outer loop
     vertex -5.950000e+00 -4.045000e+00  0.000000e+00
     vertex -6.750000e+00 -4.045000e+00  0.000000e+00
     vertex -5.950000e+00 -2.245000e+00  0.000000e+00
   endloop
 endfacet
 facet normal  0.000000e+00  0.000000e+00  1.000000e+00
   outer loop
     vertex -5.950000e+00 -2.245000e+00  1.000000e-01
     vertex -6.750000e+00 -2.245000e+00  1.000000e-01
     vertex -6.750000e+00 -4.045000e+00  1.000000e-01
   endloop
 endfacet
 facet normal -0.000000e+00  0.000000e+00  1.000000e+00
   outer loop
     vertex -5.950000e+00 -2.245000e+00  1.000000e-01
     vertex -6.750000e+00 -4.045000e+00  1.000000e-01
     vertex -5.950000e+00 -4.045000e+00  1.000000e-01
   endloop
 endfacet
 facet normal -1.000000e+00 -0.000000e+00 -0.000000e+00
   outer loop
     vertex -1.670000e+00 -2.245000e+00  1.000000e-01
     vertex -1.670000e+00 -2.245000e+00  0.000000e+00
     vertex -1.670000e+00 -4.045000e+00  1.000000e-01
   endloop
 endfacet
 facet normal -1.000000e+00  0.000000e+00  0.000000e+00
   outer loop
     vertex -1.670000e+00 -2.245000e+00  0.000000e+00
     vertex -1.670000e+00 -4.045000e+00  0.000000e+00
     vertex -1.670000e+00 -4.045000e+00  1.000000e-01
   endloop
 endfacet
 facet normal  1.000000e+00 -0.000000e+00  0.000000e+00
   outer loop
     vertex -8.700000e-01 -4.045000e+00  1.000000e-01
     vertex -8.700000e-01 -2.245000e+00  0.000000e+00
     vertex -8.700000e-01 -2.245000e+00  1.000000e-01
   endloop
 endfacet
 facet normal  1.000000e+00 -0.000000e+00  0.000000e+00
   outer loop
     vertex -8.700000e-01 -4.045000e+00  1.000000e-01
     vertex -8.700000e-01 -4.045000e+00  0.000000e+00
     vertex -8.700000e-01 -2.245000e+00  0.000000e+00
   endloop
 endfacet
 facet normal  0.000000e+00 -1.000000e+00  0.000000e+00
   outer loop
     vertex -1.670000e+00 -4.045000e+00  0.000000e+00
     vertex -8.700000e-01 -4.045000e+00  0.000000e+00
     vertex -8.700000e-01 -4.045000e+00  1.000000e-01
   endloop
 endfacet
 facet normal  0.000000e+00 -1.000000e+00  0.000000e+00
   outer loop
     vertex -1.670000e+00 -4.045000e+00  1.000000e-01
     vertex -1.670000e+00 -4.045000e+00  0.000000e+00
     vertex -8.700000e-01 -4.045000e+00  1.000000e-01
   endloop
 endfacet
 facet normal  0.000000e+00  1.000000e+00  0.000000e+00
   outer loop
     vertex -8.700000e-01 -2.245000e+00  1.000000e-01
     vertex -8.700000e-01 -2.245000e+00  0.000000e+00
     vertex -1.670000e+00 -2.245000e+00  0.000000e+00
   endloop
 endfacet
 facet normal  0.000000e+00  1.000000e+00 -0.000000e+00
   outer loop
     vertex -8.700000e-01 -2.245000e+00  1.000000e-01
     vertex -1.670000e+00 -2.245000e+00  0.000000e+00
     vertex -1.670000e+00 -2.245000e+00  1.000000e-01
   endloop
 endfacet
 facet normal  0.000000e+00  0.000000e+00 -1.000000e+00
   outer loop
     vertex -8.700000e-01 -4.045000e+00  0.000000e+00
     vertex -1.670000e+00 -4.045000e+00  0.000000e+00
     vertex -1.670000e+00 -2.245000e+00  0.000000e+00
   endloop
 endfacet
 facet normal  0.000000e+00  0.000000e+00 -1.000000e+00
   outer loop
     vertex -8.700000e-01 -4.045000e+00  0.000000e+00
     vertex -1.670000e+00 -2.245000e+00  0.000000e+00
     vertex -8.700000e-01 -2.245000e+00  0.000000e+00
   endloop
 endfacet
 facet normal -0.000000e+00  0.000000e+00  1.000000e+00
   outer loop
     vertex -1.670000e+00 -2.245000e+00  1.000000e-01
     vertex -1.670000e+00 -4.045000e+00  1.000000e-01
     vertex -8.700000e-01 -4.045000e+00  1.000000e-01
   endloop
 endfacet
 facet normal  0.000000e+00  0.000000e+00  1.000000e+00
   outer loop
     vertex -8.700000e-01 -2.245000e+00  1.000000e-01
     vertex -1.670000e+00 -2.245000e+00  1.000000e-01
     vertex -8.700000e-01 -4.045000e+00  1.000000e-01
   endloop
 endfacet
 facet normal -1.000000e+00 -0.000000e+00 -0.000000e+00
   outer loop
     vertex  8.700000e-01 -2.245000e+00  1.000000e-01
     vertex  8.700000e-01 -2.245000e+00  0.000000e+00
     vertex  8.700000e-01 -4.045000e+00  1.000000e-01
   endloop
 endfacet
 facet normal -1.000000e+00  0.000000e+00  0.000000e+00
   outer loop
     vertex  8.700000e-01 -2.245000e+00  0.000000e+00
     vertex  8.700000e-01 -4.045000e+00  0.000000e+00
     vertex  8.700000e-01 -4.045000e+00  1.000000e-01
   endloop
 endfacet
 facet normal  1.000000e+00 -0.000000e+00  0.000000e+00
   outer loop
     vertex  1.670000e+00 -4.045000e+00  1.000000e-01
     vertex  1.670000e+00 -2.245000e+00  0.000000e+00
     vertex  1.670000e+00 -2.245000e+00  1.000000e-01
   endloop
 endfacet
 facet normal  1.000000e+00 -0.000000e+00  0.000000e+00
   outer loop
     vertex  1.670000e+00 -4.045000e+00  1.000000e-01
     vertex  1.670000e+00 -4.045000e+00  0.000000e+00
     vertex  1.670000e+00 -2.245000e+00  0.000000e+00
   endloop
 endfacet
 facet normal  0.000000e+00 -1.000000e+00  0.000000e+00
   outer loop
     vertex  8.700000e-01 -4.045000e+00  0.000000e+00
     vertex  1.670000e+00 -4.045000e+00  0.000000e+00
     vertex  1.670000e+00 -4.045000e+00  1.000000e-01
   endloop
 endfacet
 facet normal  0.000000e+00 -1.000000e+00  0.000000e+00
   outer loop
     vertex  8.700000e-01 -4.045000e+00  1.000000e-01
     vertex  8.700000e-01 -4.045000e+00  0.000000e+00
     vertex  1.670000e+00 -4.045000e+00  1.000000e-01
   endloop
 endfacet
 facet normal  0.000000e+00  1.000000e+00  0.000000e+00
   outer loop
     vertex  1.670000e+00 -2.245000e+00  1.000000e-01
     vertex  1.670000e+00 -2.245000e+00  0.000000e+00
     vertex  8.700000e-01 -2.245000e+00  0.000000e+00
   endloop
 endfacet
 facet normal  0.000000e+00  1.000000e+00 -0.000000e+00
   outer loop
     vertex  1.670000e+00 -2.245000e+00  1.000000e-01
     vertex  8.700000e-01 -2.245000e+00  0.000000e+00
     vertex  8.700000e-01 -2.245000e+00  1.000000e-01
   endloop
 endfacet
 facet normal  0.000000e+00  0.000000e+00 -1.000000e+00
   outer loop
     vertex  1.670000e+00 -4.045000e+00  0.000000e+00
     vertex  8.700000e-01 -4.045000e+00  0.000000e+00
     vertex  8.700000e-01 -2.245000e+00  0.000000e+00
   endloop
 endfacet
 facet normal  0.000000e+00  0.000000e+00 -1.000000e+00
   outer loop
     vertex  1.670000e+00 -4.045000e+00  0.000000e+00
     vertex  8.700000e-01 -2.245000e+00  0.000000e+00
     vertex  1.670000e+00 -2.245000e+00  0.000000e+00
   endloop
 endfacet
 facet normal -0.000000e+00  0.000000e+00  1.000000e+00
   outer loop
     vertex  8.700000e-01 -2.245000e+00  1.000000e-01
     vertex  8.700000e-01 -4.045000e+00  1.000000e-01
     vertex  1.670000e+00 -4.045000e+00  1.000000e-01
   endloop
 endfacet
 facet normal  0.000000e+00  0.000000e+00  1.000000e+00
   outer loop
     vertex  1.670000e+00 -2.245000e+00  1.000000e-01
     vertex  8.700000e-01 -2.245000e+00  1.000000e-01
     vertex  1.670000e+00 -4.045000e+00  1.000000e-01
   endloop
 endfacet
 facet normal -1.000000e+00 -0.000000e+00 -0.000000e+00
   outer loop
     vertex  3.410000e+00 -2.245000e+00  1.000000e-01
     vertex  3.410000e+00 -2.245000e+00  0.000000e+00
     vertex  3.410000e+00 -4.045000e+00  1.000000e-01
   endloop
 endfacet
 facet normal -1.000000e+00  0.000000e+00  0.000000e+00
   outer loop
     vertex  3.410000e+00 -2.245000e+00  0.000000e+00
     vertex  3.410000e+00 -4.045000e+00  0.000000e+00
     vertex  3.410000e+00 -4.045000e+00  1.000000e-01
   endloop
 endfacet
 facet normal  1.000000e+00 -0.000000e+00  0.000000e+00
   outer loop
     vertex  4.210000e+00 -4.045000e+00  1.000000e-01
     vertex  4.210000e+00 -2.245000e+00  0.000000e+00
     vertex  4.210000e+00 -2.245000e+00  1.000000e-01
   endloop
 endfacet
 facet normal  1.000000e+00 -0.000000e+00  0.000000e+00
   outer loop
     vertex  4.210000e+00 -4.045000e+00  1.000000e-01
     vertex  4.210000e+00 -4.045000e+00  0.000000e+00
     vertex  4.210000e+00 -2.245000e+00  0.000000e+00
   endloop
 endfacet
 facet normal  0.000000e+00 -1.000000e+00  0.000000e+00
   outer loop
     vertex  3.410000e+00 -4.045000e+00  0.000000e+00
     vertex  4.210000e+00 -4.045000e+00  0.000000e+00
     vertex  4.210000e+00 -4.045000e+00  1.000000e-01
   endloop
 endfacet
 facet normal  0.000000e+00 -1.000000e+00  0.000000e+00
   outer loop
     vertex  3.410000e+00 -4.045000e+00  1.000000e-01
     vertex  3.410000e+00 -4.045000e+00  0.000000e+00
     vertex  4.210000e+00 -4.045000e+00  1.000000e-01
   endloop
 endfacet
 facet normal  0.000000e+00  1.000000e+00  0.000000e+00
   outer loop
     vertex  4.210000e+00 -2.245000e+00  1.000000e-01
     vertex  4.210000e+00 -2.245000e+00  0.000000e+00
     vertex  3.410000e+00 -2.245000e+00  0.000000e+00
   endloop
 endfacet
 facet normal  0.000000e+00  1.000000e+00 -0.000000e+00
   outer loop
     vertex  4.210000e+00 -2.245000e+00  1.000000e-01
     vertex  3.410000e+00 -2.245000e+00  0.000000e+00
     vertex  3.410000e+00 -2.245000e+00  1.000000e-01
   endloop
 endfacet
 facet normal  0.000000e+00  0.000000e+00 -1.000000e+00
   outer loop
     vertex  4.210000e+00 -4.045000e+00  0.000000e+00
     vertex  3.410000e+00 -4.045000e+00  0.000000e+00
     vertex  3.410000e+00 -2.245000e+00  0.000000e+00
   endloop
 endfacet
 facet normal  0.000000e+00  0.000000e+00 -1.000000e+00
   outer loop
     vertex  4.210000e+00 -4.045000e+00  0.000000e+00
     vertex  3.410000e+00 -2.245000e+00  0.000000e+00
     vertex  4.210000e+00 -2.245000e+00  0.000000e+00
   endloop
 endfacet
 facet normal -0.000000e+00  0.000000e+00  1.000000e+00
   outer loop
     vertex  3.410000e+00 -2.245000e+00  1.000000e-01
     vertex  3.410000e+00 -4.045000e+00  1.000000e-01
     vertex  4.210000e+00 -4.045000e+00  1.000000e-01
   endloop
 endfacet
 facet normal  0.000000e+00  0.000000e+00  1.000000e+00
   outer loop
     vertex  4.210000e+00 -2.245000e+00  1.000000e-01
     vertex  3.410000e+00 -2.245000e+00  1.000000e-01
     vertex  4.210000e+00 -4.045000e+00  1.000000e-01
   endloop
 endfacet
 facet normal -1.000000e+00 -0.000000e+00 -0.000000e+00
   outer loop
     vertex  3.410000e+00  4.045000e+00  1.000000e-01
     vertex  3.410000e+00  4.045000e+00  0.000000e+00
     vertex  3.410000e+00  2.245000e+00  1.000000e-01
   endloop
 endfacet
 facet normal -1.000000e+00  0.000000e+00  0.000000e+00
   outer loop
     vertex  3.410000e+00  4.045000e+00  0.000000e+00
     vertex  3.410000e+00  2.245000e+00  0.000000e+00
     vertex  3.410000e+00  2.245000e+00  1.000000e-01
   endloop
 endfacet
 facet normal  1.000000e+00 -0.000000e+00  0.000000e+00
   outer loop
     vertex  4.210000e+00  2.245000e+00  1.000000e-01
     vertex  4.210000e+00  4.045000e+00  0.000000e+00
     vertex  4.210000e+00  4.045000e+00  1.000000e-01
   endloop
 endfacet
 facet normal  1.000000e+00 -0.000000e+00  0.000000e+00
   outer loop
     vertex  4.210000e+00  2.245000e+00  1.000000e-01
     vertex  4.210000e+00  2.245000e+00  0.000000e+00
     vertex  4.210000e+00  4.045000e+00  0.000000e+00
   endloop
 endfacet
 facet normal  0.000000e+00 -1.000000e+00  0.000000e+00
   outer loop
     vertex  3.410000e+00  2.245000e+00  0.000000e+00
     vertex  4.210000e+00  2.245000e+00  0.000000e+00
     vertex  4.210000e+00  2.245000e+00  1.000000e-01
   endloop
 endfacet
 facet normal  0.000000e+00 -1.000000e+00  0.000000e+00
   outer loop
     vertex  3.410000e+00  2.245000e+00  1.000000e-01
     vertex  3.410000e+00  2.245000e+00  0.000000e+00
     vertex  4.210000e+00  2.245000e+00  1.000000e-01
   endloop
 endfacet
 facet normal  0.000000e+00  1.000000e+00  0.000000e+00
   outer loop
     vertex  4.210000e+00  4.045000e+00  1.000000e-01
     vertex  4.210000e+00  4.045000e+00  0.000000e+00
     vertex  3.410000e+00  4.045000e+00  0.000000e+00
   endloop
 endfacet
 facet normal  0.000000e+00  1.000000e+00 -0.000000e+00
   outer loop
     vertex  4.210000e+00  4.045000e+00  1.000000e-01
     vertex  3.410000e+00  4.045000e+00  0.000000e+00
     vertex  3.410000e+00  4.045000e+00  1.000000e-01
   endloop
 endfacet
 facet normal  0.000000e+00  0.000000e+00 -1.000000e+00
   outer loop
     vertex  4.210000e+00  2.245000e+00  0.000000e+00
     vertex  3.410000e+00  2.245000e+00  0.000000e+00
     vertex  3.410000e+00  4.045000e+00  0.000000e+00
   endloop
 endfacet
 facet normal  0.000000e+00  0.000000e+00 -1.000000e+00
   outer loop
     vertex  4.210000e+00  2.245000e+00  0.000000e+00
     vertex  3.410000e+00  4.045000e+00  0.000000e+00
     vertex  4.210000e+00  4.045000e+00  0.000000e+00
   endloop
 endfacet
 facet normal -0.000000e+00  0.000000e+00  1.000000e+00
   outer loop
     vertex  3.410000e+00  4.045000e+00  1.000000e-01
     vertex  3.410000e+00  2.245000e+00  1.000000e-01
     vertex  4.210000e+00  2.245000e+00  1.000000e-01
   endloop
 endfacet
 facet normal  0.000000e+00  0.000000e+00  1.000000e+00
   outer loop
     vertex  4.210000e+00  4.045000e+00  1.000000e-01
     vertex  3.410000e+00  4.045000e+00  1.000000e-01
     vertex  4.210000e+00  2.245000e+00  1.000000e-01
   endloop
 endfacet
 facet normal -1.000000e+00 -0.000000e+00 -0.000000e+00
   outer loop
     vertex  8.700000e-01  4.045000e+00  1.000000e-01
     vertex  8.700000e-01  4.045000e+00  0.000000e+00
     vertex  8.700000e-01  2.245000e+00  1.000000e-01
   endloop
 endfacet
 facet normal -1.000000e+00  0.000000e+00  0.000000e+00
   outer loop
     vertex  8.700000e-01  4.045000e+00  0.000000e+00
     vertex  8.700000e-01  2.245000e+00  0.000000e+00
     vertex  8.700000e-01  2.245000e+00  1.000000e-01
   endloop
 endfacet
 facet normal  1.000000e+00 -0.000000e+00  0.000000e+00
   outer loop
     vertex  1.670000e+00  2.245000e+00  1.000000e-01
     vertex  1.670000e+00  4.045000e+00  0.000000e+00
     vertex  1.670000e+00  4.045000e+00  1.000000e-01
   endloop
 endfacet
 facet normal  1.000000e+00 -0.000000e+00  0.000000e+00
   outer loop
     vertex  1.670000e+00  2.245000e+00  1.000000e-01
     vertex  1.670000e+00  2.245000e+00  0.000000e+00
     vertex  1.670000e+00  4.045000e+00  0.000000e+00
   endloop
 endfacet
 facet normal  0.000000e+00 -1.000000e+00  0.000000e+00
   outer loop
     vertex  8.700000e-01  2.245000e+00  0.000000e+00
     vertex  1.670000e+00  2.245000e+00  0.000000e+00
     vertex  1.670000e+00  2.245000e+00  1.000000e-01
   endloop
 endfacet
 facet normal  0.000000e+00 -1.000000e+00  0.000000e+00
   outer loop
     vertex  8.700000e-01  2.245000e+00  1.000000e-01
     vertex  8.700000e-01  2.245000e+00  0.000000e+00
     vertex  1.670000e+00  2.245000e+00  1.000000e-01
   endloop
 endfacet
 facet normal  0.000000e+00  1.000000e+00  0.000000e+00
   outer loop
     vertex  1.670000e+00  4.045000e+00  1.000000e-01
     vertex  1.670000e+00  4.045000e+00  0.000000e+00
     vertex  8.700000e-01  4.045000e+00  0.000000e+00
   endloop
 endfacet
 facet normal  0.000000e+00  1.000000e+00 -0.000000e+00
   outer loop
     vertex  1.670000e+00  4.045000e+00  1.000000e-01
     vertex  8.700000e-01  4.045000e+00  0.000000e+00
     vertex  8.700000e-01  4.045000e+00  1.000000e-01
   endloop
 endfacet
 facet normal  0.000000e+00  0.000000e+00 -1.000000e+00
   outer loop
     vertex  1.670000e+00  2.245000e+00  0.000000e+00
     vertex  8.700000e-01  2.245000e+00  0.000000e+00
     vertex  8.700000e-01  4.045000e+00  0.000000e+00
   endloop
 endfacet
 facet normal  0.000000e+00  0.000000e+00 -1.000000e+00
   outer loop
     vertex  1.670000e+00  2.245000e+00  0.000000e+00
     vertex  8.700000e-01  4.045000e+00  0.000000e+00
     vertex  1.670000e+00  4.045000e+00  0.000000e+00
   endloop
 endfacet
 facet normal -0.000000e+00  0.000000e+00  1.000000e+00
   outer loop
     vertex  8.700000e-01  4.045000e+00  1.000000e-01
     vertex  8.700000e-01  2.245000e+00  1.000000e-01
     vertex  1.670000e+00  2.245000e+00  1.000000e-01
   endloop
 endfacet
 facet normal  0.000000e+00  0.000000e+00  1.000000e+00
   outer loop
     vertex  1.670000e+00  4.045000e+00  1.000000e-01
     vertex  8.700000e-01  4.045000e+00  1.000000e-01
     vertex  1.670000e+00  2.245000e+00  1.000000e-01
   endloop
 endfacet
 facet normal -1.000000e+00 -0.000000e+00 -0.000000e+00
   outer loop
     vertex -1.670000e+00  4.045000e+00  1.000000e-01
     vertex -1.670000e+00  4.045000e+00  0.000000e+00
     vertex -1.670000e+00  2.245000e+00  1.000000e-01
   endloop
 endfacet
 facet normal -1.000000e+00  0.000000e+00  0.000000e+00
   outer loop
     vertex -1.670000e+00  4.045000e+00  0.000000e+00
     vertex -1.670000e+00  2.245000e+00  0.000000e+00
     vertex -1.670000e+00  2.245000e+00  1.000000e-01
   endloop
 endfacet
 facet normal  1.000000e+00 -0.000000e+00  0.000000e+00
   outer loop
     vertex -8.700000e-01  2.245000e+00  1.000000e-01
     vertex -8.700000e-01  4.045000e+00  0.000000e+00
     vertex -8.700000e-01  4.045000e+00  1.000000e-01
   endloop
 endfacet
 facet normal  1.000000e+00 -0.000000e+00  0.000000e+00
   outer loop
     vertex -8.700000e-01  2.245000e+00  1.000000e-01
     vertex -8.700000e-01  2.245000e+00  0.000000e+00
     vertex -8.700000e-01  4.045000e+00  0.000000e+00
   endloop
 endfacet
 facet normal  0.000000e+00 -1.000000e+00  0.000000e+00
   outer loop
     vertex -1.670000e+00  2.245000e+00  0.000000e+00
     vertex -8.700000e-01  2.245000e+00  0.000000e+00
     vertex -8.700000e-01  2.245000e+00  1.000000e-01
   endloop
 endfacet
 facet normal  0.000000e+00 -1.000000e+00  0.000000e+00
   outer loop
     vertex -1.670000e+00  2.245000e+00  1.000000e-01
     vertex -1.670000e+00  2.245000e+00  0.000000e+00
     vertex -8.700000e-01  2.245000e+00  1.000000e-01
   endloop
 endfacet
 facet normal  0.000000e+00  1.000000e+00  0.000000e+00
   outer loop
     vertex -8.700000e-01  4.045000e+00  1.000000e-01
     vertex -8.700000e-01  4.045000e+00  0.000000e+00
     vertex -1.670000e+00  4.045000e+00  0.000000e+00
   endloop
 endfacet
 facet normal  0.000000e+00  1.000000e+00 -0.000000e+00
   outer loop
     vertex -8.700000e-01  4.045000e+00  1.000000e-01
     vertex -1.670000e+00  4.045000e+00  0.000000e+00
     vertex -1.670000e+00  4.045000e+00  1.000000e-01
   endloop
 endfacet
 facet normal  0.000000e+00  0.000000e+00 -1.000000e+00
   outer loop
     vertex -8.700000e-01  2.245000e+00  0.000000e+00
     vertex -1.670000e+00  2.245000e+00  0.000000e+00
     vertex -1.670000e+00  4.045000e+00  0.000000e+00
   endloop
 endfacet
 facet normal  0.000000e+00  0.000000e+00 -1.000000e+00
   outer loop
     vertex -8.700000e-01  2.245000e+00  0.000000e+00
     vertex -1.670000e+00  4.045000e+00  0.000000e+00
     vertex -8.700000e-01  4.045000e+00  0.000000e+00
   endloop
 endfacet
 facet normal -0.000000e+00  0.000000e+00  1.000000e+00
   outer loop
     vertex -1.670000e+00  4.045000e+00  1.000000e-01
     vertex -1.670000e+00  2.245000e+00  1.000000e-01
     vertex -8.700000e-01  2.245000e+00  1.000000e-01
   endloop
 endfacet
 facet normal  0.000000e+00  0.000000e+00  1.000000e+00
   outer loop
     vertex -8.700000e-01  4.045000e+00  1.000000e-01
     vertex -1.670000e+00  4.045000e+00  1.000000e-01
     vertex -8.700000e-01  2.245000e+00  1.000000e-01
   endloop
 endfacet
 facet normal -1.000000e+00 -0.000000e+00 -0.000000e+00
   outer loop
     vertex -6.750000e+00  4.045000e+00  1.000000e-01
     vertex -6.750000e+00  4.045000e+00  0.000000e+00
     vertex -6.750000e+00  2.245000e+00  1.000000e-01
   endloop
 endfacet
 facet normal -1.000000e+00  0.000000e+00  0.000000e+00
   outer loop
     vertex -6.750000e+00  4.045000e+00  0.000000e+00
     vertex -6.750000e+00  2.245000e+00  0.000000e+00
     vertex -6.750000e+00  2.245000e+00  1.000000e-01
   endloop
 endfacet
 facet normal  1.000000e+00 -0.000000e+00  0.000000e+00
   outer loop
     vertex -5.950000e+00  2.245000e+00  1.000000e-01
     vertex -5.950000e+00  4.045000e+00  0.000000e+00
     vertex -5.950000e+00  4.045000e+00  1.000000e-01
   endloop
 endfacet
 facet normal  1.000000e+00 -0.000000e+00  0.000000e+00
   outer loop
     vertex -5.950000e+00  2.245000e+00  1.000000e-01
     vertex -5.950000e+00  2.245000e+00  0.000000e+00
     vertex -5.950000e+00  4.045000e+00  0.000000e+00
   endloop
 endfacet
 facet normal  0.000000e+00 -1.000000e+00  0.000000e+00
   outer loop
     vertex -6.750000e+00  2.245000e+00  0.000000e+00
     vertex -5.950000e+00  2.245000e+00  0.000000e+00
     vertex -5.950000e+00  2.245000e+00  1.000000e-01
   endloop
 endfacet
 facet normal  0.000000e+00 -1.000000e+00  0.000000e+00
   outer loop
     vertex -6.750000e+00  2.245000e+00  1.000000e-01
     vertex -6.750000e+00  2.245000e+00  0.000000e+00
     vertex -5.950000e+00  2.245000e+00  1.000000e-01
   endloop
 endfacet
 facet normal  0.000000e+00  1.000000e+00  0.000000e+00
   outer loop
     vertex -5.950000e+00  4.045000e+00  1.000000e-01
     vertex -5.950000e+00  4.045000e+00  0.000000e+00
     vertex -6.750000e+00  4.045000e+00  0.000000e+00
   endloop
 endfacet
 facet normal  0.000000e+00  1.000000e+00 -0.000000e+00
   outer loop
     vertex -5.950000e+00  4.045000e+00  1.000000e-01
     vertex -6.750000e+00  4.045000e+00  0.000000e+00
     vertex -6.750000e+00  4.045000e+00  1.000000e-01
   endloop
 endfacet
 facet normal  0.000000e+00  0.000000e+00 -1.000000e+00
   outer loop
     vertex -6.750000e+00  2.245000e+00  0.000000e+00
     vertex -6.750000e+00  4.045000e+00  0.000000e+00
     vertex -5.950000e+00  4.045000e+00  0.000000e+00
   endloop
 endfacet
 facet normal  0.000000e+00  0.000000e+00 -1.000000e+00
   outer loop
     vertex -5.950000e+00  2.245000e+00  0.000000e+00
     vertex -6.750000e+00  2.245000e+00  0.000000e+00
     vertex -5.950000e+00  4.045000e+00  0.000000e+00
   endloop
 endfacet
 facet normal  0.000000e+00  0.000000e+00  1.000000e+00
   outer loop
     vertex -5.950000e+00  4.045000e+00  1.000000e-01
     vertex -6.750000e+00  4.045000e+00  1.000000e-01
     vertex -6.750000e+00  2.245000e+00  1.000000e-01
   endloop
 endfacet
 facet normal -0.000000e+00  0.000000e+00  1.000000e+00
   outer loop
     vertex -5.950000e+00  4.045000e+00  1.000000e-01
     vertex -6.750000e+00  2.245000e+00  1.000000e-01
     vertex -5.950000e+00  2.245000e+00  1.000000e-01
   endloop
 endfacet
endsolid
