G04 #@! TF.GenerationSoftware,KiCad,Pcbnew,(5.1.4)-1*
G04 #@! TF.CreationDate,2019-12-15T21:40:21+01:00*
G04 #@! TF.ProjectId,AcMonitoringSystem,41634d6f-6e69-4746-9f72-696e67537973,rev?*
G04 #@! TF.SameCoordinates,Original*
G04 #@! TF.FileFunction,Copper,L2,Bot*
G04 #@! TF.FilePolarity,Positive*
%FSLAX46Y46*%
G04 Gerber Fmt 4.6, Leading zero omitted, Abs format (unit mm)*
G04 Created by KiCad (PCBNEW (5.1.4)-1) date 2019-12-15 21:40:21*
%MOMM*%
%LPD*%
G04 APERTURE LIST*
%ADD10C,0.100000*%
%ADD11O,2.400000X1.600000*%
%ADD12C,1.550000*%
%ADD13C,0.800000*%
%ADD14C,6.400000*%
%ADD15R,2.000000X2.000000*%
%ADD16C,2.000000*%
%ADD17R,1.200000X1.200000*%
%ADD18C,1.200000*%
%ADD19C,1.600000*%
%ADD20R,1.600000X1.600000*%
%ADD21R,2.600000X2.600000*%
%ADD22C,2.600000*%
%ADD23O,1.100000X1.500000*%
%ADD24O,1.350000X1.700000*%
%ADD25C,1.700000*%
%ADD26O,1.700000X2.000000*%
%ADD27C,1.650000*%
%ADD28C,1.300000*%
%ADD29C,1.308000*%
%ADD30R,1.308000X1.308000*%
%ADD31C,1.400000*%
%ADD32C,1.000000*%
%ADD33C,1.250000*%
%ADD34C,0.250000*%
%ADD35C,1.000000*%
%ADD36C,0.750000*%
%ADD37C,0.500000*%
%ADD38C,2.000000*%
%ADD39C,1.500000*%
%ADD40C,0.254000*%
G04 APERTURE END LIST*
D10*
G36*
X137650000Y-62550000D02*
G01*
X137650000Y-66450000D01*
X133750000Y-66450000D01*
X133750000Y-62550000D01*
X137650000Y-62550000D01*
G37*
D11*
X142750000Y-87250000D03*
X142750000Y-89250000D03*
X142750000Y-91250000D03*
X142750000Y-93250000D03*
X142750000Y-95250000D03*
X142750000Y-97250000D03*
X142750000Y-99250000D03*
X142750000Y-101250000D03*
X142750000Y-103250000D03*
X142750000Y-105250000D03*
X142750000Y-107250000D03*
X142750000Y-109250000D03*
X142750000Y-111250000D03*
X142750000Y-113250000D03*
X142750000Y-115250000D03*
X142750000Y-117250000D03*
X167150000Y-87250000D03*
X167150000Y-89250000D03*
X167150000Y-91250000D03*
X167150000Y-93250000D03*
X167150000Y-95250000D03*
X167150000Y-97250000D03*
X167150000Y-99250000D03*
X167150000Y-101250000D03*
X167150000Y-103250000D03*
X167150000Y-105250000D03*
X167150000Y-107250000D03*
X167150000Y-109250000D03*
X167150000Y-111250000D03*
X167150000Y-113250000D03*
X167150000Y-115250000D03*
X167150000Y-117250000D03*
D12*
X83000000Y-38000000D03*
X83000000Y-58000000D03*
X103000000Y-43000000D03*
X103000000Y-53000000D03*
D13*
X84697056Y-164302944D03*
X83000000Y-163600000D03*
X81302944Y-164302944D03*
X80600000Y-166000000D03*
X81302944Y-167697056D03*
X83000000Y-168400000D03*
X84697056Y-167697056D03*
X85400000Y-166000000D03*
D14*
X83000000Y-166000000D03*
D13*
X84697056Y-24502944D03*
X83000000Y-23800000D03*
X81302944Y-24502944D03*
X80600000Y-26200000D03*
X81302944Y-27897056D03*
X83000000Y-28600000D03*
X84697056Y-27897056D03*
X85400000Y-26200000D03*
D14*
X83000000Y-26200000D03*
X165500000Y-26200000D03*
D13*
X167900000Y-26200000D03*
X167197056Y-27897056D03*
X165500000Y-28600000D03*
X163802944Y-27897056D03*
X163100000Y-26200000D03*
X163802944Y-24502944D03*
X165500000Y-23800000D03*
X167197056Y-24502944D03*
D14*
X165500000Y-166200000D03*
D13*
X167900000Y-166200000D03*
X167197056Y-167897056D03*
X165500000Y-168600000D03*
X163802944Y-167897056D03*
X163100000Y-166200000D03*
X163802944Y-164502944D03*
X165500000Y-163800000D03*
X167197056Y-164502944D03*
D15*
X121500000Y-51000000D03*
D16*
X121500000Y-56000000D03*
D17*
X119250000Y-40750000D03*
D18*
X119250000Y-39250000D03*
X133250000Y-55000000D03*
D17*
X133250000Y-53500000D03*
D16*
X121500000Y-89375000D03*
D15*
X121500000Y-84375000D03*
D17*
X119250000Y-73625000D03*
D18*
X119250000Y-72125000D03*
D17*
X133250000Y-86500000D03*
D18*
X133250000Y-88000000D03*
D16*
X121250000Y-122750000D03*
D15*
X121250000Y-117750000D03*
D18*
X119250000Y-105000000D03*
D17*
X119250000Y-106500000D03*
X133250000Y-119500000D03*
D18*
X133250000Y-121000000D03*
D15*
X119000000Y-139000000D03*
D16*
X114000000Y-139000000D03*
D18*
X133250000Y-125000000D03*
D17*
X133250000Y-126500000D03*
D19*
X136000000Y-32750000D03*
D20*
X136000000Y-34750000D03*
X155750000Y-34250000D03*
D19*
X155750000Y-32250000D03*
D16*
X90000000Y-162000000D03*
X95080000Y-162010000D03*
X107080000Y-162010000D03*
X102000000Y-162000000D03*
X114000000Y-162000000D03*
X119080000Y-162010000D03*
D19*
X124500000Y-165250000D03*
X129500000Y-165250000D03*
D21*
X90000000Y-174000000D03*
D22*
X95000000Y-174000000D03*
D21*
X102000000Y-174000000D03*
D22*
X107000000Y-174000000D03*
X119000000Y-174000000D03*
D21*
X114000000Y-174000000D03*
X126000000Y-174000000D03*
D22*
X131000000Y-174000000D03*
D23*
X154805000Y-176365000D03*
X159645000Y-176365000D03*
D24*
X154495000Y-179365000D03*
X159955000Y-179365000D03*
D10*
G36*
X145374504Y-25001204D02*
G01*
X145398773Y-25004804D01*
X145422571Y-25010765D01*
X145445671Y-25019030D01*
X145467849Y-25029520D01*
X145488893Y-25042133D01*
X145508598Y-25056747D01*
X145526777Y-25073223D01*
X145543253Y-25091402D01*
X145557867Y-25111107D01*
X145570480Y-25132151D01*
X145580970Y-25154329D01*
X145589235Y-25177429D01*
X145595196Y-25201227D01*
X145598796Y-25225496D01*
X145600000Y-25250000D01*
X145600000Y-26750000D01*
X145598796Y-26774504D01*
X145595196Y-26798773D01*
X145589235Y-26822571D01*
X145580970Y-26845671D01*
X145570480Y-26867849D01*
X145557867Y-26888893D01*
X145543253Y-26908598D01*
X145526777Y-26926777D01*
X145508598Y-26943253D01*
X145488893Y-26957867D01*
X145467849Y-26970480D01*
X145445671Y-26980970D01*
X145422571Y-26989235D01*
X145398773Y-26995196D01*
X145374504Y-26998796D01*
X145350000Y-27000000D01*
X144150000Y-27000000D01*
X144125496Y-26998796D01*
X144101227Y-26995196D01*
X144077429Y-26989235D01*
X144054329Y-26980970D01*
X144032151Y-26970480D01*
X144011107Y-26957867D01*
X143991402Y-26943253D01*
X143973223Y-26926777D01*
X143956747Y-26908598D01*
X143942133Y-26888893D01*
X143929520Y-26867849D01*
X143919030Y-26845671D01*
X143910765Y-26822571D01*
X143904804Y-26798773D01*
X143901204Y-26774504D01*
X143900000Y-26750000D01*
X143900000Y-25250000D01*
X143901204Y-25225496D01*
X143904804Y-25201227D01*
X143910765Y-25177429D01*
X143919030Y-25154329D01*
X143929520Y-25132151D01*
X143942133Y-25111107D01*
X143956747Y-25091402D01*
X143973223Y-25073223D01*
X143991402Y-25056747D01*
X144011107Y-25042133D01*
X144032151Y-25029520D01*
X144054329Y-25019030D01*
X144077429Y-25010765D01*
X144101227Y-25004804D01*
X144125496Y-25001204D01*
X144150000Y-25000000D01*
X145350000Y-25000000D01*
X145374504Y-25001204D01*
X145374504Y-25001204D01*
G37*
D25*
X144750000Y-26000000D03*
D26*
X147250000Y-26000000D03*
D22*
X148000000Y-174000000D03*
D21*
X143000000Y-174000000D03*
D27*
X149810000Y-46400000D03*
X149810000Y-48940000D03*
X149810000Y-59100000D03*
X142190000Y-59100000D03*
X142190000Y-48940000D03*
X142190000Y-46400000D03*
X152510000Y-165450000D03*
X152510000Y-162910000D03*
X152510000Y-152750000D03*
X144890000Y-152750000D03*
X144890000Y-162910000D03*
X144890000Y-165450000D03*
D28*
X137000000Y-63200000D03*
X137000000Y-65800000D03*
X134400000Y-63200000D03*
X134400000Y-65800000D03*
D19*
X125750000Y-158250000D03*
X130750000Y-159450000D03*
D12*
X103000000Y-86000000D03*
X103000000Y-76000000D03*
X83000000Y-91000000D03*
X83000000Y-71000000D03*
X83000000Y-104000000D03*
X83000000Y-124000000D03*
X103000000Y-109000000D03*
X103000000Y-119000000D03*
D17*
X125730000Y-138810000D03*
D18*
X128270000Y-138810000D03*
X128270000Y-131190000D03*
X125730000Y-131190000D03*
D29*
X147750000Y-146500000D03*
X150250000Y-146500000D03*
X152750000Y-146500000D03*
X155250000Y-146500000D03*
X157750000Y-146500000D03*
X150250000Y-125500000D03*
X152750000Y-125500000D03*
X155250000Y-125500000D03*
X157750000Y-125500000D03*
X160250000Y-125500000D03*
D30*
X162750000Y-125500000D03*
X160250000Y-146500000D03*
D31*
X115400000Y-33200000D03*
D32*
X152100000Y-69600000D03*
D31*
X115400000Y-66200000D03*
D32*
X152100000Y-70700000D03*
D31*
X115300000Y-99100000D03*
D32*
X155450000Y-71400000D03*
X161650000Y-48100000D03*
X161700000Y-36500000D03*
X161700000Y-41000000D03*
D31*
X151800000Y-26000000D03*
X102600000Y-137200000D03*
X101200000Y-137200000D03*
X104000000Y-137200000D03*
X128200000Y-154200000D03*
X136250000Y-79100000D03*
D32*
X157700000Y-75450000D03*
X159700000Y-75450000D03*
D13*
X149800000Y-36950000D03*
X151300000Y-43250000D03*
X147550000Y-37500000D03*
X142950000Y-39400000D03*
D32*
X123150000Y-145950000D03*
X152100000Y-74000000D03*
D13*
X121600000Y-100900000D03*
X121600000Y-104100000D03*
X121600000Y-99300000D03*
X122400000Y-101700000D03*
X122400000Y-100100000D03*
X122000000Y-105600000D03*
X122400000Y-102500000D03*
X122400000Y-100900000D03*
X121600000Y-103300000D03*
X122400000Y-104900000D03*
X122400000Y-104100000D03*
X120900000Y-99700000D03*
X120900000Y-101300000D03*
X121600000Y-100100000D03*
X122400000Y-103300000D03*
X120900000Y-104500000D03*
X122400000Y-99300000D03*
X121600000Y-102500000D03*
X121600000Y-104900000D03*
X121600000Y-101700000D03*
X120900000Y-102900000D03*
X121600000Y-67500000D03*
X121600000Y-70700000D03*
X121600000Y-65900000D03*
X122400000Y-68300000D03*
X122400000Y-66700000D03*
X122000000Y-72200000D03*
X122400000Y-69100000D03*
X122400000Y-67500000D03*
X121600000Y-69900000D03*
X122400000Y-71500000D03*
X122400000Y-70700000D03*
X120900000Y-66300000D03*
X120900000Y-67900000D03*
X121600000Y-66700000D03*
X122400000Y-69900000D03*
X120900000Y-71100000D03*
X122400000Y-65900000D03*
X121600000Y-69100000D03*
X121600000Y-71500000D03*
X121600000Y-68300000D03*
X120900000Y-69500000D03*
X125600000Y-97700000D03*
X121600000Y-98500000D03*
X128000000Y-98500000D03*
X127200000Y-98500000D03*
X123200000Y-97700000D03*
X122400000Y-97700000D03*
X127200000Y-97700000D03*
X123200000Y-98500000D03*
X124000000Y-97700000D03*
X121600000Y-97700000D03*
X124800000Y-97700000D03*
X128000000Y-97700000D03*
X122400000Y-98500000D03*
X126400000Y-97700000D03*
X124000000Y-98500000D03*
X126400000Y-98500000D03*
X125600000Y-98500000D03*
X124800000Y-98500000D03*
X122000000Y-97000000D03*
X123600000Y-97000000D03*
X126800000Y-97000000D03*
X125200000Y-97000000D03*
X120900000Y-98100000D03*
X125600000Y-64300000D03*
X121600000Y-65100000D03*
X128000000Y-65100000D03*
X127200000Y-65100000D03*
X123200000Y-64300000D03*
X122400000Y-64300000D03*
X127200000Y-64300000D03*
X123200000Y-65100000D03*
X124000000Y-64300000D03*
X121600000Y-64300000D03*
X124800000Y-64300000D03*
X128000000Y-64300000D03*
X122400000Y-65100000D03*
X126400000Y-64300000D03*
X124000000Y-65100000D03*
X126400000Y-65100000D03*
X125600000Y-65100000D03*
X124800000Y-65100000D03*
X122000000Y-63600000D03*
X123600000Y-63600000D03*
X126800000Y-63600000D03*
X125200000Y-63600000D03*
X120900000Y-64700000D03*
X130500000Y-100200000D03*
X131300000Y-97800000D03*
X131300000Y-104200000D03*
X130500000Y-102600000D03*
X131300000Y-98600000D03*
X131300000Y-103400000D03*
X130500000Y-103400000D03*
X130500000Y-98600000D03*
X131300000Y-102600000D03*
X130500000Y-99400000D03*
X131300000Y-101000000D03*
X130500000Y-104200000D03*
X131300000Y-101800000D03*
X131300000Y-100200000D03*
X131300000Y-99400000D03*
X130500000Y-101800000D03*
X130500000Y-101000000D03*
X130500000Y-97800000D03*
X131300000Y-105000000D03*
X130500000Y-105000000D03*
X132000000Y-98200000D03*
X130900000Y-97100000D03*
X132000000Y-99800000D03*
X132000000Y-104600000D03*
X132000000Y-103000000D03*
X132000000Y-101400000D03*
X130900000Y-105700000D03*
X130500000Y-67000000D03*
X131300000Y-64600000D03*
X131300000Y-71000000D03*
X130500000Y-69400000D03*
X131300000Y-65400000D03*
X131300000Y-70200000D03*
X130500000Y-70200000D03*
X130500000Y-65400000D03*
X131300000Y-69400000D03*
X130500000Y-66200000D03*
X131300000Y-67800000D03*
X130500000Y-71000000D03*
X131300000Y-68600000D03*
X131300000Y-67000000D03*
X131300000Y-66200000D03*
X130500000Y-68600000D03*
X130500000Y-67800000D03*
X130500000Y-64600000D03*
X131300000Y-71800000D03*
X130500000Y-71800000D03*
X132000000Y-65000000D03*
X130900000Y-63900000D03*
X132000000Y-66600000D03*
X132000000Y-71400000D03*
X132000000Y-69800000D03*
X132000000Y-68200000D03*
X130900000Y-72500000D03*
X122100000Y-31200000D03*
X130500000Y-34400000D03*
X131300000Y-38400000D03*
X131300000Y-32000000D03*
X131300000Y-32800000D03*
X130500000Y-36800000D03*
X130500000Y-37600000D03*
X130500000Y-32800000D03*
X131300000Y-36800000D03*
X130500000Y-36000000D03*
X130500000Y-38400000D03*
X130500000Y-35200000D03*
X130500000Y-32000000D03*
X131300000Y-37600000D03*
X130500000Y-33600000D03*
X131300000Y-36000000D03*
X131300000Y-33600000D03*
X131300000Y-34400000D03*
X131300000Y-35200000D03*
X131300000Y-39200000D03*
X130500000Y-39200000D03*
X121700000Y-37500000D03*
X122500000Y-38300000D03*
X122500000Y-37500000D03*
X121700000Y-39100000D03*
X122500000Y-39100000D03*
X121700000Y-38300000D03*
X121700000Y-34300000D03*
X122500000Y-31900000D03*
X122500000Y-32700000D03*
X121700000Y-36700000D03*
X121700000Y-32700000D03*
X122500000Y-36700000D03*
X121700000Y-35900000D03*
X121700000Y-35100000D03*
X121700000Y-31900000D03*
X121700000Y-33500000D03*
X122500000Y-35900000D03*
X122500000Y-33500000D03*
X122500000Y-34300000D03*
X122500000Y-35100000D03*
X128100000Y-31900000D03*
X127300000Y-31900000D03*
X123300000Y-31900000D03*
X124100000Y-31900000D03*
X126500000Y-31900000D03*
X125700000Y-31900000D03*
X124900000Y-31900000D03*
X128100000Y-32700000D03*
X127300000Y-32700000D03*
D31*
X140000000Y-26000000D03*
D32*
X139600000Y-35800000D03*
X152400000Y-32200000D03*
X154200000Y-36600000D03*
X168000000Y-53800000D03*
X157600000Y-56200000D03*
D13*
X123300000Y-32700000D03*
X124100000Y-32700000D03*
X124900000Y-32700000D03*
X125700000Y-32700000D03*
X126500000Y-32700000D03*
X123700000Y-31200000D03*
X125300000Y-31200000D03*
X126900000Y-31200000D03*
X130900000Y-31300000D03*
X132000000Y-32400000D03*
X132000000Y-34000000D03*
X132000000Y-35600000D03*
X132000000Y-37200000D03*
X132000000Y-38800000D03*
X130900000Y-39900000D03*
X122100000Y-39800000D03*
X121000000Y-32300000D03*
X121000000Y-33900000D03*
X121000000Y-35500000D03*
X121000000Y-37100000D03*
X121000000Y-38700000D03*
D32*
X165450000Y-65050000D03*
X155300000Y-132300000D03*
X160250000Y-132300000D03*
D13*
X158550000Y-174750000D03*
D33*
X115400000Y-33200000D02*
X117924999Y-35724999D01*
X118640998Y-40750000D02*
X119250000Y-40750000D01*
X117824999Y-39934001D02*
X118640998Y-40750000D01*
X117824999Y-35824999D02*
X117824999Y-39934001D01*
X117924999Y-35724999D02*
X117824999Y-35824999D01*
D34*
X134100000Y-53500000D02*
X133250000Y-53500000D01*
X142824999Y-62224999D02*
X134100000Y-53500000D01*
X144724999Y-62224999D02*
X142824999Y-62224999D01*
X152100000Y-69600000D02*
X144724999Y-62224999D01*
D33*
X115400000Y-66200000D02*
X117924999Y-68724999D01*
X118640998Y-73625000D02*
X119250000Y-73625000D01*
X117800000Y-72784002D02*
X118640998Y-73625000D01*
X117800000Y-68849998D02*
X117800000Y-72784002D01*
X117924999Y-68724999D02*
X117800000Y-68849998D01*
D35*
X133250000Y-84900000D02*
X133250000Y-86500000D01*
X137000000Y-63200000D02*
X138350001Y-64550001D01*
X138350001Y-66650001D02*
X138350001Y-79799999D01*
X138350001Y-64550001D02*
X138350001Y-66650001D01*
D36*
X133250000Y-85150000D02*
X133250000Y-86500000D01*
D35*
X138350001Y-79799999D02*
X133250000Y-84900000D01*
D34*
X133250000Y-85650000D02*
X133250000Y-86500000D01*
X148200000Y-70700000D02*
X133250000Y-85650000D01*
X152100000Y-70700000D02*
X148200000Y-70700000D01*
D33*
X118640998Y-106500000D02*
X119250000Y-106500000D01*
X117824999Y-105684001D02*
X118640998Y-106500000D01*
X117824999Y-101624999D02*
X117824999Y-105684001D01*
X115300000Y-99100000D02*
X117824999Y-101624999D01*
D37*
X143014999Y-49764999D02*
X142190000Y-48940000D01*
X148534999Y-55284999D02*
X143014999Y-49764999D01*
X148534999Y-64484999D02*
X148534999Y-55284999D01*
X155450000Y-71400000D02*
X148534999Y-64484999D01*
D36*
X149810000Y-59100000D02*
X149810000Y-57690000D01*
X149810000Y-57690000D02*
X159400000Y-48100000D01*
X159400000Y-48100000D02*
X161650000Y-48100000D01*
X161650000Y-48100000D02*
X161650000Y-48100000D01*
X159400000Y-46147070D02*
X161700000Y-43847070D01*
X159400000Y-48100000D02*
X159400000Y-46147070D01*
X161700000Y-43847070D02*
X161700000Y-42100000D01*
X161700000Y-36500000D02*
X161700000Y-36500000D01*
X161700000Y-42100000D02*
X161700000Y-36500000D01*
D35*
X136000000Y-52910000D02*
X142190000Y-59100000D01*
X136000000Y-34750000D02*
X136000000Y-52910000D01*
D33*
X151550000Y-46400000D02*
X149810000Y-46400000D01*
X157450000Y-46400000D02*
X151550000Y-46400000D01*
X158600000Y-45250000D02*
X157450000Y-46400000D01*
X158600000Y-35050000D02*
X158600000Y-45250000D01*
X155750000Y-34250000D02*
X157800000Y-34250000D01*
X157800000Y-34250000D02*
X158600000Y-35050000D01*
D38*
X131549999Y-160249999D02*
X130750000Y-159450000D01*
X132299999Y-160999999D02*
X131549999Y-160249999D01*
X132299999Y-172700001D02*
X132299999Y-160999999D01*
X131000000Y-174000000D02*
X132299999Y-172700001D01*
X130750000Y-159450000D02*
X128200000Y-156900000D01*
X128200000Y-156900000D02*
X128200000Y-154200000D01*
X95000000Y-177600000D02*
X95000000Y-174000000D01*
X96600000Y-179200000D02*
X95000000Y-177600000D01*
X131000000Y-174000000D02*
X131000000Y-178200000D01*
X131000000Y-178200000D02*
X130000000Y-179200000D01*
X122000000Y-178838477D02*
X122000000Y-179200000D01*
X119000000Y-175838477D02*
X122000000Y-178838477D01*
X119000000Y-174000000D02*
X119000000Y-175838477D01*
X130000000Y-179200000D02*
X122000000Y-179200000D01*
X109800000Y-178638477D02*
X109800000Y-179200000D01*
X107000000Y-175838477D02*
X109800000Y-178638477D01*
X107000000Y-174000000D02*
X107000000Y-175838477D01*
X122000000Y-179200000D02*
X109800000Y-179200000D01*
X109800000Y-179200000D02*
X96600000Y-179200000D01*
X102600000Y-138600000D02*
X102600000Y-137200000D01*
X109280001Y-171719999D02*
X107000000Y-174000000D01*
X109280001Y-153012425D02*
X109280001Y-171719999D01*
X102600000Y-146332424D02*
X109280001Y-153012425D01*
X102600000Y-138600000D02*
X102600000Y-146332424D01*
X101200000Y-137200000D02*
X102600000Y-138600000D01*
X104000000Y-137200000D02*
X102600000Y-138600000D01*
X83774999Y-91774999D02*
X83000000Y-91000000D01*
X84975001Y-92975001D02*
X83774999Y-91774999D01*
X84975001Y-139905001D02*
X84975001Y-92975001D01*
X107080000Y-162010000D02*
X84975001Y-139905001D01*
D39*
X137955998Y-148355998D02*
X152510000Y-162910000D01*
X137955998Y-95000000D02*
X137955998Y-148355998D01*
X131699999Y-88744001D02*
X137955998Y-95000000D01*
X131699999Y-82660052D02*
X131699999Y-88744001D01*
X136250000Y-79100000D02*
X135260051Y-79100000D01*
X135260051Y-79100000D02*
X131699999Y-82660052D01*
D34*
X143150000Y-105250000D02*
X142750000Y-105250000D01*
X157700000Y-90700000D02*
X143150000Y-105250000D01*
X157700000Y-75450000D02*
X157700000Y-90700000D01*
X143150000Y-109250000D02*
X142750000Y-109250000D01*
X143150000Y-111250000D02*
X142750000Y-111250000D01*
X159700000Y-94700000D02*
X143150000Y-111250000D01*
X159700000Y-75450000D02*
X159700000Y-94700000D01*
D36*
X152750000Y-124575105D02*
X152750000Y-125500000D01*
X152750000Y-109305443D02*
X152750000Y-124575105D01*
X166805443Y-95250000D02*
X152750000Y-109305443D01*
X167150000Y-95250000D02*
X166805443Y-95250000D01*
X155250000Y-124575105D02*
X155250000Y-125500000D01*
X155250000Y-108750000D02*
X155250000Y-124575105D01*
X166750000Y-97250000D02*
X155250000Y-108750000D01*
X167150000Y-97250000D02*
X166750000Y-97250000D01*
D34*
X149800000Y-41750000D02*
X151300000Y-43250000D01*
X149800000Y-36950000D02*
X149800000Y-41750000D01*
X146984315Y-37500000D02*
X145084315Y-39400000D01*
X147550000Y-37500000D02*
X146984315Y-37500000D01*
X145084315Y-39400000D02*
X142950000Y-39400000D01*
X142950000Y-39400000D02*
X142950000Y-39400000D01*
D40*
G36*
X161073000Y-30200000D02*
G01*
X161075440Y-30224776D01*
X161082667Y-30248601D01*
X161094403Y-30270557D01*
X161110197Y-30289803D01*
X161129443Y-30305597D01*
X161151399Y-30317333D01*
X161175224Y-30324560D01*
X161200000Y-30327000D01*
X168873000Y-30327000D01*
X168873000Y-86697564D01*
X168813715Y-86558354D01*
X168654500Y-86325105D01*
X168452839Y-86127399D01*
X168216483Y-85972834D01*
X167954514Y-85867350D01*
X167677000Y-85815000D01*
X167277000Y-85815000D01*
X167277000Y-87123000D01*
X167297000Y-87123000D01*
X167297000Y-87377000D01*
X167277000Y-87377000D01*
X167277000Y-87397000D01*
X167023000Y-87397000D01*
X167023000Y-87377000D01*
X165480085Y-87377000D01*
X165358096Y-87599039D01*
X165375633Y-87681818D01*
X165486285Y-87941646D01*
X165645500Y-88174895D01*
X165717781Y-88245758D01*
X165551068Y-88448899D01*
X165417818Y-88698192D01*
X165335764Y-88968691D01*
X165308057Y-89250000D01*
X165335764Y-89531309D01*
X165417818Y-89801808D01*
X165551068Y-90051101D01*
X165714300Y-90250000D01*
X165551068Y-90448899D01*
X165417818Y-90698192D01*
X165335764Y-90968691D01*
X165308057Y-91250000D01*
X165335764Y-91531309D01*
X165417818Y-91801808D01*
X165551068Y-92051101D01*
X165714300Y-92250000D01*
X165551068Y-92448899D01*
X165417818Y-92698192D01*
X165335764Y-92968691D01*
X165308057Y-93250000D01*
X165335764Y-93531309D01*
X165417818Y-93801808D01*
X165551068Y-94051101D01*
X165714300Y-94250000D01*
X165551068Y-94448899D01*
X165417818Y-94698192D01*
X165335764Y-94968691D01*
X165308057Y-95250000D01*
X165314246Y-95312842D01*
X152070906Y-108556182D01*
X152032367Y-108587810D01*
X151906153Y-108741603D01*
X151820372Y-108902089D01*
X151812368Y-108917064D01*
X151754615Y-109107449D01*
X151735114Y-109305443D01*
X151740000Y-109355051D01*
X151740001Y-124525488D01*
X151740000Y-124525498D01*
X151740000Y-124691432D01*
X151607703Y-124889430D01*
X151510535Y-125124013D01*
X151501666Y-125168603D01*
X151415368Y-124934707D01*
X151367468Y-124845093D01*
X151138387Y-124791218D01*
X150429605Y-125500000D01*
X151138387Y-126208782D01*
X151367468Y-126154907D01*
X151473763Y-125924316D01*
X151499129Y-125818643D01*
X151510535Y-125875987D01*
X151607703Y-126110570D01*
X151748768Y-126321690D01*
X151928310Y-126501232D01*
X152139430Y-126642297D01*
X152374013Y-126739465D01*
X152623045Y-126789000D01*
X152876955Y-126789000D01*
X153125987Y-126739465D01*
X153360570Y-126642297D01*
X153571690Y-126501232D01*
X153751232Y-126321690D01*
X153892297Y-126110570D01*
X153989465Y-125875987D01*
X154000000Y-125823023D01*
X154010535Y-125875987D01*
X154107703Y-126110570D01*
X154248768Y-126321690D01*
X154428310Y-126501232D01*
X154639430Y-126642297D01*
X154874013Y-126739465D01*
X155123045Y-126789000D01*
X155376955Y-126789000D01*
X155625987Y-126739465D01*
X155860570Y-126642297D01*
X156071690Y-126501232D01*
X156251232Y-126321690D01*
X156392297Y-126110570D01*
X156489465Y-125875987D01*
X156500000Y-125823023D01*
X156510535Y-125875987D01*
X156607703Y-126110570D01*
X156748768Y-126321690D01*
X156928310Y-126501232D01*
X157139430Y-126642297D01*
X157374013Y-126739465D01*
X157623045Y-126789000D01*
X157876955Y-126789000D01*
X158125987Y-126739465D01*
X158360570Y-126642297D01*
X158571690Y-126501232D01*
X158751232Y-126321690D01*
X158892297Y-126110570D01*
X158989465Y-125875987D01*
X159000000Y-125823023D01*
X159010535Y-125875987D01*
X159107703Y-126110570D01*
X159248768Y-126321690D01*
X159428310Y-126501232D01*
X159639430Y-126642297D01*
X159874013Y-126739465D01*
X160123045Y-126789000D01*
X160376955Y-126789000D01*
X160625987Y-126739465D01*
X160860570Y-126642297D01*
X161071690Y-126501232D01*
X161251232Y-126321690D01*
X161392297Y-126110570D01*
X161457928Y-125952124D01*
X161457928Y-126154000D01*
X161470188Y-126278482D01*
X161506498Y-126398180D01*
X161565463Y-126508494D01*
X161644815Y-126605185D01*
X161741506Y-126684537D01*
X161851820Y-126743502D01*
X161971518Y-126779812D01*
X162096000Y-126792072D01*
X163404000Y-126792072D01*
X163528482Y-126779812D01*
X163648180Y-126743502D01*
X163758494Y-126684537D01*
X163855185Y-126605185D01*
X163934537Y-126508494D01*
X163993502Y-126398180D01*
X164029812Y-126278482D01*
X164042072Y-126154000D01*
X164042072Y-124846000D01*
X164029812Y-124721518D01*
X163993502Y-124601820D01*
X163934537Y-124491506D01*
X163855185Y-124394815D01*
X163758494Y-124315463D01*
X163648180Y-124256498D01*
X163528482Y-124220188D01*
X163404000Y-124207928D01*
X162096000Y-124207928D01*
X161971518Y-124220188D01*
X161851820Y-124256498D01*
X161741506Y-124315463D01*
X161644815Y-124394815D01*
X161565463Y-124491506D01*
X161506498Y-124601820D01*
X161470188Y-124721518D01*
X161457928Y-124846000D01*
X161457928Y-125047876D01*
X161392297Y-124889430D01*
X161251232Y-124678310D01*
X161071690Y-124498768D01*
X160860570Y-124357703D01*
X160625987Y-124260535D01*
X160376955Y-124211000D01*
X160123045Y-124211000D01*
X159874013Y-124260535D01*
X159639430Y-124357703D01*
X159428310Y-124498768D01*
X159248768Y-124678310D01*
X159107703Y-124889430D01*
X159010535Y-125124013D01*
X159000000Y-125176977D01*
X158989465Y-125124013D01*
X158892297Y-124889430D01*
X158751232Y-124678310D01*
X158571690Y-124498768D01*
X158360570Y-124357703D01*
X158125987Y-124260535D01*
X157876955Y-124211000D01*
X157623045Y-124211000D01*
X157374013Y-124260535D01*
X157139430Y-124357703D01*
X156928310Y-124498768D01*
X156748768Y-124678310D01*
X156607703Y-124889430D01*
X156510535Y-125124013D01*
X156500000Y-125176977D01*
X156489465Y-125124013D01*
X156392297Y-124889430D01*
X156260000Y-124691432D01*
X156260000Y-109168355D01*
X165490524Y-99937832D01*
X165551068Y-100051101D01*
X165714300Y-100250000D01*
X165551068Y-100448899D01*
X165417818Y-100698192D01*
X165335764Y-100968691D01*
X165308057Y-101250000D01*
X165335764Y-101531309D01*
X165417818Y-101801808D01*
X165551068Y-102051101D01*
X165714300Y-102250000D01*
X165551068Y-102448899D01*
X165417818Y-102698192D01*
X165335764Y-102968691D01*
X165308057Y-103250000D01*
X165335764Y-103531309D01*
X165417818Y-103801808D01*
X165551068Y-104051101D01*
X165714300Y-104250000D01*
X165551068Y-104448899D01*
X165417818Y-104698192D01*
X165335764Y-104968691D01*
X165308057Y-105250000D01*
X165335764Y-105531309D01*
X165417818Y-105801808D01*
X165551068Y-106051101D01*
X165714300Y-106250000D01*
X165551068Y-106448899D01*
X165417818Y-106698192D01*
X165335764Y-106968691D01*
X165308057Y-107250000D01*
X165335764Y-107531309D01*
X165417818Y-107801808D01*
X165551068Y-108051101D01*
X165714300Y-108250000D01*
X165551068Y-108448899D01*
X165417818Y-108698192D01*
X165335764Y-108968691D01*
X165308057Y-109250000D01*
X165335764Y-109531309D01*
X165417818Y-109801808D01*
X165551068Y-110051101D01*
X165714300Y-110250000D01*
X165551068Y-110448899D01*
X165417818Y-110698192D01*
X165335764Y-110968691D01*
X165308057Y-111250000D01*
X165335764Y-111531309D01*
X165417818Y-111801808D01*
X165551068Y-112051101D01*
X165714300Y-112250000D01*
X165551068Y-112448899D01*
X165417818Y-112698192D01*
X165335764Y-112968691D01*
X165308057Y-113250000D01*
X165335764Y-113531309D01*
X165417818Y-113801808D01*
X165551068Y-114051101D01*
X165714300Y-114250000D01*
X165551068Y-114448899D01*
X165417818Y-114698192D01*
X165335764Y-114968691D01*
X165308057Y-115250000D01*
X165335764Y-115531309D01*
X165417818Y-115801808D01*
X165551068Y-116051101D01*
X165714300Y-116250000D01*
X165551068Y-116448899D01*
X165417818Y-116698192D01*
X165335764Y-116968691D01*
X165308057Y-117250000D01*
X165335764Y-117531309D01*
X165417818Y-117801808D01*
X165551068Y-118051101D01*
X165730392Y-118269608D01*
X165948899Y-118448932D01*
X166198192Y-118582182D01*
X166468691Y-118664236D01*
X166679508Y-118685000D01*
X167620492Y-118685000D01*
X167831309Y-118664236D01*
X168101808Y-118582182D01*
X168351101Y-118448932D01*
X168569608Y-118269608D01*
X168748932Y-118051101D01*
X168873000Y-117818986D01*
X168873000Y-163073000D01*
X167722932Y-163073000D01*
X167316554Y-162801467D01*
X166618628Y-162512377D01*
X165877715Y-162365000D01*
X165122285Y-162365000D01*
X164381372Y-162512377D01*
X163683446Y-162801467D01*
X163277068Y-163073000D01*
X161400000Y-163073000D01*
X161375224Y-163075440D01*
X161351399Y-163082667D01*
X161329443Y-163094403D01*
X161310197Y-163110197D01*
X161294403Y-163129443D01*
X161282667Y-163151399D01*
X161275440Y-163175224D01*
X161273000Y-163200000D01*
X161273000Y-177873000D01*
X138060000Y-177873000D01*
X138060000Y-176106794D01*
X153620000Y-176106794D01*
X153620000Y-176623207D01*
X153637147Y-176797300D01*
X153704906Y-177020674D01*
X153814943Y-177226536D01*
X153963026Y-177406975D01*
X154143465Y-177555058D01*
X154349327Y-177665094D01*
X154572701Y-177732853D01*
X154805000Y-177755733D01*
X155037300Y-177732853D01*
X155260674Y-177665094D01*
X155466536Y-177555058D01*
X155646975Y-177406975D01*
X155795058Y-177226536D01*
X155905094Y-177020673D01*
X155972853Y-176797299D01*
X155990000Y-176623206D01*
X155990000Y-176106794D01*
X158460000Y-176106794D01*
X158460000Y-176623207D01*
X158477147Y-176797300D01*
X158544906Y-177020674D01*
X158654943Y-177226536D01*
X158803026Y-177406975D01*
X158983465Y-177555058D01*
X159189327Y-177665094D01*
X159412701Y-177732853D01*
X159645000Y-177755733D01*
X159877300Y-177732853D01*
X160100674Y-177665094D01*
X160306536Y-177555058D01*
X160486975Y-177406975D01*
X160635058Y-177226536D01*
X160745094Y-177020673D01*
X160812853Y-176797299D01*
X160830000Y-176623206D01*
X160830000Y-176106793D01*
X160812853Y-175932700D01*
X160745094Y-175709326D01*
X160635058Y-175503464D01*
X160486975Y-175323025D01*
X160306535Y-175174942D01*
X160100673Y-175064906D01*
X159877299Y-174997147D01*
X159645000Y-174974267D01*
X159412700Y-174997147D01*
X159189326Y-175064906D01*
X158983464Y-175174942D01*
X158803025Y-175323025D01*
X158654942Y-175503465D01*
X158544906Y-175709327D01*
X158477147Y-175932701D01*
X158460000Y-176106794D01*
X155990000Y-176106794D01*
X155990000Y-176106793D01*
X155972853Y-175932700D01*
X155905094Y-175709326D01*
X155795058Y-175503464D01*
X155646975Y-175323025D01*
X155466535Y-175174942D01*
X155260673Y-175064906D01*
X155037299Y-174997147D01*
X154805000Y-174974267D01*
X154572700Y-174997147D01*
X154349326Y-175064906D01*
X154143464Y-175174942D01*
X153963025Y-175323025D01*
X153814942Y-175503465D01*
X153704906Y-175709327D01*
X153637147Y-175932701D01*
X153620000Y-176106794D01*
X138060000Y-176106794D01*
X138060000Y-172700000D01*
X141061928Y-172700000D01*
X141061928Y-175300000D01*
X141074188Y-175424482D01*
X141110498Y-175544180D01*
X141169463Y-175654494D01*
X141248815Y-175751185D01*
X141345506Y-175830537D01*
X141455820Y-175889502D01*
X141575518Y-175925812D01*
X141700000Y-175938072D01*
X144300000Y-175938072D01*
X144424482Y-175925812D01*
X144544180Y-175889502D01*
X144654494Y-175830537D01*
X144751185Y-175751185D01*
X144830537Y-175654494D01*
X144889502Y-175544180D01*
X144925812Y-175424482D01*
X144938072Y-175300000D01*
X144938072Y-173809419D01*
X146065000Y-173809419D01*
X146065000Y-174190581D01*
X146139361Y-174564419D01*
X146285225Y-174916566D01*
X146496987Y-175233491D01*
X146766509Y-175503013D01*
X147083434Y-175714775D01*
X147435581Y-175860639D01*
X147809419Y-175935000D01*
X148190581Y-175935000D01*
X148564419Y-175860639D01*
X148916566Y-175714775D01*
X149233491Y-175503013D01*
X149503013Y-175233491D01*
X149714775Y-174916566D01*
X149860639Y-174564419D01*
X149935000Y-174190581D01*
X149935000Y-173809419D01*
X149860639Y-173435581D01*
X149714775Y-173083434D01*
X149503013Y-172766509D01*
X149233491Y-172496987D01*
X148916566Y-172285225D01*
X148564419Y-172139361D01*
X148190581Y-172065000D01*
X147809419Y-172065000D01*
X147435581Y-172139361D01*
X147083434Y-172285225D01*
X146766509Y-172496987D01*
X146496987Y-172766509D01*
X146285225Y-173083434D01*
X146139361Y-173435581D01*
X146065000Y-173809419D01*
X144938072Y-173809419D01*
X144938072Y-172700000D01*
X144925812Y-172575518D01*
X144889502Y-172455820D01*
X144830537Y-172345506D01*
X144751185Y-172248815D01*
X144654494Y-172169463D01*
X144544180Y-172110498D01*
X144424482Y-172074188D01*
X144300000Y-172061928D01*
X141700000Y-172061928D01*
X141575518Y-172074188D01*
X141455820Y-172110498D01*
X141345506Y-172169463D01*
X141248815Y-172248815D01*
X141169463Y-172345506D01*
X141110498Y-172455820D01*
X141074188Y-172575518D01*
X141061928Y-172700000D01*
X138060000Y-172700000D01*
X138060000Y-165306203D01*
X143430000Y-165306203D01*
X143430000Y-165593797D01*
X143486107Y-165875866D01*
X143596165Y-166141569D01*
X143755944Y-166380696D01*
X143959304Y-166584056D01*
X144198431Y-166743835D01*
X144464134Y-166853893D01*
X144746203Y-166910000D01*
X145033797Y-166910000D01*
X145315866Y-166853893D01*
X145581569Y-166743835D01*
X145820696Y-166584056D01*
X146024056Y-166380696D01*
X146183835Y-166141569D01*
X146293893Y-165875866D01*
X146350000Y-165593797D01*
X146350000Y-165306203D01*
X146293893Y-165024134D01*
X146183835Y-164758431D01*
X146024056Y-164519304D01*
X145820696Y-164315944D01*
X145619424Y-164181459D01*
X145646337Y-164167073D01*
X145720946Y-163920551D01*
X144890000Y-163089605D01*
X144059054Y-163920551D01*
X144133663Y-164167073D01*
X144161977Y-164180523D01*
X143959304Y-164315944D01*
X143755944Y-164519304D01*
X143596165Y-164758431D01*
X143486107Y-165024134D01*
X143430000Y-165306203D01*
X138060000Y-165306203D01*
X138060000Y-162979521D01*
X143424583Y-162979521D01*
X143466303Y-163264074D01*
X143562735Y-163535020D01*
X143632927Y-163666337D01*
X143879449Y-163740946D01*
X144710395Y-162910000D01*
X145069605Y-162910000D01*
X145900551Y-163740946D01*
X146147073Y-163666337D01*
X146270473Y-163406561D01*
X146340823Y-163127703D01*
X146355417Y-162840479D01*
X146313697Y-162555926D01*
X146217265Y-162284980D01*
X146147073Y-162153663D01*
X145900551Y-162079054D01*
X145069605Y-162910000D01*
X144710395Y-162910000D01*
X143879449Y-162079054D01*
X143632927Y-162153663D01*
X143509527Y-162413439D01*
X143439177Y-162692297D01*
X143424583Y-162979521D01*
X138060000Y-162979521D01*
X138060000Y-161899449D01*
X144059054Y-161899449D01*
X144890000Y-162730395D01*
X145720946Y-161899449D01*
X145646337Y-161652927D01*
X145386561Y-161529527D01*
X145107703Y-161459177D01*
X144820479Y-161444583D01*
X144535926Y-161486303D01*
X144264980Y-161582735D01*
X144133663Y-161652927D01*
X144059054Y-161899449D01*
X138060000Y-161899449D01*
X138060000Y-155860777D01*
X138060769Y-155856637D01*
X138060000Y-155795903D01*
X138060000Y-155767581D01*
X138059588Y-155763403D01*
X138059123Y-155726639D01*
X138053233Y-155698872D01*
X138050450Y-155670617D01*
X138039773Y-155635421D01*
X138032145Y-155599460D01*
X138020952Y-155573377D01*
X138012710Y-155546207D01*
X137995376Y-155513776D01*
X137980876Y-155479988D01*
X137964808Y-155456588D01*
X137951425Y-155431550D01*
X137928095Y-155403123D01*
X137925723Y-155399668D01*
X137907522Y-155378054D01*
X137868948Y-155331052D01*
X137865688Y-155328377D01*
X134718713Y-151591344D01*
X134712261Y-151582580D01*
X134697840Y-151566556D01*
X134683959Y-151550073D01*
X134676170Y-151542479D01*
X131100646Y-147569675D01*
X131068948Y-147531052D01*
X131032108Y-147500818D01*
X130996923Y-147468703D01*
X130981964Y-147459666D01*
X130968450Y-147448575D01*
X130926420Y-147426110D01*
X130885645Y-147401476D01*
X130869211Y-147395531D01*
X130853793Y-147387290D01*
X130808186Y-147373455D01*
X130763390Y-147357250D01*
X130746116Y-147354626D01*
X130729383Y-147349550D01*
X130724269Y-147349046D01*
X130695433Y-147316205D01*
X130677252Y-147299197D01*
X130656102Y-147286063D01*
X130632796Y-147277308D01*
X130600000Y-147273000D01*
X109006381Y-147273000D01*
X108927000Y-147193619D01*
X108927000Y-140135413D01*
X113044192Y-140135413D01*
X113139956Y-140399814D01*
X113429571Y-140540704D01*
X113741108Y-140622384D01*
X114062595Y-140641718D01*
X114381675Y-140597961D01*
X114686088Y-140492795D01*
X114860044Y-140399814D01*
X114955808Y-140135413D01*
X114000000Y-139179605D01*
X113044192Y-140135413D01*
X108927000Y-140135413D01*
X108927000Y-139062595D01*
X112358282Y-139062595D01*
X112402039Y-139381675D01*
X112507205Y-139686088D01*
X112600186Y-139860044D01*
X112864587Y-139955808D01*
X113820395Y-139000000D01*
X114179605Y-139000000D01*
X115135413Y-139955808D01*
X115399814Y-139860044D01*
X115540704Y-139570429D01*
X115622384Y-139258892D01*
X115641718Y-138937405D01*
X115597961Y-138618325D01*
X115492795Y-138313912D01*
X115399814Y-138139956D01*
X115135413Y-138044192D01*
X114179605Y-139000000D01*
X113820395Y-139000000D01*
X112864587Y-138044192D01*
X112600186Y-138139956D01*
X112459296Y-138429571D01*
X112377616Y-138741108D01*
X112358282Y-139062595D01*
X108927000Y-139062595D01*
X108927000Y-137864587D01*
X113044192Y-137864587D01*
X114000000Y-138820395D01*
X114820395Y-138000000D01*
X117361928Y-138000000D01*
X117361928Y-140000000D01*
X117374188Y-140124482D01*
X117410498Y-140244180D01*
X117469463Y-140354494D01*
X117548815Y-140451185D01*
X117645506Y-140530537D01*
X117755820Y-140589502D01*
X117875518Y-140625812D01*
X118000000Y-140638072D01*
X120000000Y-140638072D01*
X120124482Y-140625812D01*
X120244180Y-140589502D01*
X120354494Y-140530537D01*
X120451185Y-140451185D01*
X120530537Y-140354494D01*
X120589502Y-140244180D01*
X120625812Y-140124482D01*
X120638072Y-140000000D01*
X120638072Y-138210000D01*
X124491928Y-138210000D01*
X124491928Y-139410000D01*
X124504188Y-139534482D01*
X124540498Y-139654180D01*
X124599463Y-139764494D01*
X124678815Y-139861185D01*
X124775506Y-139940537D01*
X124885820Y-139999502D01*
X125005518Y-140035812D01*
X125130000Y-140048072D01*
X126330000Y-140048072D01*
X126454482Y-140035812D01*
X126574180Y-139999502D01*
X126684494Y-139940537D01*
X126781185Y-139861185D01*
X126860537Y-139764494D01*
X126916517Y-139659764D01*
X127599841Y-139659764D01*
X127647148Y-139883348D01*
X127868516Y-139984237D01*
X128105313Y-140040000D01*
X128348438Y-140048495D01*
X128588549Y-140009395D01*
X128816418Y-139924202D01*
X128892852Y-139883348D01*
X128940159Y-139659764D01*
X128270000Y-138989605D01*
X127599841Y-139659764D01*
X126916517Y-139659764D01*
X126919502Y-139654180D01*
X126955812Y-139534482D01*
X126968072Y-139410000D01*
X126968072Y-138888438D01*
X127031505Y-138888438D01*
X127070605Y-139128549D01*
X127155798Y-139356418D01*
X127196652Y-139432852D01*
X127420236Y-139480159D01*
X128090395Y-138810000D01*
X128449605Y-138810000D01*
X129119764Y-139480159D01*
X129343348Y-139432852D01*
X129444237Y-139211484D01*
X129500000Y-138974687D01*
X129508495Y-138731562D01*
X129469395Y-138491451D01*
X129384202Y-138263582D01*
X129343348Y-138187148D01*
X129119764Y-138139841D01*
X128449605Y-138810000D01*
X128090395Y-138810000D01*
X127420236Y-138139841D01*
X127196652Y-138187148D01*
X127095763Y-138408516D01*
X127040000Y-138645313D01*
X127031505Y-138888438D01*
X126968072Y-138888438D01*
X126968072Y-138210000D01*
X126955812Y-138085518D01*
X126919502Y-137965820D01*
X126916518Y-137960236D01*
X127599841Y-137960236D01*
X128270000Y-138630395D01*
X128940159Y-137960236D01*
X128892852Y-137736652D01*
X128671484Y-137635763D01*
X128434687Y-137580000D01*
X128191562Y-137571505D01*
X127951451Y-137610605D01*
X127723582Y-137695798D01*
X127647148Y-137736652D01*
X127599841Y-137960236D01*
X126916518Y-137960236D01*
X126860537Y-137855506D01*
X126781185Y-137758815D01*
X126684494Y-137679463D01*
X126574180Y-137620498D01*
X126454482Y-137584188D01*
X126330000Y-137571928D01*
X125130000Y-137571928D01*
X125005518Y-137584188D01*
X124885820Y-137620498D01*
X124775506Y-137679463D01*
X124678815Y-137758815D01*
X124599463Y-137855506D01*
X124540498Y-137965820D01*
X124504188Y-138085518D01*
X124491928Y-138210000D01*
X120638072Y-138210000D01*
X120638072Y-138000000D01*
X120625812Y-137875518D01*
X120589502Y-137755820D01*
X120530537Y-137645506D01*
X120451185Y-137548815D01*
X120354494Y-137469463D01*
X120244180Y-137410498D01*
X120124482Y-137374188D01*
X120000000Y-137361928D01*
X118000000Y-137361928D01*
X117875518Y-137374188D01*
X117755820Y-137410498D01*
X117645506Y-137469463D01*
X117548815Y-137548815D01*
X117469463Y-137645506D01*
X117410498Y-137755820D01*
X117374188Y-137875518D01*
X117361928Y-138000000D01*
X114820395Y-138000000D01*
X114955808Y-137864587D01*
X114860044Y-137600186D01*
X114570429Y-137459296D01*
X114258892Y-137377616D01*
X113937405Y-137358282D01*
X113618325Y-137402039D01*
X113313912Y-137507205D01*
X113139956Y-137600186D01*
X113044192Y-137864587D01*
X108927000Y-137864587D01*
X108927000Y-131068363D01*
X124495000Y-131068363D01*
X124495000Y-131311637D01*
X124542460Y-131550236D01*
X124635557Y-131774992D01*
X124770713Y-131977267D01*
X124942733Y-132149287D01*
X125145008Y-132284443D01*
X125369764Y-132377540D01*
X125608363Y-132425000D01*
X125851637Y-132425000D01*
X126090236Y-132377540D01*
X126314992Y-132284443D01*
X126517267Y-132149287D01*
X126626790Y-132039764D01*
X127599841Y-132039764D01*
X127647148Y-132263348D01*
X127868516Y-132364237D01*
X128105313Y-132420000D01*
X128348438Y-132428495D01*
X128588549Y-132389395D01*
X128816418Y-132304202D01*
X128892852Y-132263348D01*
X128940159Y-132039764D01*
X128270000Y-131369605D01*
X127599841Y-132039764D01*
X126626790Y-132039764D01*
X126689287Y-131977267D01*
X126824443Y-131774992D01*
X126917540Y-131550236D01*
X126965000Y-131311637D01*
X126965000Y-131268438D01*
X127031505Y-131268438D01*
X127070605Y-131508549D01*
X127155798Y-131736418D01*
X127196652Y-131812852D01*
X127420236Y-131860159D01*
X128090395Y-131190000D01*
X128449605Y-131190000D01*
X129119764Y-131860159D01*
X129343348Y-131812852D01*
X129444237Y-131591484D01*
X129500000Y-131354687D01*
X129508495Y-131111562D01*
X129469395Y-130871451D01*
X129384202Y-130643582D01*
X129343348Y-130567148D01*
X129119764Y-130519841D01*
X128449605Y-131190000D01*
X128090395Y-131190000D01*
X127420236Y-130519841D01*
X127196652Y-130567148D01*
X127095763Y-130788516D01*
X127040000Y-131025313D01*
X127031505Y-131268438D01*
X126965000Y-131268438D01*
X126965000Y-131068363D01*
X126917540Y-130829764D01*
X126824443Y-130605008D01*
X126689287Y-130402733D01*
X126626790Y-130340236D01*
X127599841Y-130340236D01*
X128270000Y-131010395D01*
X128940159Y-130340236D01*
X128892852Y-130116652D01*
X128671484Y-130015763D01*
X128434687Y-129960000D01*
X128191562Y-129951505D01*
X127951451Y-129990605D01*
X127723582Y-130075798D01*
X127647148Y-130116652D01*
X127599841Y-130340236D01*
X126626790Y-130340236D01*
X126517267Y-130230713D01*
X126314992Y-130095557D01*
X126090236Y-130002460D01*
X125851637Y-129955000D01*
X125608363Y-129955000D01*
X125369764Y-130002460D01*
X125145008Y-130095557D01*
X124942733Y-130230713D01*
X124770713Y-130402733D01*
X124635557Y-130605008D01*
X124542460Y-130829764D01*
X124495000Y-131068363D01*
X108927000Y-131068363D01*
X108927000Y-127527000D01*
X113800000Y-127527000D01*
X113824776Y-127524560D01*
X113848601Y-127517333D01*
X113870557Y-127505597D01*
X113889803Y-127489803D01*
X113905597Y-127470557D01*
X113917333Y-127448601D01*
X113924560Y-127424776D01*
X113927000Y-127399709D01*
X113921677Y-125078438D01*
X132011505Y-125078438D01*
X132050605Y-125318549D01*
X132130451Y-125532117D01*
X132119463Y-125545506D01*
X132060498Y-125655820D01*
X132024188Y-125775518D01*
X132011928Y-125900000D01*
X132011928Y-127100000D01*
X132024188Y-127224482D01*
X132060498Y-127344180D01*
X132119463Y-127454494D01*
X132198815Y-127551185D01*
X132295506Y-127630537D01*
X132405820Y-127689502D01*
X132525518Y-127725812D01*
X132650000Y-127738072D01*
X133850000Y-127738072D01*
X133974482Y-127725812D01*
X134094180Y-127689502D01*
X134204494Y-127630537D01*
X134301185Y-127551185D01*
X134380537Y-127454494D01*
X134439502Y-127344180D01*
X134475812Y-127224482D01*
X134488072Y-127100000D01*
X134488072Y-125900000D01*
X134475812Y-125775518D01*
X134439502Y-125655820D01*
X134380537Y-125545506D01*
X134366432Y-125528319D01*
X134424237Y-125401484D01*
X134480000Y-125164687D01*
X134488495Y-124921562D01*
X134449395Y-124681451D01*
X134364202Y-124453582D01*
X134323348Y-124377148D01*
X134099764Y-124329841D01*
X133429605Y-125000000D01*
X133443748Y-125014143D01*
X133264143Y-125193748D01*
X133250000Y-125179605D01*
X133235858Y-125193748D01*
X133056253Y-125014143D01*
X133070395Y-125000000D01*
X132400236Y-124329841D01*
X132176652Y-124377148D01*
X132075763Y-124598516D01*
X132020000Y-124835313D01*
X132011505Y-125078438D01*
X113921677Y-125078438D01*
X113918941Y-123885413D01*
X120294192Y-123885413D01*
X120389956Y-124149814D01*
X120679571Y-124290704D01*
X120991108Y-124372384D01*
X121312595Y-124391718D01*
X121631675Y-124347961D01*
X121936088Y-124242795D01*
X122109254Y-124150236D01*
X132579841Y-124150236D01*
X133250000Y-124820395D01*
X133920159Y-124150236D01*
X133872852Y-123926652D01*
X133651484Y-123825763D01*
X133414687Y-123770000D01*
X133171562Y-123761505D01*
X132931451Y-123800605D01*
X132703582Y-123885798D01*
X132627148Y-123926652D01*
X132579841Y-124150236D01*
X122109254Y-124150236D01*
X122110044Y-124149814D01*
X122205808Y-123885413D01*
X121250000Y-122929605D01*
X120294192Y-123885413D01*
X113918941Y-123885413D01*
X113916480Y-122812595D01*
X119608282Y-122812595D01*
X119652039Y-123131675D01*
X119757205Y-123436088D01*
X119850186Y-123610044D01*
X120114587Y-123705808D01*
X121070395Y-122750000D01*
X121429605Y-122750000D01*
X122385413Y-123705808D01*
X122649814Y-123610044D01*
X122790704Y-123320429D01*
X122872384Y-123008892D01*
X122891718Y-122687405D01*
X122847961Y-122368325D01*
X122742795Y-122063912D01*
X122649814Y-121889956D01*
X122538846Y-121849764D01*
X132579841Y-121849764D01*
X132627148Y-122073348D01*
X132848516Y-122174237D01*
X133085313Y-122230000D01*
X133328438Y-122238495D01*
X133568549Y-122199395D01*
X133796418Y-122114202D01*
X133872852Y-122073348D01*
X133920159Y-121849764D01*
X133250000Y-121179605D01*
X132579841Y-121849764D01*
X122538846Y-121849764D01*
X122385413Y-121794192D01*
X121429605Y-122750000D01*
X121070395Y-122750000D01*
X120114587Y-121794192D01*
X119850186Y-121889956D01*
X119709296Y-122179571D01*
X119627616Y-122491108D01*
X119608282Y-122812595D01*
X113916480Y-122812595D01*
X113913733Y-121614587D01*
X120294192Y-121614587D01*
X121250000Y-122570395D01*
X122205808Y-121614587D01*
X122110044Y-121350186D01*
X121820429Y-121209296D01*
X121508892Y-121127616D01*
X121187405Y-121108282D01*
X120868325Y-121152039D01*
X120563912Y-121257205D01*
X120389956Y-121350186D01*
X120294192Y-121614587D01*
X113913733Y-121614587D01*
X113912504Y-121078438D01*
X132011505Y-121078438D01*
X132050605Y-121318549D01*
X132135798Y-121546418D01*
X132176652Y-121622852D01*
X132400236Y-121670159D01*
X133070395Y-121000000D01*
X133056253Y-120985858D01*
X133235858Y-120806253D01*
X133250000Y-120820395D01*
X133264143Y-120806253D01*
X133443748Y-120985858D01*
X133429605Y-121000000D01*
X134099764Y-121670159D01*
X134323348Y-121622852D01*
X134424237Y-121401484D01*
X134480000Y-121164687D01*
X134488495Y-120921562D01*
X134449395Y-120681451D01*
X134369549Y-120467883D01*
X134380537Y-120454494D01*
X134439502Y-120344180D01*
X134475812Y-120224482D01*
X134488072Y-120100000D01*
X134488072Y-118900000D01*
X134475812Y-118775518D01*
X134439502Y-118655820D01*
X134380537Y-118545506D01*
X134301185Y-118448815D01*
X134204494Y-118369463D01*
X134094180Y-118310498D01*
X133974482Y-118274188D01*
X133850000Y-118261928D01*
X132650000Y-118261928D01*
X132525518Y-118274188D01*
X132405820Y-118310498D01*
X132295506Y-118369463D01*
X132198815Y-118448815D01*
X132119463Y-118545506D01*
X132060498Y-118655820D01*
X132024188Y-118775518D01*
X132011928Y-118900000D01*
X132011928Y-120100000D01*
X132024188Y-120224482D01*
X132060498Y-120344180D01*
X132119463Y-120454494D01*
X132133568Y-120471681D01*
X132075763Y-120598516D01*
X132020000Y-120835313D01*
X132011505Y-121078438D01*
X113912504Y-121078438D01*
X113902575Y-116750000D01*
X119611928Y-116750000D01*
X119611928Y-118750000D01*
X119624188Y-118874482D01*
X119660498Y-118994180D01*
X119719463Y-119104494D01*
X119798815Y-119201185D01*
X119895506Y-119280537D01*
X120005820Y-119339502D01*
X120125518Y-119375812D01*
X120250000Y-119388072D01*
X122250000Y-119388072D01*
X122374482Y-119375812D01*
X122494180Y-119339502D01*
X122604494Y-119280537D01*
X122701185Y-119201185D01*
X122780537Y-119104494D01*
X122839502Y-118994180D01*
X122875812Y-118874482D01*
X122888072Y-118750000D01*
X122888072Y-116750000D01*
X122875812Y-116625518D01*
X122839502Y-116505820D01*
X122780537Y-116395506D01*
X122701185Y-116298815D01*
X122604494Y-116219463D01*
X122494180Y-116160498D01*
X122374482Y-116124188D01*
X122250000Y-116111928D01*
X120250000Y-116111928D01*
X120125518Y-116124188D01*
X120005820Y-116160498D01*
X119895506Y-116219463D01*
X119798815Y-116298815D01*
X119719463Y-116395506D01*
X119660498Y-116505820D01*
X119624188Y-116625518D01*
X119611928Y-116750000D01*
X113902575Y-116750000D01*
X113861791Y-98968514D01*
X113965000Y-98968514D01*
X113965000Y-99231486D01*
X114016304Y-99489405D01*
X114116939Y-99732359D01*
X114263038Y-99951013D01*
X114448987Y-100136962D01*
X114667641Y-100283061D01*
X114724849Y-100306758D01*
X116564999Y-102146908D01*
X116565000Y-105622108D01*
X116558904Y-105684001D01*
X116583232Y-105931004D01*
X116655279Y-106168514D01*
X116772279Y-106387406D01*
X116864683Y-106500000D01*
X116929735Y-106579266D01*
X116977810Y-106618720D01*
X117706274Y-107347184D01*
X117745733Y-107395265D01*
X117911504Y-107531309D01*
X117937593Y-107552720D01*
X118156484Y-107669720D01*
X118393995Y-107741768D01*
X118640998Y-107766096D01*
X118702891Y-107760000D01*
X119311893Y-107760000D01*
X119497003Y-107741768D01*
X119509187Y-107738072D01*
X119850000Y-107738072D01*
X119974482Y-107725812D01*
X120094180Y-107689502D01*
X120204494Y-107630537D01*
X120301185Y-107551185D01*
X120380537Y-107454494D01*
X120439502Y-107344180D01*
X120475812Y-107224482D01*
X120488072Y-107100000D01*
X120488072Y-106759187D01*
X120491768Y-106747003D01*
X120516096Y-106500000D01*
X120491768Y-106252997D01*
X120488072Y-106240813D01*
X120488072Y-105900000D01*
X120475812Y-105775518D01*
X120439502Y-105655820D01*
X120380537Y-105545506D01*
X120366432Y-105528319D01*
X120424237Y-105401484D01*
X120480000Y-105164687D01*
X120488495Y-104921562D01*
X120449395Y-104681451D01*
X120364202Y-104453582D01*
X120323348Y-104377148D01*
X120099764Y-104329841D01*
X119429605Y-105000000D01*
X119443748Y-105014143D01*
X119264143Y-105193748D01*
X119250000Y-105179605D01*
X119235858Y-105193748D01*
X119084999Y-105042889D01*
X119084999Y-104957111D01*
X119235858Y-104806253D01*
X119250000Y-104820395D01*
X119920159Y-104150236D01*
X119872852Y-103926652D01*
X119651484Y-103825763D01*
X119414687Y-103770000D01*
X119171562Y-103761505D01*
X119084999Y-103775601D01*
X119084999Y-101686892D01*
X119091095Y-101624999D01*
X119066767Y-101377996D01*
X118994719Y-101140485D01*
X118877719Y-100921594D01*
X118759718Y-100777809D01*
X118720264Y-100729734D01*
X118672190Y-100690281D01*
X116506758Y-98524849D01*
X116483061Y-98467641D01*
X116336962Y-98248987D01*
X116151013Y-98063038D01*
X115932359Y-97916939D01*
X115689405Y-97816304D01*
X115431486Y-97765000D01*
X115168514Y-97765000D01*
X114910595Y-97816304D01*
X114667641Y-97916939D01*
X114448987Y-98063038D01*
X114263038Y-98248987D01*
X114116939Y-98467641D01*
X114016304Y-98710595D01*
X113965000Y-98968514D01*
X113861791Y-98968514D01*
X113842393Y-90510413D01*
X120544192Y-90510413D01*
X120639956Y-90774814D01*
X120929571Y-90915704D01*
X121241108Y-90997384D01*
X121562595Y-91016718D01*
X121881675Y-90972961D01*
X122186088Y-90867795D01*
X122360044Y-90774814D01*
X122455808Y-90510413D01*
X121500000Y-89554605D01*
X120544192Y-90510413D01*
X113842393Y-90510413D01*
X113839932Y-89437595D01*
X119858282Y-89437595D01*
X119902039Y-89756675D01*
X120007205Y-90061088D01*
X120100186Y-90235044D01*
X120364587Y-90330808D01*
X121320395Y-89375000D01*
X121679605Y-89375000D01*
X122635413Y-90330808D01*
X122899814Y-90235044D01*
X123040704Y-89945429D01*
X123122384Y-89633892D01*
X123141718Y-89312405D01*
X123097961Y-88993325D01*
X122992795Y-88688912D01*
X122899814Y-88514956D01*
X122635413Y-88419192D01*
X121679605Y-89375000D01*
X121320395Y-89375000D01*
X120364587Y-88419192D01*
X120100186Y-88514956D01*
X119959296Y-88804571D01*
X119877616Y-89116108D01*
X119858282Y-89437595D01*
X113839932Y-89437595D01*
X113837185Y-88239587D01*
X120544192Y-88239587D01*
X121500000Y-89195395D01*
X122455808Y-88239587D01*
X122360044Y-87975186D01*
X122070429Y-87834296D01*
X121758892Y-87752616D01*
X121437405Y-87733282D01*
X121118325Y-87777039D01*
X120813912Y-87882205D01*
X120639956Y-87975186D01*
X120544192Y-88239587D01*
X113837185Y-88239587D01*
X113826027Y-83375000D01*
X119861928Y-83375000D01*
X119861928Y-85375000D01*
X119874188Y-85499482D01*
X119910498Y-85619180D01*
X119969463Y-85729494D01*
X120048815Y-85826185D01*
X120145506Y-85905537D01*
X120255820Y-85964502D01*
X120375518Y-86000812D01*
X120500000Y-86013072D01*
X122500000Y-86013072D01*
X122624482Y-86000812D01*
X122744180Y-85964502D01*
X122854494Y-85905537D01*
X122951185Y-85826185D01*
X123030537Y-85729494D01*
X123089502Y-85619180D01*
X123125812Y-85499482D01*
X123138072Y-85375000D01*
X123138072Y-83375000D01*
X123125812Y-83250518D01*
X123089502Y-83130820D01*
X123030537Y-83020506D01*
X122951185Y-82923815D01*
X122854494Y-82844463D01*
X122744180Y-82785498D01*
X122624482Y-82749188D01*
X122500000Y-82736928D01*
X120500000Y-82736928D01*
X120375518Y-82749188D01*
X120255820Y-82785498D01*
X120145506Y-82844463D01*
X120048815Y-82923815D01*
X119969463Y-83020506D01*
X119910498Y-83130820D01*
X119874188Y-83250518D01*
X119861928Y-83375000D01*
X113826027Y-83375000D01*
X113824388Y-82660052D01*
X130308299Y-82660052D01*
X130314999Y-82728081D01*
X130315000Y-88675962D01*
X130308299Y-88744001D01*
X130335039Y-89015508D01*
X130414235Y-89276581D01*
X130542843Y-89517189D01*
X130672547Y-89675234D01*
X130672550Y-89675237D01*
X130715919Y-89728082D01*
X130768763Y-89771450D01*
X136570998Y-95573686D01*
X136570999Y-148287959D01*
X136564298Y-148355998D01*
X136591038Y-148627505D01*
X136670234Y-148888578D01*
X136798842Y-149129186D01*
X136928546Y-149287231D01*
X136928549Y-149287234D01*
X136971918Y-149340079D01*
X137024763Y-149383448D01*
X151197272Y-163555958D01*
X151216165Y-163601569D01*
X151375944Y-163840696D01*
X151579304Y-164044056D01*
X151782759Y-164180000D01*
X151579304Y-164315944D01*
X151375944Y-164519304D01*
X151216165Y-164758431D01*
X151106107Y-165024134D01*
X151050000Y-165306203D01*
X151050000Y-165593797D01*
X151106107Y-165875866D01*
X151216165Y-166141569D01*
X151375944Y-166380696D01*
X151579304Y-166584056D01*
X151818431Y-166743835D01*
X152084134Y-166853893D01*
X152366203Y-166910000D01*
X152653797Y-166910000D01*
X152935866Y-166853893D01*
X153201569Y-166743835D01*
X153440696Y-166584056D01*
X153644056Y-166380696D01*
X153803835Y-166141569D01*
X153913893Y-165875866D01*
X153970000Y-165593797D01*
X153970000Y-165306203D01*
X153913893Y-165024134D01*
X153803835Y-164758431D01*
X153644056Y-164519304D01*
X153440696Y-164315944D01*
X153237241Y-164180000D01*
X153440696Y-164044056D01*
X153644056Y-163840696D01*
X153803835Y-163601569D01*
X153913893Y-163335866D01*
X153970000Y-163053797D01*
X153970000Y-162766203D01*
X153913893Y-162484134D01*
X153803835Y-162218431D01*
X153644056Y-161979304D01*
X153440696Y-161775944D01*
X153201569Y-161616165D01*
X153155958Y-161597272D01*
X145594128Y-154035443D01*
X145820696Y-153884056D01*
X146024056Y-153680696D01*
X146183835Y-153441569D01*
X146293893Y-153175866D01*
X146350000Y-152893797D01*
X146350000Y-152606203D01*
X151050000Y-152606203D01*
X151050000Y-152893797D01*
X151106107Y-153175866D01*
X151216165Y-153441569D01*
X151375944Y-153680696D01*
X151579304Y-153884056D01*
X151818431Y-154043835D01*
X152084134Y-154153893D01*
X152366203Y-154210000D01*
X152653797Y-154210000D01*
X152935866Y-154153893D01*
X153201569Y-154043835D01*
X153440696Y-153884056D01*
X153644056Y-153680696D01*
X153803835Y-153441569D01*
X153913893Y-153175866D01*
X153970000Y-152893797D01*
X153970000Y-152606203D01*
X153913893Y-152324134D01*
X153803835Y-152058431D01*
X153644056Y-151819304D01*
X153440696Y-151615944D01*
X153201569Y-151456165D01*
X152935866Y-151346107D01*
X152653797Y-151290000D01*
X152366203Y-151290000D01*
X152084134Y-151346107D01*
X151818431Y-151456165D01*
X151579304Y-151615944D01*
X151375944Y-151819304D01*
X151216165Y-152058431D01*
X151106107Y-152324134D01*
X151050000Y-152606203D01*
X146350000Y-152606203D01*
X146293893Y-152324134D01*
X146183835Y-152058431D01*
X146024056Y-151819304D01*
X145820696Y-151615944D01*
X145581569Y-151456165D01*
X145315866Y-151346107D01*
X145033797Y-151290000D01*
X144746203Y-151290000D01*
X144464134Y-151346107D01*
X144198431Y-151456165D01*
X143959304Y-151615944D01*
X143755944Y-151819304D01*
X143604557Y-152045872D01*
X139340998Y-147782313D01*
X139340998Y-146373045D01*
X146461000Y-146373045D01*
X146461000Y-146626955D01*
X146510535Y-146875987D01*
X146607703Y-147110570D01*
X146748768Y-147321690D01*
X146928310Y-147501232D01*
X147139430Y-147642297D01*
X147374013Y-147739465D01*
X147623045Y-147789000D01*
X147876955Y-147789000D01*
X148125987Y-147739465D01*
X148360570Y-147642297D01*
X148571690Y-147501232D01*
X148751232Y-147321690D01*
X148892297Y-147110570D01*
X148989465Y-146875987D01*
X149000000Y-146823023D01*
X149010535Y-146875987D01*
X149107703Y-147110570D01*
X149248768Y-147321690D01*
X149428310Y-147501232D01*
X149639430Y-147642297D01*
X149874013Y-147739465D01*
X150123045Y-147789000D01*
X150376955Y-147789000D01*
X150625987Y-147739465D01*
X150860570Y-147642297D01*
X151071690Y-147501232D01*
X151251232Y-147321690D01*
X151392297Y-147110570D01*
X151489465Y-146875987D01*
X151500000Y-146823023D01*
X151510535Y-146875987D01*
X151607703Y-147110570D01*
X151748768Y-147321690D01*
X151928310Y-147501232D01*
X152139430Y-147642297D01*
X152374013Y-147739465D01*
X152623045Y-147789000D01*
X152876955Y-147789000D01*
X153125987Y-147739465D01*
X153360570Y-147642297D01*
X153571690Y-147501232D01*
X153751232Y-147321690D01*
X153892297Y-147110570D01*
X153989465Y-146875987D01*
X154000000Y-146823023D01*
X154010535Y-146875987D01*
X154107703Y-147110570D01*
X154248768Y-147321690D01*
X154428310Y-147501232D01*
X154639430Y-147642297D01*
X154874013Y-147739465D01*
X155123045Y-147789000D01*
X155376955Y-147789000D01*
X155625987Y-147739465D01*
X155860570Y-147642297D01*
X156071690Y-147501232D01*
X156251232Y-147321690D01*
X156392297Y-147110570D01*
X156489465Y-146875987D01*
X156500000Y-146823023D01*
X156510535Y-146875987D01*
X156607703Y-147110570D01*
X156748768Y-147321690D01*
X156928310Y-147501232D01*
X157139430Y-147642297D01*
X157374013Y-147739465D01*
X157623045Y-147789000D01*
X157876955Y-147789000D01*
X158125987Y-147739465D01*
X158360570Y-147642297D01*
X158571690Y-147501232D01*
X158751232Y-147321690D01*
X158892297Y-147110570D01*
X158957928Y-146952124D01*
X158957928Y-147154000D01*
X158970188Y-147278482D01*
X159006498Y-147398180D01*
X159065463Y-147508494D01*
X159144815Y-147605185D01*
X159241506Y-147684537D01*
X159351820Y-147743502D01*
X159471518Y-147779812D01*
X159596000Y-147792072D01*
X160904000Y-147792072D01*
X161028482Y-147779812D01*
X161148180Y-147743502D01*
X161258494Y-147684537D01*
X161355185Y-147605185D01*
X161434537Y-147508494D01*
X161493502Y-147398180D01*
X161529812Y-147278482D01*
X161542072Y-147154000D01*
X161542072Y-145846000D01*
X161529812Y-145721518D01*
X161493502Y-145601820D01*
X161434537Y-145491506D01*
X161355185Y-145394815D01*
X161258494Y-145315463D01*
X161148180Y-145256498D01*
X161028482Y-145220188D01*
X160904000Y-145207928D01*
X159596000Y-145207928D01*
X159471518Y-145220188D01*
X159351820Y-145256498D01*
X159241506Y-145315463D01*
X159144815Y-145394815D01*
X159065463Y-145491506D01*
X159006498Y-145601820D01*
X158970188Y-145721518D01*
X158957928Y-145846000D01*
X158957928Y-146047876D01*
X158892297Y-145889430D01*
X158751232Y-145678310D01*
X158571690Y-145498768D01*
X158360570Y-145357703D01*
X158125987Y-145260535D01*
X157876955Y-145211000D01*
X157623045Y-145211000D01*
X157374013Y-145260535D01*
X157139430Y-145357703D01*
X156928310Y-145498768D01*
X156748768Y-145678310D01*
X156607703Y-145889430D01*
X156510535Y-146124013D01*
X156500000Y-146176977D01*
X156489465Y-146124013D01*
X156392297Y-145889430D01*
X156251232Y-145678310D01*
X156071690Y-145498768D01*
X155860570Y-145357703D01*
X155625987Y-145260535D01*
X155376955Y-145211000D01*
X155123045Y-145211000D01*
X154874013Y-145260535D01*
X154639430Y-145357703D01*
X154428310Y-145498768D01*
X154248768Y-145678310D01*
X154107703Y-145889430D01*
X154010535Y-146124013D01*
X154000000Y-146176977D01*
X153989465Y-146124013D01*
X153892297Y-145889430D01*
X153751232Y-145678310D01*
X153571690Y-145498768D01*
X153360570Y-145357703D01*
X153125987Y-145260535D01*
X152876955Y-145211000D01*
X152623045Y-145211000D01*
X152374013Y-145260535D01*
X152139430Y-145357703D01*
X151928310Y-145498768D01*
X151748768Y-145678310D01*
X151607703Y-145889430D01*
X151510535Y-146124013D01*
X151500000Y-146176977D01*
X151489465Y-146124013D01*
X151392297Y-145889430D01*
X151251232Y-145678310D01*
X151071690Y-145498768D01*
X150860570Y-145357703D01*
X150625987Y-145260535D01*
X150376955Y-145211000D01*
X150123045Y-145211000D01*
X149874013Y-145260535D01*
X149639430Y-145357703D01*
X149428310Y-145498768D01*
X149248768Y-145678310D01*
X149107703Y-145889430D01*
X149010535Y-146124013D01*
X149000000Y-146176977D01*
X148989465Y-146124013D01*
X148892297Y-145889430D01*
X148751232Y-145678310D01*
X148571690Y-145498768D01*
X148360570Y-145357703D01*
X148125987Y-145260535D01*
X147876955Y-145211000D01*
X147623045Y-145211000D01*
X147374013Y-145260535D01*
X147139430Y-145357703D01*
X146928310Y-145498768D01*
X146748768Y-145678310D01*
X146607703Y-145889430D01*
X146510535Y-146124013D01*
X146461000Y-146373045D01*
X139340998Y-146373045D01*
X139340998Y-126388387D01*
X149541218Y-126388387D01*
X149595093Y-126617468D01*
X149825684Y-126723763D01*
X150072581Y-126783028D01*
X150326296Y-126792988D01*
X150577079Y-126753259D01*
X150815293Y-126665368D01*
X150904907Y-126617468D01*
X150958782Y-126388387D01*
X150250000Y-125679605D01*
X149541218Y-126388387D01*
X139340998Y-126388387D01*
X139340998Y-125576296D01*
X148957012Y-125576296D01*
X148996741Y-125827079D01*
X149084632Y-126065293D01*
X149132532Y-126154907D01*
X149361613Y-126208782D01*
X150070395Y-125500000D01*
X149361613Y-124791218D01*
X149132532Y-124845093D01*
X149026237Y-125075684D01*
X148966972Y-125322581D01*
X148957012Y-125576296D01*
X139340998Y-125576296D01*
X139340998Y-124611613D01*
X149541218Y-124611613D01*
X150250000Y-125320395D01*
X150958782Y-124611613D01*
X150904907Y-124382532D01*
X150674316Y-124276237D01*
X150427419Y-124216972D01*
X150173704Y-124207012D01*
X149922921Y-124246741D01*
X149684707Y-124334632D01*
X149595093Y-124382532D01*
X149541218Y-124611613D01*
X139340998Y-124611613D01*
X139340998Y-95068029D01*
X139347698Y-95000000D01*
X139340998Y-94931971D01*
X139340998Y-94931963D01*
X139320958Y-94728493D01*
X139241762Y-94467419D01*
X139113155Y-94226812D01*
X138983450Y-94068766D01*
X138983443Y-94068759D01*
X138940078Y-94015919D01*
X138887239Y-93972555D01*
X133892966Y-88978283D01*
X133920159Y-88849764D01*
X133250000Y-88179605D01*
X133235858Y-88193748D01*
X133084999Y-88042889D01*
X133084999Y-87957111D01*
X133235858Y-87806253D01*
X133250000Y-87820395D01*
X133264143Y-87806253D01*
X133443748Y-87985858D01*
X133429605Y-88000000D01*
X134099764Y-88670159D01*
X134323348Y-88622852D01*
X134424237Y-88401484D01*
X134480000Y-88164687D01*
X134488495Y-87921562D01*
X134449395Y-87681451D01*
X134369549Y-87467883D01*
X134380537Y-87454494D01*
X134439502Y-87344180D01*
X134468071Y-87250000D01*
X140908057Y-87250000D01*
X140935764Y-87531309D01*
X141017818Y-87801808D01*
X141151068Y-88051101D01*
X141314300Y-88250000D01*
X141151068Y-88448899D01*
X141017818Y-88698192D01*
X140935764Y-88968691D01*
X140908057Y-89250000D01*
X140935764Y-89531309D01*
X141017818Y-89801808D01*
X141151068Y-90051101D01*
X141314300Y-90250000D01*
X141151068Y-90448899D01*
X141017818Y-90698192D01*
X140935764Y-90968691D01*
X140908057Y-91250000D01*
X140935764Y-91531309D01*
X141017818Y-91801808D01*
X141151068Y-92051101D01*
X141314300Y-92250000D01*
X141151068Y-92448899D01*
X141017818Y-92698192D01*
X140935764Y-92968691D01*
X140908057Y-93250000D01*
X140935764Y-93531309D01*
X141017818Y-93801808D01*
X141151068Y-94051101D01*
X141314300Y-94250000D01*
X141151068Y-94448899D01*
X141017818Y-94698192D01*
X140935764Y-94968691D01*
X140908057Y-95250000D01*
X140935764Y-95531309D01*
X141017818Y-95801808D01*
X141151068Y-96051101D01*
X141314300Y-96250000D01*
X141151068Y-96448899D01*
X141017818Y-96698192D01*
X140935764Y-96968691D01*
X140908057Y-97250000D01*
X140935764Y-97531309D01*
X141017818Y-97801808D01*
X141151068Y-98051101D01*
X141314300Y-98250000D01*
X141151068Y-98448899D01*
X141017818Y-98698192D01*
X140935764Y-98968691D01*
X140908057Y-99250000D01*
X140935764Y-99531309D01*
X141017818Y-99801808D01*
X141151068Y-100051101D01*
X141314300Y-100250000D01*
X141151068Y-100448899D01*
X141017818Y-100698192D01*
X140935764Y-100968691D01*
X140908057Y-101250000D01*
X140935764Y-101531309D01*
X141017818Y-101801808D01*
X141151068Y-102051101D01*
X141314300Y-102250000D01*
X141151068Y-102448899D01*
X141017818Y-102698192D01*
X140935764Y-102968691D01*
X140908057Y-103250000D01*
X140935764Y-103531309D01*
X141017818Y-103801808D01*
X141151068Y-104051101D01*
X141314300Y-104250000D01*
X141151068Y-104448899D01*
X141017818Y-104698192D01*
X140935764Y-104968691D01*
X140908057Y-105250000D01*
X140935764Y-105531309D01*
X141017818Y-105801808D01*
X141151068Y-106051101D01*
X141314300Y-106250000D01*
X141151068Y-106448899D01*
X141017818Y-106698192D01*
X140935764Y-106968691D01*
X140908057Y-107250000D01*
X140935764Y-107531309D01*
X141017818Y-107801808D01*
X141151068Y-108051101D01*
X141314300Y-108250000D01*
X141151068Y-108448899D01*
X141017818Y-108698192D01*
X140935764Y-108968691D01*
X140908057Y-109250000D01*
X140935764Y-109531309D01*
X141017818Y-109801808D01*
X141151068Y-110051101D01*
X141314300Y-110250000D01*
X141151068Y-110448899D01*
X141017818Y-110698192D01*
X140935764Y-110968691D01*
X140908057Y-111250000D01*
X140935764Y-111531309D01*
X141017818Y-111801808D01*
X141151068Y-112051101D01*
X141314300Y-112250000D01*
X141151068Y-112448899D01*
X141017818Y-112698192D01*
X140935764Y-112968691D01*
X140908057Y-113250000D01*
X140935764Y-113531309D01*
X141017818Y-113801808D01*
X141151068Y-114051101D01*
X141314300Y-114250000D01*
X141151068Y-114448899D01*
X141017818Y-114698192D01*
X140935764Y-114968691D01*
X140908057Y-115250000D01*
X140935764Y-115531309D01*
X141017818Y-115801808D01*
X141151068Y-116051101D01*
X141314300Y-116250000D01*
X141151068Y-116448899D01*
X141017818Y-116698192D01*
X140935764Y-116968691D01*
X140908057Y-117250000D01*
X140935764Y-117531309D01*
X141017818Y-117801808D01*
X141151068Y-118051101D01*
X141330392Y-118269608D01*
X141548899Y-118448932D01*
X141798192Y-118582182D01*
X142068691Y-118664236D01*
X142279508Y-118685000D01*
X143220492Y-118685000D01*
X143431309Y-118664236D01*
X143701808Y-118582182D01*
X143951101Y-118448932D01*
X144169608Y-118269608D01*
X144348932Y-118051101D01*
X144482182Y-117801808D01*
X144564236Y-117531309D01*
X144591943Y-117250000D01*
X144564236Y-116968691D01*
X144482182Y-116698192D01*
X144348932Y-116448899D01*
X144185700Y-116250000D01*
X144348932Y-116051101D01*
X144482182Y-115801808D01*
X144564236Y-115531309D01*
X144591943Y-115250000D01*
X144564236Y-114968691D01*
X144482182Y-114698192D01*
X144348932Y-114448899D01*
X144185700Y-114250000D01*
X144348932Y-114051101D01*
X144482182Y-113801808D01*
X144564236Y-113531309D01*
X144591943Y-113250000D01*
X144564236Y-112968691D01*
X144482182Y-112698192D01*
X144348932Y-112448899D01*
X144185700Y-112250000D01*
X144348932Y-112051101D01*
X144482182Y-111801808D01*
X144564236Y-111531309D01*
X144591943Y-111250000D01*
X144564236Y-110968691D01*
X144550708Y-110924093D01*
X160211008Y-95263795D01*
X160240001Y-95240001D01*
X160263795Y-95211008D01*
X160263799Y-95211004D01*
X160334973Y-95124277D01*
X160334974Y-95124276D01*
X160405546Y-94992247D01*
X160449003Y-94848986D01*
X160460000Y-94737333D01*
X160460000Y-94737324D01*
X160463676Y-94700001D01*
X160460000Y-94662678D01*
X160460000Y-86900961D01*
X165358096Y-86900961D01*
X165480085Y-87123000D01*
X167023000Y-87123000D01*
X167023000Y-85815000D01*
X166623000Y-85815000D01*
X166345486Y-85867350D01*
X166083517Y-85972834D01*
X165847161Y-86127399D01*
X165645500Y-86325105D01*
X165486285Y-86558354D01*
X165375633Y-86818182D01*
X165358096Y-86900961D01*
X160460000Y-86900961D01*
X160460000Y-76295132D01*
X160581612Y-76173520D01*
X160705824Y-75987624D01*
X160791383Y-75781067D01*
X160835000Y-75561788D01*
X160835000Y-75338212D01*
X160791383Y-75118933D01*
X160705824Y-74912376D01*
X160581612Y-74726480D01*
X160423520Y-74568388D01*
X160237624Y-74444176D01*
X160031067Y-74358617D01*
X159811788Y-74315000D01*
X159588212Y-74315000D01*
X159368933Y-74358617D01*
X159162376Y-74444176D01*
X158976480Y-74568388D01*
X158818388Y-74726480D01*
X158700000Y-74903660D01*
X158581612Y-74726480D01*
X158423520Y-74568388D01*
X158237624Y-74444176D01*
X158031067Y-74358617D01*
X157811788Y-74315000D01*
X157588212Y-74315000D01*
X157368933Y-74358617D01*
X157162376Y-74444176D01*
X156976480Y-74568388D01*
X156818388Y-74726480D01*
X156694176Y-74912376D01*
X156608617Y-75118933D01*
X156565000Y-75338212D01*
X156565000Y-75561788D01*
X156608617Y-75781067D01*
X156694176Y-75987624D01*
X156818388Y-76173520D01*
X156940000Y-76295132D01*
X156940001Y-90385197D01*
X144515889Y-102809310D01*
X144482182Y-102698192D01*
X144348932Y-102448899D01*
X144185700Y-102250000D01*
X144348932Y-102051101D01*
X144482182Y-101801808D01*
X144564236Y-101531309D01*
X144591943Y-101250000D01*
X144564236Y-100968691D01*
X144482182Y-100698192D01*
X144348932Y-100448899D01*
X144185700Y-100250000D01*
X144348932Y-100051101D01*
X144482182Y-99801808D01*
X144564236Y-99531309D01*
X144591943Y-99250000D01*
X144564236Y-98968691D01*
X144482182Y-98698192D01*
X144348932Y-98448899D01*
X144185700Y-98250000D01*
X144348932Y-98051101D01*
X144482182Y-97801808D01*
X144564236Y-97531309D01*
X144591943Y-97250000D01*
X144564236Y-96968691D01*
X144482182Y-96698192D01*
X144348932Y-96448899D01*
X144185700Y-96250000D01*
X144348932Y-96051101D01*
X144482182Y-95801808D01*
X144564236Y-95531309D01*
X144591943Y-95250000D01*
X144564236Y-94968691D01*
X144482182Y-94698192D01*
X144348932Y-94448899D01*
X144185700Y-94250000D01*
X144348932Y-94051101D01*
X144482182Y-93801808D01*
X144564236Y-93531309D01*
X144591943Y-93250000D01*
X144564236Y-92968691D01*
X144482182Y-92698192D01*
X144348932Y-92448899D01*
X144185700Y-92250000D01*
X144348932Y-92051101D01*
X144482182Y-91801808D01*
X144564236Y-91531309D01*
X144591943Y-91250000D01*
X144564236Y-90968691D01*
X144482182Y-90698192D01*
X144348932Y-90448899D01*
X144185700Y-90250000D01*
X144348932Y-90051101D01*
X144482182Y-89801808D01*
X144564236Y-89531309D01*
X144591943Y-89250000D01*
X144564236Y-88968691D01*
X144482182Y-88698192D01*
X144348932Y-88448899D01*
X144185700Y-88250000D01*
X144348932Y-88051101D01*
X144482182Y-87801808D01*
X144564236Y-87531309D01*
X144591943Y-87250000D01*
X144564236Y-86968691D01*
X144482182Y-86698192D01*
X144348932Y-86448899D01*
X144169608Y-86230392D01*
X143951101Y-86051068D01*
X143701808Y-85917818D01*
X143431309Y-85835764D01*
X143220492Y-85815000D01*
X142279508Y-85815000D01*
X142068691Y-85835764D01*
X141798192Y-85917818D01*
X141548899Y-86051068D01*
X141330392Y-86230392D01*
X141151068Y-86448899D01*
X141017818Y-86698192D01*
X140935764Y-86968691D01*
X140908057Y-87250000D01*
X134468071Y-87250000D01*
X134475812Y-87224482D01*
X134488072Y-87100000D01*
X134488072Y-85900000D01*
X134475812Y-85775518D01*
X134439502Y-85655820D01*
X134397521Y-85577280D01*
X148514802Y-71460000D01*
X151254868Y-71460000D01*
X151376480Y-71581612D01*
X151562376Y-71705824D01*
X151768933Y-71791383D01*
X151988212Y-71835000D01*
X152211788Y-71835000D01*
X152431067Y-71791383D01*
X152637624Y-71705824D01*
X152823520Y-71581612D01*
X152981612Y-71423520D01*
X153105824Y-71237624D01*
X153191383Y-71031067D01*
X153235000Y-70811788D01*
X153235000Y-70588212D01*
X153197349Y-70398928D01*
X154316190Y-71517769D01*
X154358617Y-71731067D01*
X154444176Y-71937624D01*
X154568388Y-72123520D01*
X154726480Y-72281612D01*
X154912376Y-72405824D01*
X155118933Y-72491383D01*
X155338212Y-72535000D01*
X155561788Y-72535000D01*
X155781067Y-72491383D01*
X155987624Y-72405824D01*
X156173520Y-72281612D01*
X156331612Y-72123520D01*
X156455824Y-71937624D01*
X156541383Y-71731067D01*
X156585000Y-71511788D01*
X156585000Y-71288212D01*
X156541383Y-71068933D01*
X156455824Y-70862376D01*
X156331612Y-70676480D01*
X156173520Y-70518388D01*
X155987624Y-70394176D01*
X155781067Y-70308617D01*
X155567769Y-70266190D01*
X149419999Y-64118421D01*
X149419999Y-60511027D01*
X149666203Y-60560000D01*
X149953797Y-60560000D01*
X150235866Y-60503893D01*
X150501569Y-60393835D01*
X150740696Y-60234056D01*
X150944056Y-60030696D01*
X151103835Y-59791569D01*
X151213893Y-59525866D01*
X151270000Y-59243797D01*
X151270000Y-58956203D01*
X151213893Y-58674134D01*
X151103835Y-58408431D01*
X150944056Y-58169304D01*
X150851554Y-58076802D01*
X159818355Y-49110000D01*
X161122458Y-49110000D01*
X161318933Y-49191383D01*
X161538212Y-49235000D01*
X161761788Y-49235000D01*
X161981067Y-49191383D01*
X162187624Y-49105824D01*
X162373520Y-48981612D01*
X162531612Y-48823520D01*
X162655824Y-48637624D01*
X162741383Y-48431067D01*
X162785000Y-48211788D01*
X162785000Y-47988212D01*
X162741383Y-47768933D01*
X162655824Y-47562376D01*
X162531612Y-47376480D01*
X162373520Y-47218388D01*
X162187624Y-47094176D01*
X161981067Y-47008617D01*
X161761788Y-46965000D01*
X161538212Y-46965000D01*
X161318933Y-47008617D01*
X161122458Y-47090000D01*
X160410000Y-47090000D01*
X160410000Y-46565425D01*
X162379094Y-44596331D01*
X162417633Y-44564703D01*
X162543847Y-44410910D01*
X162637632Y-44235450D01*
X162695385Y-44045064D01*
X162710000Y-43896678D01*
X162710000Y-43896676D01*
X162714886Y-43847071D01*
X162710000Y-43797466D01*
X162710000Y-41527542D01*
X162791383Y-41331067D01*
X162835000Y-41111788D01*
X162835000Y-40888212D01*
X162791383Y-40668933D01*
X162710000Y-40472458D01*
X162710000Y-37027542D01*
X162791383Y-36831067D01*
X162835000Y-36611788D01*
X162835000Y-36388212D01*
X162791383Y-36168933D01*
X162705824Y-35962376D01*
X162581612Y-35776480D01*
X162423520Y-35618388D01*
X162237624Y-35494176D01*
X162031067Y-35408617D01*
X161811788Y-35365000D01*
X161588212Y-35365000D01*
X161368933Y-35408617D01*
X161162376Y-35494176D01*
X160976480Y-35618388D01*
X160818388Y-35776480D01*
X160694176Y-35962376D01*
X160608617Y-36168933D01*
X160565000Y-36388212D01*
X160565000Y-36611788D01*
X160608617Y-36831067D01*
X160690001Y-37027544D01*
X160690000Y-40472457D01*
X160608617Y-40668933D01*
X160565000Y-40888212D01*
X160565000Y-41111788D01*
X160608617Y-41331067D01*
X160690000Y-41527543D01*
X160690000Y-42149607D01*
X160690001Y-42149617D01*
X160690000Y-43428715D01*
X159860000Y-44258715D01*
X159860000Y-35111893D01*
X159866096Y-35050000D01*
X159844402Y-34829735D01*
X159841768Y-34802997D01*
X159769720Y-34565486D01*
X159652720Y-34346595D01*
X159495265Y-34154735D01*
X159447185Y-34115277D01*
X158734724Y-33402816D01*
X158695265Y-33354735D01*
X158503405Y-33197280D01*
X158284514Y-33080280D01*
X158047003Y-33008232D01*
X157861893Y-32990000D01*
X157861883Y-32990000D01*
X157800000Y-32983905D01*
X157738117Y-32990000D01*
X156990444Y-32990000D01*
X156988242Y-32988193D01*
X157107571Y-32736004D01*
X157176300Y-32461816D01*
X157190217Y-32179488D01*
X157148787Y-31899870D01*
X157053603Y-31633708D01*
X156986671Y-31508486D01*
X156742702Y-31436903D01*
X155929605Y-32250000D01*
X155943748Y-32264143D01*
X155764143Y-32443748D01*
X155750000Y-32429605D01*
X155735858Y-32443748D01*
X155556253Y-32264143D01*
X155570395Y-32250000D01*
X154757298Y-31436903D01*
X154513329Y-31508486D01*
X154392429Y-31763996D01*
X154323700Y-32038184D01*
X154309783Y-32320512D01*
X154351213Y-32600130D01*
X154446397Y-32866292D01*
X154511616Y-32988309D01*
X154498815Y-32998815D01*
X154419463Y-33095506D01*
X154360498Y-33205820D01*
X154324188Y-33325518D01*
X154311928Y-33450000D01*
X154311928Y-35050000D01*
X154324188Y-35174482D01*
X154360498Y-35294180D01*
X154419463Y-35404494D01*
X154498815Y-35501185D01*
X154595506Y-35580537D01*
X154705820Y-35639502D01*
X154825518Y-35675812D01*
X154950000Y-35688072D01*
X156550000Y-35688072D01*
X156674482Y-35675812D01*
X156794180Y-35639502D01*
X156904494Y-35580537D01*
X156990444Y-35510000D01*
X157278092Y-35510000D01*
X157340000Y-35571908D01*
X157340001Y-44728090D01*
X156928092Y-45140000D01*
X150552207Y-45140000D01*
X150501569Y-45106165D01*
X150235866Y-44996107D01*
X149953797Y-44940000D01*
X149666203Y-44940000D01*
X149384134Y-44996107D01*
X149118431Y-45106165D01*
X148879304Y-45265944D01*
X148675944Y-45469304D01*
X148516165Y-45708431D01*
X148406107Y-45974134D01*
X148350000Y-46256203D01*
X148350000Y-46543797D01*
X148406107Y-46825866D01*
X148516165Y-47091569D01*
X148675944Y-47330696D01*
X148879304Y-47534056D01*
X149080576Y-47668541D01*
X149053663Y-47682927D01*
X148979054Y-47929449D01*
X149810000Y-48760395D01*
X150640946Y-47929449D01*
X150566337Y-47682927D01*
X150538023Y-47669477D01*
X150552207Y-47660000D01*
X157388117Y-47660000D01*
X157450000Y-47666095D01*
X157511883Y-47660000D01*
X157511893Y-47660000D01*
X157697003Y-47641768D01*
X157934514Y-47569720D01*
X158153405Y-47452720D01*
X158345265Y-47295265D01*
X158384723Y-47247185D01*
X158390000Y-47241908D01*
X158390000Y-47681645D01*
X149419999Y-56651646D01*
X149419999Y-55328468D01*
X149424280Y-55284999D01*
X149419999Y-55241530D01*
X149419999Y-55241522D01*
X149407194Y-55111509D01*
X149356588Y-54944686D01*
X149274410Y-54790940D01*
X149231022Y-54738072D01*
X149191531Y-54689952D01*
X149191529Y-54689950D01*
X149163816Y-54656182D01*
X149130048Y-54628469D01*
X144452130Y-49950551D01*
X148979054Y-49950551D01*
X149053663Y-50197073D01*
X149313439Y-50320473D01*
X149592297Y-50390823D01*
X149879521Y-50405417D01*
X150164074Y-50363697D01*
X150435020Y-50267265D01*
X150566337Y-50197073D01*
X150640946Y-49950551D01*
X149810000Y-49119605D01*
X148979054Y-49950551D01*
X144452130Y-49950551D01*
X143671536Y-49169958D01*
X143671531Y-49169952D01*
X143639278Y-49137699D01*
X143650000Y-49083797D01*
X143650000Y-49009521D01*
X148344583Y-49009521D01*
X148386303Y-49294074D01*
X148482735Y-49565020D01*
X148552927Y-49696337D01*
X148799449Y-49770946D01*
X149630395Y-48940000D01*
X149989605Y-48940000D01*
X150820551Y-49770946D01*
X151067073Y-49696337D01*
X151190473Y-49436561D01*
X151260823Y-49157703D01*
X151275417Y-48870479D01*
X151233697Y-48585926D01*
X151137265Y-48314980D01*
X151067073Y-48183663D01*
X150820551Y-48109054D01*
X149989605Y-48940000D01*
X149630395Y-48940000D01*
X148799449Y-48109054D01*
X148552927Y-48183663D01*
X148429527Y-48443439D01*
X148359177Y-48722297D01*
X148344583Y-49009521D01*
X143650000Y-49009521D01*
X143650000Y-48796203D01*
X143593893Y-48514134D01*
X143483835Y-48248431D01*
X143324056Y-48009304D01*
X143120696Y-47805944D01*
X142917241Y-47670000D01*
X143120696Y-47534056D01*
X143324056Y-47330696D01*
X143483835Y-47091569D01*
X143593893Y-46825866D01*
X143650000Y-46543797D01*
X143650000Y-46256203D01*
X143593893Y-45974134D01*
X143483835Y-45708431D01*
X143324056Y-45469304D01*
X143120696Y-45265944D01*
X142881569Y-45106165D01*
X142615866Y-44996107D01*
X142333797Y-44940000D01*
X142046203Y-44940000D01*
X141764134Y-44996107D01*
X141498431Y-45106165D01*
X141259304Y-45265944D01*
X141055944Y-45469304D01*
X140896165Y-45708431D01*
X140786107Y-45974134D01*
X140730000Y-46256203D01*
X140730000Y-46543797D01*
X140786107Y-46825866D01*
X140896165Y-47091569D01*
X141055944Y-47330696D01*
X141259304Y-47534056D01*
X141462759Y-47670000D01*
X141259304Y-47805944D01*
X141055944Y-48009304D01*
X140896165Y-48248431D01*
X140786107Y-48514134D01*
X140730000Y-48796203D01*
X140730000Y-49083797D01*
X140786107Y-49365866D01*
X140896165Y-49631569D01*
X141055944Y-49870696D01*
X141259304Y-50074056D01*
X141498431Y-50233835D01*
X141764134Y-50343893D01*
X142046203Y-50400000D01*
X142333797Y-50400000D01*
X142387699Y-50389278D01*
X142419952Y-50421531D01*
X142419958Y-50421536D01*
X147650000Y-55651579D01*
X147649999Y-64075197D01*
X145288803Y-61714002D01*
X145265000Y-61684998D01*
X145149275Y-61590025D01*
X145017246Y-61519453D01*
X144873985Y-61475996D01*
X144762332Y-61464999D01*
X144762321Y-61464999D01*
X144724999Y-61461323D01*
X144687677Y-61464999D01*
X143139801Y-61464999D01*
X142234802Y-60560000D01*
X142333797Y-60560000D01*
X142615866Y-60503893D01*
X142881569Y-60393835D01*
X143120696Y-60234056D01*
X143324056Y-60030696D01*
X143483835Y-59791569D01*
X143593893Y-59525866D01*
X143650000Y-59243797D01*
X143650000Y-58956203D01*
X143593893Y-58674134D01*
X143483835Y-58408431D01*
X143324056Y-58169304D01*
X143120696Y-57965944D01*
X142881569Y-57806165D01*
X142615866Y-57696107D01*
X142335463Y-57640331D01*
X137135000Y-52439869D01*
X137135000Y-39298061D01*
X141915000Y-39298061D01*
X141915000Y-39501939D01*
X141954774Y-39701898D01*
X142032795Y-39890256D01*
X142146063Y-40059774D01*
X142290226Y-40203937D01*
X142459744Y-40317205D01*
X142648102Y-40395226D01*
X142848061Y-40435000D01*
X143051939Y-40435000D01*
X143251898Y-40395226D01*
X143440256Y-40317205D01*
X143609774Y-40203937D01*
X143653711Y-40160000D01*
X145046993Y-40160000D01*
X145084315Y-40163676D01*
X145121637Y-40160000D01*
X145121648Y-40160000D01*
X145233301Y-40149003D01*
X145376562Y-40105546D01*
X145508591Y-40034974D01*
X145624316Y-39940001D01*
X145648119Y-39910997D01*
X147117845Y-38441272D01*
X147248102Y-38495226D01*
X147448061Y-38535000D01*
X147651939Y-38535000D01*
X147851898Y-38495226D01*
X148040256Y-38417205D01*
X148209774Y-38303937D01*
X148353937Y-38159774D01*
X148467205Y-37990256D01*
X148545226Y-37801898D01*
X148585000Y-37601939D01*
X148585000Y-37398061D01*
X148545226Y-37198102D01*
X148467205Y-37009744D01*
X148359173Y-36848061D01*
X148765000Y-36848061D01*
X148765000Y-37051939D01*
X148804774Y-37251898D01*
X148882795Y-37440256D01*
X148996063Y-37609774D01*
X149040000Y-37653711D01*
X149040001Y-41712668D01*
X149036324Y-41750000D01*
X149040001Y-41787333D01*
X149050998Y-41898986D01*
X149063288Y-41939502D01*
X149094454Y-42042246D01*
X149165026Y-42174276D01*
X149198448Y-42215000D01*
X149260000Y-42290001D01*
X149288998Y-42313799D01*
X150265000Y-43289802D01*
X150265000Y-43351939D01*
X150304774Y-43551898D01*
X150382795Y-43740256D01*
X150496063Y-43909774D01*
X150640226Y-44053937D01*
X150809744Y-44167205D01*
X150998102Y-44245226D01*
X151198061Y-44285000D01*
X151401939Y-44285000D01*
X151601898Y-44245226D01*
X151790256Y-44167205D01*
X151959774Y-44053937D01*
X152103937Y-43909774D01*
X152217205Y-43740256D01*
X152295226Y-43551898D01*
X152335000Y-43351939D01*
X152335000Y-43148061D01*
X152295226Y-42948102D01*
X152217205Y-42759744D01*
X152103937Y-42590226D01*
X151959774Y-42446063D01*
X151790256Y-42332795D01*
X151601898Y-42254774D01*
X151401939Y-42215000D01*
X151339802Y-42215000D01*
X150560000Y-41435199D01*
X150560000Y-37653711D01*
X150603937Y-37609774D01*
X150717205Y-37440256D01*
X150795226Y-37251898D01*
X150835000Y-37051939D01*
X150835000Y-36848061D01*
X150795226Y-36648102D01*
X150717205Y-36459744D01*
X150603937Y-36290226D01*
X150459774Y-36146063D01*
X150290256Y-36032795D01*
X150101898Y-35954774D01*
X149901939Y-35915000D01*
X149698061Y-35915000D01*
X149498102Y-35954774D01*
X149309744Y-36032795D01*
X149140226Y-36146063D01*
X148996063Y-36290226D01*
X148882795Y-36459744D01*
X148804774Y-36648102D01*
X148765000Y-36848061D01*
X148359173Y-36848061D01*
X148353937Y-36840226D01*
X148209774Y-36696063D01*
X148040256Y-36582795D01*
X147851898Y-36504774D01*
X147651939Y-36465000D01*
X147448061Y-36465000D01*
X147248102Y-36504774D01*
X147059744Y-36582795D01*
X146890226Y-36696063D01*
X146835276Y-36751013D01*
X146692068Y-36794454D01*
X146560039Y-36865026D01*
X146444314Y-36959999D01*
X146420516Y-36988997D01*
X144769514Y-38640000D01*
X143653711Y-38640000D01*
X143609774Y-38596063D01*
X143440256Y-38482795D01*
X143251898Y-38404774D01*
X143051939Y-38365000D01*
X142848061Y-38365000D01*
X142648102Y-38404774D01*
X142459744Y-38482795D01*
X142290226Y-38596063D01*
X142146063Y-38740226D01*
X142032795Y-38909744D01*
X141954774Y-39098102D01*
X141915000Y-39298061D01*
X137135000Y-39298061D01*
X137135000Y-36090957D01*
X137154494Y-36080537D01*
X137251185Y-36001185D01*
X137330537Y-35904494D01*
X137389502Y-35794180D01*
X137425812Y-35674482D01*
X137438072Y-35550000D01*
X137438072Y-33950000D01*
X137425812Y-33825518D01*
X137389502Y-33705820D01*
X137330537Y-33595506D01*
X137251185Y-33498815D01*
X137238242Y-33488193D01*
X137357571Y-33236004D01*
X137426300Y-32961816D01*
X137440217Y-32679488D01*
X137398787Y-32399870D01*
X137303603Y-32133708D01*
X137236671Y-32008486D01*
X136992702Y-31936903D01*
X136179605Y-32750000D01*
X136193748Y-32764143D01*
X136014143Y-32943748D01*
X136000000Y-32929605D01*
X135985858Y-32943748D01*
X135806253Y-32764143D01*
X135820395Y-32750000D01*
X135007298Y-31936903D01*
X134763329Y-32008486D01*
X134642429Y-32263996D01*
X134573700Y-32538184D01*
X134559783Y-32820512D01*
X134601213Y-33100130D01*
X134696397Y-33366292D01*
X134761616Y-33488309D01*
X134748815Y-33498815D01*
X134669463Y-33595506D01*
X134610498Y-33705820D01*
X134574188Y-33825518D01*
X134561928Y-33950000D01*
X134561928Y-35550000D01*
X134574188Y-35674482D01*
X134610498Y-35794180D01*
X134669463Y-35904494D01*
X134748815Y-36001185D01*
X134845506Y-36080537D01*
X134865000Y-36090957D01*
X134865001Y-52854238D01*
X134859509Y-52910000D01*
X134881423Y-53132498D01*
X134913700Y-53238898D01*
X134663804Y-52989003D01*
X134640001Y-52959999D01*
X134524276Y-52865026D01*
X134482424Y-52842655D01*
X134475812Y-52775518D01*
X134439502Y-52655820D01*
X134380537Y-52545506D01*
X134301185Y-52448815D01*
X134204494Y-52369463D01*
X134094180Y-52310498D01*
X133974482Y-52274188D01*
X133850000Y-52261928D01*
X132650000Y-52261928D01*
X132525518Y-52274188D01*
X132405820Y-52310498D01*
X132295506Y-52369463D01*
X132198815Y-52448815D01*
X132119463Y-52545506D01*
X132060498Y-52655820D01*
X132024188Y-52775518D01*
X132011928Y-52900000D01*
X132011928Y-54100000D01*
X132024188Y-54224482D01*
X132060498Y-54344180D01*
X132119463Y-54454494D01*
X132133568Y-54471681D01*
X132075763Y-54598516D01*
X132020000Y-54835313D01*
X132011505Y-55078438D01*
X132050605Y-55318549D01*
X132135798Y-55546418D01*
X132176652Y-55622852D01*
X132400236Y-55670159D01*
X133070395Y-55000000D01*
X133056253Y-54985858D01*
X133235858Y-54806253D01*
X133250000Y-54820395D01*
X133264143Y-54806253D01*
X133443748Y-54985858D01*
X133429605Y-55000000D01*
X134099764Y-55670159D01*
X134323348Y-55622852D01*
X134424237Y-55401484D01*
X134480000Y-55164687D01*
X134487086Y-54961887D01*
X142261199Y-62736001D01*
X142284998Y-62765000D01*
X142313996Y-62788798D01*
X142400722Y-62859973D01*
X142485124Y-62905087D01*
X142532752Y-62930545D01*
X142676013Y-62974002D01*
X142787666Y-62984999D01*
X142787676Y-62984999D01*
X142824999Y-62988675D01*
X142862322Y-62984999D01*
X144410198Y-62984999D01*
X150965000Y-69539803D01*
X150965000Y-69711788D01*
X151008617Y-69931067D01*
X151012317Y-69940000D01*
X148237325Y-69940000D01*
X148200000Y-69936324D01*
X148162675Y-69940000D01*
X148162667Y-69940000D01*
X148051014Y-69950997D01*
X147907753Y-69994454D01*
X147775724Y-70065026D01*
X147659999Y-70159999D01*
X147636201Y-70188997D01*
X139485001Y-78340198D01*
X139485001Y-64605753D01*
X139490492Y-64550001D01*
X139479227Y-64435619D01*
X139468578Y-64327502D01*
X139403677Y-64113554D01*
X139298285Y-63916378D01*
X139156450Y-63743552D01*
X139113147Y-63708014D01*
X138285000Y-62879868D01*
X138285000Y-62550000D01*
X138279166Y-62490495D01*
X138273752Y-62431013D01*
X138273125Y-62428882D01*
X138272907Y-62426661D01*
X138255612Y-62369379D01*
X138238762Y-62312125D01*
X138237731Y-62310153D01*
X138237087Y-62308020D01*
X138209012Y-62255219D01*
X138181345Y-62202297D01*
X138179951Y-62200563D01*
X138178905Y-62198596D01*
X138141117Y-62152263D01*
X138103690Y-62105714D01*
X138101985Y-62104283D01*
X138100577Y-62102557D01*
X138054527Y-62064461D01*
X138008754Y-62026053D01*
X138006802Y-62024980D01*
X138005087Y-62023561D01*
X137952539Y-61995149D01*
X137900153Y-61966349D01*
X137898029Y-61965675D01*
X137896072Y-61964617D01*
X137839050Y-61946966D01*
X137782024Y-61928876D01*
X137779808Y-61928627D01*
X137777684Y-61927970D01*
X137718257Y-61921724D01*
X137658866Y-61915062D01*
X137654596Y-61915032D01*
X137654433Y-61915015D01*
X137654270Y-61915030D01*
X137650000Y-61915000D01*
X133750000Y-61915000D01*
X133690495Y-61920834D01*
X133631013Y-61926248D01*
X133628882Y-61926875D01*
X133626661Y-61927093D01*
X133569379Y-61944388D01*
X133512125Y-61961238D01*
X133510153Y-61962269D01*
X133508020Y-61962913D01*
X133455219Y-61990988D01*
X133402297Y-62018655D01*
X133400563Y-62020049D01*
X133398596Y-62021095D01*
X133352263Y-62058883D01*
X133305714Y-62096310D01*
X133304283Y-62098015D01*
X133302557Y-62099423D01*
X133264461Y-62145473D01*
X133226053Y-62191246D01*
X133224980Y-62193198D01*
X133223561Y-62194913D01*
X133195149Y-62247461D01*
X133166349Y-62299847D01*
X133165675Y-62301971D01*
X133164617Y-62303928D01*
X133146966Y-62360950D01*
X133128876Y-62417976D01*
X133128627Y-62420192D01*
X133127970Y-62422316D01*
X133121724Y-62481743D01*
X133115062Y-62541134D01*
X133115032Y-62545404D01*
X133115015Y-62545567D01*
X133115030Y-62545730D01*
X133115000Y-62550000D01*
X133115000Y-66450000D01*
X133120834Y-66509505D01*
X133126248Y-66568987D01*
X133126875Y-66571118D01*
X133127093Y-66573339D01*
X133144388Y-66630621D01*
X133161238Y-66687875D01*
X133162269Y-66689847D01*
X133162913Y-66691980D01*
X133190988Y-66744781D01*
X133218655Y-66797703D01*
X133220049Y-66799437D01*
X133221095Y-66801404D01*
X133258883Y-66847737D01*
X133296310Y-66894286D01*
X133298015Y-66895717D01*
X133299423Y-66897443D01*
X133345473Y-66935539D01*
X133391246Y-66973947D01*
X133393198Y-66975020D01*
X133394913Y-66976439D01*
X133447461Y-67004851D01*
X133499847Y-67033651D01*
X133501971Y-67034325D01*
X133503928Y-67035383D01*
X133560950Y-67053034D01*
X133617976Y-67071124D01*
X133620192Y-67071373D01*
X133622316Y-67072030D01*
X133681743Y-67078276D01*
X133741134Y-67084938D01*
X133745404Y-67084968D01*
X133745567Y-67084985D01*
X133745730Y-67084970D01*
X133750000Y-67085000D01*
X137215001Y-67085000D01*
X137215002Y-78100261D01*
X137023188Y-77942843D01*
X136782581Y-77814236D01*
X136521507Y-77735040D01*
X136318037Y-77715000D01*
X135328080Y-77715000D01*
X135260051Y-77708300D01*
X135192022Y-77715000D01*
X135192014Y-77715000D01*
X134988544Y-77735040D01*
X134727470Y-77814236D01*
X134486863Y-77942843D01*
X134328817Y-78072548D01*
X134328815Y-78072550D01*
X134275970Y-78115919D01*
X134232601Y-78168764D01*
X130768764Y-81632602D01*
X130715918Y-81675972D01*
X130542842Y-81886865D01*
X130414235Y-82127472D01*
X130335039Y-82388546D01*
X130314999Y-82592016D01*
X130314999Y-82592023D01*
X130308299Y-82660052D01*
X113824388Y-82660052D01*
X113786333Y-66068514D01*
X114065000Y-66068514D01*
X114065000Y-66331486D01*
X114116304Y-66589405D01*
X114216939Y-66832359D01*
X114363038Y-67051013D01*
X114548987Y-67236962D01*
X114767641Y-67383061D01*
X114824849Y-67406758D01*
X116540000Y-69121909D01*
X116540001Y-72722109D01*
X116533905Y-72784002D01*
X116558233Y-73031005D01*
X116630280Y-73268515D01*
X116747280Y-73487407D01*
X116860200Y-73625000D01*
X116904736Y-73679267D01*
X116952811Y-73718721D01*
X117706274Y-74472184D01*
X117745733Y-74520265D01*
X117935723Y-74676185D01*
X117937593Y-74677720D01*
X118156484Y-74794720D01*
X118393995Y-74866768D01*
X118640998Y-74891096D01*
X118702891Y-74885000D01*
X119311893Y-74885000D01*
X119497003Y-74866768D01*
X119509187Y-74863072D01*
X119850000Y-74863072D01*
X119974482Y-74850812D01*
X120094180Y-74814502D01*
X120204494Y-74755537D01*
X120301185Y-74676185D01*
X120380537Y-74579494D01*
X120439502Y-74469180D01*
X120475812Y-74349482D01*
X120488072Y-74225000D01*
X120488072Y-73884187D01*
X120491768Y-73872003D01*
X120516096Y-73625000D01*
X120491768Y-73377997D01*
X120488072Y-73365813D01*
X120488072Y-73025000D01*
X120475812Y-72900518D01*
X120439502Y-72780820D01*
X120380537Y-72670506D01*
X120366432Y-72653319D01*
X120424237Y-72526484D01*
X120480000Y-72289687D01*
X120488495Y-72046562D01*
X120449395Y-71806451D01*
X120364202Y-71578582D01*
X120323348Y-71502148D01*
X120099764Y-71454841D01*
X119429605Y-72125000D01*
X119443748Y-72139143D01*
X119264143Y-72318748D01*
X119250000Y-72304605D01*
X119235858Y-72318748D01*
X119060000Y-72142890D01*
X119060000Y-72135395D01*
X119070395Y-72125000D01*
X119060000Y-72114605D01*
X119060000Y-72107110D01*
X119235858Y-71931253D01*
X119250000Y-71945395D01*
X119920159Y-71275236D01*
X119872852Y-71051652D01*
X119651484Y-70950763D01*
X119414687Y-70895000D01*
X119171562Y-70886505D01*
X119060000Y-70904672D01*
X119060000Y-69274467D01*
X119094719Y-69209512D01*
X119166767Y-68972002D01*
X119191095Y-68724999D01*
X119166767Y-68477996D01*
X119094719Y-68240485D01*
X118977719Y-68021594D01*
X118859718Y-67877809D01*
X118859708Y-67877799D01*
X118820263Y-67829735D01*
X118772199Y-67790290D01*
X116606758Y-65624849D01*
X116583061Y-65567641D01*
X116436962Y-65348987D01*
X116251013Y-65163038D01*
X116032359Y-65016939D01*
X115789405Y-64916304D01*
X115531486Y-64865000D01*
X115268514Y-64865000D01*
X115010595Y-64916304D01*
X114767641Y-65016939D01*
X114548987Y-65163038D01*
X114363038Y-65348987D01*
X114216939Y-65567641D01*
X114116304Y-65810595D01*
X114065000Y-66068514D01*
X113786333Y-66068514D01*
X113765845Y-57135413D01*
X120544192Y-57135413D01*
X120639956Y-57399814D01*
X120929571Y-57540704D01*
X121241108Y-57622384D01*
X121562595Y-57641718D01*
X121881675Y-57597961D01*
X122186088Y-57492795D01*
X122360044Y-57399814D01*
X122455808Y-57135413D01*
X121500000Y-56179605D01*
X120544192Y-57135413D01*
X113765845Y-57135413D01*
X113763384Y-56062595D01*
X119858282Y-56062595D01*
X119902039Y-56381675D01*
X120007205Y-56686088D01*
X120100186Y-56860044D01*
X120364587Y-56955808D01*
X121320395Y-56000000D01*
X121679605Y-56000000D01*
X122635413Y-56955808D01*
X122899814Y-56860044D01*
X123040704Y-56570429D01*
X123122384Y-56258892D01*
X123141718Y-55937405D01*
X123129700Y-55849764D01*
X132579841Y-55849764D01*
X132627148Y-56073348D01*
X132848516Y-56174237D01*
X133085313Y-56230000D01*
X133328438Y-56238495D01*
X133568549Y-56199395D01*
X133796418Y-56114202D01*
X133872852Y-56073348D01*
X133920159Y-55849764D01*
X133250000Y-55179605D01*
X132579841Y-55849764D01*
X123129700Y-55849764D01*
X123097961Y-55618325D01*
X122992795Y-55313912D01*
X122899814Y-55139956D01*
X122635413Y-55044192D01*
X121679605Y-56000000D01*
X121320395Y-56000000D01*
X120364587Y-55044192D01*
X120100186Y-55139956D01*
X119959296Y-55429571D01*
X119877616Y-55741108D01*
X119858282Y-56062595D01*
X113763384Y-56062595D01*
X113760637Y-54864587D01*
X120544192Y-54864587D01*
X121500000Y-55820395D01*
X122455808Y-54864587D01*
X122360044Y-54600186D01*
X122070429Y-54459296D01*
X121758892Y-54377616D01*
X121437405Y-54358282D01*
X121118325Y-54402039D01*
X120813912Y-54507205D01*
X120639956Y-54600186D01*
X120544192Y-54864587D01*
X113760637Y-54864587D01*
X113749479Y-50000000D01*
X119861928Y-50000000D01*
X119861928Y-52000000D01*
X119874188Y-52124482D01*
X119910498Y-52244180D01*
X119969463Y-52354494D01*
X120048815Y-52451185D01*
X120145506Y-52530537D01*
X120255820Y-52589502D01*
X120375518Y-52625812D01*
X120500000Y-52638072D01*
X122500000Y-52638072D01*
X122624482Y-52625812D01*
X122744180Y-52589502D01*
X122854494Y-52530537D01*
X122951185Y-52451185D01*
X123030537Y-52354494D01*
X123089502Y-52244180D01*
X123125812Y-52124482D01*
X123138072Y-52000000D01*
X123138072Y-50000000D01*
X123125812Y-49875518D01*
X123089502Y-49755820D01*
X123030537Y-49645506D01*
X122951185Y-49548815D01*
X122854494Y-49469463D01*
X122744180Y-49410498D01*
X122624482Y-49374188D01*
X122500000Y-49361928D01*
X120500000Y-49361928D01*
X120375518Y-49374188D01*
X120255820Y-49410498D01*
X120145506Y-49469463D01*
X120048815Y-49548815D01*
X119969463Y-49645506D01*
X119910498Y-49755820D01*
X119874188Y-49875518D01*
X119861928Y-50000000D01*
X113749479Y-50000000D01*
X113727000Y-40199709D01*
X113724503Y-40174938D01*
X113717221Y-40151130D01*
X113702709Y-40125302D01*
X108570500Y-33068514D01*
X114065000Y-33068514D01*
X114065000Y-33331486D01*
X114116304Y-33589405D01*
X114216939Y-33832359D01*
X114363038Y-34051013D01*
X114548987Y-34236962D01*
X114767641Y-34383061D01*
X114824849Y-34406758D01*
X116564999Y-36146908D01*
X116565000Y-39872108D01*
X116558904Y-39934001D01*
X116583232Y-40181004D01*
X116655279Y-40418514D01*
X116772279Y-40637406D01*
X116798153Y-40668933D01*
X116929735Y-40829266D01*
X116977810Y-40868720D01*
X117706274Y-41597184D01*
X117745733Y-41645265D01*
X117918844Y-41787333D01*
X117937593Y-41802720D01*
X118156484Y-41919720D01*
X118393995Y-41991768D01*
X118640998Y-42016096D01*
X118702891Y-42010000D01*
X119311893Y-42010000D01*
X119497003Y-41991768D01*
X119509187Y-41988072D01*
X119850000Y-41988072D01*
X119974482Y-41975812D01*
X120094180Y-41939502D01*
X120204494Y-41880537D01*
X120301185Y-41801185D01*
X120380537Y-41704494D01*
X120439502Y-41594180D01*
X120475812Y-41474482D01*
X120488072Y-41350000D01*
X120488072Y-41009187D01*
X120491768Y-40997003D01*
X120516096Y-40750000D01*
X120491768Y-40502997D01*
X120488072Y-40490813D01*
X120488072Y-40150000D01*
X120475812Y-40025518D01*
X120439502Y-39905820D01*
X120380537Y-39795506D01*
X120366432Y-39778319D01*
X120424237Y-39651484D01*
X120480000Y-39414687D01*
X120488495Y-39171562D01*
X120449395Y-38931451D01*
X120364202Y-38703582D01*
X120323348Y-38627148D01*
X120099764Y-38579841D01*
X119429605Y-39250000D01*
X119443748Y-39264143D01*
X119264143Y-39443748D01*
X119250000Y-39429605D01*
X119235858Y-39443748D01*
X119084999Y-39292889D01*
X119084999Y-39207111D01*
X119235858Y-39056253D01*
X119250000Y-39070395D01*
X119920159Y-38400236D01*
X119872852Y-38176652D01*
X119651484Y-38075763D01*
X119414687Y-38020000D01*
X119171562Y-38011505D01*
X119084999Y-38025601D01*
X119084999Y-36227697D01*
X119094719Y-36209512D01*
X119166767Y-35972002D01*
X119191095Y-35724999D01*
X119166767Y-35477996D01*
X119094719Y-35240485D01*
X118977719Y-35021594D01*
X118859718Y-34877809D01*
X118859708Y-34877799D01*
X118820263Y-34829735D01*
X118772199Y-34790290D01*
X116606758Y-32624849D01*
X116583061Y-32567641D01*
X116436962Y-32348987D01*
X116251013Y-32163038D01*
X116032359Y-32016939D01*
X115789405Y-31916304D01*
X115531486Y-31865000D01*
X115268514Y-31865000D01*
X115010595Y-31916304D01*
X114767641Y-32016939D01*
X114548987Y-32163038D01*
X114363038Y-32348987D01*
X114216939Y-32567641D01*
X114116304Y-32810595D01*
X114065000Y-33068514D01*
X108570500Y-33068514D01*
X107616889Y-31757298D01*
X135186903Y-31757298D01*
X136000000Y-32570395D01*
X136813097Y-31757298D01*
X136741514Y-31513329D01*
X136486004Y-31392429D01*
X136211816Y-31323700D01*
X135929488Y-31309783D01*
X135649870Y-31351213D01*
X135383708Y-31446397D01*
X135258486Y-31513329D01*
X135186903Y-31757298D01*
X107616889Y-31757298D01*
X107327000Y-31358702D01*
X107327000Y-31257298D01*
X154936903Y-31257298D01*
X155750000Y-32070395D01*
X156563097Y-31257298D01*
X156491514Y-31013329D01*
X156236004Y-30892429D01*
X155961816Y-30823700D01*
X155679488Y-30809783D01*
X155399870Y-30851213D01*
X155133708Y-30946397D01*
X155008486Y-31013329D01*
X154936903Y-31257298D01*
X107327000Y-31257298D01*
X107327000Y-27000000D01*
X143261928Y-27000000D01*
X143274188Y-27124482D01*
X143310498Y-27244180D01*
X143369463Y-27354494D01*
X143448815Y-27451185D01*
X143545506Y-27530537D01*
X143655820Y-27589502D01*
X143775518Y-27625812D01*
X143900000Y-27638072D01*
X144464250Y-27635000D01*
X144623000Y-27476250D01*
X144623000Y-26127000D01*
X143423750Y-26127000D01*
X143265000Y-26285750D01*
X143261928Y-27000000D01*
X107327000Y-27000000D01*
X107327000Y-25000000D01*
X143261928Y-25000000D01*
X143265000Y-25714250D01*
X143423750Y-25873000D01*
X144623000Y-25873000D01*
X144623000Y-24523750D01*
X144877000Y-24523750D01*
X144877000Y-25873000D01*
X144897000Y-25873000D01*
X144897000Y-26127000D01*
X144877000Y-26127000D01*
X144877000Y-27476250D01*
X145035750Y-27635000D01*
X145600000Y-27638072D01*
X145724482Y-27625812D01*
X145844180Y-27589502D01*
X145954494Y-27530537D01*
X146051185Y-27451185D01*
X146130537Y-27354494D01*
X146189502Y-27244180D01*
X146200055Y-27209392D01*
X146420987Y-27390706D01*
X146678967Y-27528599D01*
X146958890Y-27613513D01*
X147250000Y-27642185D01*
X147541111Y-27613513D01*
X147821034Y-27528599D01*
X148079014Y-27390706D01*
X148305134Y-27205134D01*
X148490706Y-26979014D01*
X148628599Y-26721033D01*
X148713513Y-26441110D01*
X148735000Y-26222949D01*
X148735000Y-25868514D01*
X150465000Y-25868514D01*
X150465000Y-26131486D01*
X150516304Y-26389405D01*
X150616939Y-26632359D01*
X150763038Y-26851013D01*
X150948987Y-27036962D01*
X151167641Y-27183061D01*
X151410595Y-27283696D01*
X151668514Y-27335000D01*
X151931486Y-27335000D01*
X152189405Y-27283696D01*
X152432359Y-27183061D01*
X152651013Y-27036962D01*
X152836962Y-26851013D01*
X152983061Y-26632359D01*
X153083696Y-26389405D01*
X153135000Y-26131486D01*
X153135000Y-25868514D01*
X153083696Y-25610595D01*
X152983061Y-25367641D01*
X152836962Y-25148987D01*
X152651013Y-24963038D01*
X152432359Y-24816939D01*
X152189405Y-24716304D01*
X151931486Y-24665000D01*
X151668514Y-24665000D01*
X151410595Y-24716304D01*
X151167641Y-24816939D01*
X150948987Y-24963038D01*
X150763038Y-25148987D01*
X150616939Y-25367641D01*
X150516304Y-25610595D01*
X150465000Y-25868514D01*
X148735000Y-25868514D01*
X148735000Y-25777050D01*
X148713513Y-25558889D01*
X148628599Y-25278966D01*
X148490706Y-25020986D01*
X148305134Y-24794866D01*
X148079013Y-24609294D01*
X147821033Y-24471401D01*
X147541110Y-24386487D01*
X147250000Y-24357815D01*
X146958889Y-24386487D01*
X146678966Y-24471401D01*
X146420986Y-24609294D01*
X146200055Y-24790608D01*
X146189502Y-24755820D01*
X146130537Y-24645506D01*
X146051185Y-24548815D01*
X145954494Y-24469463D01*
X145844180Y-24410498D01*
X145724482Y-24374188D01*
X145600000Y-24361928D01*
X145035750Y-24365000D01*
X144877000Y-24523750D01*
X144623000Y-24523750D01*
X144464250Y-24365000D01*
X143900000Y-24361928D01*
X143775518Y-24374188D01*
X143655820Y-24410498D01*
X143545506Y-24469463D01*
X143448815Y-24548815D01*
X143369463Y-24645506D01*
X143310498Y-24755820D01*
X143274188Y-24875518D01*
X143261928Y-25000000D01*
X107327000Y-25000000D01*
X107327000Y-22727000D01*
X161073000Y-22727000D01*
X161073000Y-30200000D01*
X161073000Y-30200000D01*
G37*
X161073000Y-30200000D02*
X161075440Y-30224776D01*
X161082667Y-30248601D01*
X161094403Y-30270557D01*
X161110197Y-30289803D01*
X161129443Y-30305597D01*
X161151399Y-30317333D01*
X161175224Y-30324560D01*
X161200000Y-30327000D01*
X168873000Y-30327000D01*
X168873000Y-86697564D01*
X168813715Y-86558354D01*
X168654500Y-86325105D01*
X168452839Y-86127399D01*
X168216483Y-85972834D01*
X167954514Y-85867350D01*
X167677000Y-85815000D01*
X167277000Y-85815000D01*
X167277000Y-87123000D01*
X167297000Y-87123000D01*
X167297000Y-87377000D01*
X167277000Y-87377000D01*
X167277000Y-87397000D01*
X167023000Y-87397000D01*
X167023000Y-87377000D01*
X165480085Y-87377000D01*
X165358096Y-87599039D01*
X165375633Y-87681818D01*
X165486285Y-87941646D01*
X165645500Y-88174895D01*
X165717781Y-88245758D01*
X165551068Y-88448899D01*
X165417818Y-88698192D01*
X165335764Y-88968691D01*
X165308057Y-89250000D01*
X165335764Y-89531309D01*
X165417818Y-89801808D01*
X165551068Y-90051101D01*
X165714300Y-90250000D01*
X165551068Y-90448899D01*
X165417818Y-90698192D01*
X165335764Y-90968691D01*
X165308057Y-91250000D01*
X165335764Y-91531309D01*
X165417818Y-91801808D01*
X165551068Y-92051101D01*
X165714300Y-92250000D01*
X165551068Y-92448899D01*
X165417818Y-92698192D01*
X165335764Y-92968691D01*
X165308057Y-93250000D01*
X165335764Y-93531309D01*
X165417818Y-93801808D01*
X165551068Y-94051101D01*
X165714300Y-94250000D01*
X165551068Y-94448899D01*
X165417818Y-94698192D01*
X165335764Y-94968691D01*
X165308057Y-95250000D01*
X165314246Y-95312842D01*
X152070906Y-108556182D01*
X152032367Y-108587810D01*
X151906153Y-108741603D01*
X151820372Y-108902089D01*
X151812368Y-108917064D01*
X151754615Y-109107449D01*
X151735114Y-109305443D01*
X151740000Y-109355051D01*
X151740001Y-124525488D01*
X151740000Y-124525498D01*
X151740000Y-124691432D01*
X151607703Y-124889430D01*
X151510535Y-125124013D01*
X151501666Y-125168603D01*
X151415368Y-124934707D01*
X151367468Y-124845093D01*
X151138387Y-124791218D01*
X150429605Y-125500000D01*
X151138387Y-126208782D01*
X151367468Y-126154907D01*
X151473763Y-125924316D01*
X151499129Y-125818643D01*
X151510535Y-125875987D01*
X151607703Y-126110570D01*
X151748768Y-126321690D01*
X151928310Y-126501232D01*
X152139430Y-126642297D01*
X152374013Y-126739465D01*
X152623045Y-126789000D01*
X152876955Y-126789000D01*
X153125987Y-126739465D01*
X153360570Y-126642297D01*
X153571690Y-126501232D01*
X153751232Y-126321690D01*
X153892297Y-126110570D01*
X153989465Y-125875987D01*
X154000000Y-125823023D01*
X154010535Y-125875987D01*
X154107703Y-126110570D01*
X154248768Y-126321690D01*
X154428310Y-126501232D01*
X154639430Y-126642297D01*
X154874013Y-126739465D01*
X155123045Y-126789000D01*
X155376955Y-126789000D01*
X155625987Y-126739465D01*
X155860570Y-126642297D01*
X156071690Y-126501232D01*
X156251232Y-126321690D01*
X156392297Y-126110570D01*
X156489465Y-125875987D01*
X156500000Y-125823023D01*
X156510535Y-125875987D01*
X156607703Y-126110570D01*
X156748768Y-126321690D01*
X156928310Y-126501232D01*
X157139430Y-126642297D01*
X157374013Y-126739465D01*
X157623045Y-126789000D01*
X157876955Y-126789000D01*
X158125987Y-126739465D01*
X158360570Y-126642297D01*
X158571690Y-126501232D01*
X158751232Y-126321690D01*
X158892297Y-126110570D01*
X158989465Y-125875987D01*
X159000000Y-125823023D01*
X159010535Y-125875987D01*
X159107703Y-126110570D01*
X159248768Y-126321690D01*
X159428310Y-126501232D01*
X159639430Y-126642297D01*
X159874013Y-126739465D01*
X160123045Y-126789000D01*
X160376955Y-126789000D01*
X160625987Y-126739465D01*
X160860570Y-126642297D01*
X161071690Y-126501232D01*
X161251232Y-126321690D01*
X161392297Y-126110570D01*
X161457928Y-125952124D01*
X161457928Y-126154000D01*
X161470188Y-126278482D01*
X161506498Y-126398180D01*
X161565463Y-126508494D01*
X161644815Y-126605185D01*
X161741506Y-126684537D01*
X161851820Y-126743502D01*
X161971518Y-126779812D01*
X162096000Y-126792072D01*
X163404000Y-126792072D01*
X163528482Y-126779812D01*
X163648180Y-126743502D01*
X163758494Y-126684537D01*
X163855185Y-126605185D01*
X163934537Y-126508494D01*
X163993502Y-126398180D01*
X164029812Y-126278482D01*
X164042072Y-126154000D01*
X164042072Y-124846000D01*
X164029812Y-124721518D01*
X163993502Y-124601820D01*
X163934537Y-124491506D01*
X163855185Y-124394815D01*
X163758494Y-124315463D01*
X163648180Y-124256498D01*
X163528482Y-124220188D01*
X163404000Y-124207928D01*
X162096000Y-124207928D01*
X161971518Y-124220188D01*
X161851820Y-124256498D01*
X161741506Y-124315463D01*
X161644815Y-124394815D01*
X161565463Y-124491506D01*
X161506498Y-124601820D01*
X161470188Y-124721518D01*
X161457928Y-124846000D01*
X161457928Y-125047876D01*
X161392297Y-124889430D01*
X161251232Y-124678310D01*
X161071690Y-124498768D01*
X160860570Y-124357703D01*
X160625987Y-124260535D01*
X160376955Y-124211000D01*
X160123045Y-124211000D01*
X159874013Y-124260535D01*
X159639430Y-124357703D01*
X159428310Y-124498768D01*
X159248768Y-124678310D01*
X159107703Y-124889430D01*
X159010535Y-125124013D01*
X159000000Y-125176977D01*
X158989465Y-125124013D01*
X158892297Y-124889430D01*
X158751232Y-124678310D01*
X158571690Y-124498768D01*
X158360570Y-124357703D01*
X158125987Y-124260535D01*
X157876955Y-124211000D01*
X157623045Y-124211000D01*
X157374013Y-124260535D01*
X157139430Y-124357703D01*
X156928310Y-124498768D01*
X156748768Y-124678310D01*
X156607703Y-124889430D01*
X156510535Y-125124013D01*
X156500000Y-125176977D01*
X156489465Y-125124013D01*
X156392297Y-124889430D01*
X156260000Y-124691432D01*
X156260000Y-109168355D01*
X165490524Y-99937832D01*
X165551068Y-100051101D01*
X165714300Y-100250000D01*
X165551068Y-100448899D01*
X165417818Y-100698192D01*
X165335764Y-100968691D01*
X165308057Y-101250000D01*
X165335764Y-101531309D01*
X165417818Y-101801808D01*
X165551068Y-102051101D01*
X165714300Y-102250000D01*
X165551068Y-102448899D01*
X165417818Y-102698192D01*
X165335764Y-102968691D01*
X165308057Y-103250000D01*
X165335764Y-103531309D01*
X165417818Y-103801808D01*
X165551068Y-104051101D01*
X165714300Y-104250000D01*
X165551068Y-104448899D01*
X165417818Y-104698192D01*
X165335764Y-104968691D01*
X165308057Y-105250000D01*
X165335764Y-105531309D01*
X165417818Y-105801808D01*
X165551068Y-106051101D01*
X165714300Y-106250000D01*
X165551068Y-106448899D01*
X165417818Y-106698192D01*
X165335764Y-106968691D01*
X165308057Y-107250000D01*
X165335764Y-107531309D01*
X165417818Y-107801808D01*
X165551068Y-108051101D01*
X165714300Y-108250000D01*
X165551068Y-108448899D01*
X165417818Y-108698192D01*
X165335764Y-108968691D01*
X165308057Y-109250000D01*
X165335764Y-109531309D01*
X165417818Y-109801808D01*
X165551068Y-110051101D01*
X165714300Y-110250000D01*
X165551068Y-110448899D01*
X165417818Y-110698192D01*
X165335764Y-110968691D01*
X165308057Y-111250000D01*
X165335764Y-111531309D01*
X165417818Y-111801808D01*
X165551068Y-112051101D01*
X165714300Y-112250000D01*
X165551068Y-112448899D01*
X165417818Y-112698192D01*
X165335764Y-112968691D01*
X165308057Y-113250000D01*
X165335764Y-113531309D01*
X165417818Y-113801808D01*
X165551068Y-114051101D01*
X165714300Y-114250000D01*
X165551068Y-114448899D01*
X165417818Y-114698192D01*
X165335764Y-114968691D01*
X165308057Y-115250000D01*
X165335764Y-115531309D01*
X165417818Y-115801808D01*
X165551068Y-116051101D01*
X165714300Y-116250000D01*
X165551068Y-116448899D01*
X165417818Y-116698192D01*
X165335764Y-116968691D01*
X165308057Y-117250000D01*
X165335764Y-117531309D01*
X165417818Y-117801808D01*
X165551068Y-118051101D01*
X165730392Y-118269608D01*
X165948899Y-118448932D01*
X166198192Y-118582182D01*
X166468691Y-118664236D01*
X166679508Y-118685000D01*
X167620492Y-118685000D01*
X167831309Y-118664236D01*
X168101808Y-118582182D01*
X168351101Y-118448932D01*
X168569608Y-118269608D01*
X168748932Y-118051101D01*
X168873000Y-117818986D01*
X168873000Y-163073000D01*
X167722932Y-163073000D01*
X167316554Y-162801467D01*
X166618628Y-162512377D01*
X165877715Y-162365000D01*
X165122285Y-162365000D01*
X164381372Y-162512377D01*
X163683446Y-162801467D01*
X163277068Y-163073000D01*
X161400000Y-163073000D01*
X161375224Y-163075440D01*
X161351399Y-163082667D01*
X161329443Y-163094403D01*
X161310197Y-163110197D01*
X161294403Y-163129443D01*
X161282667Y-163151399D01*
X161275440Y-163175224D01*
X161273000Y-163200000D01*
X161273000Y-177873000D01*
X138060000Y-177873000D01*
X138060000Y-176106794D01*
X153620000Y-176106794D01*
X153620000Y-176623207D01*
X153637147Y-176797300D01*
X153704906Y-177020674D01*
X153814943Y-177226536D01*
X153963026Y-177406975D01*
X154143465Y-177555058D01*
X154349327Y-177665094D01*
X154572701Y-177732853D01*
X154805000Y-177755733D01*
X155037300Y-177732853D01*
X155260674Y-177665094D01*
X155466536Y-177555058D01*
X155646975Y-177406975D01*
X155795058Y-177226536D01*
X155905094Y-177020673D01*
X155972853Y-176797299D01*
X155990000Y-176623206D01*
X155990000Y-176106794D01*
X158460000Y-176106794D01*
X158460000Y-176623207D01*
X158477147Y-176797300D01*
X158544906Y-177020674D01*
X158654943Y-177226536D01*
X158803026Y-177406975D01*
X158983465Y-177555058D01*
X159189327Y-177665094D01*
X159412701Y-177732853D01*
X159645000Y-177755733D01*
X159877300Y-177732853D01*
X160100674Y-177665094D01*
X160306536Y-177555058D01*
X160486975Y-177406975D01*
X160635058Y-177226536D01*
X160745094Y-177020673D01*
X160812853Y-176797299D01*
X160830000Y-176623206D01*
X160830000Y-176106793D01*
X160812853Y-175932700D01*
X160745094Y-175709326D01*
X160635058Y-175503464D01*
X160486975Y-175323025D01*
X160306535Y-175174942D01*
X160100673Y-175064906D01*
X159877299Y-174997147D01*
X159645000Y-174974267D01*
X159412700Y-174997147D01*
X159189326Y-175064906D01*
X158983464Y-175174942D01*
X158803025Y-175323025D01*
X158654942Y-175503465D01*
X158544906Y-175709327D01*
X158477147Y-175932701D01*
X158460000Y-176106794D01*
X155990000Y-176106794D01*
X155990000Y-176106793D01*
X155972853Y-175932700D01*
X155905094Y-175709326D01*
X155795058Y-175503464D01*
X155646975Y-175323025D01*
X155466535Y-175174942D01*
X155260673Y-175064906D01*
X155037299Y-174997147D01*
X154805000Y-174974267D01*
X154572700Y-174997147D01*
X154349326Y-175064906D01*
X154143464Y-175174942D01*
X153963025Y-175323025D01*
X153814942Y-175503465D01*
X153704906Y-175709327D01*
X153637147Y-175932701D01*
X153620000Y-176106794D01*
X138060000Y-176106794D01*
X138060000Y-172700000D01*
X141061928Y-172700000D01*
X141061928Y-175300000D01*
X141074188Y-175424482D01*
X141110498Y-175544180D01*
X141169463Y-175654494D01*
X141248815Y-175751185D01*
X141345506Y-175830537D01*
X141455820Y-175889502D01*
X141575518Y-175925812D01*
X141700000Y-175938072D01*
X144300000Y-175938072D01*
X144424482Y-175925812D01*
X144544180Y-175889502D01*
X144654494Y-175830537D01*
X144751185Y-175751185D01*
X144830537Y-175654494D01*
X144889502Y-175544180D01*
X144925812Y-175424482D01*
X144938072Y-175300000D01*
X144938072Y-173809419D01*
X146065000Y-173809419D01*
X146065000Y-174190581D01*
X146139361Y-174564419D01*
X146285225Y-174916566D01*
X146496987Y-175233491D01*
X146766509Y-175503013D01*
X147083434Y-175714775D01*
X147435581Y-175860639D01*
X147809419Y-175935000D01*
X148190581Y-175935000D01*
X148564419Y-175860639D01*
X148916566Y-175714775D01*
X149233491Y-175503013D01*
X149503013Y-175233491D01*
X149714775Y-174916566D01*
X149860639Y-174564419D01*
X149935000Y-174190581D01*
X149935000Y-173809419D01*
X149860639Y-173435581D01*
X149714775Y-173083434D01*
X149503013Y-172766509D01*
X149233491Y-172496987D01*
X148916566Y-172285225D01*
X148564419Y-172139361D01*
X148190581Y-172065000D01*
X147809419Y-172065000D01*
X147435581Y-172139361D01*
X147083434Y-172285225D01*
X146766509Y-172496987D01*
X146496987Y-172766509D01*
X146285225Y-173083434D01*
X146139361Y-173435581D01*
X146065000Y-173809419D01*
X144938072Y-173809419D01*
X144938072Y-172700000D01*
X144925812Y-172575518D01*
X144889502Y-172455820D01*
X144830537Y-172345506D01*
X144751185Y-172248815D01*
X144654494Y-172169463D01*
X144544180Y-172110498D01*
X144424482Y-172074188D01*
X144300000Y-172061928D01*
X141700000Y-172061928D01*
X141575518Y-172074188D01*
X141455820Y-172110498D01*
X141345506Y-172169463D01*
X141248815Y-172248815D01*
X141169463Y-172345506D01*
X141110498Y-172455820D01*
X141074188Y-172575518D01*
X141061928Y-172700000D01*
X138060000Y-172700000D01*
X138060000Y-165306203D01*
X143430000Y-165306203D01*
X143430000Y-165593797D01*
X143486107Y-165875866D01*
X143596165Y-166141569D01*
X143755944Y-166380696D01*
X143959304Y-166584056D01*
X144198431Y-166743835D01*
X144464134Y-166853893D01*
X144746203Y-166910000D01*
X145033797Y-166910000D01*
X145315866Y-166853893D01*
X145581569Y-166743835D01*
X145820696Y-166584056D01*
X146024056Y-166380696D01*
X146183835Y-166141569D01*
X146293893Y-165875866D01*
X146350000Y-165593797D01*
X146350000Y-165306203D01*
X146293893Y-165024134D01*
X146183835Y-164758431D01*
X146024056Y-164519304D01*
X145820696Y-164315944D01*
X145619424Y-164181459D01*
X145646337Y-164167073D01*
X145720946Y-163920551D01*
X144890000Y-163089605D01*
X144059054Y-163920551D01*
X144133663Y-164167073D01*
X144161977Y-164180523D01*
X143959304Y-164315944D01*
X143755944Y-164519304D01*
X143596165Y-164758431D01*
X143486107Y-165024134D01*
X143430000Y-165306203D01*
X138060000Y-165306203D01*
X138060000Y-162979521D01*
X143424583Y-162979521D01*
X143466303Y-163264074D01*
X143562735Y-163535020D01*
X143632927Y-163666337D01*
X143879449Y-163740946D01*
X144710395Y-162910000D01*
X145069605Y-162910000D01*
X145900551Y-163740946D01*
X146147073Y-163666337D01*
X146270473Y-163406561D01*
X146340823Y-163127703D01*
X146355417Y-162840479D01*
X146313697Y-162555926D01*
X146217265Y-162284980D01*
X146147073Y-162153663D01*
X145900551Y-162079054D01*
X145069605Y-162910000D01*
X144710395Y-162910000D01*
X143879449Y-162079054D01*
X143632927Y-162153663D01*
X143509527Y-162413439D01*
X143439177Y-162692297D01*
X143424583Y-162979521D01*
X138060000Y-162979521D01*
X138060000Y-161899449D01*
X144059054Y-161899449D01*
X144890000Y-162730395D01*
X145720946Y-161899449D01*
X145646337Y-161652927D01*
X145386561Y-161529527D01*
X145107703Y-161459177D01*
X144820479Y-161444583D01*
X144535926Y-161486303D01*
X144264980Y-161582735D01*
X144133663Y-161652927D01*
X144059054Y-161899449D01*
X138060000Y-161899449D01*
X138060000Y-155860777D01*
X138060769Y-155856637D01*
X138060000Y-155795903D01*
X138060000Y-155767581D01*
X138059588Y-155763403D01*
X138059123Y-155726639D01*
X138053233Y-155698872D01*
X138050450Y-155670617D01*
X138039773Y-155635421D01*
X138032145Y-155599460D01*
X138020952Y-155573377D01*
X138012710Y-155546207D01*
X137995376Y-155513776D01*
X137980876Y-155479988D01*
X137964808Y-155456588D01*
X137951425Y-155431550D01*
X137928095Y-155403123D01*
X137925723Y-155399668D01*
X137907522Y-155378054D01*
X137868948Y-155331052D01*
X137865688Y-155328377D01*
X134718713Y-151591344D01*
X134712261Y-151582580D01*
X134697840Y-151566556D01*
X134683959Y-151550073D01*
X134676170Y-151542479D01*
X131100646Y-147569675D01*
X131068948Y-147531052D01*
X131032108Y-147500818D01*
X130996923Y-147468703D01*
X130981964Y-147459666D01*
X130968450Y-147448575D01*
X130926420Y-147426110D01*
X130885645Y-147401476D01*
X130869211Y-147395531D01*
X130853793Y-147387290D01*
X130808186Y-147373455D01*
X130763390Y-147357250D01*
X130746116Y-147354626D01*
X130729383Y-147349550D01*
X130724269Y-147349046D01*
X130695433Y-147316205D01*
X130677252Y-147299197D01*
X130656102Y-147286063D01*
X130632796Y-147277308D01*
X130600000Y-147273000D01*
X109006381Y-147273000D01*
X108927000Y-147193619D01*
X108927000Y-140135413D01*
X113044192Y-140135413D01*
X113139956Y-140399814D01*
X113429571Y-140540704D01*
X113741108Y-140622384D01*
X114062595Y-140641718D01*
X114381675Y-140597961D01*
X114686088Y-140492795D01*
X114860044Y-140399814D01*
X114955808Y-140135413D01*
X114000000Y-139179605D01*
X113044192Y-140135413D01*
X108927000Y-140135413D01*
X108927000Y-139062595D01*
X112358282Y-139062595D01*
X112402039Y-139381675D01*
X112507205Y-139686088D01*
X112600186Y-139860044D01*
X112864587Y-139955808D01*
X113820395Y-139000000D01*
X114179605Y-139000000D01*
X115135413Y-139955808D01*
X115399814Y-139860044D01*
X115540704Y-139570429D01*
X115622384Y-139258892D01*
X115641718Y-138937405D01*
X115597961Y-138618325D01*
X115492795Y-138313912D01*
X115399814Y-138139956D01*
X115135413Y-138044192D01*
X114179605Y-139000000D01*
X113820395Y-139000000D01*
X112864587Y-138044192D01*
X112600186Y-138139956D01*
X112459296Y-138429571D01*
X112377616Y-138741108D01*
X112358282Y-139062595D01*
X108927000Y-139062595D01*
X108927000Y-137864587D01*
X113044192Y-137864587D01*
X114000000Y-138820395D01*
X114820395Y-138000000D01*
X117361928Y-138000000D01*
X117361928Y-140000000D01*
X117374188Y-140124482D01*
X117410498Y-140244180D01*
X117469463Y-140354494D01*
X117548815Y-140451185D01*
X117645506Y-140530537D01*
X117755820Y-140589502D01*
X117875518Y-140625812D01*
X118000000Y-140638072D01*
X120000000Y-140638072D01*
X120124482Y-140625812D01*
X120244180Y-140589502D01*
X120354494Y-140530537D01*
X120451185Y-140451185D01*
X120530537Y-140354494D01*
X120589502Y-140244180D01*
X120625812Y-140124482D01*
X120638072Y-140000000D01*
X120638072Y-138210000D01*
X124491928Y-138210000D01*
X124491928Y-139410000D01*
X124504188Y-139534482D01*
X124540498Y-139654180D01*
X124599463Y-139764494D01*
X124678815Y-139861185D01*
X124775506Y-139940537D01*
X124885820Y-139999502D01*
X125005518Y-140035812D01*
X125130000Y-140048072D01*
X126330000Y-140048072D01*
X126454482Y-140035812D01*
X126574180Y-139999502D01*
X126684494Y-139940537D01*
X126781185Y-139861185D01*
X126860537Y-139764494D01*
X126916517Y-139659764D01*
X127599841Y-139659764D01*
X127647148Y-139883348D01*
X127868516Y-139984237D01*
X128105313Y-140040000D01*
X128348438Y-140048495D01*
X128588549Y-140009395D01*
X128816418Y-139924202D01*
X128892852Y-139883348D01*
X128940159Y-139659764D01*
X128270000Y-138989605D01*
X127599841Y-139659764D01*
X126916517Y-139659764D01*
X126919502Y-139654180D01*
X126955812Y-139534482D01*
X126968072Y-139410000D01*
X126968072Y-138888438D01*
X127031505Y-138888438D01*
X127070605Y-139128549D01*
X127155798Y-139356418D01*
X127196652Y-139432852D01*
X127420236Y-139480159D01*
X128090395Y-138810000D01*
X128449605Y-138810000D01*
X129119764Y-139480159D01*
X129343348Y-139432852D01*
X129444237Y-139211484D01*
X129500000Y-138974687D01*
X129508495Y-138731562D01*
X129469395Y-138491451D01*
X129384202Y-138263582D01*
X129343348Y-138187148D01*
X129119764Y-138139841D01*
X128449605Y-138810000D01*
X128090395Y-138810000D01*
X127420236Y-138139841D01*
X127196652Y-138187148D01*
X127095763Y-138408516D01*
X127040000Y-138645313D01*
X127031505Y-138888438D01*
X126968072Y-138888438D01*
X126968072Y-138210000D01*
X126955812Y-138085518D01*
X126919502Y-137965820D01*
X126916518Y-137960236D01*
X127599841Y-137960236D01*
X128270000Y-138630395D01*
X128940159Y-137960236D01*
X128892852Y-137736652D01*
X128671484Y-137635763D01*
X128434687Y-137580000D01*
X128191562Y-137571505D01*
X127951451Y-137610605D01*
X127723582Y-137695798D01*
X127647148Y-137736652D01*
X127599841Y-137960236D01*
X126916518Y-137960236D01*
X126860537Y-137855506D01*
X126781185Y-137758815D01*
X126684494Y-137679463D01*
X126574180Y-137620498D01*
X126454482Y-137584188D01*
X126330000Y-137571928D01*
X125130000Y-137571928D01*
X125005518Y-137584188D01*
X124885820Y-137620498D01*
X124775506Y-137679463D01*
X124678815Y-137758815D01*
X124599463Y-137855506D01*
X124540498Y-137965820D01*
X124504188Y-138085518D01*
X124491928Y-138210000D01*
X120638072Y-138210000D01*
X120638072Y-138000000D01*
X120625812Y-137875518D01*
X120589502Y-137755820D01*
X120530537Y-137645506D01*
X120451185Y-137548815D01*
X120354494Y-137469463D01*
X120244180Y-137410498D01*
X120124482Y-137374188D01*
X120000000Y-137361928D01*
X118000000Y-137361928D01*
X117875518Y-137374188D01*
X117755820Y-137410498D01*
X117645506Y-137469463D01*
X117548815Y-137548815D01*
X117469463Y-137645506D01*
X117410498Y-137755820D01*
X117374188Y-137875518D01*
X117361928Y-138000000D01*
X114820395Y-138000000D01*
X114955808Y-137864587D01*
X114860044Y-137600186D01*
X114570429Y-137459296D01*
X114258892Y-137377616D01*
X113937405Y-137358282D01*
X113618325Y-137402039D01*
X113313912Y-137507205D01*
X113139956Y-137600186D01*
X113044192Y-137864587D01*
X108927000Y-137864587D01*
X108927000Y-131068363D01*
X124495000Y-131068363D01*
X124495000Y-131311637D01*
X124542460Y-131550236D01*
X124635557Y-131774992D01*
X124770713Y-131977267D01*
X124942733Y-132149287D01*
X125145008Y-132284443D01*
X125369764Y-132377540D01*
X125608363Y-132425000D01*
X125851637Y-132425000D01*
X126090236Y-132377540D01*
X126314992Y-132284443D01*
X126517267Y-132149287D01*
X126626790Y-132039764D01*
X127599841Y-132039764D01*
X127647148Y-132263348D01*
X127868516Y-132364237D01*
X128105313Y-132420000D01*
X128348438Y-132428495D01*
X128588549Y-132389395D01*
X128816418Y-132304202D01*
X128892852Y-132263348D01*
X128940159Y-132039764D01*
X128270000Y-131369605D01*
X127599841Y-132039764D01*
X126626790Y-132039764D01*
X126689287Y-131977267D01*
X126824443Y-131774992D01*
X126917540Y-131550236D01*
X126965000Y-131311637D01*
X126965000Y-131268438D01*
X127031505Y-131268438D01*
X127070605Y-131508549D01*
X127155798Y-131736418D01*
X127196652Y-131812852D01*
X127420236Y-131860159D01*
X128090395Y-131190000D01*
X128449605Y-131190000D01*
X129119764Y-131860159D01*
X129343348Y-131812852D01*
X129444237Y-131591484D01*
X129500000Y-131354687D01*
X129508495Y-131111562D01*
X129469395Y-130871451D01*
X129384202Y-130643582D01*
X129343348Y-130567148D01*
X129119764Y-130519841D01*
X128449605Y-131190000D01*
X128090395Y-131190000D01*
X127420236Y-130519841D01*
X127196652Y-130567148D01*
X127095763Y-130788516D01*
X127040000Y-131025313D01*
X127031505Y-131268438D01*
X126965000Y-131268438D01*
X126965000Y-131068363D01*
X126917540Y-130829764D01*
X126824443Y-130605008D01*
X126689287Y-130402733D01*
X126626790Y-130340236D01*
X127599841Y-130340236D01*
X128270000Y-131010395D01*
X128940159Y-130340236D01*
X128892852Y-130116652D01*
X128671484Y-130015763D01*
X128434687Y-129960000D01*
X128191562Y-129951505D01*
X127951451Y-129990605D01*
X127723582Y-130075798D01*
X127647148Y-130116652D01*
X127599841Y-130340236D01*
X126626790Y-130340236D01*
X126517267Y-130230713D01*
X126314992Y-130095557D01*
X126090236Y-130002460D01*
X125851637Y-129955000D01*
X125608363Y-129955000D01*
X125369764Y-130002460D01*
X125145008Y-130095557D01*
X124942733Y-130230713D01*
X124770713Y-130402733D01*
X124635557Y-130605008D01*
X124542460Y-130829764D01*
X124495000Y-131068363D01*
X108927000Y-131068363D01*
X108927000Y-127527000D01*
X113800000Y-127527000D01*
X113824776Y-127524560D01*
X113848601Y-127517333D01*
X113870557Y-127505597D01*
X113889803Y-127489803D01*
X113905597Y-127470557D01*
X113917333Y-127448601D01*
X113924560Y-127424776D01*
X113927000Y-127399709D01*
X113921677Y-125078438D01*
X132011505Y-125078438D01*
X132050605Y-125318549D01*
X132130451Y-125532117D01*
X132119463Y-125545506D01*
X132060498Y-125655820D01*
X132024188Y-125775518D01*
X132011928Y-125900000D01*
X132011928Y-127100000D01*
X132024188Y-127224482D01*
X132060498Y-127344180D01*
X132119463Y-127454494D01*
X132198815Y-127551185D01*
X132295506Y-127630537D01*
X132405820Y-127689502D01*
X132525518Y-127725812D01*
X132650000Y-127738072D01*
X133850000Y-127738072D01*
X133974482Y-127725812D01*
X134094180Y-127689502D01*
X134204494Y-127630537D01*
X134301185Y-127551185D01*
X134380537Y-127454494D01*
X134439502Y-127344180D01*
X134475812Y-127224482D01*
X134488072Y-127100000D01*
X134488072Y-125900000D01*
X134475812Y-125775518D01*
X134439502Y-125655820D01*
X134380537Y-125545506D01*
X134366432Y-125528319D01*
X134424237Y-125401484D01*
X134480000Y-125164687D01*
X134488495Y-124921562D01*
X134449395Y-124681451D01*
X134364202Y-124453582D01*
X134323348Y-124377148D01*
X134099764Y-124329841D01*
X133429605Y-125000000D01*
X133443748Y-125014143D01*
X133264143Y-125193748D01*
X133250000Y-125179605D01*
X133235858Y-125193748D01*
X133056253Y-125014143D01*
X133070395Y-125000000D01*
X132400236Y-124329841D01*
X132176652Y-124377148D01*
X132075763Y-124598516D01*
X132020000Y-124835313D01*
X132011505Y-125078438D01*
X113921677Y-125078438D01*
X113918941Y-123885413D01*
X120294192Y-123885413D01*
X120389956Y-124149814D01*
X120679571Y-124290704D01*
X120991108Y-124372384D01*
X121312595Y-124391718D01*
X121631675Y-124347961D01*
X121936088Y-124242795D01*
X122109254Y-124150236D01*
X132579841Y-124150236D01*
X133250000Y-124820395D01*
X133920159Y-124150236D01*
X133872852Y-123926652D01*
X133651484Y-123825763D01*
X133414687Y-123770000D01*
X133171562Y-123761505D01*
X132931451Y-123800605D01*
X132703582Y-123885798D01*
X132627148Y-123926652D01*
X132579841Y-124150236D01*
X122109254Y-124150236D01*
X122110044Y-124149814D01*
X122205808Y-123885413D01*
X121250000Y-122929605D01*
X120294192Y-123885413D01*
X113918941Y-123885413D01*
X113916480Y-122812595D01*
X119608282Y-122812595D01*
X119652039Y-123131675D01*
X119757205Y-123436088D01*
X119850186Y-123610044D01*
X120114587Y-123705808D01*
X121070395Y-122750000D01*
X121429605Y-122750000D01*
X122385413Y-123705808D01*
X122649814Y-123610044D01*
X122790704Y-123320429D01*
X122872384Y-123008892D01*
X122891718Y-122687405D01*
X122847961Y-122368325D01*
X122742795Y-122063912D01*
X122649814Y-121889956D01*
X122538846Y-121849764D01*
X132579841Y-121849764D01*
X132627148Y-122073348D01*
X132848516Y-122174237D01*
X133085313Y-122230000D01*
X133328438Y-122238495D01*
X133568549Y-122199395D01*
X133796418Y-122114202D01*
X133872852Y-122073348D01*
X133920159Y-121849764D01*
X133250000Y-121179605D01*
X132579841Y-121849764D01*
X122538846Y-121849764D01*
X122385413Y-121794192D01*
X121429605Y-122750000D01*
X121070395Y-122750000D01*
X120114587Y-121794192D01*
X119850186Y-121889956D01*
X119709296Y-122179571D01*
X119627616Y-122491108D01*
X119608282Y-122812595D01*
X113916480Y-122812595D01*
X113913733Y-121614587D01*
X120294192Y-121614587D01*
X121250000Y-122570395D01*
X122205808Y-121614587D01*
X122110044Y-121350186D01*
X121820429Y-121209296D01*
X121508892Y-121127616D01*
X121187405Y-121108282D01*
X120868325Y-121152039D01*
X120563912Y-121257205D01*
X120389956Y-121350186D01*
X120294192Y-121614587D01*
X113913733Y-121614587D01*
X113912504Y-121078438D01*
X132011505Y-121078438D01*
X132050605Y-121318549D01*
X132135798Y-121546418D01*
X132176652Y-121622852D01*
X132400236Y-121670159D01*
X133070395Y-121000000D01*
X133056253Y-120985858D01*
X133235858Y-120806253D01*
X133250000Y-120820395D01*
X133264143Y-120806253D01*
X133443748Y-120985858D01*
X133429605Y-121000000D01*
X134099764Y-121670159D01*
X134323348Y-121622852D01*
X134424237Y-121401484D01*
X134480000Y-121164687D01*
X134488495Y-120921562D01*
X134449395Y-120681451D01*
X134369549Y-120467883D01*
X134380537Y-120454494D01*
X134439502Y-120344180D01*
X134475812Y-120224482D01*
X134488072Y-120100000D01*
X134488072Y-118900000D01*
X134475812Y-118775518D01*
X134439502Y-118655820D01*
X134380537Y-118545506D01*
X134301185Y-118448815D01*
X134204494Y-118369463D01*
X134094180Y-118310498D01*
X133974482Y-118274188D01*
X133850000Y-118261928D01*
X132650000Y-118261928D01*
X132525518Y-118274188D01*
X132405820Y-118310498D01*
X132295506Y-118369463D01*
X132198815Y-118448815D01*
X132119463Y-118545506D01*
X132060498Y-118655820D01*
X132024188Y-118775518D01*
X132011928Y-118900000D01*
X132011928Y-120100000D01*
X132024188Y-120224482D01*
X132060498Y-120344180D01*
X132119463Y-120454494D01*
X132133568Y-120471681D01*
X132075763Y-120598516D01*
X132020000Y-120835313D01*
X132011505Y-121078438D01*
X113912504Y-121078438D01*
X113902575Y-116750000D01*
X119611928Y-116750000D01*
X119611928Y-118750000D01*
X119624188Y-118874482D01*
X119660498Y-118994180D01*
X119719463Y-119104494D01*
X119798815Y-119201185D01*
X119895506Y-119280537D01*
X120005820Y-119339502D01*
X120125518Y-119375812D01*
X120250000Y-119388072D01*
X122250000Y-119388072D01*
X122374482Y-119375812D01*
X122494180Y-119339502D01*
X122604494Y-119280537D01*
X122701185Y-119201185D01*
X122780537Y-119104494D01*
X122839502Y-118994180D01*
X122875812Y-118874482D01*
X122888072Y-118750000D01*
X122888072Y-116750000D01*
X122875812Y-116625518D01*
X122839502Y-116505820D01*
X122780537Y-116395506D01*
X122701185Y-116298815D01*
X122604494Y-116219463D01*
X122494180Y-116160498D01*
X122374482Y-116124188D01*
X122250000Y-116111928D01*
X120250000Y-116111928D01*
X120125518Y-116124188D01*
X120005820Y-116160498D01*
X119895506Y-116219463D01*
X119798815Y-116298815D01*
X119719463Y-116395506D01*
X119660498Y-116505820D01*
X119624188Y-116625518D01*
X119611928Y-116750000D01*
X113902575Y-116750000D01*
X113861791Y-98968514D01*
X113965000Y-98968514D01*
X113965000Y-99231486D01*
X114016304Y-99489405D01*
X114116939Y-99732359D01*
X114263038Y-99951013D01*
X114448987Y-100136962D01*
X114667641Y-100283061D01*
X114724849Y-100306758D01*
X116564999Y-102146908D01*
X116565000Y-105622108D01*
X116558904Y-105684001D01*
X116583232Y-105931004D01*
X116655279Y-106168514D01*
X116772279Y-106387406D01*
X116864683Y-106500000D01*
X116929735Y-106579266D01*
X116977810Y-106618720D01*
X117706274Y-107347184D01*
X117745733Y-107395265D01*
X117911504Y-107531309D01*
X117937593Y-107552720D01*
X118156484Y-107669720D01*
X118393995Y-107741768D01*
X118640998Y-107766096D01*
X118702891Y-107760000D01*
X119311893Y-107760000D01*
X119497003Y-107741768D01*
X119509187Y-107738072D01*
X119850000Y-107738072D01*
X119974482Y-107725812D01*
X120094180Y-107689502D01*
X120204494Y-107630537D01*
X120301185Y-107551185D01*
X120380537Y-107454494D01*
X120439502Y-107344180D01*
X120475812Y-107224482D01*
X120488072Y-107100000D01*
X120488072Y-106759187D01*
X120491768Y-106747003D01*
X120516096Y-106500000D01*
X120491768Y-106252997D01*
X120488072Y-106240813D01*
X120488072Y-105900000D01*
X120475812Y-105775518D01*
X120439502Y-105655820D01*
X120380537Y-105545506D01*
X120366432Y-105528319D01*
X120424237Y-105401484D01*
X120480000Y-105164687D01*
X120488495Y-104921562D01*
X120449395Y-104681451D01*
X120364202Y-104453582D01*
X120323348Y-104377148D01*
X120099764Y-104329841D01*
X119429605Y-105000000D01*
X119443748Y-105014143D01*
X119264143Y-105193748D01*
X119250000Y-105179605D01*
X119235858Y-105193748D01*
X119084999Y-105042889D01*
X119084999Y-104957111D01*
X119235858Y-104806253D01*
X119250000Y-104820395D01*
X119920159Y-104150236D01*
X119872852Y-103926652D01*
X119651484Y-103825763D01*
X119414687Y-103770000D01*
X119171562Y-103761505D01*
X119084999Y-103775601D01*
X119084999Y-101686892D01*
X119091095Y-101624999D01*
X119066767Y-101377996D01*
X118994719Y-101140485D01*
X118877719Y-100921594D01*
X118759718Y-100777809D01*
X118720264Y-100729734D01*
X118672190Y-100690281D01*
X116506758Y-98524849D01*
X116483061Y-98467641D01*
X116336962Y-98248987D01*
X116151013Y-98063038D01*
X115932359Y-97916939D01*
X115689405Y-97816304D01*
X115431486Y-97765000D01*
X115168514Y-97765000D01*
X114910595Y-97816304D01*
X114667641Y-97916939D01*
X114448987Y-98063038D01*
X114263038Y-98248987D01*
X114116939Y-98467641D01*
X114016304Y-98710595D01*
X113965000Y-98968514D01*
X113861791Y-98968514D01*
X113842393Y-90510413D01*
X120544192Y-90510413D01*
X120639956Y-90774814D01*
X120929571Y-90915704D01*
X121241108Y-90997384D01*
X121562595Y-91016718D01*
X121881675Y-90972961D01*
X122186088Y-90867795D01*
X122360044Y-90774814D01*
X122455808Y-90510413D01*
X121500000Y-89554605D01*
X120544192Y-90510413D01*
X113842393Y-90510413D01*
X113839932Y-89437595D01*
X119858282Y-89437595D01*
X119902039Y-89756675D01*
X120007205Y-90061088D01*
X120100186Y-90235044D01*
X120364587Y-90330808D01*
X121320395Y-89375000D01*
X121679605Y-89375000D01*
X122635413Y-90330808D01*
X122899814Y-90235044D01*
X123040704Y-89945429D01*
X123122384Y-89633892D01*
X123141718Y-89312405D01*
X123097961Y-88993325D01*
X122992795Y-88688912D01*
X122899814Y-88514956D01*
X122635413Y-88419192D01*
X121679605Y-89375000D01*
X121320395Y-89375000D01*
X120364587Y-88419192D01*
X120100186Y-88514956D01*
X119959296Y-88804571D01*
X119877616Y-89116108D01*
X119858282Y-89437595D01*
X113839932Y-89437595D01*
X113837185Y-88239587D01*
X120544192Y-88239587D01*
X121500000Y-89195395D01*
X122455808Y-88239587D01*
X122360044Y-87975186D01*
X122070429Y-87834296D01*
X121758892Y-87752616D01*
X121437405Y-87733282D01*
X121118325Y-87777039D01*
X120813912Y-87882205D01*
X120639956Y-87975186D01*
X120544192Y-88239587D01*
X113837185Y-88239587D01*
X113826027Y-83375000D01*
X119861928Y-83375000D01*
X119861928Y-85375000D01*
X119874188Y-85499482D01*
X119910498Y-85619180D01*
X119969463Y-85729494D01*
X120048815Y-85826185D01*
X120145506Y-85905537D01*
X120255820Y-85964502D01*
X120375518Y-86000812D01*
X120500000Y-86013072D01*
X122500000Y-86013072D01*
X122624482Y-86000812D01*
X122744180Y-85964502D01*
X122854494Y-85905537D01*
X122951185Y-85826185D01*
X123030537Y-85729494D01*
X123089502Y-85619180D01*
X123125812Y-85499482D01*
X123138072Y-85375000D01*
X123138072Y-83375000D01*
X123125812Y-83250518D01*
X123089502Y-83130820D01*
X123030537Y-83020506D01*
X122951185Y-82923815D01*
X122854494Y-82844463D01*
X122744180Y-82785498D01*
X122624482Y-82749188D01*
X122500000Y-82736928D01*
X120500000Y-82736928D01*
X120375518Y-82749188D01*
X120255820Y-82785498D01*
X120145506Y-82844463D01*
X120048815Y-82923815D01*
X119969463Y-83020506D01*
X119910498Y-83130820D01*
X119874188Y-83250518D01*
X119861928Y-83375000D01*
X113826027Y-83375000D01*
X113824388Y-82660052D01*
X130308299Y-82660052D01*
X130314999Y-82728081D01*
X130315000Y-88675962D01*
X130308299Y-88744001D01*
X130335039Y-89015508D01*
X130414235Y-89276581D01*
X130542843Y-89517189D01*
X130672547Y-89675234D01*
X130672550Y-89675237D01*
X130715919Y-89728082D01*
X130768763Y-89771450D01*
X136570998Y-95573686D01*
X136570999Y-148287959D01*
X136564298Y-148355998D01*
X136591038Y-148627505D01*
X136670234Y-148888578D01*
X136798842Y-149129186D01*
X136928546Y-149287231D01*
X136928549Y-149287234D01*
X136971918Y-149340079D01*
X137024763Y-149383448D01*
X151197272Y-163555958D01*
X151216165Y-163601569D01*
X151375944Y-163840696D01*
X151579304Y-164044056D01*
X151782759Y-164180000D01*
X151579304Y-164315944D01*
X151375944Y-164519304D01*
X151216165Y-164758431D01*
X151106107Y-165024134D01*
X151050000Y-165306203D01*
X151050000Y-165593797D01*
X151106107Y-165875866D01*
X151216165Y-166141569D01*
X151375944Y-166380696D01*
X151579304Y-166584056D01*
X151818431Y-166743835D01*
X152084134Y-166853893D01*
X152366203Y-166910000D01*
X152653797Y-166910000D01*
X152935866Y-166853893D01*
X153201569Y-166743835D01*
X153440696Y-166584056D01*
X153644056Y-166380696D01*
X153803835Y-166141569D01*
X153913893Y-165875866D01*
X153970000Y-165593797D01*
X153970000Y-165306203D01*
X153913893Y-165024134D01*
X153803835Y-164758431D01*
X153644056Y-164519304D01*
X153440696Y-164315944D01*
X153237241Y-164180000D01*
X153440696Y-164044056D01*
X153644056Y-163840696D01*
X153803835Y-163601569D01*
X153913893Y-163335866D01*
X153970000Y-163053797D01*
X153970000Y-162766203D01*
X153913893Y-162484134D01*
X153803835Y-162218431D01*
X153644056Y-161979304D01*
X153440696Y-161775944D01*
X153201569Y-161616165D01*
X153155958Y-161597272D01*
X145594128Y-154035443D01*
X145820696Y-153884056D01*
X146024056Y-153680696D01*
X146183835Y-153441569D01*
X146293893Y-153175866D01*
X146350000Y-152893797D01*
X146350000Y-152606203D01*
X151050000Y-152606203D01*
X151050000Y-152893797D01*
X151106107Y-153175866D01*
X151216165Y-153441569D01*
X151375944Y-153680696D01*
X151579304Y-153884056D01*
X151818431Y-154043835D01*
X152084134Y-154153893D01*
X152366203Y-154210000D01*
X152653797Y-154210000D01*
X152935866Y-154153893D01*
X153201569Y-154043835D01*
X153440696Y-153884056D01*
X153644056Y-153680696D01*
X153803835Y-153441569D01*
X153913893Y-153175866D01*
X153970000Y-152893797D01*
X153970000Y-152606203D01*
X153913893Y-152324134D01*
X153803835Y-152058431D01*
X153644056Y-151819304D01*
X153440696Y-151615944D01*
X153201569Y-151456165D01*
X152935866Y-151346107D01*
X152653797Y-151290000D01*
X152366203Y-151290000D01*
X152084134Y-151346107D01*
X151818431Y-151456165D01*
X151579304Y-151615944D01*
X151375944Y-151819304D01*
X151216165Y-152058431D01*
X151106107Y-152324134D01*
X151050000Y-152606203D01*
X146350000Y-152606203D01*
X146293893Y-152324134D01*
X146183835Y-152058431D01*
X146024056Y-151819304D01*
X145820696Y-151615944D01*
X145581569Y-151456165D01*
X145315866Y-151346107D01*
X145033797Y-151290000D01*
X144746203Y-151290000D01*
X144464134Y-151346107D01*
X144198431Y-151456165D01*
X143959304Y-151615944D01*
X143755944Y-151819304D01*
X143604557Y-152045872D01*
X139340998Y-147782313D01*
X139340998Y-146373045D01*
X146461000Y-146373045D01*
X146461000Y-146626955D01*
X146510535Y-146875987D01*
X146607703Y-147110570D01*
X146748768Y-147321690D01*
X146928310Y-147501232D01*
X147139430Y-147642297D01*
X147374013Y-147739465D01*
X147623045Y-147789000D01*
X147876955Y-147789000D01*
X148125987Y-147739465D01*
X148360570Y-147642297D01*
X148571690Y-147501232D01*
X148751232Y-147321690D01*
X148892297Y-147110570D01*
X148989465Y-146875987D01*
X149000000Y-146823023D01*
X149010535Y-146875987D01*
X149107703Y-147110570D01*
X149248768Y-147321690D01*
X149428310Y-147501232D01*
X149639430Y-147642297D01*
X149874013Y-147739465D01*
X150123045Y-147789000D01*
X150376955Y-147789000D01*
X150625987Y-147739465D01*
X150860570Y-147642297D01*
X151071690Y-147501232D01*
X151251232Y-147321690D01*
X151392297Y-147110570D01*
X151489465Y-146875987D01*
X151500000Y-146823023D01*
X151510535Y-146875987D01*
X151607703Y-147110570D01*
X151748768Y-147321690D01*
X151928310Y-147501232D01*
X152139430Y-147642297D01*
X152374013Y-147739465D01*
X152623045Y-147789000D01*
X152876955Y-147789000D01*
X153125987Y-147739465D01*
X153360570Y-147642297D01*
X153571690Y-147501232D01*
X153751232Y-147321690D01*
X153892297Y-147110570D01*
X153989465Y-146875987D01*
X154000000Y-146823023D01*
X154010535Y-146875987D01*
X154107703Y-147110570D01*
X154248768Y-147321690D01*
X154428310Y-147501232D01*
X154639430Y-147642297D01*
X154874013Y-147739465D01*
X155123045Y-147789000D01*
X155376955Y-147789000D01*
X155625987Y-147739465D01*
X155860570Y-147642297D01*
X156071690Y-147501232D01*
X156251232Y-147321690D01*
X156392297Y-147110570D01*
X156489465Y-146875987D01*
X156500000Y-146823023D01*
X156510535Y-146875987D01*
X156607703Y-147110570D01*
X156748768Y-147321690D01*
X156928310Y-147501232D01*
X157139430Y-147642297D01*
X157374013Y-147739465D01*
X157623045Y-147789000D01*
X157876955Y-147789000D01*
X158125987Y-147739465D01*
X158360570Y-147642297D01*
X158571690Y-147501232D01*
X158751232Y-147321690D01*
X158892297Y-147110570D01*
X158957928Y-146952124D01*
X158957928Y-147154000D01*
X158970188Y-147278482D01*
X159006498Y-147398180D01*
X159065463Y-147508494D01*
X159144815Y-147605185D01*
X159241506Y-147684537D01*
X159351820Y-147743502D01*
X159471518Y-147779812D01*
X159596000Y-147792072D01*
X160904000Y-147792072D01*
X161028482Y-147779812D01*
X161148180Y-147743502D01*
X161258494Y-147684537D01*
X161355185Y-147605185D01*
X161434537Y-147508494D01*
X161493502Y-147398180D01*
X161529812Y-147278482D01*
X161542072Y-147154000D01*
X161542072Y-145846000D01*
X161529812Y-145721518D01*
X161493502Y-145601820D01*
X161434537Y-145491506D01*
X161355185Y-145394815D01*
X161258494Y-145315463D01*
X161148180Y-145256498D01*
X161028482Y-145220188D01*
X160904000Y-145207928D01*
X159596000Y-145207928D01*
X159471518Y-145220188D01*
X159351820Y-145256498D01*
X159241506Y-145315463D01*
X159144815Y-145394815D01*
X159065463Y-145491506D01*
X159006498Y-145601820D01*
X158970188Y-145721518D01*
X158957928Y-145846000D01*
X158957928Y-146047876D01*
X158892297Y-145889430D01*
X158751232Y-145678310D01*
X158571690Y-145498768D01*
X158360570Y-145357703D01*
X158125987Y-145260535D01*
X157876955Y-145211000D01*
X157623045Y-145211000D01*
X157374013Y-145260535D01*
X157139430Y-145357703D01*
X156928310Y-145498768D01*
X156748768Y-145678310D01*
X156607703Y-145889430D01*
X156510535Y-146124013D01*
X156500000Y-146176977D01*
X156489465Y-146124013D01*
X156392297Y-145889430D01*
X156251232Y-145678310D01*
X156071690Y-145498768D01*
X155860570Y-145357703D01*
X155625987Y-145260535D01*
X155376955Y-145211000D01*
X155123045Y-145211000D01*
X154874013Y-145260535D01*
X154639430Y-145357703D01*
X154428310Y-145498768D01*
X154248768Y-145678310D01*
X154107703Y-145889430D01*
X154010535Y-146124013D01*
X154000000Y-146176977D01*
X153989465Y-146124013D01*
X153892297Y-145889430D01*
X153751232Y-145678310D01*
X153571690Y-145498768D01*
X153360570Y-145357703D01*
X153125987Y-145260535D01*
X152876955Y-145211000D01*
X152623045Y-145211000D01*
X152374013Y-145260535D01*
X152139430Y-145357703D01*
X151928310Y-145498768D01*
X151748768Y-145678310D01*
X151607703Y-145889430D01*
X151510535Y-146124013D01*
X151500000Y-146176977D01*
X151489465Y-146124013D01*
X151392297Y-145889430D01*
X151251232Y-145678310D01*
X151071690Y-145498768D01*
X150860570Y-145357703D01*
X150625987Y-145260535D01*
X150376955Y-145211000D01*
X150123045Y-145211000D01*
X149874013Y-145260535D01*
X149639430Y-145357703D01*
X149428310Y-145498768D01*
X149248768Y-145678310D01*
X149107703Y-145889430D01*
X149010535Y-146124013D01*
X149000000Y-146176977D01*
X148989465Y-146124013D01*
X148892297Y-145889430D01*
X148751232Y-145678310D01*
X148571690Y-145498768D01*
X148360570Y-145357703D01*
X148125987Y-145260535D01*
X147876955Y-145211000D01*
X147623045Y-145211000D01*
X147374013Y-145260535D01*
X147139430Y-145357703D01*
X146928310Y-145498768D01*
X146748768Y-145678310D01*
X146607703Y-145889430D01*
X146510535Y-146124013D01*
X146461000Y-146373045D01*
X139340998Y-146373045D01*
X139340998Y-126388387D01*
X149541218Y-126388387D01*
X149595093Y-126617468D01*
X149825684Y-126723763D01*
X150072581Y-126783028D01*
X150326296Y-126792988D01*
X150577079Y-126753259D01*
X150815293Y-126665368D01*
X150904907Y-126617468D01*
X150958782Y-126388387D01*
X150250000Y-125679605D01*
X149541218Y-126388387D01*
X139340998Y-126388387D01*
X139340998Y-125576296D01*
X148957012Y-125576296D01*
X148996741Y-125827079D01*
X149084632Y-126065293D01*
X149132532Y-126154907D01*
X149361613Y-126208782D01*
X150070395Y-125500000D01*
X149361613Y-124791218D01*
X149132532Y-124845093D01*
X149026237Y-125075684D01*
X148966972Y-125322581D01*
X148957012Y-125576296D01*
X139340998Y-125576296D01*
X139340998Y-124611613D01*
X149541218Y-124611613D01*
X150250000Y-125320395D01*
X150958782Y-124611613D01*
X150904907Y-124382532D01*
X150674316Y-124276237D01*
X150427419Y-124216972D01*
X150173704Y-124207012D01*
X149922921Y-124246741D01*
X149684707Y-124334632D01*
X149595093Y-124382532D01*
X149541218Y-124611613D01*
X139340998Y-124611613D01*
X139340998Y-95068029D01*
X139347698Y-95000000D01*
X139340998Y-94931971D01*
X139340998Y-94931963D01*
X139320958Y-94728493D01*
X139241762Y-94467419D01*
X139113155Y-94226812D01*
X138983450Y-94068766D01*
X138983443Y-94068759D01*
X138940078Y-94015919D01*
X138887239Y-93972555D01*
X133892966Y-88978283D01*
X133920159Y-88849764D01*
X133250000Y-88179605D01*
X133235858Y-88193748D01*
X133084999Y-88042889D01*
X133084999Y-87957111D01*
X133235858Y-87806253D01*
X133250000Y-87820395D01*
X133264143Y-87806253D01*
X133443748Y-87985858D01*
X133429605Y-88000000D01*
X134099764Y-88670159D01*
X134323348Y-88622852D01*
X134424237Y-88401484D01*
X134480000Y-88164687D01*
X134488495Y-87921562D01*
X134449395Y-87681451D01*
X134369549Y-87467883D01*
X134380537Y-87454494D01*
X134439502Y-87344180D01*
X134468071Y-87250000D01*
X140908057Y-87250000D01*
X140935764Y-87531309D01*
X141017818Y-87801808D01*
X141151068Y-88051101D01*
X141314300Y-88250000D01*
X141151068Y-88448899D01*
X141017818Y-88698192D01*
X140935764Y-88968691D01*
X140908057Y-89250000D01*
X140935764Y-89531309D01*
X141017818Y-89801808D01*
X141151068Y-90051101D01*
X141314300Y-90250000D01*
X141151068Y-90448899D01*
X141017818Y-90698192D01*
X140935764Y-90968691D01*
X140908057Y-91250000D01*
X140935764Y-91531309D01*
X141017818Y-91801808D01*
X141151068Y-92051101D01*
X141314300Y-92250000D01*
X141151068Y-92448899D01*
X141017818Y-92698192D01*
X140935764Y-92968691D01*
X140908057Y-93250000D01*
X140935764Y-93531309D01*
X141017818Y-93801808D01*
X141151068Y-94051101D01*
X141314300Y-94250000D01*
X141151068Y-94448899D01*
X141017818Y-94698192D01*
X140935764Y-94968691D01*
X140908057Y-95250000D01*
X140935764Y-95531309D01*
X141017818Y-95801808D01*
X141151068Y-96051101D01*
X141314300Y-96250000D01*
X141151068Y-96448899D01*
X141017818Y-96698192D01*
X140935764Y-96968691D01*
X140908057Y-97250000D01*
X140935764Y-97531309D01*
X141017818Y-97801808D01*
X141151068Y-98051101D01*
X141314300Y-98250000D01*
X141151068Y-98448899D01*
X141017818Y-98698192D01*
X140935764Y-98968691D01*
X140908057Y-99250000D01*
X140935764Y-99531309D01*
X141017818Y-99801808D01*
X141151068Y-100051101D01*
X141314300Y-100250000D01*
X141151068Y-100448899D01*
X141017818Y-100698192D01*
X140935764Y-100968691D01*
X140908057Y-101250000D01*
X140935764Y-101531309D01*
X141017818Y-101801808D01*
X141151068Y-102051101D01*
X141314300Y-102250000D01*
X141151068Y-102448899D01*
X141017818Y-102698192D01*
X140935764Y-102968691D01*
X140908057Y-103250000D01*
X140935764Y-103531309D01*
X141017818Y-103801808D01*
X141151068Y-104051101D01*
X141314300Y-104250000D01*
X141151068Y-104448899D01*
X141017818Y-104698192D01*
X140935764Y-104968691D01*
X140908057Y-105250000D01*
X140935764Y-105531309D01*
X141017818Y-105801808D01*
X141151068Y-106051101D01*
X141314300Y-106250000D01*
X141151068Y-106448899D01*
X141017818Y-106698192D01*
X140935764Y-106968691D01*
X140908057Y-107250000D01*
X140935764Y-107531309D01*
X141017818Y-107801808D01*
X141151068Y-108051101D01*
X141314300Y-108250000D01*
X141151068Y-108448899D01*
X141017818Y-108698192D01*
X140935764Y-108968691D01*
X140908057Y-109250000D01*
X140935764Y-109531309D01*
X141017818Y-109801808D01*
X141151068Y-110051101D01*
X141314300Y-110250000D01*
X141151068Y-110448899D01*
X141017818Y-110698192D01*
X140935764Y-110968691D01*
X140908057Y-111250000D01*
X140935764Y-111531309D01*
X141017818Y-111801808D01*
X141151068Y-112051101D01*
X141314300Y-112250000D01*
X141151068Y-112448899D01*
X141017818Y-112698192D01*
X140935764Y-112968691D01*
X140908057Y-113250000D01*
X140935764Y-113531309D01*
X141017818Y-113801808D01*
X141151068Y-114051101D01*
X141314300Y-114250000D01*
X141151068Y-114448899D01*
X141017818Y-114698192D01*
X140935764Y-114968691D01*
X140908057Y-115250000D01*
X140935764Y-115531309D01*
X141017818Y-115801808D01*
X141151068Y-116051101D01*
X141314300Y-116250000D01*
X141151068Y-116448899D01*
X141017818Y-116698192D01*
X140935764Y-116968691D01*
X140908057Y-117250000D01*
X140935764Y-117531309D01*
X141017818Y-117801808D01*
X141151068Y-118051101D01*
X141330392Y-118269608D01*
X141548899Y-118448932D01*
X141798192Y-118582182D01*
X142068691Y-118664236D01*
X142279508Y-118685000D01*
X143220492Y-118685000D01*
X143431309Y-118664236D01*
X143701808Y-118582182D01*
X143951101Y-118448932D01*
X144169608Y-118269608D01*
X144348932Y-118051101D01*
X144482182Y-117801808D01*
X144564236Y-117531309D01*
X144591943Y-117250000D01*
X144564236Y-116968691D01*
X144482182Y-116698192D01*
X144348932Y-116448899D01*
X144185700Y-116250000D01*
X144348932Y-116051101D01*
X144482182Y-115801808D01*
X144564236Y-115531309D01*
X144591943Y-115250000D01*
X144564236Y-114968691D01*
X144482182Y-114698192D01*
X144348932Y-114448899D01*
X144185700Y-114250000D01*
X144348932Y-114051101D01*
X144482182Y-113801808D01*
X144564236Y-113531309D01*
X144591943Y-113250000D01*
X144564236Y-112968691D01*
X144482182Y-112698192D01*
X144348932Y-112448899D01*
X144185700Y-112250000D01*
X144348932Y-112051101D01*
X144482182Y-111801808D01*
X144564236Y-111531309D01*
X144591943Y-111250000D01*
X144564236Y-110968691D01*
X144550708Y-110924093D01*
X160211008Y-95263795D01*
X160240001Y-95240001D01*
X160263795Y-95211008D01*
X160263799Y-95211004D01*
X160334973Y-95124277D01*
X160334974Y-95124276D01*
X160405546Y-94992247D01*
X160449003Y-94848986D01*
X160460000Y-94737333D01*
X160460000Y-94737324D01*
X160463676Y-94700001D01*
X160460000Y-94662678D01*
X160460000Y-86900961D01*
X165358096Y-86900961D01*
X165480085Y-87123000D01*
X167023000Y-87123000D01*
X167023000Y-85815000D01*
X166623000Y-85815000D01*
X166345486Y-85867350D01*
X166083517Y-85972834D01*
X165847161Y-86127399D01*
X165645500Y-86325105D01*
X165486285Y-86558354D01*
X165375633Y-86818182D01*
X165358096Y-86900961D01*
X160460000Y-86900961D01*
X160460000Y-76295132D01*
X160581612Y-76173520D01*
X160705824Y-75987624D01*
X160791383Y-75781067D01*
X160835000Y-75561788D01*
X160835000Y-75338212D01*
X160791383Y-75118933D01*
X160705824Y-74912376D01*
X160581612Y-74726480D01*
X160423520Y-74568388D01*
X160237624Y-74444176D01*
X160031067Y-74358617D01*
X159811788Y-74315000D01*
X159588212Y-74315000D01*
X159368933Y-74358617D01*
X159162376Y-74444176D01*
X158976480Y-74568388D01*
X158818388Y-74726480D01*
X158700000Y-74903660D01*
X158581612Y-74726480D01*
X158423520Y-74568388D01*
X158237624Y-74444176D01*
X158031067Y-74358617D01*
X157811788Y-74315000D01*
X157588212Y-74315000D01*
X157368933Y-74358617D01*
X157162376Y-74444176D01*
X156976480Y-74568388D01*
X156818388Y-74726480D01*
X156694176Y-74912376D01*
X156608617Y-75118933D01*
X156565000Y-75338212D01*
X156565000Y-75561788D01*
X156608617Y-75781067D01*
X156694176Y-75987624D01*
X156818388Y-76173520D01*
X156940000Y-76295132D01*
X156940001Y-90385197D01*
X144515889Y-102809310D01*
X144482182Y-102698192D01*
X144348932Y-102448899D01*
X144185700Y-102250000D01*
X144348932Y-102051101D01*
X144482182Y-101801808D01*
X144564236Y-101531309D01*
X144591943Y-101250000D01*
X144564236Y-100968691D01*
X144482182Y-100698192D01*
X144348932Y-100448899D01*
X144185700Y-100250000D01*
X144348932Y-100051101D01*
X144482182Y-99801808D01*
X144564236Y-99531309D01*
X144591943Y-99250000D01*
X144564236Y-98968691D01*
X144482182Y-98698192D01*
X144348932Y-98448899D01*
X144185700Y-98250000D01*
X144348932Y-98051101D01*
X144482182Y-97801808D01*
X144564236Y-97531309D01*
X144591943Y-97250000D01*
X144564236Y-96968691D01*
X144482182Y-96698192D01*
X144348932Y-96448899D01*
X144185700Y-96250000D01*
X144348932Y-96051101D01*
X144482182Y-95801808D01*
X144564236Y-95531309D01*
X144591943Y-95250000D01*
X144564236Y-94968691D01*
X144482182Y-94698192D01*
X144348932Y-94448899D01*
X144185700Y-94250000D01*
X144348932Y-94051101D01*
X144482182Y-93801808D01*
X144564236Y-93531309D01*
X144591943Y-93250000D01*
X144564236Y-92968691D01*
X144482182Y-92698192D01*
X144348932Y-92448899D01*
X144185700Y-92250000D01*
X144348932Y-92051101D01*
X144482182Y-91801808D01*
X144564236Y-91531309D01*
X144591943Y-91250000D01*
X144564236Y-90968691D01*
X144482182Y-90698192D01*
X144348932Y-90448899D01*
X144185700Y-90250000D01*
X144348932Y-90051101D01*
X144482182Y-89801808D01*
X144564236Y-89531309D01*
X144591943Y-89250000D01*
X144564236Y-88968691D01*
X144482182Y-88698192D01*
X144348932Y-88448899D01*
X144185700Y-88250000D01*
X144348932Y-88051101D01*
X144482182Y-87801808D01*
X144564236Y-87531309D01*
X144591943Y-87250000D01*
X144564236Y-86968691D01*
X144482182Y-86698192D01*
X144348932Y-86448899D01*
X144169608Y-86230392D01*
X143951101Y-86051068D01*
X143701808Y-85917818D01*
X143431309Y-85835764D01*
X143220492Y-85815000D01*
X142279508Y-85815000D01*
X142068691Y-85835764D01*
X141798192Y-85917818D01*
X141548899Y-86051068D01*
X141330392Y-86230392D01*
X141151068Y-86448899D01*
X141017818Y-86698192D01*
X140935764Y-86968691D01*
X140908057Y-87250000D01*
X134468071Y-87250000D01*
X134475812Y-87224482D01*
X134488072Y-87100000D01*
X134488072Y-85900000D01*
X134475812Y-85775518D01*
X134439502Y-85655820D01*
X134397521Y-85577280D01*
X148514802Y-71460000D01*
X151254868Y-71460000D01*
X151376480Y-71581612D01*
X151562376Y-71705824D01*
X151768933Y-71791383D01*
X151988212Y-71835000D01*
X152211788Y-71835000D01*
X152431067Y-71791383D01*
X152637624Y-71705824D01*
X152823520Y-71581612D01*
X152981612Y-71423520D01*
X153105824Y-71237624D01*
X153191383Y-71031067D01*
X153235000Y-70811788D01*
X153235000Y-70588212D01*
X153197349Y-70398928D01*
X154316190Y-71517769D01*
X154358617Y-71731067D01*
X154444176Y-71937624D01*
X154568388Y-72123520D01*
X154726480Y-72281612D01*
X154912376Y-72405824D01*
X155118933Y-72491383D01*
X155338212Y-72535000D01*
X155561788Y-72535000D01*
X155781067Y-72491383D01*
X155987624Y-72405824D01*
X156173520Y-72281612D01*
X156331612Y-72123520D01*
X156455824Y-71937624D01*
X156541383Y-71731067D01*
X156585000Y-71511788D01*
X156585000Y-71288212D01*
X156541383Y-71068933D01*
X156455824Y-70862376D01*
X156331612Y-70676480D01*
X156173520Y-70518388D01*
X155987624Y-70394176D01*
X155781067Y-70308617D01*
X155567769Y-70266190D01*
X149419999Y-64118421D01*
X149419999Y-60511027D01*
X149666203Y-60560000D01*
X149953797Y-60560000D01*
X150235866Y-60503893D01*
X150501569Y-60393835D01*
X150740696Y-60234056D01*
X150944056Y-60030696D01*
X151103835Y-59791569D01*
X151213893Y-59525866D01*
X151270000Y-59243797D01*
X151270000Y-58956203D01*
X151213893Y-58674134D01*
X151103835Y-58408431D01*
X150944056Y-58169304D01*
X150851554Y-58076802D01*
X159818355Y-49110000D01*
X161122458Y-49110000D01*
X161318933Y-49191383D01*
X161538212Y-49235000D01*
X161761788Y-49235000D01*
X161981067Y-49191383D01*
X162187624Y-49105824D01*
X162373520Y-48981612D01*
X162531612Y-48823520D01*
X162655824Y-48637624D01*
X162741383Y-48431067D01*
X162785000Y-48211788D01*
X162785000Y-47988212D01*
X162741383Y-47768933D01*
X162655824Y-47562376D01*
X162531612Y-47376480D01*
X162373520Y-47218388D01*
X162187624Y-47094176D01*
X161981067Y-47008617D01*
X161761788Y-46965000D01*
X161538212Y-46965000D01*
X161318933Y-47008617D01*
X161122458Y-47090000D01*
X160410000Y-47090000D01*
X160410000Y-46565425D01*
X162379094Y-44596331D01*
X162417633Y-44564703D01*
X162543847Y-44410910D01*
X162637632Y-44235450D01*
X162695385Y-44045064D01*
X162710000Y-43896678D01*
X162710000Y-43896676D01*
X162714886Y-43847071D01*
X162710000Y-43797466D01*
X162710000Y-41527542D01*
X162791383Y-41331067D01*
X162835000Y-41111788D01*
X162835000Y-40888212D01*
X162791383Y-40668933D01*
X162710000Y-40472458D01*
X162710000Y-37027542D01*
X162791383Y-36831067D01*
X162835000Y-36611788D01*
X162835000Y-36388212D01*
X162791383Y-36168933D01*
X162705824Y-35962376D01*
X162581612Y-35776480D01*
X162423520Y-35618388D01*
X162237624Y-35494176D01*
X162031067Y-35408617D01*
X161811788Y-35365000D01*
X161588212Y-35365000D01*
X161368933Y-35408617D01*
X161162376Y-35494176D01*
X160976480Y-35618388D01*
X160818388Y-35776480D01*
X160694176Y-35962376D01*
X160608617Y-36168933D01*
X160565000Y-36388212D01*
X160565000Y-36611788D01*
X160608617Y-36831067D01*
X160690001Y-37027544D01*
X160690000Y-40472457D01*
X160608617Y-40668933D01*
X160565000Y-40888212D01*
X160565000Y-41111788D01*
X160608617Y-41331067D01*
X160690000Y-41527543D01*
X160690000Y-42149607D01*
X160690001Y-42149617D01*
X160690000Y-43428715D01*
X159860000Y-44258715D01*
X159860000Y-35111893D01*
X159866096Y-35050000D01*
X159844402Y-34829735D01*
X159841768Y-34802997D01*
X159769720Y-34565486D01*
X159652720Y-34346595D01*
X159495265Y-34154735D01*
X159447185Y-34115277D01*
X158734724Y-33402816D01*
X158695265Y-33354735D01*
X158503405Y-33197280D01*
X158284514Y-33080280D01*
X158047003Y-33008232D01*
X157861893Y-32990000D01*
X157861883Y-32990000D01*
X157800000Y-32983905D01*
X157738117Y-32990000D01*
X156990444Y-32990000D01*
X156988242Y-32988193D01*
X157107571Y-32736004D01*
X157176300Y-32461816D01*
X157190217Y-32179488D01*
X157148787Y-31899870D01*
X157053603Y-31633708D01*
X156986671Y-31508486D01*
X156742702Y-31436903D01*
X155929605Y-32250000D01*
X155943748Y-32264143D01*
X155764143Y-32443748D01*
X155750000Y-32429605D01*
X155735858Y-32443748D01*
X155556253Y-32264143D01*
X155570395Y-32250000D01*
X154757298Y-31436903D01*
X154513329Y-31508486D01*
X154392429Y-31763996D01*
X154323700Y-32038184D01*
X154309783Y-32320512D01*
X154351213Y-32600130D01*
X154446397Y-32866292D01*
X154511616Y-32988309D01*
X154498815Y-32998815D01*
X154419463Y-33095506D01*
X154360498Y-33205820D01*
X154324188Y-33325518D01*
X154311928Y-33450000D01*
X154311928Y-35050000D01*
X154324188Y-35174482D01*
X154360498Y-35294180D01*
X154419463Y-35404494D01*
X154498815Y-35501185D01*
X154595506Y-35580537D01*
X154705820Y-35639502D01*
X154825518Y-35675812D01*
X154950000Y-35688072D01*
X156550000Y-35688072D01*
X156674482Y-35675812D01*
X156794180Y-35639502D01*
X156904494Y-35580537D01*
X156990444Y-35510000D01*
X157278092Y-35510000D01*
X157340000Y-35571908D01*
X157340001Y-44728090D01*
X156928092Y-45140000D01*
X150552207Y-45140000D01*
X150501569Y-45106165D01*
X150235866Y-44996107D01*
X149953797Y-44940000D01*
X149666203Y-44940000D01*
X149384134Y-44996107D01*
X149118431Y-45106165D01*
X148879304Y-45265944D01*
X148675944Y-45469304D01*
X148516165Y-45708431D01*
X148406107Y-45974134D01*
X148350000Y-46256203D01*
X148350000Y-46543797D01*
X148406107Y-46825866D01*
X148516165Y-47091569D01*
X148675944Y-47330696D01*
X148879304Y-47534056D01*
X149080576Y-47668541D01*
X149053663Y-47682927D01*
X148979054Y-47929449D01*
X149810000Y-48760395D01*
X150640946Y-47929449D01*
X150566337Y-47682927D01*
X150538023Y-47669477D01*
X150552207Y-47660000D01*
X157388117Y-47660000D01*
X157450000Y-47666095D01*
X157511883Y-47660000D01*
X157511893Y-47660000D01*
X157697003Y-47641768D01*
X157934514Y-47569720D01*
X158153405Y-47452720D01*
X158345265Y-47295265D01*
X158384723Y-47247185D01*
X158390000Y-47241908D01*
X158390000Y-47681645D01*
X149419999Y-56651646D01*
X149419999Y-55328468D01*
X149424280Y-55284999D01*
X149419999Y-55241530D01*
X149419999Y-55241522D01*
X149407194Y-55111509D01*
X149356588Y-54944686D01*
X149274410Y-54790940D01*
X149231022Y-54738072D01*
X149191531Y-54689952D01*
X149191529Y-54689950D01*
X149163816Y-54656182D01*
X149130048Y-54628469D01*
X144452130Y-49950551D01*
X148979054Y-49950551D01*
X149053663Y-50197073D01*
X149313439Y-50320473D01*
X149592297Y-50390823D01*
X149879521Y-50405417D01*
X150164074Y-50363697D01*
X150435020Y-50267265D01*
X150566337Y-50197073D01*
X150640946Y-49950551D01*
X149810000Y-49119605D01*
X148979054Y-49950551D01*
X144452130Y-49950551D01*
X143671536Y-49169958D01*
X143671531Y-49169952D01*
X143639278Y-49137699D01*
X143650000Y-49083797D01*
X143650000Y-49009521D01*
X148344583Y-49009521D01*
X148386303Y-49294074D01*
X148482735Y-49565020D01*
X148552927Y-49696337D01*
X148799449Y-49770946D01*
X149630395Y-48940000D01*
X149989605Y-48940000D01*
X150820551Y-49770946D01*
X151067073Y-49696337D01*
X151190473Y-49436561D01*
X151260823Y-49157703D01*
X151275417Y-48870479D01*
X151233697Y-48585926D01*
X151137265Y-48314980D01*
X151067073Y-48183663D01*
X150820551Y-48109054D01*
X149989605Y-48940000D01*
X149630395Y-48940000D01*
X148799449Y-48109054D01*
X148552927Y-48183663D01*
X148429527Y-48443439D01*
X148359177Y-48722297D01*
X148344583Y-49009521D01*
X143650000Y-49009521D01*
X143650000Y-48796203D01*
X143593893Y-48514134D01*
X143483835Y-48248431D01*
X143324056Y-48009304D01*
X143120696Y-47805944D01*
X142917241Y-47670000D01*
X143120696Y-47534056D01*
X143324056Y-47330696D01*
X143483835Y-47091569D01*
X143593893Y-46825866D01*
X143650000Y-46543797D01*
X143650000Y-46256203D01*
X143593893Y-45974134D01*
X143483835Y-45708431D01*
X143324056Y-45469304D01*
X143120696Y-45265944D01*
X142881569Y-45106165D01*
X142615866Y-44996107D01*
X142333797Y-44940000D01*
X142046203Y-44940000D01*
X141764134Y-44996107D01*
X141498431Y-45106165D01*
X141259304Y-45265944D01*
X141055944Y-45469304D01*
X140896165Y-45708431D01*
X140786107Y-45974134D01*
X140730000Y-46256203D01*
X140730000Y-46543797D01*
X140786107Y-46825866D01*
X140896165Y-47091569D01*
X141055944Y-47330696D01*
X141259304Y-47534056D01*
X141462759Y-47670000D01*
X141259304Y-47805944D01*
X141055944Y-48009304D01*
X140896165Y-48248431D01*
X140786107Y-48514134D01*
X140730000Y-48796203D01*
X140730000Y-49083797D01*
X140786107Y-49365866D01*
X140896165Y-49631569D01*
X141055944Y-49870696D01*
X141259304Y-50074056D01*
X141498431Y-50233835D01*
X141764134Y-50343893D01*
X142046203Y-50400000D01*
X142333797Y-50400000D01*
X142387699Y-50389278D01*
X142419952Y-50421531D01*
X142419958Y-50421536D01*
X147650000Y-55651579D01*
X147649999Y-64075197D01*
X145288803Y-61714002D01*
X145265000Y-61684998D01*
X145149275Y-61590025D01*
X145017246Y-61519453D01*
X144873985Y-61475996D01*
X144762332Y-61464999D01*
X144762321Y-61464999D01*
X144724999Y-61461323D01*
X144687677Y-61464999D01*
X143139801Y-61464999D01*
X142234802Y-60560000D01*
X142333797Y-60560000D01*
X142615866Y-60503893D01*
X142881569Y-60393835D01*
X143120696Y-60234056D01*
X143324056Y-60030696D01*
X143483835Y-59791569D01*
X143593893Y-59525866D01*
X143650000Y-59243797D01*
X143650000Y-58956203D01*
X143593893Y-58674134D01*
X143483835Y-58408431D01*
X143324056Y-58169304D01*
X143120696Y-57965944D01*
X142881569Y-57806165D01*
X142615866Y-57696107D01*
X142335463Y-57640331D01*
X137135000Y-52439869D01*
X137135000Y-39298061D01*
X141915000Y-39298061D01*
X141915000Y-39501939D01*
X141954774Y-39701898D01*
X142032795Y-39890256D01*
X142146063Y-40059774D01*
X142290226Y-40203937D01*
X142459744Y-40317205D01*
X142648102Y-40395226D01*
X142848061Y-40435000D01*
X143051939Y-40435000D01*
X143251898Y-40395226D01*
X143440256Y-40317205D01*
X143609774Y-40203937D01*
X143653711Y-40160000D01*
X145046993Y-40160000D01*
X145084315Y-40163676D01*
X145121637Y-40160000D01*
X145121648Y-40160000D01*
X145233301Y-40149003D01*
X145376562Y-40105546D01*
X145508591Y-40034974D01*
X145624316Y-39940001D01*
X145648119Y-39910997D01*
X147117845Y-38441272D01*
X147248102Y-38495226D01*
X147448061Y-38535000D01*
X147651939Y-38535000D01*
X147851898Y-38495226D01*
X148040256Y-38417205D01*
X148209774Y-38303937D01*
X148353937Y-38159774D01*
X148467205Y-37990256D01*
X148545226Y-37801898D01*
X148585000Y-37601939D01*
X148585000Y-37398061D01*
X148545226Y-37198102D01*
X148467205Y-37009744D01*
X148359173Y-36848061D01*
X148765000Y-36848061D01*
X148765000Y-37051939D01*
X148804774Y-37251898D01*
X148882795Y-37440256D01*
X148996063Y-37609774D01*
X149040000Y-37653711D01*
X149040001Y-41712668D01*
X149036324Y-41750000D01*
X149040001Y-41787333D01*
X149050998Y-41898986D01*
X149063288Y-41939502D01*
X149094454Y-42042246D01*
X149165026Y-42174276D01*
X149198448Y-42215000D01*
X149260000Y-42290001D01*
X149288998Y-42313799D01*
X150265000Y-43289802D01*
X150265000Y-43351939D01*
X150304774Y-43551898D01*
X150382795Y-43740256D01*
X150496063Y-43909774D01*
X150640226Y-44053937D01*
X150809744Y-44167205D01*
X150998102Y-44245226D01*
X151198061Y-44285000D01*
X151401939Y-44285000D01*
X151601898Y-44245226D01*
X151790256Y-44167205D01*
X151959774Y-44053937D01*
X152103937Y-43909774D01*
X152217205Y-43740256D01*
X152295226Y-43551898D01*
X152335000Y-43351939D01*
X152335000Y-43148061D01*
X152295226Y-42948102D01*
X152217205Y-42759744D01*
X152103937Y-42590226D01*
X151959774Y-42446063D01*
X151790256Y-42332795D01*
X151601898Y-42254774D01*
X151401939Y-42215000D01*
X151339802Y-42215000D01*
X150560000Y-41435199D01*
X150560000Y-37653711D01*
X150603937Y-37609774D01*
X150717205Y-37440256D01*
X150795226Y-37251898D01*
X150835000Y-37051939D01*
X150835000Y-36848061D01*
X150795226Y-36648102D01*
X150717205Y-36459744D01*
X150603937Y-36290226D01*
X150459774Y-36146063D01*
X150290256Y-36032795D01*
X150101898Y-35954774D01*
X149901939Y-35915000D01*
X149698061Y-35915000D01*
X149498102Y-35954774D01*
X149309744Y-36032795D01*
X149140226Y-36146063D01*
X148996063Y-36290226D01*
X148882795Y-36459744D01*
X148804774Y-36648102D01*
X148765000Y-36848061D01*
X148359173Y-36848061D01*
X148353937Y-36840226D01*
X148209774Y-36696063D01*
X148040256Y-36582795D01*
X147851898Y-36504774D01*
X147651939Y-36465000D01*
X147448061Y-36465000D01*
X147248102Y-36504774D01*
X147059744Y-36582795D01*
X146890226Y-36696063D01*
X146835276Y-36751013D01*
X146692068Y-36794454D01*
X146560039Y-36865026D01*
X146444314Y-36959999D01*
X146420516Y-36988997D01*
X144769514Y-38640000D01*
X143653711Y-38640000D01*
X143609774Y-38596063D01*
X143440256Y-38482795D01*
X143251898Y-38404774D01*
X143051939Y-38365000D01*
X142848061Y-38365000D01*
X142648102Y-38404774D01*
X142459744Y-38482795D01*
X142290226Y-38596063D01*
X142146063Y-38740226D01*
X142032795Y-38909744D01*
X141954774Y-39098102D01*
X141915000Y-39298061D01*
X137135000Y-39298061D01*
X137135000Y-36090957D01*
X137154494Y-36080537D01*
X137251185Y-36001185D01*
X137330537Y-35904494D01*
X137389502Y-35794180D01*
X137425812Y-35674482D01*
X137438072Y-35550000D01*
X137438072Y-33950000D01*
X137425812Y-33825518D01*
X137389502Y-33705820D01*
X137330537Y-33595506D01*
X137251185Y-33498815D01*
X137238242Y-33488193D01*
X137357571Y-33236004D01*
X137426300Y-32961816D01*
X137440217Y-32679488D01*
X137398787Y-32399870D01*
X137303603Y-32133708D01*
X137236671Y-32008486D01*
X136992702Y-31936903D01*
X136179605Y-32750000D01*
X136193748Y-32764143D01*
X136014143Y-32943748D01*
X136000000Y-32929605D01*
X135985858Y-32943748D01*
X135806253Y-32764143D01*
X135820395Y-32750000D01*
X135007298Y-31936903D01*
X134763329Y-32008486D01*
X134642429Y-32263996D01*
X134573700Y-32538184D01*
X134559783Y-32820512D01*
X134601213Y-33100130D01*
X134696397Y-33366292D01*
X134761616Y-33488309D01*
X134748815Y-33498815D01*
X134669463Y-33595506D01*
X134610498Y-33705820D01*
X134574188Y-33825518D01*
X134561928Y-33950000D01*
X134561928Y-35550000D01*
X134574188Y-35674482D01*
X134610498Y-35794180D01*
X134669463Y-35904494D01*
X134748815Y-36001185D01*
X134845506Y-36080537D01*
X134865000Y-36090957D01*
X134865001Y-52854238D01*
X134859509Y-52910000D01*
X134881423Y-53132498D01*
X134913700Y-53238898D01*
X134663804Y-52989003D01*
X134640001Y-52959999D01*
X134524276Y-52865026D01*
X134482424Y-52842655D01*
X134475812Y-52775518D01*
X134439502Y-52655820D01*
X134380537Y-52545506D01*
X134301185Y-52448815D01*
X134204494Y-52369463D01*
X134094180Y-52310498D01*
X133974482Y-52274188D01*
X133850000Y-52261928D01*
X132650000Y-52261928D01*
X132525518Y-52274188D01*
X132405820Y-52310498D01*
X132295506Y-52369463D01*
X132198815Y-52448815D01*
X132119463Y-52545506D01*
X132060498Y-52655820D01*
X132024188Y-52775518D01*
X132011928Y-52900000D01*
X132011928Y-54100000D01*
X132024188Y-54224482D01*
X132060498Y-54344180D01*
X132119463Y-54454494D01*
X132133568Y-54471681D01*
X132075763Y-54598516D01*
X132020000Y-54835313D01*
X132011505Y-55078438D01*
X132050605Y-55318549D01*
X132135798Y-55546418D01*
X132176652Y-55622852D01*
X132400236Y-55670159D01*
X133070395Y-55000000D01*
X133056253Y-54985858D01*
X133235858Y-54806253D01*
X133250000Y-54820395D01*
X133264143Y-54806253D01*
X133443748Y-54985858D01*
X133429605Y-55000000D01*
X134099764Y-55670159D01*
X134323348Y-55622852D01*
X134424237Y-55401484D01*
X134480000Y-55164687D01*
X134487086Y-54961887D01*
X142261199Y-62736001D01*
X142284998Y-62765000D01*
X142313996Y-62788798D01*
X142400722Y-62859973D01*
X142485124Y-62905087D01*
X142532752Y-62930545D01*
X142676013Y-62974002D01*
X142787666Y-62984999D01*
X142787676Y-62984999D01*
X142824999Y-62988675D01*
X142862322Y-62984999D01*
X144410198Y-62984999D01*
X150965000Y-69539803D01*
X150965000Y-69711788D01*
X151008617Y-69931067D01*
X151012317Y-69940000D01*
X148237325Y-69940000D01*
X148200000Y-69936324D01*
X148162675Y-69940000D01*
X148162667Y-69940000D01*
X148051014Y-69950997D01*
X147907753Y-69994454D01*
X147775724Y-70065026D01*
X147659999Y-70159999D01*
X147636201Y-70188997D01*
X139485001Y-78340198D01*
X139485001Y-64605753D01*
X139490492Y-64550001D01*
X139479227Y-64435619D01*
X139468578Y-64327502D01*
X139403677Y-64113554D01*
X139298285Y-63916378D01*
X139156450Y-63743552D01*
X139113147Y-63708014D01*
X138285000Y-62879868D01*
X138285000Y-62550000D01*
X138279166Y-62490495D01*
X138273752Y-62431013D01*
X138273125Y-62428882D01*
X138272907Y-62426661D01*
X138255612Y-62369379D01*
X138238762Y-62312125D01*
X138237731Y-62310153D01*
X138237087Y-62308020D01*
X138209012Y-62255219D01*
X138181345Y-62202297D01*
X138179951Y-62200563D01*
X138178905Y-62198596D01*
X138141117Y-62152263D01*
X138103690Y-62105714D01*
X138101985Y-62104283D01*
X138100577Y-62102557D01*
X138054527Y-62064461D01*
X138008754Y-62026053D01*
X138006802Y-62024980D01*
X138005087Y-62023561D01*
X137952539Y-61995149D01*
X137900153Y-61966349D01*
X137898029Y-61965675D01*
X137896072Y-61964617D01*
X137839050Y-61946966D01*
X137782024Y-61928876D01*
X137779808Y-61928627D01*
X137777684Y-61927970D01*
X137718257Y-61921724D01*
X137658866Y-61915062D01*
X137654596Y-61915032D01*
X137654433Y-61915015D01*
X137654270Y-61915030D01*
X137650000Y-61915000D01*
X133750000Y-61915000D01*
X133690495Y-61920834D01*
X133631013Y-61926248D01*
X133628882Y-61926875D01*
X133626661Y-61927093D01*
X133569379Y-61944388D01*
X133512125Y-61961238D01*
X133510153Y-61962269D01*
X133508020Y-61962913D01*
X133455219Y-61990988D01*
X133402297Y-62018655D01*
X133400563Y-62020049D01*
X133398596Y-62021095D01*
X133352263Y-62058883D01*
X133305714Y-62096310D01*
X133304283Y-62098015D01*
X133302557Y-62099423D01*
X133264461Y-62145473D01*
X133226053Y-62191246D01*
X133224980Y-62193198D01*
X133223561Y-62194913D01*
X133195149Y-62247461D01*
X133166349Y-62299847D01*
X133165675Y-62301971D01*
X133164617Y-62303928D01*
X133146966Y-62360950D01*
X133128876Y-62417976D01*
X133128627Y-62420192D01*
X133127970Y-62422316D01*
X133121724Y-62481743D01*
X133115062Y-62541134D01*
X133115032Y-62545404D01*
X133115015Y-62545567D01*
X133115030Y-62545730D01*
X133115000Y-62550000D01*
X133115000Y-66450000D01*
X133120834Y-66509505D01*
X133126248Y-66568987D01*
X133126875Y-66571118D01*
X133127093Y-66573339D01*
X133144388Y-66630621D01*
X133161238Y-66687875D01*
X133162269Y-66689847D01*
X133162913Y-66691980D01*
X133190988Y-66744781D01*
X133218655Y-66797703D01*
X133220049Y-66799437D01*
X133221095Y-66801404D01*
X133258883Y-66847737D01*
X133296310Y-66894286D01*
X133298015Y-66895717D01*
X133299423Y-66897443D01*
X133345473Y-66935539D01*
X133391246Y-66973947D01*
X133393198Y-66975020D01*
X133394913Y-66976439D01*
X133447461Y-67004851D01*
X133499847Y-67033651D01*
X133501971Y-67034325D01*
X133503928Y-67035383D01*
X133560950Y-67053034D01*
X133617976Y-67071124D01*
X133620192Y-67071373D01*
X133622316Y-67072030D01*
X133681743Y-67078276D01*
X133741134Y-67084938D01*
X133745404Y-67084968D01*
X133745567Y-67084985D01*
X133745730Y-67084970D01*
X133750000Y-67085000D01*
X137215001Y-67085000D01*
X137215002Y-78100261D01*
X137023188Y-77942843D01*
X136782581Y-77814236D01*
X136521507Y-77735040D01*
X136318037Y-77715000D01*
X135328080Y-77715000D01*
X135260051Y-77708300D01*
X135192022Y-77715000D01*
X135192014Y-77715000D01*
X134988544Y-77735040D01*
X134727470Y-77814236D01*
X134486863Y-77942843D01*
X134328817Y-78072548D01*
X134328815Y-78072550D01*
X134275970Y-78115919D01*
X134232601Y-78168764D01*
X130768764Y-81632602D01*
X130715918Y-81675972D01*
X130542842Y-81886865D01*
X130414235Y-82127472D01*
X130335039Y-82388546D01*
X130314999Y-82592016D01*
X130314999Y-82592023D01*
X130308299Y-82660052D01*
X113824388Y-82660052D01*
X113786333Y-66068514D01*
X114065000Y-66068514D01*
X114065000Y-66331486D01*
X114116304Y-66589405D01*
X114216939Y-66832359D01*
X114363038Y-67051013D01*
X114548987Y-67236962D01*
X114767641Y-67383061D01*
X114824849Y-67406758D01*
X116540000Y-69121909D01*
X116540001Y-72722109D01*
X116533905Y-72784002D01*
X116558233Y-73031005D01*
X116630280Y-73268515D01*
X116747280Y-73487407D01*
X116860200Y-73625000D01*
X116904736Y-73679267D01*
X116952811Y-73718721D01*
X117706274Y-74472184D01*
X117745733Y-74520265D01*
X117935723Y-74676185D01*
X117937593Y-74677720D01*
X118156484Y-74794720D01*
X118393995Y-74866768D01*
X118640998Y-74891096D01*
X118702891Y-74885000D01*
X119311893Y-74885000D01*
X119497003Y-74866768D01*
X119509187Y-74863072D01*
X119850000Y-74863072D01*
X119974482Y-74850812D01*
X120094180Y-74814502D01*
X120204494Y-74755537D01*
X120301185Y-74676185D01*
X120380537Y-74579494D01*
X120439502Y-74469180D01*
X120475812Y-74349482D01*
X120488072Y-74225000D01*
X120488072Y-73884187D01*
X120491768Y-73872003D01*
X120516096Y-73625000D01*
X120491768Y-73377997D01*
X120488072Y-73365813D01*
X120488072Y-73025000D01*
X120475812Y-72900518D01*
X120439502Y-72780820D01*
X120380537Y-72670506D01*
X120366432Y-72653319D01*
X120424237Y-72526484D01*
X120480000Y-72289687D01*
X120488495Y-72046562D01*
X120449395Y-71806451D01*
X120364202Y-71578582D01*
X120323348Y-71502148D01*
X120099764Y-71454841D01*
X119429605Y-72125000D01*
X119443748Y-72139143D01*
X119264143Y-72318748D01*
X119250000Y-72304605D01*
X119235858Y-72318748D01*
X119060000Y-72142890D01*
X119060000Y-72135395D01*
X119070395Y-72125000D01*
X119060000Y-72114605D01*
X119060000Y-72107110D01*
X119235858Y-71931253D01*
X119250000Y-71945395D01*
X119920159Y-71275236D01*
X119872852Y-71051652D01*
X119651484Y-70950763D01*
X119414687Y-70895000D01*
X119171562Y-70886505D01*
X119060000Y-70904672D01*
X119060000Y-69274467D01*
X119094719Y-69209512D01*
X119166767Y-68972002D01*
X119191095Y-68724999D01*
X119166767Y-68477996D01*
X119094719Y-68240485D01*
X118977719Y-68021594D01*
X118859718Y-67877809D01*
X118859708Y-67877799D01*
X118820263Y-67829735D01*
X118772199Y-67790290D01*
X116606758Y-65624849D01*
X116583061Y-65567641D01*
X116436962Y-65348987D01*
X116251013Y-65163038D01*
X116032359Y-65016939D01*
X115789405Y-64916304D01*
X115531486Y-64865000D01*
X115268514Y-64865000D01*
X115010595Y-64916304D01*
X114767641Y-65016939D01*
X114548987Y-65163038D01*
X114363038Y-65348987D01*
X114216939Y-65567641D01*
X114116304Y-65810595D01*
X114065000Y-66068514D01*
X113786333Y-66068514D01*
X113765845Y-57135413D01*
X120544192Y-57135413D01*
X120639956Y-57399814D01*
X120929571Y-57540704D01*
X121241108Y-57622384D01*
X121562595Y-57641718D01*
X121881675Y-57597961D01*
X122186088Y-57492795D01*
X122360044Y-57399814D01*
X122455808Y-57135413D01*
X121500000Y-56179605D01*
X120544192Y-57135413D01*
X113765845Y-57135413D01*
X113763384Y-56062595D01*
X119858282Y-56062595D01*
X119902039Y-56381675D01*
X120007205Y-56686088D01*
X120100186Y-56860044D01*
X120364587Y-56955808D01*
X121320395Y-56000000D01*
X121679605Y-56000000D01*
X122635413Y-56955808D01*
X122899814Y-56860044D01*
X123040704Y-56570429D01*
X123122384Y-56258892D01*
X123141718Y-55937405D01*
X123129700Y-55849764D01*
X132579841Y-55849764D01*
X132627148Y-56073348D01*
X132848516Y-56174237D01*
X133085313Y-56230000D01*
X133328438Y-56238495D01*
X133568549Y-56199395D01*
X133796418Y-56114202D01*
X133872852Y-56073348D01*
X133920159Y-55849764D01*
X133250000Y-55179605D01*
X132579841Y-55849764D01*
X123129700Y-55849764D01*
X123097961Y-55618325D01*
X122992795Y-55313912D01*
X122899814Y-55139956D01*
X122635413Y-55044192D01*
X121679605Y-56000000D01*
X121320395Y-56000000D01*
X120364587Y-55044192D01*
X120100186Y-55139956D01*
X119959296Y-55429571D01*
X119877616Y-55741108D01*
X119858282Y-56062595D01*
X113763384Y-56062595D01*
X113760637Y-54864587D01*
X120544192Y-54864587D01*
X121500000Y-55820395D01*
X122455808Y-54864587D01*
X122360044Y-54600186D01*
X122070429Y-54459296D01*
X121758892Y-54377616D01*
X121437405Y-54358282D01*
X121118325Y-54402039D01*
X120813912Y-54507205D01*
X120639956Y-54600186D01*
X120544192Y-54864587D01*
X113760637Y-54864587D01*
X113749479Y-50000000D01*
X119861928Y-50000000D01*
X119861928Y-52000000D01*
X119874188Y-52124482D01*
X119910498Y-52244180D01*
X119969463Y-52354494D01*
X120048815Y-52451185D01*
X120145506Y-52530537D01*
X120255820Y-52589502D01*
X120375518Y-52625812D01*
X120500000Y-52638072D01*
X122500000Y-52638072D01*
X122624482Y-52625812D01*
X122744180Y-52589502D01*
X122854494Y-52530537D01*
X122951185Y-52451185D01*
X123030537Y-52354494D01*
X123089502Y-52244180D01*
X123125812Y-52124482D01*
X123138072Y-52000000D01*
X123138072Y-50000000D01*
X123125812Y-49875518D01*
X123089502Y-49755820D01*
X123030537Y-49645506D01*
X122951185Y-49548815D01*
X122854494Y-49469463D01*
X122744180Y-49410498D01*
X122624482Y-49374188D01*
X122500000Y-49361928D01*
X120500000Y-49361928D01*
X120375518Y-49374188D01*
X120255820Y-49410498D01*
X120145506Y-49469463D01*
X120048815Y-49548815D01*
X119969463Y-49645506D01*
X119910498Y-49755820D01*
X119874188Y-49875518D01*
X119861928Y-50000000D01*
X113749479Y-50000000D01*
X113727000Y-40199709D01*
X113724503Y-40174938D01*
X113717221Y-40151130D01*
X113702709Y-40125302D01*
X108570500Y-33068514D01*
X114065000Y-33068514D01*
X114065000Y-33331486D01*
X114116304Y-33589405D01*
X114216939Y-33832359D01*
X114363038Y-34051013D01*
X114548987Y-34236962D01*
X114767641Y-34383061D01*
X114824849Y-34406758D01*
X116564999Y-36146908D01*
X116565000Y-39872108D01*
X116558904Y-39934001D01*
X116583232Y-40181004D01*
X116655279Y-40418514D01*
X116772279Y-40637406D01*
X116798153Y-40668933D01*
X116929735Y-40829266D01*
X116977810Y-40868720D01*
X117706274Y-41597184D01*
X117745733Y-41645265D01*
X117918844Y-41787333D01*
X117937593Y-41802720D01*
X118156484Y-41919720D01*
X118393995Y-41991768D01*
X118640998Y-42016096D01*
X118702891Y-42010000D01*
X119311893Y-42010000D01*
X119497003Y-41991768D01*
X119509187Y-41988072D01*
X119850000Y-41988072D01*
X119974482Y-41975812D01*
X120094180Y-41939502D01*
X120204494Y-41880537D01*
X120301185Y-41801185D01*
X120380537Y-41704494D01*
X120439502Y-41594180D01*
X120475812Y-41474482D01*
X120488072Y-41350000D01*
X120488072Y-41009187D01*
X120491768Y-40997003D01*
X120516096Y-40750000D01*
X120491768Y-40502997D01*
X120488072Y-40490813D01*
X120488072Y-40150000D01*
X120475812Y-40025518D01*
X120439502Y-39905820D01*
X120380537Y-39795506D01*
X120366432Y-39778319D01*
X120424237Y-39651484D01*
X120480000Y-39414687D01*
X120488495Y-39171562D01*
X120449395Y-38931451D01*
X120364202Y-38703582D01*
X120323348Y-38627148D01*
X120099764Y-38579841D01*
X119429605Y-39250000D01*
X119443748Y-39264143D01*
X119264143Y-39443748D01*
X119250000Y-39429605D01*
X119235858Y-39443748D01*
X119084999Y-39292889D01*
X119084999Y-39207111D01*
X119235858Y-39056253D01*
X119250000Y-39070395D01*
X119920159Y-38400236D01*
X119872852Y-38176652D01*
X119651484Y-38075763D01*
X119414687Y-38020000D01*
X119171562Y-38011505D01*
X119084999Y-38025601D01*
X119084999Y-36227697D01*
X119094719Y-36209512D01*
X119166767Y-35972002D01*
X119191095Y-35724999D01*
X119166767Y-35477996D01*
X119094719Y-35240485D01*
X118977719Y-35021594D01*
X118859718Y-34877809D01*
X118859708Y-34877799D01*
X118820263Y-34829735D01*
X118772199Y-34790290D01*
X116606758Y-32624849D01*
X116583061Y-32567641D01*
X116436962Y-32348987D01*
X116251013Y-32163038D01*
X116032359Y-32016939D01*
X115789405Y-31916304D01*
X115531486Y-31865000D01*
X115268514Y-31865000D01*
X115010595Y-31916304D01*
X114767641Y-32016939D01*
X114548987Y-32163038D01*
X114363038Y-32348987D01*
X114216939Y-32567641D01*
X114116304Y-32810595D01*
X114065000Y-33068514D01*
X108570500Y-33068514D01*
X107616889Y-31757298D01*
X135186903Y-31757298D01*
X136000000Y-32570395D01*
X136813097Y-31757298D01*
X136741514Y-31513329D01*
X136486004Y-31392429D01*
X136211816Y-31323700D01*
X135929488Y-31309783D01*
X135649870Y-31351213D01*
X135383708Y-31446397D01*
X135258486Y-31513329D01*
X135186903Y-31757298D01*
X107616889Y-31757298D01*
X107327000Y-31358702D01*
X107327000Y-31257298D01*
X154936903Y-31257298D01*
X155750000Y-32070395D01*
X156563097Y-31257298D01*
X156491514Y-31013329D01*
X156236004Y-30892429D01*
X155961816Y-30823700D01*
X155679488Y-30809783D01*
X155399870Y-30851213D01*
X155133708Y-30946397D01*
X155008486Y-31013329D01*
X154936903Y-31257298D01*
X107327000Y-31257298D01*
X107327000Y-27000000D01*
X143261928Y-27000000D01*
X143274188Y-27124482D01*
X143310498Y-27244180D01*
X143369463Y-27354494D01*
X143448815Y-27451185D01*
X143545506Y-27530537D01*
X143655820Y-27589502D01*
X143775518Y-27625812D01*
X143900000Y-27638072D01*
X144464250Y-27635000D01*
X144623000Y-27476250D01*
X144623000Y-26127000D01*
X143423750Y-26127000D01*
X143265000Y-26285750D01*
X143261928Y-27000000D01*
X107327000Y-27000000D01*
X107327000Y-25000000D01*
X143261928Y-25000000D01*
X143265000Y-25714250D01*
X143423750Y-25873000D01*
X144623000Y-25873000D01*
X144623000Y-24523750D01*
X144877000Y-24523750D01*
X144877000Y-25873000D01*
X144897000Y-25873000D01*
X144897000Y-26127000D01*
X144877000Y-26127000D01*
X144877000Y-27476250D01*
X145035750Y-27635000D01*
X145600000Y-27638072D01*
X145724482Y-27625812D01*
X145844180Y-27589502D01*
X145954494Y-27530537D01*
X146051185Y-27451185D01*
X146130537Y-27354494D01*
X146189502Y-27244180D01*
X146200055Y-27209392D01*
X146420987Y-27390706D01*
X146678967Y-27528599D01*
X146958890Y-27613513D01*
X147250000Y-27642185D01*
X147541111Y-27613513D01*
X147821034Y-27528599D01*
X148079014Y-27390706D01*
X148305134Y-27205134D01*
X148490706Y-26979014D01*
X148628599Y-26721033D01*
X148713513Y-26441110D01*
X148735000Y-26222949D01*
X148735000Y-25868514D01*
X150465000Y-25868514D01*
X150465000Y-26131486D01*
X150516304Y-26389405D01*
X150616939Y-26632359D01*
X150763038Y-26851013D01*
X150948987Y-27036962D01*
X151167641Y-27183061D01*
X151410595Y-27283696D01*
X151668514Y-27335000D01*
X151931486Y-27335000D01*
X152189405Y-27283696D01*
X152432359Y-27183061D01*
X152651013Y-27036962D01*
X152836962Y-26851013D01*
X152983061Y-26632359D01*
X153083696Y-26389405D01*
X153135000Y-26131486D01*
X153135000Y-25868514D01*
X153083696Y-25610595D01*
X152983061Y-25367641D01*
X152836962Y-25148987D01*
X152651013Y-24963038D01*
X152432359Y-24816939D01*
X152189405Y-24716304D01*
X151931486Y-24665000D01*
X151668514Y-24665000D01*
X151410595Y-24716304D01*
X151167641Y-24816939D01*
X150948987Y-24963038D01*
X150763038Y-25148987D01*
X150616939Y-25367641D01*
X150516304Y-25610595D01*
X150465000Y-25868514D01*
X148735000Y-25868514D01*
X148735000Y-25777050D01*
X148713513Y-25558889D01*
X148628599Y-25278966D01*
X148490706Y-25020986D01*
X148305134Y-24794866D01*
X148079013Y-24609294D01*
X147821033Y-24471401D01*
X147541110Y-24386487D01*
X147250000Y-24357815D01*
X146958889Y-24386487D01*
X146678966Y-24471401D01*
X146420986Y-24609294D01*
X146200055Y-24790608D01*
X146189502Y-24755820D01*
X146130537Y-24645506D01*
X146051185Y-24548815D01*
X145954494Y-24469463D01*
X145844180Y-24410498D01*
X145724482Y-24374188D01*
X145600000Y-24361928D01*
X145035750Y-24365000D01*
X144877000Y-24523750D01*
X144623000Y-24523750D01*
X144464250Y-24365000D01*
X143900000Y-24361928D01*
X143775518Y-24374188D01*
X143655820Y-24410498D01*
X143545506Y-24469463D01*
X143448815Y-24548815D01*
X143369463Y-24645506D01*
X143310498Y-24755820D01*
X143274188Y-24875518D01*
X143261928Y-25000000D01*
X107327000Y-25000000D01*
X107327000Y-22727000D01*
X161073000Y-22727000D01*
X161073000Y-30200000D01*
M02*
