M48
; DRILL file {KiCad (5.1.4)-1} date 12/15/2019 9:40:25 PM
; FORMAT={-:-/ absolute / metric / decimal}
; #@! TF.CreationDate,2019-12-15T21:40:25+01:00
; #@! TF.GenerationSoftware,Kicad,Pcbnew,(5.1.4)-1
; #@! TF.FileFunction,Plated,1,2,PTH
FMAT,2
METRIC
T1C0.400
T2C0.500
T3C0.600
T4C0.650
T5C0.700
T6C0.800
T7C1.000
T8C1.100
T9C1.300
T10C3.200
%
G90
G05
T1
X120.9Y-64.7
X120.9Y-66.3
X120.9Y-67.9
X120.9Y-69.5
X120.9Y-71.1
X120.9Y-98.1
X120.9Y-99.7
X120.9Y-101.3
X120.9Y-102.9
X120.9Y-104.5
X121.0Y-32.3
X121.0Y-33.9
X121.0Y-35.5
X121.0Y-37.1
X121.0Y-38.7
X121.6Y-64.3
X121.6Y-65.1
X121.6Y-65.9
X121.6Y-66.7
X121.6Y-67.5
X121.6Y-68.3
X121.6Y-69.1
X121.6Y-69.9
X121.6Y-70.7
X121.6Y-71.5
X121.6Y-97.7
X121.6Y-98.5
X121.6Y-99.3
X121.6Y-100.1
X121.6Y-100.9
X121.6Y-101.7
X121.6Y-102.5
X121.6Y-103.3
X121.6Y-104.1
X121.6Y-104.9
X121.7Y-31.9
X121.7Y-32.7
X121.7Y-33.5
X121.7Y-34.3
X121.7Y-35.1
X121.7Y-35.9
X121.7Y-36.7
X121.7Y-37.5
X121.7Y-38.3
X121.7Y-39.1
X122.0Y-63.6
X122.0Y-72.2
X122.0Y-97.0
X122.0Y-105.6
X122.1Y-31.2
X122.1Y-39.8
X122.4Y-64.3
X122.4Y-65.1
X122.4Y-65.9
X122.4Y-66.7
X122.4Y-67.5
X122.4Y-68.3
X122.4Y-69.1
X122.4Y-69.9
X122.4Y-70.7
X122.4Y-71.5
X122.4Y-97.7
X122.4Y-98.5
X122.4Y-99.3
X122.4Y-100.1
X122.4Y-100.9
X122.4Y-101.7
X122.4Y-102.5
X122.4Y-103.3
X122.4Y-104.1
X122.4Y-104.9
X122.5Y-31.9
X122.5Y-32.7
X122.5Y-33.5
X122.5Y-34.3
X122.5Y-35.1
X122.5Y-35.9
X122.5Y-36.7
X122.5Y-37.5
X122.5Y-38.3
X122.5Y-39.1
X123.2Y-64.3
X123.2Y-65.1
X123.2Y-97.7
X123.2Y-98.5
X123.3Y-31.9
X123.3Y-32.7
X123.6Y-63.6
X123.6Y-97.0
X123.7Y-31.2
X124.0Y-64.3
X124.0Y-65.1
X124.0Y-97.7
X124.0Y-98.5
X124.1Y-31.9
X124.1Y-32.7
X124.8Y-64.3
X124.8Y-65.1
X124.8Y-97.7
X124.8Y-98.5
X124.9Y-31.9
X124.9Y-32.7
X125.2Y-63.6
X125.2Y-97.0
X125.3Y-31.2
X125.6Y-64.3
X125.6Y-65.1
X125.6Y-97.7
X125.6Y-98.5
X125.7Y-31.9
X125.7Y-32.7
X126.4Y-64.3
X126.4Y-65.1
X126.4Y-97.7
X126.4Y-98.5
X126.5Y-31.9
X126.5Y-32.7
X126.8Y-63.6
X126.8Y-97.0
X126.9Y-31.2
X127.2Y-64.3
X127.2Y-65.1
X127.2Y-97.7
X127.2Y-98.5
X127.3Y-31.9
X127.3Y-32.7
X128.0Y-64.3
X128.0Y-65.1
X128.0Y-97.7
X128.0Y-98.5
X128.1Y-31.9
X128.1Y-32.7
X130.5Y-32.0
X130.5Y-32.8
X130.5Y-33.6
X130.5Y-34.4
X130.5Y-35.2
X130.5Y-36.0
X130.5Y-36.8
X130.5Y-37.6
X130.5Y-38.4
X130.5Y-39.2
X130.5Y-64.6
X130.5Y-65.4
X130.5Y-66.2
X130.5Y-67.0
X130.5Y-67.8
X130.5Y-68.6
X130.5Y-69.4
X130.5Y-70.2
X130.5Y-71.0
X130.5Y-71.8
X130.5Y-97.8
X130.5Y-98.6
X130.5Y-99.4
X130.5Y-100.2
X130.5Y-101.0
X130.5Y-101.8
X130.5Y-102.6
X130.5Y-103.4
X130.5Y-104.2
X130.5Y-105.0
X130.9Y-31.3
X130.9Y-39.9
X130.9Y-63.9
X130.9Y-72.5
X130.9Y-97.1
X130.9Y-105.7
X131.3Y-32.0
X131.3Y-32.8
X131.3Y-33.6
X131.3Y-34.4
X131.3Y-35.2
X131.3Y-36.0
X131.3Y-36.8
X131.3Y-37.6
X131.3Y-38.4
X131.3Y-39.2
X131.3Y-64.6
X131.3Y-65.4
X131.3Y-66.2
X131.3Y-67.0
X131.3Y-67.8
X131.3Y-68.6
X131.3Y-69.4
X131.3Y-70.2
X131.3Y-71.0
X131.3Y-71.8
X131.3Y-97.8
X131.3Y-98.6
X131.3Y-99.4
X131.3Y-100.2
X131.3Y-101.0
X131.3Y-101.8
X131.3Y-102.6
X131.3Y-103.4
X131.3Y-104.2
X131.3Y-105.0
X132.0Y-32.4
X132.0Y-34.0
X132.0Y-35.6
X132.0Y-37.2
X132.0Y-38.8
X132.0Y-65.0
X132.0Y-66.6
X132.0Y-68.2
X132.0Y-69.8
X132.0Y-71.4
X132.0Y-98.2
X132.0Y-99.8
X132.0Y-101.4
X132.0Y-103.0
X132.0Y-104.6
X142.95Y-39.4
X147.55Y-37.5
X149.8Y-36.95
X151.3Y-43.25
X158.55Y-174.75
T2
X163.1Y-26.2
X163.803Y-24.503
X163.803Y-27.897
X165.5Y-23.8
X165.5Y-28.6
X167.197Y-24.503
X167.197Y-27.897
X167.9Y-26.2
X80.6Y-26.2
X81.303Y-24.503
X81.303Y-27.897
X83.0Y-23.8
X83.0Y-28.6
X84.697Y-24.503
X84.697Y-27.897
X85.4Y-26.2
X80.6Y-166.0
X81.303Y-164.303
X81.303Y-167.697
X83.0Y-163.6
X83.0Y-168.4
X84.697Y-164.303
X84.697Y-167.697
X85.4Y-166.0
X163.1Y-166.2
X163.803Y-164.503
X163.803Y-167.897
X165.5Y-163.8
X165.5Y-168.6
X167.197Y-164.503
X167.197Y-167.897
X167.9Y-166.2
T3
X123.15Y-145.95
X139.6Y-35.8
X152.1Y-69.6
X152.1Y-70.7
X152.1Y-74.0
X152.4Y-32.2
X154.2Y-36.6
X155.3Y-132.3
X155.45Y-71.4
X157.6Y-56.2
X157.7Y-75.45
X159.7Y-75.45
X160.25Y-132.3
X161.65Y-48.1
X161.7Y-36.5
X161.7Y-41.0
X165.45Y-65.05
X168.0Y-53.8
X119.25Y-72.125
X119.25Y-73.625
X119.25Y-39.25
X119.25Y-40.75
X133.25Y-125.0
X133.25Y-126.5
X125.75Y-158.25
X130.75Y-159.45
X119.25Y-105.0
X119.25Y-106.5
X133.25Y-53.5
X133.25Y-55.0
X133.25Y-119.5
X133.25Y-121.0
X133.25Y-86.5
X133.25Y-88.0
T6
X125.73Y-131.19
X125.73Y-138.81
X128.27Y-131.19
X128.27Y-138.81
X147.75Y-146.5
X150.25Y-125.5
X150.25Y-146.5
X152.75Y-125.5
X152.75Y-146.5
X155.25Y-125.5
X155.25Y-146.5
X157.75Y-125.5
X157.75Y-146.5
X160.25Y-125.5
X160.25Y-146.5
X162.75Y-125.5
X142.75Y-87.25
X142.75Y-89.25
X142.75Y-91.25
X142.75Y-93.25
X142.75Y-95.25
X142.75Y-97.25
X142.75Y-99.25
X142.75Y-101.25
X142.75Y-103.25
X142.75Y-105.25
X142.75Y-107.25
X142.75Y-109.25
X142.75Y-111.25
X142.75Y-113.25
X142.75Y-115.25
X142.75Y-117.25
X167.15Y-87.25
X167.15Y-89.25
X167.15Y-91.25
X167.15Y-93.25
X167.15Y-95.25
X167.15Y-97.25
X167.15Y-99.25
X167.15Y-101.25
X167.15Y-103.25
X167.15Y-105.25
X167.15Y-107.25
X167.15Y-109.25
X167.15Y-111.25
X167.15Y-113.25
X167.15Y-115.25
X167.15Y-117.25
X124.5Y-165.25
X129.5Y-165.25
X155.75Y-32.25
X155.75Y-34.25
X136.0Y-32.75
X136.0Y-34.75
T7
X101.2Y-137.2
X102.6Y-137.2
X104.0Y-137.2
X115.3Y-99.1
X115.4Y-33.2
X115.4Y-66.2
X128.2Y-154.2
X136.25Y-79.1
X140.0Y-26.0
X151.8Y-26.0
X83.0Y-104.0
X83.0Y-124.0
X103.0Y-109.0
X103.0Y-119.0
X114.0Y-139.0
X119.0Y-139.0
X121.5Y-51.0
X121.5Y-56.0
X102.0Y-162.0
X107.08Y-162.01
X83.0Y-71.0
X83.0Y-91.0
X103.0Y-76.0
X103.0Y-86.0
X121.5Y-84.375
X121.5Y-89.375
X90.0Y-162.0
X95.08Y-162.01
X134.4Y-63.2
X134.4Y-65.8
X137.0Y-63.2
X137.0Y-65.8
X83.0Y-38.0
X83.0Y-58.0
X103.0Y-43.0
X103.0Y-53.0
X114.0Y-162.0
X119.08Y-162.01
X144.75Y-26.0
X147.25Y-26.0
X121.25Y-117.75
X121.25Y-122.75
T8
X144.89Y-152.75
X144.89Y-162.91
X144.89Y-165.45
X152.51Y-152.75
X152.51Y-162.91
X152.51Y-165.45
X142.19Y-46.4
X142.19Y-48.94
X142.19Y-59.1
X149.81Y-46.4
X149.81Y-48.94
X149.81Y-59.1
T9
X102.0Y-174.0
X107.0Y-174.0
X90.0Y-174.0
X95.0Y-174.0
X143.0Y-174.0
X148.0Y-174.0
X114.0Y-174.0
X119.0Y-174.0
X126.0Y-174.0
X131.0Y-174.0
T10
X165.5Y-166.2
X165.5Y-26.2
X83.0Y-26.2
X83.0Y-166.0
T4
G00X154.805Y-176.565
M15
G01X154.805Y-176.165
M16
G05
G00X159.645Y-176.565
M15
G01X159.645Y-176.165
M16
G05
T5
G00X154.495Y-179.615
M15
G01X154.495Y-179.115
M16
G05
G00X159.955Y-179.615
M15
G01X159.955Y-179.115
M16
G05
T0
M30
