G04 #@! TF.GenerationSoftware,KiCad,Pcbnew,(5.1.4)-1*
G04 #@! TF.CreationDate,2019-12-15T21:40:21+01:00*
G04 #@! TF.ProjectId,AcMonitoringSystem,41634d6f-6e69-4746-9f72-696e67537973,rev?*
G04 #@! TF.SameCoordinates,Original*
G04 #@! TF.FileFunction,Legend,Bot*
G04 #@! TF.FilePolarity,Positive*
%FSLAX46Y46*%
G04 Gerber Fmt 4.6, Leading zero omitted, Abs format (unit mm)*
G04 Created by KiCad (PCBNEW (5.1.4)-1) date 2019-12-15 21:40:21*
%MOMM*%
%LPD*%
G04 APERTURE LIST*
%ADD10C,0.400000*%
G04 APERTURE END LIST*
D10*
X107439047Y-25659523D02*
X107165238Y-25754761D01*
X106689047Y-25754761D01*
X106486666Y-25659523D01*
X106379523Y-25564285D01*
X106260476Y-25373809D01*
X106236666Y-25183333D01*
X106308095Y-24992857D01*
X106391428Y-24897619D01*
X106570000Y-24802380D01*
X106939047Y-24707142D01*
X107117619Y-24611904D01*
X107200952Y-24516666D01*
X107272380Y-24326190D01*
X107248571Y-24135714D01*
X107129523Y-23945238D01*
X107022380Y-23850000D01*
X106820000Y-23754761D01*
X106343809Y-23754761D01*
X106070000Y-23850000D01*
X104677142Y-25659523D02*
X104879523Y-25754761D01*
X105260476Y-25754761D01*
X105439047Y-25659523D01*
X105510476Y-25469047D01*
X105415238Y-24707142D01*
X105296190Y-24516666D01*
X105093809Y-24421428D01*
X104712857Y-24421428D01*
X104534285Y-24516666D01*
X104462857Y-24707142D01*
X104486666Y-24897619D01*
X105462857Y-25088095D01*
X103570000Y-24421428D02*
X103736666Y-25754761D01*
X103593809Y-24611904D02*
X103486666Y-24516666D01*
X103284285Y-24421428D01*
X102998571Y-24421428D01*
X102820000Y-24516666D01*
X102748571Y-24707142D01*
X102879523Y-25754761D01*
X102010476Y-25659523D02*
X101831904Y-25754761D01*
X101450952Y-25754761D01*
X101248571Y-25659523D01*
X101129523Y-25469047D01*
X101117619Y-25373809D01*
X101189047Y-25183333D01*
X101367619Y-25088095D01*
X101653333Y-25088095D01*
X101831904Y-24992857D01*
X101903333Y-24802380D01*
X101891428Y-24707142D01*
X101772380Y-24516666D01*
X101570000Y-24421428D01*
X101284285Y-24421428D01*
X101105714Y-24516666D01*
X99450952Y-25754761D02*
X99320000Y-24707142D01*
X99391428Y-24516666D01*
X99570000Y-24421428D01*
X99950952Y-24421428D01*
X100153333Y-24516666D01*
X99439047Y-25659523D02*
X99641428Y-25754761D01*
X100117619Y-25754761D01*
X100296190Y-25659523D01*
X100367619Y-25469047D01*
X100343809Y-25278571D01*
X100224761Y-25088095D01*
X100022380Y-24992857D01*
X99546190Y-24992857D01*
X99343809Y-24897619D01*
X95689047Y-23850000D02*
X95867619Y-23754761D01*
X96153333Y-23754761D01*
X96450952Y-23850000D01*
X96665238Y-24040476D01*
X96784285Y-24230952D01*
X96927142Y-24611904D01*
X96962857Y-24897619D01*
X96915238Y-25278571D01*
X96843809Y-25469047D01*
X96677142Y-25659523D01*
X96403333Y-25754761D01*
X96212857Y-25754761D01*
X95915238Y-25659523D01*
X95808095Y-25564285D01*
X95724761Y-24897619D01*
X96105714Y-24897619D01*
X94974761Y-25754761D02*
X94808095Y-24421428D01*
X94855714Y-24802380D02*
X94736666Y-24611904D01*
X94629523Y-24516666D01*
X94427142Y-24421428D01*
X94236666Y-24421428D01*
X93450952Y-25754761D02*
X93629523Y-25659523D01*
X93712857Y-25564285D01*
X93784285Y-25373809D01*
X93712857Y-24802380D01*
X93593809Y-24611904D01*
X93486666Y-24516666D01*
X93284285Y-24421428D01*
X92998571Y-24421428D01*
X92820000Y-24516666D01*
X92736666Y-24611904D01*
X92665238Y-24802380D01*
X92736666Y-25373809D01*
X92855714Y-25564285D01*
X92962857Y-25659523D01*
X93165238Y-25754761D01*
X93450952Y-25754761D01*
X90903333Y-24421428D02*
X91070000Y-25754761D01*
X91760476Y-24421428D02*
X91891428Y-25469047D01*
X91820000Y-25659523D01*
X91641428Y-25754761D01*
X91355714Y-25754761D01*
X91153333Y-25659523D01*
X91046190Y-25564285D01*
X89950952Y-24421428D02*
X90200952Y-26421428D01*
X89962857Y-24516666D02*
X89760476Y-24421428D01*
X89379523Y-24421428D01*
X89200952Y-24516666D01*
X89117619Y-24611904D01*
X89046190Y-24802380D01*
X89117619Y-25373809D01*
X89236666Y-25564285D01*
X89343809Y-25659523D01*
X89546190Y-25754761D01*
X89927142Y-25754761D01*
X90105714Y-25659523D01*
X97950952Y-28583333D02*
X96998571Y-28583333D01*
X98212857Y-29154761D02*
X97296190Y-27154761D01*
X96879523Y-29154761D01*
X96189047Y-28964285D02*
X96105714Y-29059523D01*
X96212857Y-29154761D01*
X96296190Y-29059523D01*
X96189047Y-28964285D01*
X96212857Y-29154761D01*
X93677142Y-27154761D02*
X93450952Y-29154761D01*
X92891428Y-27726190D01*
X92689047Y-29154761D01*
X91962857Y-27154761D01*
X90593809Y-29154761D02*
X90462857Y-28107142D01*
X90534285Y-27916666D01*
X90712857Y-27821428D01*
X91093809Y-27821428D01*
X91296190Y-27916666D01*
X90581904Y-29059523D02*
X90784285Y-29154761D01*
X91260476Y-29154761D01*
X91439047Y-29059523D01*
X91510476Y-28869047D01*
X91486666Y-28678571D01*
X91367619Y-28488095D01*
X91165238Y-28392857D01*
X90689047Y-28392857D01*
X90486666Y-28297619D01*
X89724761Y-29059523D02*
X89546190Y-29154761D01*
X89165238Y-29154761D01*
X88962857Y-29059523D01*
X88843809Y-28869047D01*
X88831904Y-28773809D01*
X88903333Y-28583333D01*
X89081904Y-28488095D01*
X89367619Y-28488095D01*
X89546190Y-28392857D01*
X89617619Y-28202380D01*
X89605714Y-28107142D01*
X89486666Y-27916666D01*
X89284285Y-27821428D01*
X88998571Y-27821428D01*
X88820000Y-27916666D01*
X88022380Y-29154761D02*
X87855714Y-27821428D01*
X87772380Y-27154761D02*
X87879523Y-27250000D01*
X87796190Y-27345238D01*
X87689047Y-27250000D01*
X87772380Y-27154761D01*
X87796190Y-27345238D01*
M02*
